G04 #@! TF.GenerationSoftware,KiCad,Pcbnew,(7.0.0)*
G04 #@! TF.CreationDate,2023-09-09T16:46:03-08:00*
G04 #@! TF.ProjectId,THINGY_2.0,5448494e-4759-45f3-922e-302e6b696361,rev?*
G04 #@! TF.SameCoordinates,Original*
G04 #@! TF.FileFunction,Copper,L2,Inr*
G04 #@! TF.FilePolarity,Positive*
%FSLAX46Y46*%
G04 Gerber Fmt 4.6, Leading zero omitted, Abs format (unit mm)*
G04 Created by KiCad (PCBNEW (7.0.0)) date 2023-09-09 16:46:03*
%MOMM*%
%LPD*%
G01*
G04 APERTURE LIST*
G04 #@! TA.AperFunction,ViaPad*
%ADD10C,0.250000*%
G04 #@! TD*
G04 #@! TA.AperFunction,ViaPad*
%ADD11C,0.520000*%
G04 #@! TD*
G04 #@! TA.AperFunction,ViaPad*
%ADD12C,0.600000*%
G04 #@! TD*
G04 #@! TA.AperFunction,ViaPad*
%ADD13C,0.800000*%
G04 #@! TD*
G04 #@! TA.AperFunction,Conductor*
%ADD14C,0.200000*%
G04 #@! TD*
G04 #@! TA.AperFunction,Conductor*
%ADD15C,0.203200*%
G04 #@! TD*
G04 #@! TA.AperFunction,Conductor*
%ADD16C,0.152400*%
G04 #@! TD*
G04 #@! TA.AperFunction,Conductor*
%ADD17C,0.134620*%
G04 #@! TD*
G04 APERTURE END LIST*
D10*
X117934964Y-81574600D03*
X117934964Y-81574600D03*
D11*
X121104964Y-84204600D03*
X114414964Y-75054600D03*
X113424964Y-76134600D03*
D10*
X117584964Y-82614600D03*
D11*
X117564964Y-75154600D03*
X124860164Y-86999400D03*
X114639964Y-87904600D03*
X122167764Y-85018200D03*
X124936364Y-82122600D03*
D12*
X115044964Y-76774600D03*
D11*
X124885564Y-88167800D03*
D12*
X124389964Y-72629600D03*
X125989964Y-73554600D03*
D10*
X115139964Y-81204600D03*
D11*
X114496964Y-89006000D03*
X118564964Y-80179600D03*
X130014964Y-82304600D03*
X110139964Y-81204600D03*
D12*
X123014964Y-75604600D03*
D11*
X117239964Y-85754600D03*
X129664964Y-78354600D03*
X124250564Y-81106600D03*
X130014964Y-83154600D03*
X114814964Y-84579600D03*
X121044964Y-85004600D03*
X121177164Y-79176200D03*
D12*
X122789964Y-76879600D03*
D11*
X116539964Y-81129600D03*
X121789964Y-71654600D03*
X116839964Y-75154600D03*
X119839964Y-77429600D03*
X117214764Y-87913800D03*
X124910964Y-89488600D03*
X125489964Y-81129600D03*
D12*
X125164964Y-73079600D03*
D11*
X111164964Y-78129600D03*
X115106564Y-86897800D03*
X110764964Y-84779600D03*
X114852564Y-85907200D03*
X112814964Y-85804600D03*
X116164964Y-81929600D03*
X117240164Y-86770800D03*
X113214964Y-87304600D03*
X116376564Y-89996600D03*
X119983364Y-84992800D03*
X120614964Y-71529600D03*
X118889964Y-84979600D03*
D10*
X117595764Y-80497000D03*
D11*
X117764964Y-71729600D03*
X117265564Y-90860200D03*
X123386964Y-85043600D03*
X129789964Y-79204600D03*
D10*
X117576600Y-81203800D03*
X120218200Y-80924400D03*
D12*
X128639964Y-85879600D03*
D11*
X118689964Y-71504600D03*
D12*
X127489964Y-85904600D03*
D11*
X115564964Y-73329600D03*
X122789964Y-71804600D03*
X111164964Y-83404600D03*
D12*
X128439964Y-86729600D03*
D10*
X115138200Y-79529600D03*
D11*
X115564964Y-72529600D03*
D10*
X115138200Y-80873600D03*
D12*
X127489964Y-86804600D03*
D11*
X115921000Y-77490636D03*
X113604964Y-88164600D03*
D10*
X115138200Y-82600800D03*
D11*
X110514964Y-83904600D03*
X118454964Y-79324600D03*
X117589964Y-84854600D03*
X114489964Y-77429600D03*
X121479364Y-78439600D03*
D10*
X115138200Y-82600800D03*
X115468400Y-80518000D03*
X115468400Y-80518000D03*
X115824000Y-80518000D03*
X115824000Y-80518000D03*
D13*
X126841364Y-75163000D03*
X127314964Y-76944600D03*
X127834964Y-75854600D03*
D10*
X116514964Y-83304600D03*
X119678564Y-84103800D03*
X116204964Y-82964600D03*
X119805564Y-83037000D03*
X113614200Y-81076800D03*
X115468400Y-82956400D03*
X115468400Y-82956400D03*
D11*
X113944964Y-79394600D03*
X127473714Y-88270850D03*
X125952364Y-89514000D03*
X127489964Y-80779600D03*
X120989964Y-76279600D03*
D10*
X117595764Y-82275000D03*
X120465964Y-72623000D03*
X117595764Y-82275000D03*
X122116964Y-73486600D03*
X117595764Y-81919400D03*
X117595764Y-81919400D03*
X120465964Y-73181800D03*
X121558164Y-74147000D03*
X114782600Y-82270600D03*
X114782600Y-82270600D03*
X117589964Y-82954600D03*
X114782600Y-82626200D03*
X114782600Y-82626200D03*
X117240164Y-82960800D03*
X117240164Y-82960800D03*
X116890800Y-80518000D03*
X112953800Y-81076800D03*
X115468400Y-80873600D03*
X115468400Y-80873600D03*
X114782600Y-81915000D03*
X114782600Y-81915000D03*
X113385600Y-80264000D03*
X114782600Y-81203800D03*
X114782600Y-81203800D03*
D11*
X125304664Y-86199300D03*
D10*
X115131964Y-82254600D03*
X115131964Y-82254600D03*
D14*
X120024964Y-81914600D02*
X120754964Y-81184600D01*
X116094964Y-76134600D02*
X113424964Y-76134600D01*
X120754964Y-80794600D02*
X116094964Y-76134600D01*
X120754964Y-81184600D02*
X120754964Y-80794600D01*
X117584964Y-82614600D02*
X117954964Y-82614600D01*
X117954964Y-82614600D02*
X118654964Y-81914600D01*
X118654964Y-81914600D02*
X120024964Y-81914600D01*
D15*
X118704964Y-82954600D02*
X117589964Y-82954600D01*
X120324964Y-82604600D02*
X119054964Y-82604600D01*
X119054964Y-82604600D02*
X118704964Y-82954600D01*
X116314964Y-75454600D02*
X121414964Y-80554600D01*
X121414964Y-81514600D02*
X120324964Y-82604600D01*
X114654964Y-75454600D02*
X116314964Y-75454600D01*
X114414964Y-75214600D02*
X114654964Y-75454600D01*
X114414964Y-75054600D02*
X114414964Y-75214600D01*
X121414964Y-80554600D02*
X121414964Y-81514600D01*
X117576600Y-81203800D02*
X118668800Y-81203800D01*
X118948200Y-80924400D02*
X120218200Y-80924400D01*
X118668800Y-81203800D02*
X118948200Y-80924400D01*
X117595764Y-80497000D02*
X118247564Y-80497000D01*
D16*
X115139964Y-81204600D02*
X115139964Y-81679600D01*
X115139964Y-81679600D02*
X115389964Y-81929600D01*
X115389964Y-81929600D02*
X116164964Y-81929600D01*
D15*
X118247564Y-80497000D02*
X118564964Y-80179600D01*
X115138200Y-80873600D02*
X115138200Y-79502000D01*
D17*
X116986164Y-84256200D02*
X116514964Y-83785000D01*
X119678564Y-84103800D02*
X119526164Y-84256200D01*
X116514964Y-83785000D02*
X116514964Y-83304600D01*
X119526164Y-84256200D02*
X116986164Y-84256200D01*
X116688764Y-82903400D02*
X116241164Y-82903400D01*
X119805564Y-83037000D02*
X119187964Y-83654600D01*
X119187964Y-83654600D02*
X117439964Y-83654600D01*
X117439964Y-83654600D02*
X116688764Y-82903400D01*
D15*
X113792000Y-82499200D02*
X114350800Y-83058000D01*
X114350800Y-83058000D02*
X115366800Y-83058000D01*
X115366800Y-83058000D02*
X115468400Y-82956400D01*
X113614200Y-81076800D02*
X113792000Y-81254600D01*
X113792000Y-81254600D02*
X113792000Y-82499200D01*
D17*
X127489964Y-79304600D02*
X127489964Y-80779600D01*
X127239964Y-79054600D02*
X127489964Y-79304600D01*
X120989964Y-77058600D02*
X122985964Y-79054600D01*
X120989964Y-76279600D02*
X120989964Y-77058600D01*
X122985964Y-79054600D02*
X127239964Y-79054600D01*
D15*
X122116964Y-73004000D02*
X121735964Y-72623000D01*
X122116964Y-73486600D02*
X122116964Y-73004000D01*
X121735964Y-72623000D02*
X120465964Y-72623000D01*
X121558164Y-73410400D02*
X121329564Y-73181800D01*
X121329564Y-73181800D02*
X120465964Y-73181800D01*
X121558164Y-74147000D02*
X121558164Y-73410400D01*
X116230400Y-78232000D02*
X113461800Y-78232000D01*
X116452764Y-80079964D02*
X116452764Y-78454364D01*
X113461800Y-78232000D02*
X112953800Y-78740000D01*
X112953800Y-78740000D02*
X112953800Y-81076800D01*
X116452764Y-78454364D02*
X116230400Y-78232000D01*
X116890800Y-80518000D02*
X116452764Y-80079964D01*
X114452400Y-81915000D02*
X114249200Y-81711800D01*
X114782600Y-81915000D02*
X114452400Y-81915000D01*
X114249200Y-81711800D02*
X114249200Y-80797400D01*
X114249200Y-80797400D02*
X113715800Y-80264000D01*
X113715800Y-80264000D02*
X113385600Y-80264000D01*
G04 #@! TA.AperFunction,Conductor*
G36*
X120460929Y-70982512D02*
G01*
X120520050Y-70986158D01*
X121095554Y-71021654D01*
X121098527Y-71021929D01*
X121729578Y-71100071D01*
X121732521Y-71100528D01*
X122357558Y-71217367D01*
X122360475Y-71218006D01*
X122613039Y-71281529D01*
X122639433Y-71298544D01*
X122650078Y-71328088D01*
X122640600Y-71358027D01*
X122614894Y-71376064D01*
X122600057Y-71380420D01*
X122600052Y-71380421D01*
X122596698Y-71381407D01*
X122593755Y-71383297D01*
X122593749Y-71383301D01*
X122488248Y-71451104D01*
X122488246Y-71451105D01*
X122485300Y-71452999D01*
X122483009Y-71455641D01*
X122483004Y-71455647D01*
X122400878Y-71550425D01*
X122400874Y-71550430D01*
X122398583Y-71553075D01*
X122397126Y-71556264D01*
X122397126Y-71556265D01*
X122396137Y-71558432D01*
X122343574Y-71673528D01*
X122343075Y-71676993D01*
X122343075Y-71676996D01*
X122331318Y-71758774D01*
X122324729Y-71804600D01*
X122343574Y-71935672D01*
X122398583Y-72056125D01*
X122400876Y-72058772D01*
X122400878Y-72058774D01*
X122483004Y-72153552D01*
X122483006Y-72153554D01*
X122485300Y-72156201D01*
X122596698Y-72227793D01*
X122723754Y-72265100D01*
X122852670Y-72265100D01*
X122856174Y-72265100D01*
X122983230Y-72227793D01*
X123094628Y-72156201D01*
X123181345Y-72056125D01*
X123236354Y-71935672D01*
X123255199Y-71804600D01*
X123236354Y-71673528D01*
X123181345Y-71553075D01*
X123157640Y-71525718D01*
X123145778Y-71496852D01*
X123153750Y-71466679D01*
X123178322Y-71447438D01*
X123209524Y-71446936D01*
X123585915Y-71566674D01*
X123588754Y-71567675D01*
X124181642Y-71797361D01*
X124184421Y-71798537D01*
X124762043Y-72064285D01*
X124764745Y-72065630D01*
X125324924Y-72366439D01*
X125327537Y-72367948D01*
X125868120Y-72702663D01*
X125870636Y-72704330D01*
X126085902Y-72856713D01*
X126389609Y-73071703D01*
X126392001Y-73073510D01*
X126884104Y-73469505D01*
X126887364Y-73472128D01*
X126889652Y-73474089D01*
X126979318Y-73555830D01*
X127359522Y-73902432D01*
X127361689Y-73904532D01*
X127804325Y-74361015D01*
X127806358Y-74363246D01*
X128220029Y-74846085D01*
X128221921Y-74848436D01*
X128605096Y-75355842D01*
X128606839Y-75358305D01*
X128958041Y-75888321D01*
X128959630Y-75890887D01*
X129114997Y-76159990D01*
X129266280Y-76422020D01*
X129277543Y-76441527D01*
X129278967Y-76444178D01*
X129298573Y-76483552D01*
X129562386Y-77013361D01*
X129563647Y-77016103D01*
X129811474Y-77601618D01*
X129812565Y-77604432D01*
X130023892Y-78204134D01*
X130024806Y-78207009D01*
X130198802Y-78818540D01*
X130199539Y-78821467D01*
X130293468Y-79250360D01*
X130334042Y-79435631D01*
X130335567Y-79442592D01*
X130336121Y-79445559D01*
X130433650Y-80073847D01*
X130434021Y-80076842D01*
X130492687Y-80709953D01*
X130492873Y-80712965D01*
X130512453Y-81348490D01*
X130512453Y-81351508D01*
X130492873Y-81987034D01*
X130492687Y-81990046D01*
X130434021Y-82623157D01*
X130433650Y-82626152D01*
X130336121Y-83254440D01*
X130335567Y-83257407D01*
X130199539Y-83878532D01*
X130198802Y-83881459D01*
X130024806Y-84492990D01*
X130023892Y-84495865D01*
X129812565Y-85095567D01*
X129811474Y-85098381D01*
X129563647Y-85683896D01*
X129562386Y-85686638D01*
X129278971Y-86255813D01*
X129277543Y-86258472D01*
X129028346Y-86690092D01*
X129006266Y-86710164D01*
X128976637Y-86713706D01*
X128950448Y-86699406D01*
X128937410Y-86672567D01*
X128925129Y-86587143D01*
X128865341Y-86456227D01*
X128863048Y-86453581D01*
X128863047Y-86453579D01*
X128831085Y-86416694D01*
X128819339Y-86389264D01*
X128825682Y-86360106D01*
X128847467Y-86340301D01*
X128850017Y-86339553D01*
X128971092Y-86261743D01*
X129065341Y-86152973D01*
X129125129Y-86022057D01*
X129145611Y-85879600D01*
X129125129Y-85737143D01*
X129065341Y-85606227D01*
X128971092Y-85497457D01*
X128968143Y-85495562D01*
X128968140Y-85495559D01*
X128852966Y-85421542D01*
X128852964Y-85421541D01*
X128850017Y-85419647D01*
X128846657Y-85418660D01*
X128846654Y-85418659D01*
X128715287Y-85380087D01*
X128715285Y-85380086D01*
X128711925Y-85379100D01*
X128568003Y-85379100D01*
X128564643Y-85380086D01*
X128564640Y-85380087D01*
X128433273Y-85418659D01*
X128433267Y-85418661D01*
X128429911Y-85419647D01*
X128426965Y-85421539D01*
X128426961Y-85421542D01*
X128311787Y-85495559D01*
X128311780Y-85495564D01*
X128308836Y-85497457D01*
X128306542Y-85500104D01*
X128306539Y-85500107D01*
X128216880Y-85603579D01*
X128216875Y-85603585D01*
X128214587Y-85606227D01*
X128213133Y-85609409D01*
X128213132Y-85609412D01*
X128156255Y-85733953D01*
X128156253Y-85733958D01*
X128154799Y-85737143D01*
X128154300Y-85740609D01*
X128154299Y-85740615D01*
X128138523Y-85850347D01*
X128134317Y-85879600D01*
X128134816Y-85883071D01*
X128154299Y-86018584D01*
X128154300Y-86018588D01*
X128154799Y-86022057D01*
X128156254Y-86025243D01*
X128156255Y-86025246D01*
X128211177Y-86145506D01*
X128214587Y-86152973D01*
X128216878Y-86155617D01*
X128216880Y-86155620D01*
X128248842Y-86192505D01*
X128260588Y-86219933D01*
X128254248Y-86249089D01*
X128232462Y-86268897D01*
X128229911Y-86269647D01*
X128226965Y-86271539D01*
X128226961Y-86271542D01*
X128111787Y-86345559D01*
X128111780Y-86345564D01*
X128108836Y-86347457D01*
X128106542Y-86350104D01*
X128106539Y-86350107D01*
X128016880Y-86453579D01*
X128016875Y-86453585D01*
X128014587Y-86456227D01*
X128013135Y-86459404D01*
X128013131Y-86459412D01*
X127989576Y-86510991D01*
X127967457Y-86534188D01*
X127935730Y-86538749D01*
X127907972Y-86522723D01*
X127897806Y-86510991D01*
X127821092Y-86422457D01*
X127779643Y-86395819D01*
X127759831Y-86370626D01*
X127759831Y-86338574D01*
X127779643Y-86313380D01*
X127821092Y-86286743D01*
X127915341Y-86177973D01*
X127975129Y-86047057D01*
X127995611Y-85904600D01*
X127975129Y-85762143D01*
X127915341Y-85631227D01*
X127896438Y-85609412D01*
X127823388Y-85525107D01*
X127821092Y-85522457D01*
X127818143Y-85520562D01*
X127818140Y-85520559D01*
X127702966Y-85446542D01*
X127702964Y-85446541D01*
X127700017Y-85444647D01*
X127696657Y-85443660D01*
X127696654Y-85443659D01*
X127565287Y-85405087D01*
X127565285Y-85405086D01*
X127561925Y-85404100D01*
X127418003Y-85404100D01*
X127414643Y-85405086D01*
X127414640Y-85405087D01*
X127283273Y-85443659D01*
X127283267Y-85443661D01*
X127279911Y-85444647D01*
X127276965Y-85446539D01*
X127276961Y-85446542D01*
X127161787Y-85520559D01*
X127161780Y-85520564D01*
X127158836Y-85522457D01*
X127156542Y-85525104D01*
X127156539Y-85525107D01*
X127066880Y-85628579D01*
X127066875Y-85628585D01*
X127064587Y-85631227D01*
X127063133Y-85634409D01*
X127063132Y-85634412D01*
X127006255Y-85758953D01*
X127006253Y-85758958D01*
X127004799Y-85762143D01*
X127004300Y-85765609D01*
X127004299Y-85765615D01*
X127000221Y-85793981D01*
X126984317Y-85904600D01*
X126984816Y-85908071D01*
X127004299Y-86043584D01*
X127004300Y-86043588D01*
X127004799Y-86047057D01*
X127006254Y-86050243D01*
X127006255Y-86050246D01*
X127016051Y-86071696D01*
X127064587Y-86177973D01*
X127066878Y-86180617D01*
X127066880Y-86180620D01*
X127138817Y-86263640D01*
X127158836Y-86286743D01*
X127200284Y-86313380D01*
X127220096Y-86338572D01*
X127220096Y-86370624D01*
X127200283Y-86395820D01*
X127173590Y-86412974D01*
X127158836Y-86422457D01*
X127156542Y-86425104D01*
X127156539Y-86425107D01*
X127066880Y-86528579D01*
X127066875Y-86528585D01*
X127064587Y-86531227D01*
X127063133Y-86534409D01*
X127063132Y-86534412D01*
X127006255Y-86658953D01*
X127006253Y-86658958D01*
X127004799Y-86662143D01*
X127004300Y-86665609D01*
X127004299Y-86665615D01*
X126997385Y-86713706D01*
X126984317Y-86804600D01*
X126984816Y-86808071D01*
X127004299Y-86943584D01*
X127004300Y-86943588D01*
X127004799Y-86947057D01*
X127006254Y-86950243D01*
X127006255Y-86950246D01*
X127030335Y-87002973D01*
X127064587Y-87077973D01*
X127066878Y-87080617D01*
X127066880Y-87080620D01*
X127095492Y-87113640D01*
X127158836Y-87186743D01*
X127161784Y-87188638D01*
X127161787Y-87188640D01*
X127226301Y-87230100D01*
X127279911Y-87264553D01*
X127418003Y-87305100D01*
X127558421Y-87305100D01*
X127561925Y-87305100D01*
X127700017Y-87264553D01*
X127821092Y-87186743D01*
X127915341Y-87077973D01*
X127940351Y-87023208D01*
X127962470Y-87000011D01*
X127994196Y-86995450D01*
X128021954Y-87011475D01*
X128108836Y-87111743D01*
X128111784Y-87113638D01*
X128111787Y-87113640D01*
X128200261Y-87170498D01*
X128229911Y-87189553D01*
X128368003Y-87230100D01*
X128508421Y-87230100D01*
X128511925Y-87230100D01*
X128592776Y-87206360D01*
X128622217Y-87206937D01*
X128646011Y-87224286D01*
X128655564Y-87252140D01*
X128647427Y-87280441D01*
X128606832Y-87341705D01*
X128605088Y-87344168D01*
X128221921Y-87851563D01*
X128220029Y-87853914D01*
X127989145Y-88123403D01*
X127961387Y-88139603D01*
X127929562Y-88135118D01*
X127907362Y-88111879D01*
X127865095Y-88019325D01*
X127862799Y-88016675D01*
X127780673Y-87921897D01*
X127780671Y-87921895D01*
X127778378Y-87919249D01*
X127745752Y-87898281D01*
X127669928Y-87849551D01*
X127669924Y-87849549D01*
X127666980Y-87847657D01*
X127663620Y-87846670D01*
X127663617Y-87846669D01*
X127543286Y-87811337D01*
X127543284Y-87811336D01*
X127539924Y-87810350D01*
X127407504Y-87810350D01*
X127404144Y-87811336D01*
X127404141Y-87811337D01*
X127283810Y-87846669D01*
X127283804Y-87846671D01*
X127280448Y-87847657D01*
X127277505Y-87849547D01*
X127277499Y-87849551D01*
X127171998Y-87917354D01*
X127171996Y-87917355D01*
X127169050Y-87919249D01*
X127166759Y-87921891D01*
X127166754Y-87921897D01*
X127084628Y-88016675D01*
X127084624Y-88016680D01*
X127082333Y-88019325D01*
X127027324Y-88139778D01*
X127026825Y-88143243D01*
X127026825Y-88143246D01*
X127008978Y-88267379D01*
X127008479Y-88270850D01*
X127027324Y-88401922D01*
X127082333Y-88522375D01*
X127084626Y-88525022D01*
X127084628Y-88525024D01*
X127166754Y-88619802D01*
X127166756Y-88619804D01*
X127169050Y-88622451D01*
X127280448Y-88694043D01*
X127283810Y-88695030D01*
X127283812Y-88695031D01*
X127307724Y-88702052D01*
X127342368Y-88712224D01*
X127369002Y-88731567D01*
X127377387Y-88763397D01*
X127363740Y-88793351D01*
X127361687Y-88795468D01*
X127359522Y-88797567D01*
X126889656Y-89225907D01*
X126887364Y-89227871D01*
X126496424Y-89542459D01*
X126464516Y-89553270D01*
X126433170Y-89540924D01*
X126417204Y-89511258D01*
X126398754Y-89382928D01*
X126343745Y-89262475D01*
X126341449Y-89259825D01*
X126259323Y-89165047D01*
X126259321Y-89165045D01*
X126257028Y-89162399D01*
X126224402Y-89141431D01*
X126148578Y-89092701D01*
X126148574Y-89092699D01*
X126145630Y-89090807D01*
X126142270Y-89089820D01*
X126142267Y-89089819D01*
X126021936Y-89054487D01*
X126021934Y-89054486D01*
X126018574Y-89053500D01*
X125886154Y-89053500D01*
X125882794Y-89054486D01*
X125882791Y-89054487D01*
X125762460Y-89089819D01*
X125762454Y-89089821D01*
X125759098Y-89090807D01*
X125756155Y-89092697D01*
X125756149Y-89092701D01*
X125650648Y-89160504D01*
X125650646Y-89160505D01*
X125647700Y-89162399D01*
X125645409Y-89165041D01*
X125645404Y-89165047D01*
X125563278Y-89259825D01*
X125563274Y-89259830D01*
X125560983Y-89262475D01*
X125505974Y-89382928D01*
X125505475Y-89386393D01*
X125505475Y-89386396D01*
X125487628Y-89510529D01*
X125487129Y-89514000D01*
X125505974Y-89645072D01*
X125560983Y-89765525D01*
X125563276Y-89768172D01*
X125563278Y-89768174D01*
X125645404Y-89862952D01*
X125645406Y-89862954D01*
X125647700Y-89865601D01*
X125759098Y-89937193D01*
X125793659Y-89947341D01*
X125822426Y-89970094D01*
X125827340Y-90006441D01*
X125805649Y-90036017D01*
X125327537Y-90332051D01*
X125324924Y-90333560D01*
X124764745Y-90634369D01*
X124762043Y-90635714D01*
X124569911Y-90724108D01*
X124537633Y-90727151D01*
X124510520Y-90709374D01*
X124500442Y-90678559D01*
X124501360Y-90635081D01*
X124594942Y-86199300D01*
X124839429Y-86199300D01*
X124839928Y-86202771D01*
X124855830Y-86313378D01*
X124858274Y-86330372D01*
X124913283Y-86450825D01*
X124915576Y-86453472D01*
X124915578Y-86453474D01*
X124997704Y-86548252D01*
X124997706Y-86548254D01*
X125000000Y-86550901D01*
X125078772Y-86601525D01*
X125092467Y-86610327D01*
X125111398Y-86622493D01*
X125238454Y-86659800D01*
X125367370Y-86659800D01*
X125370874Y-86659800D01*
X125497930Y-86622493D01*
X125609328Y-86550901D01*
X125696045Y-86450825D01*
X125751054Y-86330372D01*
X125769899Y-86199300D01*
X125751054Y-86068228D01*
X125696045Y-85947775D01*
X125661641Y-85908071D01*
X125611623Y-85850347D01*
X125611621Y-85850345D01*
X125609328Y-85847699D01*
X125576702Y-85826731D01*
X125500878Y-85778001D01*
X125500874Y-85777999D01*
X125497930Y-85776107D01*
X125494570Y-85775120D01*
X125494567Y-85775119D01*
X125374236Y-85739787D01*
X125374234Y-85739786D01*
X125370874Y-85738800D01*
X125238454Y-85738800D01*
X125235094Y-85739786D01*
X125235091Y-85739787D01*
X125114760Y-85775119D01*
X125114754Y-85775121D01*
X125111398Y-85776107D01*
X125108455Y-85777997D01*
X125108449Y-85778001D01*
X125002948Y-85845804D01*
X125002946Y-85845805D01*
X125000000Y-85847699D01*
X124997709Y-85850341D01*
X124997704Y-85850347D01*
X124915578Y-85945125D01*
X124915574Y-85945130D01*
X124913283Y-85947775D01*
X124911826Y-85950964D01*
X124911826Y-85950965D01*
X124869529Y-86043584D01*
X124858274Y-86068228D01*
X124839429Y-86199300D01*
X124594942Y-86199300D01*
X124612400Y-85371800D01*
X117801432Y-85371800D01*
X117786096Y-85366389D01*
X117783760Y-85371800D01*
X117779800Y-85371800D01*
X117779608Y-85381414D01*
X117779608Y-85381416D01*
X117660612Y-91355001D01*
X117651530Y-91382456D01*
X117628548Y-91400009D01*
X117599670Y-91401545D01*
X117302890Y-91326902D01*
X117299988Y-91326076D01*
X116694092Y-91133327D01*
X116691245Y-91132324D01*
X116098357Y-90902638D01*
X116095578Y-90901462D01*
X115517956Y-90635714D01*
X115515254Y-90634369D01*
X114955075Y-90333560D01*
X114952462Y-90332051D01*
X114411879Y-89997336D01*
X114409363Y-89995669D01*
X113890398Y-89628302D01*
X113887990Y-89626483D01*
X113783573Y-89542459D01*
X113392633Y-89227869D01*
X113390343Y-89225907D01*
X112920477Y-88797567D01*
X112918310Y-88795467D01*
X112475674Y-88338984D01*
X112473641Y-88336753D01*
X112326149Y-88164600D01*
X113139729Y-88164600D01*
X113140228Y-88168071D01*
X113144065Y-88194762D01*
X113158574Y-88295672D01*
X113213583Y-88416125D01*
X113215876Y-88418772D01*
X113215878Y-88418774D01*
X113298004Y-88513552D01*
X113298006Y-88513554D01*
X113300300Y-88516201D01*
X113411698Y-88587793D01*
X113538754Y-88625100D01*
X113667670Y-88625100D01*
X113671174Y-88625100D01*
X113798230Y-88587793D01*
X113909628Y-88516201D01*
X113996345Y-88416125D01*
X114051354Y-88295672D01*
X114070199Y-88164600D01*
X114051354Y-88033528D01*
X113996345Y-87913075D01*
X113994049Y-87910425D01*
X113911923Y-87815647D01*
X113911921Y-87815645D01*
X113909628Y-87812999D01*
X113877002Y-87792031D01*
X113801178Y-87743301D01*
X113801174Y-87743299D01*
X113798230Y-87741407D01*
X113794870Y-87740420D01*
X113794867Y-87740419D01*
X113674536Y-87705087D01*
X113674534Y-87705086D01*
X113671174Y-87704100D01*
X113538754Y-87704100D01*
X113535394Y-87705086D01*
X113535391Y-87705087D01*
X113415060Y-87740419D01*
X113415054Y-87740421D01*
X113411698Y-87741407D01*
X113408755Y-87743297D01*
X113408749Y-87743301D01*
X113303248Y-87811104D01*
X113303246Y-87811105D01*
X113300300Y-87812999D01*
X113298009Y-87815641D01*
X113298004Y-87815647D01*
X113215878Y-87910425D01*
X113215874Y-87910430D01*
X113213583Y-87913075D01*
X113212126Y-87916264D01*
X113212126Y-87916265D01*
X113163604Y-88022514D01*
X113158574Y-88033528D01*
X113139729Y-88164600D01*
X112326149Y-88164600D01*
X112059970Y-87853914D01*
X112058078Y-87851563D01*
X111674903Y-87344157D01*
X111673160Y-87341694D01*
X111321958Y-86811678D01*
X111320369Y-86809112D01*
X111251653Y-86690092D01*
X111002445Y-86258453D01*
X111001038Y-86255832D01*
X110717610Y-85686631D01*
X110716352Y-85683896D01*
X110468520Y-85098369D01*
X110467434Y-85095567D01*
X110429831Y-84988858D01*
X110256104Y-84495857D01*
X110255193Y-84492989D01*
X110218287Y-84363278D01*
X110219022Y-84334102D01*
X110236216Y-84310519D01*
X110263770Y-84300897D01*
X110291908Y-84308648D01*
X110303744Y-84316255D01*
X110321698Y-84327793D01*
X110448754Y-84365100D01*
X110577670Y-84365100D01*
X110581174Y-84365100D01*
X110708230Y-84327793D01*
X110819628Y-84256201D01*
X110906345Y-84156125D01*
X110961354Y-84035672D01*
X110980199Y-83904600D01*
X110979700Y-83901129D01*
X110979700Y-83897627D01*
X110980832Y-83897627D01*
X110985956Y-83871015D01*
X111010180Y-83850020D01*
X111042199Y-83848494D01*
X111098754Y-83865100D01*
X111227670Y-83865100D01*
X111231174Y-83865100D01*
X111358230Y-83827793D01*
X111469628Y-83756201D01*
X111556345Y-83656125D01*
X111611354Y-83535672D01*
X111630199Y-83404600D01*
X111611354Y-83273528D01*
X111556345Y-83153075D01*
X111554049Y-83150425D01*
X111471923Y-83055647D01*
X111471921Y-83055645D01*
X111469628Y-83052999D01*
X111418311Y-83020019D01*
X111361178Y-82983301D01*
X111361174Y-82983299D01*
X111358230Y-82981407D01*
X111354870Y-82980420D01*
X111354867Y-82980419D01*
X111234536Y-82945087D01*
X111234534Y-82945086D01*
X111231174Y-82944100D01*
X111098754Y-82944100D01*
X111095394Y-82945086D01*
X111095391Y-82945087D01*
X110975060Y-82980419D01*
X110975054Y-82980421D01*
X110971698Y-82981407D01*
X110968755Y-82983297D01*
X110968749Y-82983301D01*
X110863248Y-83051104D01*
X110863246Y-83051105D01*
X110860300Y-83052999D01*
X110858009Y-83055641D01*
X110858004Y-83055647D01*
X110775878Y-83150425D01*
X110775874Y-83150430D01*
X110773583Y-83153075D01*
X110772126Y-83156264D01*
X110772126Y-83156265D01*
X110724910Y-83259655D01*
X110718574Y-83273528D01*
X110718075Y-83276993D01*
X110718075Y-83276996D01*
X110705571Y-83363965D01*
X110699729Y-83404600D01*
X110700228Y-83408071D01*
X110700228Y-83411573D01*
X110699099Y-83411573D01*
X110693964Y-83438195D01*
X110669741Y-83459181D01*
X110637727Y-83460705D01*
X110584536Y-83445087D01*
X110584534Y-83445086D01*
X110581174Y-83444100D01*
X110448754Y-83444100D01*
X110445394Y-83445086D01*
X110445391Y-83445087D01*
X110325060Y-83480419D01*
X110325054Y-83480421D01*
X110321698Y-83481407D01*
X110318755Y-83483297D01*
X110318749Y-83483301D01*
X110213248Y-83551104D01*
X110213246Y-83551105D01*
X110210300Y-83552999D01*
X110208009Y-83555641D01*
X110208004Y-83555647D01*
X110125878Y-83650425D01*
X110125874Y-83650430D01*
X110123583Y-83653075D01*
X110122129Y-83656258D01*
X110122125Y-83656265D01*
X110122079Y-83656368D01*
X110122015Y-83656437D01*
X110120233Y-83659211D01*
X110119758Y-83658906D01*
X110101768Y-83678582D01*
X110072303Y-83684731D01*
X110044802Y-83672495D01*
X110029643Y-83646491D01*
X110005373Y-83535672D01*
X109944427Y-83257381D01*
X109943883Y-83254466D01*
X109846346Y-82626127D01*
X109845981Y-82623183D01*
X109787310Y-81990028D01*
X109787127Y-81987053D01*
X109767546Y-81351493D01*
X109767546Y-81348507D01*
X109775917Y-81076800D01*
X112623279Y-81076800D01*
X112643212Y-81189845D01*
X112700606Y-81289255D01*
X112703888Y-81292009D01*
X112703890Y-81292011D01*
X112750818Y-81331388D01*
X112788539Y-81363040D01*
X112896406Y-81402300D01*
X113006905Y-81402300D01*
X113011194Y-81402300D01*
X113119061Y-81363040D01*
X113206994Y-81289255D01*
X113241565Y-81229374D01*
X113267241Y-81207830D01*
X113300759Y-81207830D01*
X113326434Y-81229374D01*
X113361006Y-81289255D01*
X113364288Y-81292009D01*
X113364290Y-81292011D01*
X113383442Y-81308081D01*
X113448939Y-81363040D01*
X113457659Y-81366213D01*
X113481038Y-81384152D01*
X113489900Y-81412258D01*
X113489900Y-82442988D01*
X113489430Y-82449758D01*
X113489055Y-82452438D01*
X113487614Y-82456740D01*
X113487823Y-82461269D01*
X113487823Y-82461273D01*
X113489848Y-82505062D01*
X113489900Y-82507325D01*
X113489900Y-82527193D01*
X113490313Y-82529407D01*
X113490315Y-82529419D01*
X113490565Y-82530753D01*
X113491347Y-82537492D01*
X113492830Y-82569564D01*
X113494663Y-82573715D01*
X113499189Y-82583966D01*
X113502528Y-82594749D01*
X113505421Y-82610221D01*
X113521128Y-82635590D01*
X113522319Y-82637513D01*
X113525481Y-82643513D01*
X113530027Y-82653808D01*
X113538451Y-82672885D01*
X113541662Y-82676096D01*
X113541663Y-82676097D01*
X113549577Y-82684011D01*
X113556589Y-82692863D01*
X113562487Y-82702389D01*
X113562489Y-82702392D01*
X113564878Y-82706249D01*
X113570269Y-82710320D01*
X113590498Y-82725596D01*
X113595617Y-82730051D01*
X114097433Y-83231867D01*
X114101888Y-83236986D01*
X114103519Y-83239146D01*
X114105543Y-83243210D01*
X114108895Y-83246266D01*
X114108897Y-83246268D01*
X114141296Y-83275803D01*
X114142932Y-83277366D01*
X114156977Y-83291411D01*
X114159964Y-83293457D01*
X114165274Y-83297661D01*
X114189010Y-83319300D01*
X114193244Y-83320940D01*
X114203686Y-83324985D01*
X114213679Y-83330252D01*
X114226662Y-83339146D01*
X114257915Y-83346496D01*
X114264391Y-83348501D01*
X114294328Y-83360100D01*
X114310065Y-83360100D01*
X114321284Y-83361402D01*
X114336607Y-83365006D01*
X114368405Y-83360570D01*
X114375176Y-83360100D01*
X115310588Y-83360100D01*
X115317358Y-83360570D01*
X115320036Y-83360943D01*
X115324340Y-83362386D01*
X115372662Y-83360151D01*
X115374925Y-83360100D01*
X115392529Y-83360100D01*
X115394793Y-83360100D01*
X115398351Y-83359434D01*
X115405087Y-83358652D01*
X115437164Y-83357170D01*
X115451562Y-83350812D01*
X115462355Y-83347470D01*
X115477821Y-83344579D01*
X115505118Y-83327677D01*
X115511098Y-83324524D01*
X115540485Y-83311549D01*
X115551613Y-83300420D01*
X115560467Y-83293407D01*
X115563691Y-83291411D01*
X115573849Y-83285122D01*
X115586686Y-83268121D01*
X115609032Y-83251603D01*
X115633661Y-83242640D01*
X115721594Y-83168855D01*
X115778988Y-83069445D01*
X115787703Y-83020018D01*
X115804462Y-82990992D01*
X115835959Y-82979528D01*
X115867456Y-82990992D01*
X115884214Y-83020018D01*
X115894376Y-83077645D01*
X115936176Y-83150045D01*
X115938106Y-83153389D01*
X115951770Y-83177055D01*
X115955052Y-83179809D01*
X115955054Y-83179811D01*
X115960181Y-83184113D01*
X116039703Y-83250840D01*
X116147570Y-83290100D01*
X116150007Y-83290100D01*
X116175198Y-83303213D01*
X116188807Y-83329353D01*
X116196426Y-83372558D01*
X116204376Y-83417645D01*
X116225281Y-83453853D01*
X116240589Y-83480368D01*
X116247154Y-83504868D01*
X116247154Y-83753797D01*
X116246212Y-83763356D01*
X116241908Y-83785000D01*
X116242849Y-83789731D01*
X116247154Y-83811375D01*
X116247153Y-83811375D01*
X116247154Y-83811379D01*
X116254375Y-83847680D01*
X116261750Y-83884762D01*
X116261751Y-83884764D01*
X116262692Y-83889495D01*
X116276436Y-83910064D01*
X116305176Y-83953075D01*
X116307307Y-83956265D01*
X116321884Y-83978080D01*
X116325895Y-83980760D01*
X116325896Y-83980761D01*
X116340232Y-83990340D01*
X116347658Y-83996434D01*
X116774727Y-84423504D01*
X116780820Y-84430928D01*
X116790399Y-84445264D01*
X116790403Y-84445268D01*
X116793084Y-84449280D01*
X116815442Y-84464219D01*
X116815446Y-84464223D01*
X116860686Y-84494451D01*
X116881670Y-84508472D01*
X116959785Y-84524010D01*
X116959230Y-84526795D01*
X116959235Y-84526797D01*
X116959790Y-84524010D01*
X116973801Y-84526797D01*
X116986164Y-84529256D01*
X116998527Y-84526797D01*
X117007807Y-84524951D01*
X117017366Y-84524010D01*
X117160251Y-84524010D01*
X117192339Y-84535978D01*
X117208752Y-84566036D01*
X117201473Y-84599501D01*
X117200878Y-84600425D01*
X117198583Y-84603075D01*
X117197126Y-84606264D01*
X117197126Y-84606265D01*
X117187295Y-84627793D01*
X117143574Y-84723528D01*
X117124729Y-84854600D01*
X117143574Y-84985672D01*
X117198583Y-85106125D01*
X117200876Y-85108772D01*
X117200878Y-85108774D01*
X117283004Y-85203552D01*
X117283006Y-85203554D01*
X117285300Y-85206201D01*
X117396698Y-85277793D01*
X117523754Y-85315100D01*
X117652670Y-85315100D01*
X117656174Y-85315100D01*
X117730145Y-85293380D01*
X117762308Y-85296338D01*
X117780781Y-85278511D01*
X117783230Y-85277793D01*
X117894628Y-85206201D01*
X117981345Y-85106125D01*
X118036354Y-84985672D01*
X118055199Y-84854600D01*
X118036354Y-84723528D01*
X117981345Y-84603075D01*
X117979048Y-84600424D01*
X117978455Y-84599501D01*
X117971176Y-84566036D01*
X117987589Y-84535978D01*
X118019677Y-84524010D01*
X119494961Y-84524010D01*
X119504520Y-84524951D01*
X119526164Y-84529256D01*
X119552539Y-84524010D01*
X119553093Y-84526797D01*
X119553097Y-84526795D01*
X119552543Y-84524010D01*
X119614607Y-84511664D01*
X119614607Y-84511663D01*
X119630659Y-84508472D01*
X119696881Y-84464223D01*
X119696882Y-84464221D01*
X119719244Y-84449280D01*
X119722600Y-84444256D01*
X119724162Y-84443030D01*
X119725338Y-84441855D01*
X119725479Y-84441996D01*
X119746585Y-84425432D01*
X119843825Y-84390040D01*
X119931758Y-84316255D01*
X119989152Y-84216845D01*
X119991311Y-84204600D01*
X120639729Y-84204600D01*
X120640228Y-84208071D01*
X120656178Y-84319011D01*
X120658574Y-84335672D01*
X120713583Y-84456125D01*
X120715876Y-84458772D01*
X120715878Y-84458774D01*
X120798004Y-84553552D01*
X120798006Y-84553554D01*
X120800300Y-84556201D01*
X120911698Y-84627793D01*
X121038754Y-84665100D01*
X121167670Y-84665100D01*
X121171174Y-84665100D01*
X121298230Y-84627793D01*
X121409628Y-84556201D01*
X121496345Y-84456125D01*
X121551354Y-84335672D01*
X121570199Y-84204600D01*
X121551354Y-84073528D01*
X121496345Y-83953075D01*
X121494049Y-83950425D01*
X121411923Y-83855647D01*
X121411921Y-83855645D01*
X121409628Y-83852999D01*
X121358770Y-83820314D01*
X121301178Y-83783301D01*
X121301174Y-83783299D01*
X121298230Y-83781407D01*
X121294870Y-83780420D01*
X121294867Y-83780419D01*
X121174536Y-83745087D01*
X121174534Y-83745086D01*
X121171174Y-83744100D01*
X121038754Y-83744100D01*
X121035394Y-83745086D01*
X121035391Y-83745087D01*
X120915060Y-83780419D01*
X120915054Y-83780421D01*
X120911698Y-83781407D01*
X120908755Y-83783297D01*
X120908749Y-83783301D01*
X120803248Y-83851104D01*
X120803246Y-83851105D01*
X120800300Y-83852999D01*
X120798009Y-83855641D01*
X120798004Y-83855647D01*
X120715878Y-83950425D01*
X120715874Y-83950430D01*
X120713583Y-83953075D01*
X120712126Y-83956264D01*
X120712126Y-83956265D01*
X120693782Y-83996434D01*
X120658574Y-84073528D01*
X120658075Y-84076993D01*
X120658075Y-84076996D01*
X120646318Y-84158774D01*
X120639729Y-84204600D01*
X119991311Y-84204600D01*
X120009085Y-84103800D01*
X119989152Y-83990755D01*
X119931758Y-83891345D01*
X119928474Y-83888589D01*
X119928473Y-83888588D01*
X119847107Y-83820314D01*
X119843825Y-83817560D01*
X119839799Y-83816094D01*
X119839798Y-83816094D01*
X119754366Y-83785000D01*
X119735958Y-83778300D01*
X119621170Y-83778300D01*
X119617141Y-83779766D01*
X119617137Y-83779767D01*
X119548740Y-83804661D01*
X119516231Y-83805015D01*
X119490656Y-83784943D01*
X119483273Y-83753281D01*
X119497332Y-83723970D01*
X119848748Y-83372556D01*
X119866632Y-83361162D01*
X119970825Y-83323240D01*
X120058758Y-83249455D01*
X120116152Y-83150045D01*
X120136085Y-83037000D01*
X120123249Y-82964209D01*
X120126513Y-82936292D01*
X120144580Y-82914761D01*
X120171506Y-82906700D01*
X120268752Y-82906700D01*
X120275522Y-82907170D01*
X120278200Y-82907543D01*
X120282504Y-82908986D01*
X120330826Y-82906751D01*
X120333089Y-82906700D01*
X120350693Y-82906700D01*
X120352957Y-82906700D01*
X120356515Y-82906034D01*
X120363251Y-82905252D01*
X120395328Y-82903770D01*
X120409726Y-82897412D01*
X120420519Y-82894070D01*
X120435985Y-82891179D01*
X120463282Y-82874277D01*
X120469262Y-82871124D01*
X120498649Y-82858149D01*
X120509777Y-82847020D01*
X120518631Y-82840007D01*
X120519219Y-82839643D01*
X120532013Y-82831722D01*
X120551360Y-82806100D01*
X120555809Y-82800987D01*
X121588839Y-81767957D01*
X121593955Y-81763506D01*
X121596104Y-81761882D01*
X121600174Y-81759857D01*
X121632768Y-81724101D01*
X121634289Y-81722507D01*
X121648375Y-81708423D01*
X121650421Y-81705434D01*
X121654629Y-81700120D01*
X121676264Y-81676390D01*
X121681951Y-81661706D01*
X121687212Y-81651724D01*
X121696110Y-81638738D01*
X121703462Y-81607477D01*
X121705464Y-81601012D01*
X121717064Y-81571072D01*
X121717064Y-81555331D01*
X121718366Y-81544112D01*
X121720292Y-81535923D01*
X121721969Y-81528794D01*
X121717534Y-81497000D01*
X121717064Y-81490230D01*
X121717064Y-80610812D01*
X121717534Y-80604042D01*
X121717907Y-80601363D01*
X121719350Y-80597060D01*
X121717115Y-80548737D01*
X121717064Y-80546475D01*
X121717064Y-80528874D01*
X121717064Y-80526607D01*
X121716399Y-80523053D01*
X121715616Y-80516312D01*
X121714134Y-80484236D01*
X121707772Y-80469829D01*
X121704434Y-80459045D01*
X121702377Y-80448041D01*
X121701543Y-80443579D01*
X121684641Y-80416282D01*
X121681480Y-80410283D01*
X121668513Y-80380915D01*
X121657385Y-80369787D01*
X121650372Y-80360933D01*
X121644476Y-80351410D01*
X121644473Y-80351407D01*
X121642086Y-80347551D01*
X121616464Y-80328202D01*
X121611345Y-80323747D01*
X117567198Y-76279600D01*
X120524729Y-76279600D01*
X120525228Y-76283071D01*
X120540425Y-76388774D01*
X120543574Y-76410672D01*
X120598583Y-76531125D01*
X120600876Y-76533772D01*
X120600878Y-76533774D01*
X120683004Y-76628552D01*
X120683006Y-76628554D01*
X120685300Y-76631201D01*
X120688246Y-76633094D01*
X120688248Y-76633096D01*
X120699646Y-76640421D01*
X120716160Y-76658159D01*
X120722154Y-76681642D01*
X120722154Y-77027397D01*
X120721212Y-77036956D01*
X120716908Y-77058600D01*
X120717849Y-77063331D01*
X120722154Y-77084975D01*
X120722153Y-77084975D01*
X120722154Y-77084979D01*
X120725413Y-77101362D01*
X120736750Y-77158362D01*
X120736751Y-77158364D01*
X120737692Y-77163095D01*
X120739195Y-77165344D01*
X120740371Y-77167105D01*
X120740373Y-77167108D01*
X120794203Y-77247668D01*
X120796884Y-77251680D01*
X120800895Y-77254360D01*
X120800896Y-77254361D01*
X120815232Y-77263940D01*
X120822658Y-77270034D01*
X121448076Y-77895452D01*
X121462428Y-77930100D01*
X121448076Y-77964748D01*
X121419819Y-77976452D01*
X121420128Y-77978601D01*
X121416657Y-77979100D01*
X121413154Y-77979100D01*
X121409794Y-77980086D01*
X121409791Y-77980087D01*
X121289460Y-78015419D01*
X121289454Y-78015421D01*
X121286098Y-78016407D01*
X121283155Y-78018297D01*
X121283149Y-78018301D01*
X121177648Y-78086104D01*
X121177646Y-78086105D01*
X121174700Y-78087999D01*
X121172409Y-78090641D01*
X121172404Y-78090647D01*
X121090278Y-78185425D01*
X121090274Y-78185430D01*
X121087983Y-78188075D01*
X121086526Y-78191264D01*
X121086526Y-78191265D01*
X121043797Y-78284830D01*
X121032974Y-78308528D01*
X121032475Y-78311993D01*
X121032475Y-78311996D01*
X121028523Y-78339484D01*
X121014129Y-78439600D01*
X121014628Y-78443071D01*
X121027432Y-78532130D01*
X121032974Y-78570672D01*
X121087983Y-78691125D01*
X121090276Y-78693772D01*
X121090278Y-78693774D01*
X121172404Y-78788552D01*
X121172406Y-78788554D01*
X121174700Y-78791201D01*
X121240138Y-78833256D01*
X121279945Y-78858839D01*
X121286098Y-78862793D01*
X121413154Y-78900100D01*
X121542070Y-78900100D01*
X121545574Y-78900100D01*
X121672630Y-78862793D01*
X121784028Y-78791201D01*
X121870745Y-78691125D01*
X121925754Y-78570672D01*
X121936654Y-78494853D01*
X121953957Y-78464043D01*
X121987486Y-78452883D01*
X122019803Y-78467180D01*
X122774527Y-79221904D01*
X122780620Y-79229328D01*
X122790199Y-79243664D01*
X122790203Y-79243668D01*
X122792884Y-79247680D01*
X122815242Y-79262619D01*
X122815246Y-79262623D01*
X122854609Y-79288924D01*
X122881470Y-79306872D01*
X122886206Y-79307814D01*
X122959585Y-79322410D01*
X122959030Y-79325195D01*
X122959035Y-79325197D01*
X122959590Y-79322410D01*
X122973601Y-79325197D01*
X122985964Y-79327656D01*
X122998327Y-79325197D01*
X123007607Y-79323351D01*
X123017166Y-79322410D01*
X127108738Y-79322410D01*
X127127490Y-79326140D01*
X127143383Y-79336759D01*
X127207803Y-79401180D01*
X127222154Y-79435827D01*
X127222154Y-80377558D01*
X127216160Y-80401041D01*
X127199646Y-80418779D01*
X127188248Y-80426103D01*
X127188241Y-80426108D01*
X127185300Y-80427999D01*
X127183009Y-80430641D01*
X127183004Y-80430647D01*
X127100878Y-80525425D01*
X127100874Y-80525430D01*
X127098583Y-80528075D01*
X127097126Y-80531264D01*
X127097126Y-80531265D01*
X127045117Y-80645150D01*
X127043574Y-80648528D01*
X127043075Y-80651993D01*
X127043075Y-80651996D01*
X127025869Y-80771674D01*
X127024729Y-80779600D01*
X127025228Y-80783071D01*
X127040220Y-80887348D01*
X127043574Y-80910672D01*
X127098583Y-81031125D01*
X127100876Y-81033772D01*
X127100878Y-81033774D01*
X127183004Y-81128552D01*
X127183006Y-81128554D01*
X127185300Y-81131201D01*
X127239443Y-81165997D01*
X127290951Y-81199100D01*
X127296698Y-81202793D01*
X127423754Y-81240100D01*
X127552670Y-81240100D01*
X127556174Y-81240100D01*
X127683230Y-81202793D01*
X127794628Y-81131201D01*
X127881345Y-81031125D01*
X127936354Y-80910672D01*
X127955199Y-80779600D01*
X127953733Y-80769407D01*
X127947782Y-80728015D01*
X127936354Y-80648528D01*
X127881345Y-80528075D01*
X127876271Y-80522219D01*
X127796923Y-80430647D01*
X127796921Y-80430645D01*
X127794628Y-80427999D01*
X127791682Y-80426105D01*
X127791679Y-80426103D01*
X127780282Y-80418779D01*
X127763768Y-80401041D01*
X127757774Y-80377558D01*
X127757774Y-79335802D01*
X127758715Y-79326243D01*
X127758736Y-79326140D01*
X127763020Y-79304600D01*
X127760683Y-79292853D01*
X127757774Y-79278228D01*
X127757774Y-79278226D01*
X127757774Y-79278221D01*
X127742236Y-79200106D01*
X127714833Y-79159095D01*
X127697987Y-79133882D01*
X127697983Y-79133878D01*
X127683044Y-79111520D01*
X127679032Y-79108839D01*
X127679028Y-79108835D01*
X127664692Y-79099256D01*
X127657268Y-79093163D01*
X127451398Y-78887294D01*
X127445304Y-78879868D01*
X127435725Y-78865532D01*
X127435724Y-78865531D01*
X127433044Y-78861520D01*
X127410682Y-78846578D01*
X127410681Y-78846577D01*
X127370914Y-78820005D01*
X127348470Y-78805008D01*
X127348469Y-78805007D01*
X127344459Y-78802328D01*
X127339728Y-78801387D01*
X127339726Y-78801386D01*
X127328407Y-78799135D01*
X127266350Y-78786791D01*
X127266344Y-78786790D01*
X127266343Y-78786790D01*
X127266342Y-78786790D01*
X127266335Y-78786789D01*
X127244695Y-78782485D01*
X127239964Y-78781544D01*
X127235233Y-78782485D01*
X127218320Y-78785849D01*
X127208761Y-78786790D01*
X123117191Y-78786790D01*
X123082543Y-78772438D01*
X121272126Y-76962022D01*
X121261504Y-76946125D01*
X121257774Y-76927374D01*
X121257774Y-76681642D01*
X121263768Y-76658159D01*
X121280282Y-76640421D01*
X121291679Y-76633096D01*
X121291677Y-76633096D01*
X121294628Y-76631201D01*
X121381345Y-76531125D01*
X121436354Y-76410672D01*
X121455199Y-76279600D01*
X121436354Y-76148528D01*
X121381345Y-76028075D01*
X121319563Y-75956775D01*
X121296923Y-75930647D01*
X121296921Y-75930645D01*
X121294628Y-75927999D01*
X121254836Y-75902426D01*
X121186178Y-75858301D01*
X121186174Y-75858299D01*
X121183230Y-75856407D01*
X121179870Y-75855420D01*
X121179867Y-75855419D01*
X121059536Y-75820087D01*
X121059534Y-75820086D01*
X121056174Y-75819100D01*
X120923754Y-75819100D01*
X120920394Y-75820086D01*
X120920391Y-75820087D01*
X120800060Y-75855419D01*
X120800054Y-75855421D01*
X120796698Y-75856407D01*
X120793755Y-75858297D01*
X120793749Y-75858301D01*
X120688248Y-75926104D01*
X120688246Y-75926105D01*
X120685300Y-75927999D01*
X120683009Y-75930641D01*
X120683004Y-75930647D01*
X120600878Y-76025425D01*
X120600874Y-76025430D01*
X120598583Y-76028075D01*
X120597126Y-76031264D01*
X120597126Y-76031265D01*
X120548350Y-76138071D01*
X120543574Y-76148528D01*
X120543075Y-76151993D01*
X120543075Y-76151996D01*
X120526273Y-76268858D01*
X120524729Y-76279600D01*
X117567198Y-76279600D01*
X116568329Y-75280731D01*
X116563875Y-75275613D01*
X116562244Y-75273453D01*
X116560221Y-75269390D01*
X116556866Y-75266331D01*
X116556865Y-75266330D01*
X116524478Y-75236806D01*
X116522841Y-75235243D01*
X116510388Y-75222790D01*
X116508787Y-75221189D01*
X116506926Y-75219914D01*
X116506915Y-75219905D01*
X116505797Y-75219140D01*
X116500478Y-75214928D01*
X116476754Y-75193300D01*
X116462071Y-75187612D01*
X116452084Y-75182347D01*
X116442848Y-75176020D01*
X116442847Y-75176019D01*
X116439102Y-75173454D01*
X116434683Y-75172414D01*
X116434682Y-75172414D01*
X116407849Y-75166102D01*
X116401371Y-75164096D01*
X116398541Y-75163000D01*
X126235682Y-75163000D01*
X126236101Y-75166183D01*
X126254104Y-75302934D01*
X126256320Y-75319762D01*
X126316828Y-75465841D01*
X126413082Y-75591282D01*
X126538523Y-75687536D01*
X126684602Y-75748044D01*
X126841364Y-75768682D01*
X126998126Y-75748044D01*
X127144205Y-75687536D01*
X127169459Y-75668157D01*
X127196081Y-75658138D01*
X127223786Y-75664598D01*
X127243233Y-75685361D01*
X127247867Y-75713429D01*
X127241525Y-75761605D01*
X127229282Y-75854600D01*
X127229701Y-75857783D01*
X127242733Y-75956775D01*
X127249920Y-76011362D01*
X127310428Y-76157441D01*
X127392804Y-76264796D01*
X127402511Y-76301019D01*
X127383760Y-76333498D01*
X127347536Y-76343205D01*
X127318149Y-76339337D01*
X127318147Y-76339337D01*
X127314964Y-76338918D01*
X127311781Y-76339337D01*
X127161383Y-76359137D01*
X127161381Y-76359137D01*
X127158202Y-76359556D01*
X127155239Y-76360782D01*
X127155236Y-76360784D01*
X127015089Y-76418835D01*
X127015086Y-76418836D01*
X127012123Y-76420064D01*
X127009576Y-76422017D01*
X127009573Y-76422020D01*
X126889230Y-76514362D01*
X126889226Y-76514365D01*
X126886682Y-76516318D01*
X126884729Y-76518862D01*
X126884726Y-76518866D01*
X126792384Y-76639209D01*
X126792381Y-76639212D01*
X126790428Y-76641759D01*
X126789200Y-76644722D01*
X126789199Y-76644725D01*
X126731148Y-76784872D01*
X126731146Y-76784875D01*
X126729920Y-76787838D01*
X126709282Y-76944600D01*
X126709701Y-76947783D01*
X126725454Y-77067443D01*
X126729920Y-77101362D01*
X126731147Y-77104326D01*
X126731148Y-77104327D01*
X126753530Y-77158362D01*
X126790428Y-77247441D01*
X126886682Y-77372882D01*
X127012123Y-77469136D01*
X127158202Y-77529644D01*
X127314964Y-77550282D01*
X127471726Y-77529644D01*
X127617805Y-77469136D01*
X127743246Y-77372882D01*
X127839500Y-77247441D01*
X127900008Y-77101362D01*
X127920646Y-76944600D01*
X127900008Y-76787838D01*
X127839500Y-76641759D01*
X127837546Y-76639212D01*
X127837544Y-76639209D01*
X127775828Y-76558780D01*
X127757122Y-76534401D01*
X127747102Y-76507780D01*
X127753562Y-76480075D01*
X127774325Y-76460628D01*
X127802393Y-76455994D01*
X127834964Y-76460282D01*
X127991726Y-76439644D01*
X128137805Y-76379136D01*
X128263246Y-76282882D01*
X128359500Y-76157441D01*
X128420008Y-76011362D01*
X128440646Y-75854600D01*
X128420008Y-75697838D01*
X128359500Y-75551759D01*
X128263246Y-75426318D01*
X128137805Y-75330064D01*
X128105252Y-75316580D01*
X127994691Y-75270784D01*
X127994690Y-75270783D01*
X127991726Y-75269556D01*
X127988544Y-75269137D01*
X127838147Y-75249337D01*
X127834964Y-75248918D01*
X127831781Y-75249337D01*
X127681383Y-75269137D01*
X127681381Y-75269137D01*
X127678202Y-75269556D01*
X127675239Y-75270782D01*
X127675236Y-75270784D01*
X127535089Y-75328835D01*
X127535086Y-75328836D01*
X127532123Y-75330064D01*
X127529578Y-75332016D01*
X127529574Y-75332019D01*
X127506869Y-75349441D01*
X127470644Y-75359147D01*
X127438166Y-75340395D01*
X127428460Y-75304171D01*
X127447046Y-75163000D01*
X127426408Y-75006238D01*
X127365900Y-74860159D01*
X127269646Y-74734718D01*
X127144205Y-74638464D01*
X127141238Y-74637235D01*
X127001091Y-74579184D01*
X127001090Y-74579183D01*
X126998126Y-74577956D01*
X126994944Y-74577537D01*
X126844547Y-74557737D01*
X126841364Y-74557318D01*
X126838181Y-74557737D01*
X126687783Y-74577537D01*
X126687781Y-74577537D01*
X126684602Y-74577956D01*
X126681639Y-74579182D01*
X126681636Y-74579184D01*
X126541489Y-74637235D01*
X126541486Y-74637236D01*
X126538523Y-74638464D01*
X126535976Y-74640417D01*
X126535973Y-74640420D01*
X126415630Y-74732762D01*
X126415626Y-74732765D01*
X126413082Y-74734718D01*
X126411129Y-74737262D01*
X126411126Y-74737266D01*
X126318784Y-74857609D01*
X126318781Y-74857612D01*
X126316828Y-74860159D01*
X126315600Y-74863122D01*
X126315599Y-74863125D01*
X126257548Y-75003272D01*
X126257546Y-75003275D01*
X126256320Y-75006238D01*
X126255901Y-75009417D01*
X126255901Y-75009419D01*
X126237573Y-75148635D01*
X126235682Y-75163000D01*
X116398541Y-75163000D01*
X116390324Y-75159817D01*
X116371436Y-75152500D01*
X116366892Y-75152500D01*
X116355695Y-75152500D01*
X116344476Y-75151198D01*
X116333581Y-75148635D01*
X116333579Y-75148634D01*
X116329158Y-75147595D01*
X116324661Y-75148222D01*
X116324658Y-75148222D01*
X116297364Y-75152030D01*
X116290594Y-75152500D01*
X114922672Y-75152500D01*
X114896181Y-75144721D01*
X114878100Y-75123855D01*
X114874171Y-75096527D01*
X114879700Y-75058071D01*
X114880199Y-75054600D01*
X114861354Y-74923528D01*
X114806345Y-74803075D01*
X114719628Y-74702999D01*
X114687002Y-74682031D01*
X114611178Y-74633301D01*
X114611174Y-74633299D01*
X114608230Y-74631407D01*
X114604870Y-74630420D01*
X114604867Y-74630419D01*
X114484536Y-74595087D01*
X114484534Y-74595086D01*
X114481174Y-74594100D01*
X114348754Y-74594100D01*
X114345394Y-74595086D01*
X114345391Y-74595087D01*
X114225060Y-74630419D01*
X114225054Y-74630421D01*
X114221698Y-74631407D01*
X114218755Y-74633297D01*
X114218749Y-74633301D01*
X114113248Y-74701104D01*
X114113246Y-74701105D01*
X114110300Y-74702999D01*
X114108009Y-74705641D01*
X114108004Y-74705647D01*
X114025878Y-74800425D01*
X114025874Y-74800430D01*
X114023583Y-74803075D01*
X114022126Y-74806264D01*
X114022126Y-74806265D01*
X113997514Y-74860159D01*
X113968574Y-74923528D01*
X113949729Y-75054600D01*
X113950228Y-75058071D01*
X113965648Y-75165325D01*
X113968574Y-75185672D01*
X114023583Y-75306125D01*
X114025876Y-75308772D01*
X114025878Y-75308774D01*
X114108004Y-75403552D01*
X114108006Y-75403554D01*
X114110300Y-75406201D01*
X114189072Y-75456825D01*
X114203100Y-75465841D01*
X114221698Y-75477793D01*
X114251070Y-75486417D01*
X114271914Y-75498784D01*
X114401597Y-75628467D01*
X114406052Y-75633586D01*
X114407683Y-75635746D01*
X114409707Y-75639810D01*
X114413059Y-75642866D01*
X114413061Y-75642868D01*
X114445460Y-75672403D01*
X114447097Y-75673967D01*
X114461141Y-75688011D01*
X114464128Y-75690057D01*
X114469438Y-75694261D01*
X114493174Y-75715900D01*
X114497409Y-75717540D01*
X114497410Y-75717541D01*
X114507850Y-75721585D01*
X114517843Y-75726851D01*
X114522627Y-75730128D01*
X114527081Y-75733180D01*
X114527082Y-75733180D01*
X114530826Y-75735745D01*
X114537871Y-75737402D01*
X114566754Y-75756943D01*
X114575326Y-75790747D01*
X114559243Y-75821690D01*
X114526652Y-75834100D01*
X113796284Y-75834100D01*
X113775929Y-75829672D01*
X113759256Y-75817191D01*
X113729628Y-75782999D01*
X113689085Y-75756943D01*
X113621178Y-75713301D01*
X113621174Y-75713299D01*
X113618230Y-75711407D01*
X113614870Y-75710420D01*
X113614867Y-75710419D01*
X113494536Y-75675087D01*
X113494534Y-75675086D01*
X113491174Y-75674100D01*
X113358754Y-75674100D01*
X113355394Y-75675086D01*
X113355391Y-75675087D01*
X113235060Y-75710419D01*
X113235054Y-75710421D01*
X113231698Y-75711407D01*
X113228755Y-75713297D01*
X113228749Y-75713301D01*
X113123248Y-75781104D01*
X113123246Y-75781105D01*
X113120300Y-75782999D01*
X113118009Y-75785641D01*
X113118004Y-75785647D01*
X113035878Y-75880425D01*
X113035874Y-75880430D01*
X113033583Y-75883075D01*
X113032126Y-75886264D01*
X113032126Y-75886265D01*
X113002850Y-75950372D01*
X112978574Y-76003528D01*
X112978075Y-76006993D01*
X112978075Y-76006996D01*
X112974586Y-76031265D01*
X112959729Y-76134600D01*
X112960228Y-76138071D01*
X112961731Y-76148528D01*
X112978574Y-76265672D01*
X113033583Y-76386125D01*
X113035876Y-76388772D01*
X113035878Y-76388774D01*
X113118004Y-76483552D01*
X113118006Y-76483554D01*
X113120300Y-76486201D01*
X113231698Y-76557793D01*
X113358754Y-76595100D01*
X113487670Y-76595100D01*
X113491174Y-76595100D01*
X113618230Y-76557793D01*
X113729628Y-76486201D01*
X113759256Y-76452008D01*
X113775929Y-76439528D01*
X113796284Y-76435100D01*
X115950197Y-76435100D01*
X115984845Y-76449452D01*
X118338659Y-78803266D01*
X118352789Y-78833256D01*
X118344590Y-78865379D01*
X118317816Y-78884929D01*
X118265060Y-78900419D01*
X118265054Y-78900421D01*
X118261698Y-78901407D01*
X118258755Y-78903297D01*
X118258749Y-78903301D01*
X118153248Y-78971104D01*
X118153246Y-78971105D01*
X118150300Y-78972999D01*
X118148009Y-78975641D01*
X118148004Y-78975647D01*
X118065878Y-79070425D01*
X118065874Y-79070430D01*
X118063583Y-79073075D01*
X118062126Y-79076264D01*
X118062126Y-79076265D01*
X118024299Y-79159096D01*
X118008574Y-79193528D01*
X118008075Y-79196993D01*
X118008075Y-79196996D01*
X117992278Y-79306872D01*
X117989729Y-79324600D01*
X117990228Y-79328071D01*
X118005692Y-79435631D01*
X118008574Y-79455672D01*
X118063583Y-79576125D01*
X118065876Y-79578772D01*
X118065878Y-79578774D01*
X118148004Y-79673552D01*
X118148006Y-79673554D01*
X118150300Y-79676201D01*
X118261698Y-79747793D01*
X118388754Y-79785100D01*
X118517670Y-79785100D01*
X118521174Y-79785100D01*
X118648230Y-79747793D01*
X118759628Y-79676201D01*
X118846345Y-79576125D01*
X118900162Y-79458281D01*
X118921251Y-79435631D01*
X118951707Y-79430136D01*
X118979382Y-79443989D01*
X120074045Y-80538652D01*
X120088397Y-80573300D01*
X120074045Y-80607948D01*
X120039397Y-80622300D01*
X119004411Y-80622300D01*
X118997641Y-80621830D01*
X118994961Y-80621456D01*
X118990659Y-80620014D01*
X118986128Y-80620223D01*
X118986125Y-80620223D01*
X118942337Y-80622248D01*
X118940074Y-80622300D01*
X118920207Y-80622300D01*
X118917992Y-80622713D01*
X118917970Y-80622716D01*
X118916636Y-80622966D01*
X118909912Y-80623746D01*
X118882372Y-80625020D01*
X118882370Y-80625020D01*
X118877836Y-80625230D01*
X118873686Y-80627062D01*
X118873678Y-80627064D01*
X118863427Y-80631590D01*
X118852649Y-80634928D01*
X118845103Y-80636339D01*
X118837179Y-80637821D01*
X118833322Y-80640208D01*
X118833314Y-80640212D01*
X118809880Y-80654720D01*
X118803883Y-80657882D01*
X118778667Y-80669017D01*
X118778664Y-80669018D01*
X118774515Y-80670851D01*
X118771307Y-80674058D01*
X118771302Y-80674062D01*
X118763383Y-80681981D01*
X118754537Y-80688988D01*
X118745011Y-80694887D01*
X118745008Y-80694889D01*
X118741151Y-80697278D01*
X118738419Y-80700894D01*
X118738415Y-80700899D01*
X118721803Y-80722897D01*
X118717349Y-80728015D01*
X118558018Y-80887348D01*
X118542122Y-80897970D01*
X118523370Y-80901700D01*
X117706926Y-80901700D01*
X117690167Y-80898745D01*
X117660711Y-80888024D01*
X117633994Y-80878300D01*
X117519206Y-80878300D01*
X117515175Y-80879766D01*
X117515175Y-80879767D01*
X117415370Y-80916093D01*
X117415369Y-80916093D01*
X117411340Y-80917560D01*
X117408057Y-80920314D01*
X117408053Y-80920317D01*
X117329007Y-80986645D01*
X117323406Y-80991345D01*
X117321266Y-80995051D01*
X117321263Y-80995055D01*
X117268155Y-81087043D01*
X117266012Y-81090755D01*
X117246079Y-81203800D01*
X117266012Y-81316845D01*
X117323406Y-81416255D01*
X117326688Y-81419009D01*
X117326690Y-81419011D01*
X117368552Y-81454137D01*
X117411339Y-81490040D01*
X117491023Y-81519042D01*
X117514402Y-81536981D01*
X117523264Y-81565087D01*
X117514403Y-81593192D01*
X117491024Y-81611132D01*
X117434532Y-81631693D01*
X117434527Y-81631695D01*
X117430504Y-81633160D01*
X117427221Y-81635914D01*
X117427217Y-81635917D01*
X117345853Y-81704190D01*
X117342570Y-81706945D01*
X117340430Y-81710651D01*
X117340427Y-81710655D01*
X117289859Y-81798243D01*
X117285176Y-81806355D01*
X117265243Y-81919400D01*
X117285176Y-82032445D01*
X117292921Y-82045859D01*
X117308417Y-82072700D01*
X117314982Y-82097200D01*
X117308417Y-82121700D01*
X117292996Y-82148411D01*
X117285176Y-82161955D01*
X117284432Y-82166173D01*
X117284432Y-82166174D01*
X117281282Y-82184039D01*
X117265243Y-82275000D01*
X117285176Y-82388045D01*
X117298398Y-82410947D01*
X117304962Y-82435444D01*
X117298398Y-82459943D01*
X117276519Y-82497840D01*
X117276515Y-82497848D01*
X117274376Y-82501555D01*
X117273633Y-82505768D01*
X117273631Y-82505774D01*
X117268638Y-82534094D01*
X117257944Y-82594749D01*
X117257933Y-82594809D01*
X117241174Y-82623836D01*
X117209677Y-82635300D01*
X117182770Y-82635300D01*
X117178739Y-82636766D01*
X117178739Y-82636767D01*
X117078934Y-82673093D01*
X117078933Y-82673093D01*
X117074904Y-82674560D01*
X117071621Y-82677314D01*
X117071617Y-82677317D01*
X116990255Y-82745588D01*
X116990253Y-82745589D01*
X116986970Y-82748345D01*
X116986308Y-82749491D01*
X116965745Y-82763447D01*
X116939033Y-82764613D01*
X116915686Y-82751582D01*
X116900198Y-82736094D01*
X116894104Y-82728668D01*
X116884525Y-82714332D01*
X116884524Y-82714331D01*
X116881844Y-82710320D01*
X116875751Y-82706249D01*
X116859482Y-82695378D01*
X116859481Y-82695377D01*
X116797270Y-82653808D01*
X116797269Y-82653807D01*
X116793259Y-82651128D01*
X116788528Y-82650187D01*
X116788526Y-82650186D01*
X116777207Y-82647935D01*
X116715150Y-82635591D01*
X116715144Y-82635590D01*
X116715143Y-82635590D01*
X116715142Y-82635590D01*
X116715135Y-82635589D01*
X116693495Y-82631285D01*
X116688764Y-82630344D01*
X116684033Y-82631285D01*
X116667120Y-82634649D01*
X116657561Y-82635590D01*
X116214785Y-82635590D01*
X116212424Y-82636059D01*
X116212420Y-82636060D01*
X116205730Y-82637391D01*
X116201873Y-82638158D01*
X116192316Y-82639100D01*
X116147570Y-82639100D01*
X116143539Y-82640566D01*
X116143539Y-82640567D01*
X116043734Y-82676893D01*
X116043733Y-82676893D01*
X116039704Y-82678360D01*
X116036421Y-82681114D01*
X116036417Y-82681117D01*
X115956195Y-82748432D01*
X115951770Y-82752145D01*
X115949630Y-82755851D01*
X115949627Y-82755855D01*
X115904446Y-82834113D01*
X115894376Y-82851555D01*
X115893632Y-82855770D01*
X115893630Y-82855778D01*
X115885659Y-82900981D01*
X115868900Y-82930008D01*
X115837403Y-82941471D01*
X115805907Y-82930007D01*
X115789149Y-82900980D01*
X115778988Y-82843355D01*
X115721594Y-82743945D01*
X115718310Y-82741189D01*
X115718309Y-82741188D01*
X115636943Y-82672914D01*
X115633661Y-82670160D01*
X115629635Y-82668694D01*
X115629634Y-82668694D01*
X115552354Y-82640567D01*
X115525794Y-82630900D01*
X115521505Y-82630900D01*
X115515145Y-82630900D01*
X115483648Y-82619436D01*
X115466889Y-82590409D01*
X115463088Y-82568852D01*
X115448788Y-82487755D01*
X115425141Y-82446798D01*
X115418577Y-82422299D01*
X115425141Y-82397800D01*
X115442552Y-82367645D01*
X115462485Y-82254600D01*
X115442552Y-82141555D01*
X115385158Y-82042145D01*
X115381874Y-82039389D01*
X115381873Y-82039388D01*
X115300507Y-81971114D01*
X115297225Y-81968360D01*
X115293199Y-81966894D01*
X115293198Y-81966894D01*
X115234473Y-81945520D01*
X115189358Y-81929100D01*
X115185069Y-81929100D01*
X115156724Y-81929100D01*
X115125228Y-81917636D01*
X115108468Y-81888609D01*
X115103085Y-81858085D01*
X115093188Y-81801955D01*
X115035794Y-81702545D01*
X115032510Y-81699789D01*
X115032509Y-81699788D01*
X114951143Y-81631514D01*
X114947861Y-81628760D01*
X114943835Y-81627294D01*
X114943834Y-81627294D01*
X114909396Y-81614760D01*
X114883801Y-81605444D01*
X114860423Y-81587505D01*
X114851561Y-81559400D01*
X114860423Y-81531295D01*
X114883801Y-81513355D01*
X114947861Y-81490040D01*
X115035794Y-81416255D01*
X115093188Y-81316845D01*
X115106810Y-81239590D01*
X115123569Y-81210564D01*
X115155066Y-81199100D01*
X115191305Y-81199100D01*
X115195594Y-81199100D01*
X115286543Y-81165997D01*
X115320057Y-81165997D01*
X115385578Y-81189845D01*
X115406972Y-81197632D01*
X115411006Y-81199100D01*
X115521505Y-81199100D01*
X115525794Y-81199100D01*
X115633661Y-81159840D01*
X115721594Y-81086055D01*
X115778988Y-80986645D01*
X115797088Y-80883991D01*
X115813848Y-80854964D01*
X115845345Y-80843500D01*
X115877105Y-80843500D01*
X115881394Y-80843500D01*
X115989261Y-80804240D01*
X116077194Y-80730455D01*
X116134588Y-80631045D01*
X116154521Y-80518000D01*
X116134588Y-80404955D01*
X116077194Y-80305545D01*
X116073910Y-80302789D01*
X116073909Y-80302788D01*
X115992543Y-80234514D01*
X115989261Y-80231760D01*
X115985235Y-80230294D01*
X115985234Y-80230294D01*
X115887831Y-80194843D01*
X115881394Y-80192500D01*
X115766606Y-80192500D01*
X115762575Y-80193966D01*
X115762575Y-80193967D01*
X115662959Y-80230224D01*
X115629441Y-80230224D01*
X115525794Y-80192500D01*
X115521505Y-80192500D01*
X115489300Y-80192500D01*
X115454652Y-80178148D01*
X115440300Y-80143500D01*
X115440300Y-79670476D01*
X115445638Y-79650551D01*
X115445179Y-79650384D01*
X115446643Y-79646359D01*
X115448788Y-79642645D01*
X115468721Y-79529600D01*
X115448788Y-79416555D01*
X115391394Y-79317145D01*
X115388110Y-79314389D01*
X115388109Y-79314388D01*
X115365730Y-79295610D01*
X115366478Y-79294717D01*
X115365808Y-79294308D01*
X115365323Y-79294951D01*
X115362545Y-79292853D01*
X115360578Y-79291287D01*
X115323408Y-79260098D01*
X115303461Y-79243360D01*
X115299436Y-79241895D01*
X115299431Y-79241892D01*
X115297899Y-79241335D01*
X115285131Y-79234394D01*
X115278813Y-79229622D01*
X115278809Y-79229620D01*
X115275190Y-79226887D01*
X115270822Y-79225644D01*
X115201277Y-79205856D01*
X115201272Y-79205855D01*
X115199167Y-79205256D01*
X115199165Y-79205255D01*
X115199051Y-79205223D01*
X115198940Y-79205187D01*
X115198866Y-79205170D01*
X115197364Y-79204743D01*
X115197380Y-79204683D01*
X115195748Y-79204156D01*
X115195635Y-79204115D01*
X115195813Y-79203622D01*
X115195308Y-79203376D01*
X115195103Y-79204100D01*
X115170927Y-79197221D01*
X115170925Y-79197220D01*
X115166557Y-79195978D01*
X115162034Y-79196397D01*
X115058613Y-79205980D01*
X115058611Y-79205980D01*
X115054094Y-79206399D01*
X115050031Y-79208421D01*
X115050027Y-79208423D01*
X115001158Y-79232756D01*
X114996080Y-79234937D01*
X114976964Y-79241895D01*
X114976962Y-79241895D01*
X114972940Y-79243360D01*
X114969662Y-79246110D01*
X114969654Y-79246115D01*
X114967280Y-79248108D01*
X114957631Y-79254431D01*
X114957056Y-79254717D01*
X114957051Y-79254720D01*
X114952990Y-79256743D01*
X114949934Y-79260094D01*
X114949930Y-79260098D01*
X114942173Y-79268606D01*
X114937463Y-79273126D01*
X114888291Y-79314387D01*
X114888286Y-79314392D01*
X114885006Y-79317145D01*
X114882863Y-79320856D01*
X114882861Y-79320859D01*
X114836489Y-79401179D01*
X114827612Y-79416555D01*
X114807679Y-79529600D01*
X114827612Y-79642645D01*
X114829755Y-79646357D01*
X114831221Y-79650384D01*
X114830761Y-79650551D01*
X114836100Y-79670476D01*
X114836100Y-80732724D01*
X114830761Y-80752648D01*
X114831221Y-80752816D01*
X114829755Y-80756842D01*
X114827612Y-80760555D01*
X114826868Y-80764773D01*
X114826868Y-80764774D01*
X114813990Y-80837809D01*
X114797231Y-80866836D01*
X114765734Y-80878300D01*
X114725206Y-80878300D01*
X114721175Y-80879766D01*
X114721175Y-80879767D01*
X114617340Y-80917560D01*
X114616612Y-80915562D01*
X114591771Y-80919929D01*
X114562757Y-80903166D01*
X114551300Y-80871677D01*
X114551300Y-80853610D01*
X114551770Y-80846840D01*
X114552142Y-80844165D01*
X114553586Y-80839860D01*
X114551351Y-80791537D01*
X114551300Y-80789275D01*
X114551300Y-80771674D01*
X114551300Y-80769407D01*
X114550635Y-80765853D01*
X114549852Y-80759112D01*
X114548370Y-80727036D01*
X114542008Y-80712629D01*
X114538670Y-80701845D01*
X114536613Y-80690841D01*
X114535779Y-80686379D01*
X114518877Y-80659082D01*
X114515716Y-80653083D01*
X114513705Y-80648528D01*
X114502749Y-80623715D01*
X114491621Y-80612587D01*
X114484608Y-80603733D01*
X114478712Y-80594210D01*
X114478709Y-80594207D01*
X114476322Y-80590351D01*
X114450700Y-80571002D01*
X114445581Y-80566547D01*
X113969165Y-80090131D01*
X113964711Y-80085013D01*
X113963080Y-80082853D01*
X113961057Y-80078790D01*
X113957702Y-80075731D01*
X113957701Y-80075730D01*
X113925314Y-80046206D01*
X113923677Y-80044643D01*
X113911224Y-80032190D01*
X113909623Y-80030589D01*
X113907762Y-80029314D01*
X113907751Y-80029305D01*
X113906633Y-80028540D01*
X113901314Y-80024328D01*
X113877590Y-80002700D01*
X113862907Y-79997012D01*
X113852920Y-79991747D01*
X113843684Y-79985420D01*
X113843683Y-79985419D01*
X113839938Y-79982854D01*
X113835519Y-79981814D01*
X113835518Y-79981814D01*
X113808685Y-79975502D01*
X113802207Y-79973496D01*
X113791070Y-79969182D01*
X113772272Y-79961900D01*
X113767728Y-79961900D01*
X113756531Y-79961900D01*
X113745312Y-79960598D01*
X113734417Y-79958035D01*
X113734415Y-79958034D01*
X113729994Y-79956995D01*
X113725497Y-79957622D01*
X113725494Y-79957622D01*
X113698200Y-79961430D01*
X113691430Y-79961900D01*
X113515926Y-79961900D01*
X113499167Y-79958945D01*
X113487861Y-79954830D01*
X113442994Y-79938500D01*
X113328206Y-79938500D01*
X113324179Y-79939965D01*
X113324177Y-79939966D01*
X113322986Y-79940399D01*
X113321658Y-79940883D01*
X113290847Y-79941780D01*
X113265596Y-79924099D01*
X113255900Y-79894838D01*
X113255900Y-79394600D01*
X113479729Y-79394600D01*
X113498574Y-79525672D01*
X113553583Y-79646125D01*
X113555876Y-79648772D01*
X113555878Y-79648774D01*
X113638004Y-79743552D01*
X113638006Y-79743554D01*
X113640300Y-79746201D01*
X113751698Y-79817793D01*
X113878754Y-79855100D01*
X114007670Y-79855100D01*
X114011174Y-79855100D01*
X114138230Y-79817793D01*
X114249628Y-79746201D01*
X114336345Y-79646125D01*
X114391354Y-79525672D01*
X114410199Y-79394600D01*
X114391354Y-79263528D01*
X114336345Y-79143075D01*
X114328376Y-79133878D01*
X114251923Y-79045647D01*
X114251921Y-79045645D01*
X114249628Y-79042999D01*
X114217002Y-79022031D01*
X114141178Y-78973301D01*
X114141174Y-78973299D01*
X114138230Y-78971407D01*
X114134870Y-78970420D01*
X114134867Y-78970419D01*
X114014536Y-78935087D01*
X114014534Y-78935086D01*
X114011174Y-78934100D01*
X113878754Y-78934100D01*
X113875394Y-78935086D01*
X113875391Y-78935087D01*
X113755060Y-78970419D01*
X113755054Y-78970421D01*
X113751698Y-78971407D01*
X113748755Y-78973297D01*
X113748749Y-78973301D01*
X113643248Y-79041104D01*
X113643246Y-79041105D01*
X113640300Y-79042999D01*
X113638009Y-79045641D01*
X113638004Y-79045647D01*
X113555878Y-79140425D01*
X113555874Y-79140430D01*
X113553583Y-79143075D01*
X113552126Y-79146264D01*
X113552126Y-79146265D01*
X113501673Y-79256743D01*
X113498574Y-79263528D01*
X113498075Y-79266993D01*
X113498075Y-79266996D01*
X113490865Y-79317145D01*
X113479729Y-79394600D01*
X113255900Y-79394600D01*
X113255900Y-78885430D01*
X113270252Y-78850782D01*
X113572582Y-78548452D01*
X113607230Y-78534100D01*
X116084970Y-78534100D01*
X116119618Y-78548452D01*
X116136312Y-78565146D01*
X116150664Y-78599794D01*
X116150664Y-80023752D01*
X116150194Y-80030522D01*
X116149819Y-80033202D01*
X116148378Y-80037504D01*
X116148587Y-80042033D01*
X116148587Y-80042037D01*
X116150612Y-80085826D01*
X116150664Y-80088089D01*
X116150664Y-80107957D01*
X116151077Y-80110171D01*
X116151079Y-80110183D01*
X116151329Y-80111517D01*
X116152111Y-80118256D01*
X116153594Y-80150328D01*
X116155427Y-80154479D01*
X116159953Y-80164730D01*
X116163292Y-80175513D01*
X116166185Y-80190985D01*
X116182833Y-80217873D01*
X116183083Y-80218277D01*
X116186245Y-80224277D01*
X116190766Y-80234514D01*
X116199215Y-80253649D01*
X116202427Y-80256861D01*
X116210341Y-80264775D01*
X116217353Y-80273627D01*
X116223251Y-80283153D01*
X116223253Y-80283156D01*
X116225642Y-80287013D01*
X116246532Y-80302788D01*
X116251262Y-80306360D01*
X116256381Y-80310815D01*
X116580568Y-80635002D01*
X116588355Y-80645150D01*
X116633236Y-80722887D01*
X116637606Y-80730455D01*
X116640888Y-80733209D01*
X116640890Y-80733211D01*
X116681374Y-80767181D01*
X116725539Y-80804240D01*
X116833406Y-80843500D01*
X116943905Y-80843500D01*
X116948194Y-80843500D01*
X117056061Y-80804240D01*
X117143994Y-80730455D01*
X117201388Y-80631045D01*
X117221321Y-80518000D01*
X117201388Y-80404955D01*
X117143994Y-80305545D01*
X117140710Y-80302789D01*
X117140709Y-80302788D01*
X117059343Y-80234514D01*
X117056061Y-80231760D01*
X117028114Y-80221588D01*
X117010225Y-80210191D01*
X116769216Y-79969182D01*
X116754864Y-79934534D01*
X116754864Y-78510576D01*
X116755334Y-78503806D01*
X116755707Y-78501127D01*
X116757150Y-78496824D01*
X116754915Y-78448501D01*
X116754864Y-78446239D01*
X116754864Y-78428638D01*
X116754864Y-78426371D01*
X116754199Y-78422817D01*
X116753416Y-78416076D01*
X116751934Y-78384000D01*
X116745572Y-78369593D01*
X116742234Y-78358809D01*
X116740177Y-78347805D01*
X116739343Y-78343343D01*
X116722441Y-78316046D01*
X116719280Y-78310047D01*
X116706313Y-78280679D01*
X116695185Y-78269551D01*
X116688172Y-78260697D01*
X116682276Y-78251174D01*
X116682273Y-78251171D01*
X116679886Y-78247315D01*
X116654264Y-78227966D01*
X116649145Y-78223511D01*
X116483765Y-78058131D01*
X116479311Y-78053013D01*
X116477680Y-78050853D01*
X116475657Y-78046790D01*
X116472302Y-78043731D01*
X116472301Y-78043730D01*
X116439914Y-78014206D01*
X116438277Y-78012643D01*
X116425824Y-78000190D01*
X116425823Y-78000189D01*
X116424223Y-77998589D01*
X116422362Y-77997314D01*
X116422351Y-77997305D01*
X116421233Y-77996540D01*
X116415914Y-77992328D01*
X116392190Y-77970700D01*
X116377507Y-77965012D01*
X116367520Y-77959747D01*
X116358284Y-77953420D01*
X116358283Y-77953419D01*
X116354538Y-77950854D01*
X116350119Y-77949814D01*
X116350118Y-77949814D01*
X116323285Y-77943502D01*
X116316807Y-77941496D01*
X116308050Y-77938104D01*
X116286872Y-77929900D01*
X116282328Y-77929900D01*
X116271131Y-77929900D01*
X116259914Y-77928598D01*
X116247307Y-77925633D01*
X116218295Y-77905904D01*
X116209909Y-77871837D01*
X116225709Y-77842276D01*
X116225664Y-77842237D01*
X116225664Y-77842236D01*
X116312381Y-77742161D01*
X116367390Y-77621708D01*
X116386235Y-77490636D01*
X116367390Y-77359564D01*
X116312381Y-77239111D01*
X116259493Y-77178075D01*
X116227959Y-77141683D01*
X116227957Y-77141681D01*
X116225664Y-77139035D01*
X116171658Y-77104327D01*
X116117214Y-77069337D01*
X116117210Y-77069335D01*
X116114266Y-77067443D01*
X116110906Y-77066456D01*
X116110903Y-77066455D01*
X115990572Y-77031123D01*
X115990570Y-77031122D01*
X115987210Y-77030136D01*
X115854790Y-77030136D01*
X115851430Y-77031122D01*
X115851427Y-77031123D01*
X115731096Y-77066455D01*
X115731090Y-77066457D01*
X115727734Y-77067443D01*
X115724791Y-77069333D01*
X115724785Y-77069337D01*
X115619284Y-77137140D01*
X115619282Y-77137141D01*
X115616336Y-77139035D01*
X115614045Y-77141677D01*
X115614040Y-77141683D01*
X115531914Y-77236461D01*
X115531910Y-77236466D01*
X115529619Y-77239111D01*
X115528162Y-77242300D01*
X115528162Y-77242301D01*
X115503940Y-77295341D01*
X115474610Y-77359564D01*
X115474111Y-77363029D01*
X115474111Y-77363032D01*
X115458856Y-77469136D01*
X115455765Y-77490636D01*
X115456264Y-77494107D01*
X115471721Y-77601618D01*
X115474610Y-77621708D01*
X115529619Y-77742161D01*
X115531912Y-77744808D01*
X115531914Y-77744810D01*
X115614040Y-77839588D01*
X115614042Y-77839590D01*
X115616336Y-77842237D01*
X115619049Y-77843981D01*
X115634370Y-77868782D01*
X115632803Y-77898024D01*
X115614838Y-77921150D01*
X115586892Y-77929900D01*
X114730128Y-77929900D01*
X114700763Y-77920127D01*
X114683113Y-77894705D01*
X114684217Y-77863777D01*
X114703636Y-77839679D01*
X114720718Y-77828700D01*
X114794628Y-77781201D01*
X114881345Y-77681125D01*
X114936354Y-77560672D01*
X114955199Y-77429600D01*
X114936354Y-77298528D01*
X114881345Y-77178075D01*
X114871842Y-77167108D01*
X114796923Y-77080647D01*
X114796921Y-77080645D01*
X114794628Y-77077999D01*
X114730765Y-77036956D01*
X114686178Y-77008301D01*
X114686174Y-77008299D01*
X114683230Y-77006407D01*
X114679870Y-77005420D01*
X114679867Y-77005419D01*
X114559536Y-76970087D01*
X114559534Y-76970086D01*
X114556174Y-76969100D01*
X114423754Y-76969100D01*
X114420394Y-76970086D01*
X114420391Y-76970087D01*
X114300060Y-77005419D01*
X114300054Y-77005421D01*
X114296698Y-77006407D01*
X114293755Y-77008297D01*
X114293749Y-77008301D01*
X114188248Y-77076104D01*
X114188246Y-77076105D01*
X114185300Y-77077999D01*
X114183009Y-77080641D01*
X114183004Y-77080647D01*
X114100878Y-77175425D01*
X114100874Y-77175430D01*
X114098583Y-77178075D01*
X114097126Y-77181264D01*
X114097126Y-77181265D01*
X114056587Y-77270034D01*
X114043574Y-77298528D01*
X114043075Y-77301993D01*
X114043075Y-77301996D01*
X114025228Y-77426129D01*
X114024729Y-77429600D01*
X114025228Y-77433071D01*
X114036156Y-77509082D01*
X114043574Y-77560672D01*
X114098583Y-77681125D01*
X114100876Y-77683772D01*
X114100878Y-77683774D01*
X114183004Y-77778552D01*
X114183006Y-77778554D01*
X114185300Y-77781201D01*
X114246778Y-77820711D01*
X114276292Y-77839679D01*
X114295711Y-77863777D01*
X114296815Y-77894705D01*
X114279165Y-77920127D01*
X114249800Y-77929900D01*
X113518011Y-77929900D01*
X113511241Y-77929430D01*
X113508561Y-77929056D01*
X113504259Y-77927614D01*
X113499728Y-77927823D01*
X113499725Y-77927823D01*
X113455946Y-77929848D01*
X113453683Y-77929900D01*
X113433807Y-77929900D01*
X113431585Y-77930315D01*
X113431577Y-77930316D01*
X113430241Y-77930566D01*
X113423504Y-77931348D01*
X113395969Y-77932621D01*
X113395967Y-77932621D01*
X113391435Y-77932831D01*
X113387286Y-77934662D01*
X113387280Y-77934664D01*
X113377030Y-77939190D01*
X113366246Y-77942529D01*
X113355243Y-77944586D01*
X113355241Y-77944586D01*
X113350779Y-77945421D01*
X113346920Y-77947809D01*
X113346915Y-77947812D01*
X113323480Y-77962321D01*
X113317483Y-77965483D01*
X113292264Y-77976619D01*
X113292262Y-77976620D01*
X113288114Y-77978452D01*
X113284904Y-77981661D01*
X113284902Y-77981663D01*
X113276983Y-77989581D01*
X113268137Y-77996588D01*
X113258611Y-78002487D01*
X113258608Y-78002489D01*
X113254751Y-78004878D01*
X113252019Y-78008494D01*
X113252015Y-78008499D01*
X113235403Y-78030497D01*
X113230949Y-78035615D01*
X112779930Y-78486634D01*
X112774813Y-78491087D01*
X112772648Y-78492721D01*
X112768590Y-78494743D01*
X112765537Y-78498091D01*
X112765534Y-78498094D01*
X112735995Y-78530496D01*
X112734435Y-78532130D01*
X112720389Y-78546177D01*
X112719119Y-78548030D01*
X112719107Y-78548045D01*
X112718331Y-78549179D01*
X112714128Y-78554483D01*
X112695560Y-78574852D01*
X112695557Y-78574855D01*
X112692500Y-78578210D01*
X112690860Y-78582442D01*
X112690860Y-78582443D01*
X112686813Y-78592890D01*
X112681547Y-78602878D01*
X112672654Y-78615862D01*
X112671614Y-78620282D01*
X112671614Y-78620283D01*
X112665304Y-78647107D01*
X112663298Y-78653585D01*
X112653339Y-78679293D01*
X112653337Y-78679300D01*
X112651700Y-78683528D01*
X112651700Y-78688068D01*
X112651700Y-78699269D01*
X112650398Y-78710488D01*
X112647835Y-78721382D01*
X112647834Y-78721384D01*
X112646795Y-78725806D01*
X112647422Y-78730301D01*
X112647422Y-78730305D01*
X112651230Y-78757600D01*
X112651700Y-78764370D01*
X112651700Y-80935924D01*
X112646361Y-80955848D01*
X112646821Y-80956016D01*
X112645355Y-80960042D01*
X112643212Y-80963755D01*
X112623279Y-81076800D01*
X109775917Y-81076800D01*
X109787127Y-80712944D01*
X109787310Y-80709973D01*
X109845981Y-80076812D01*
X109846345Y-80073876D01*
X109943883Y-79445527D01*
X109944425Y-79442624D01*
X110080466Y-78821442D01*
X110081190Y-78818565D01*
X110255198Y-78206991D01*
X110256101Y-78204152D01*
X110467442Y-77604409D01*
X110468515Y-77601641D01*
X110716360Y-77016083D01*
X110717604Y-77013380D01*
X111001045Y-76444153D01*
X111002438Y-76441559D01*
X111320377Y-75890873D01*
X111321949Y-75888334D01*
X111673166Y-75358295D01*
X111674903Y-75355842D01*
X111692893Y-75332020D01*
X112058086Y-74848425D01*
X112059961Y-74846095D01*
X112473646Y-74363240D01*
X112475674Y-74361015D01*
X112569983Y-74263756D01*
X112918319Y-73904523D01*
X112920468Y-73902440D01*
X113390363Y-73474074D01*
X113392614Y-73472145D01*
X113888013Y-73073498D01*
X113890374Y-73071715D01*
X114409371Y-72704324D01*
X114411870Y-72702668D01*
X114952473Y-72367941D01*
X114955062Y-72366445D01*
X115062908Y-72308533D01*
X115092450Y-72303119D01*
X115119603Y-72315958D01*
X115134164Y-72342228D01*
X115130662Y-72372058D01*
X115122656Y-72389589D01*
X115118574Y-72398528D01*
X115118075Y-72401993D01*
X115118075Y-72401996D01*
X115105899Y-72486687D01*
X115099729Y-72529600D01*
X115100228Y-72533071D01*
X115113157Y-72623000D01*
X115118574Y-72660672D01*
X115173583Y-72781125D01*
X115175876Y-72783772D01*
X115175878Y-72783774D01*
X115258004Y-72878552D01*
X115258006Y-72878554D01*
X115260300Y-72881201D01*
X115263249Y-72883096D01*
X115263250Y-72883097D01*
X115271469Y-72888380D01*
X115291281Y-72913574D01*
X115291281Y-72945626D01*
X115271469Y-72970820D01*
X115263250Y-72976102D01*
X115263245Y-72976106D01*
X115260300Y-72977999D01*
X115258009Y-72980641D01*
X115258004Y-72980647D01*
X115175878Y-73075425D01*
X115175874Y-73075430D01*
X115173583Y-73078075D01*
X115172126Y-73081264D01*
X115172126Y-73081265D01*
X115124287Y-73186019D01*
X115118574Y-73198528D01*
X115118075Y-73201993D01*
X115118075Y-73201996D01*
X115105333Y-73290625D01*
X115099729Y-73329600D01*
X115118574Y-73460672D01*
X115173583Y-73581125D01*
X115175876Y-73583772D01*
X115175878Y-73583774D01*
X115258004Y-73678552D01*
X115258006Y-73678554D01*
X115260300Y-73681201D01*
X115371698Y-73752793D01*
X115498754Y-73790100D01*
X115627670Y-73790100D01*
X115631174Y-73790100D01*
X115758230Y-73752793D01*
X115869628Y-73681201D01*
X115956345Y-73581125D01*
X116011354Y-73460672D01*
X116030199Y-73329600D01*
X116011354Y-73198528D01*
X116003715Y-73181800D01*
X120135443Y-73181800D01*
X120155376Y-73294845D01*
X120212770Y-73394255D01*
X120300703Y-73468040D01*
X120408570Y-73507300D01*
X120519069Y-73507300D01*
X120523358Y-73507300D01*
X120579531Y-73486854D01*
X120596290Y-73483900D01*
X121184134Y-73483900D01*
X121218782Y-73498252D01*
X121241712Y-73521182D01*
X121256064Y-73555830D01*
X121256064Y-74006124D01*
X121250725Y-74026048D01*
X121251185Y-74026216D01*
X121249719Y-74030242D01*
X121247576Y-74033955D01*
X121227643Y-74147000D01*
X121247576Y-74260045D01*
X121304970Y-74359455D01*
X121308252Y-74362209D01*
X121308254Y-74362211D01*
X121359865Y-74405518D01*
X121392903Y-74433240D01*
X121500770Y-74472500D01*
X121611269Y-74472500D01*
X121615558Y-74472500D01*
X121723425Y-74433240D01*
X121811358Y-74359455D01*
X121868752Y-74260045D01*
X121888685Y-74147000D01*
X121868752Y-74033955D01*
X121866608Y-74030241D01*
X121865143Y-74026216D01*
X121865602Y-74026048D01*
X121860264Y-74006124D01*
X121860264Y-73801195D01*
X121873622Y-73767569D01*
X121906414Y-73752278D01*
X121940760Y-73763658D01*
X121951703Y-73772840D01*
X122059570Y-73812100D01*
X122170069Y-73812100D01*
X122174358Y-73812100D01*
X122282225Y-73772840D01*
X122370158Y-73699055D01*
X122427552Y-73599645D01*
X122447485Y-73486600D01*
X122427552Y-73373555D01*
X122425408Y-73369841D01*
X122423943Y-73365816D01*
X122424402Y-73365648D01*
X122419064Y-73345724D01*
X122419064Y-73060211D01*
X122419534Y-73053441D01*
X122419907Y-73050762D01*
X122421350Y-73046459D01*
X122419115Y-72998136D01*
X122419064Y-72995874D01*
X122419064Y-72978274D01*
X122419064Y-72976007D01*
X122418399Y-72972453D01*
X122417616Y-72965712D01*
X122416134Y-72933636D01*
X122409774Y-72919234D01*
X122406434Y-72908445D01*
X122404377Y-72897440D01*
X122404376Y-72897439D01*
X122403543Y-72892979D01*
X122401154Y-72889120D01*
X122401153Y-72889118D01*
X122386642Y-72865683D01*
X122383477Y-72859679D01*
X122373998Y-72838211D01*
X122370512Y-72830315D01*
X122359384Y-72819187D01*
X122352372Y-72810334D01*
X122346476Y-72800811D01*
X122346475Y-72800810D01*
X122344086Y-72796951D01*
X122318460Y-72777599D01*
X122313342Y-72773145D01*
X121989329Y-72449131D01*
X121984875Y-72444013D01*
X121983244Y-72441853D01*
X121981221Y-72437790D01*
X121977866Y-72434731D01*
X121977865Y-72434730D01*
X121945477Y-72405205D01*
X121943840Y-72403642D01*
X121931388Y-72391190D01*
X121931387Y-72391189D01*
X121929787Y-72389589D01*
X121927926Y-72388314D01*
X121927915Y-72388305D01*
X121926797Y-72387540D01*
X121921478Y-72383328D01*
X121897754Y-72361700D01*
X121883071Y-72356012D01*
X121873084Y-72350747D01*
X121863848Y-72344420D01*
X121863847Y-72344419D01*
X121860102Y-72341854D01*
X121855683Y-72340814D01*
X121855682Y-72340814D01*
X121828849Y-72334502D01*
X121822371Y-72332496D01*
X121813614Y-72329104D01*
X121792436Y-72320900D01*
X121787892Y-72320900D01*
X121776695Y-72320900D01*
X121765476Y-72319598D01*
X121754581Y-72317035D01*
X121754579Y-72317034D01*
X121750158Y-72315995D01*
X121745661Y-72316622D01*
X121745658Y-72316622D01*
X121718364Y-72320430D01*
X121711594Y-72320900D01*
X120596290Y-72320900D01*
X120579531Y-72317945D01*
X120538796Y-72303119D01*
X120523358Y-72297500D01*
X120408570Y-72297500D01*
X120404539Y-72298966D01*
X120404539Y-72298967D01*
X120304734Y-72335293D01*
X120304733Y-72335293D01*
X120300704Y-72336760D01*
X120297421Y-72339514D01*
X120297417Y-72339517D01*
X120220043Y-72404442D01*
X120212770Y-72410545D01*
X120210630Y-72414251D01*
X120210627Y-72414255D01*
X120157519Y-72506243D01*
X120155376Y-72509955D01*
X120135443Y-72623000D01*
X120155376Y-72736045D01*
X120212770Y-72835455D01*
X120216052Y-72838209D01*
X120216054Y-72838211D01*
X120247817Y-72864864D01*
X120263262Y-72888347D01*
X120263262Y-72916453D01*
X120247817Y-72939936D01*
X120216054Y-72966588D01*
X120216050Y-72966592D01*
X120212770Y-72969345D01*
X120210627Y-72973056D01*
X120210625Y-72973059D01*
X120164311Y-73053279D01*
X120155376Y-73068755D01*
X120154632Y-73072973D01*
X120154632Y-73072974D01*
X120154200Y-73075425D01*
X120135443Y-73181800D01*
X116003715Y-73181800D01*
X115956345Y-73078075D01*
X115951571Y-73072566D01*
X115871924Y-72980649D01*
X115871925Y-72980649D01*
X115869628Y-72977999D01*
X115866528Y-72976007D01*
X115865567Y-72975389D01*
X115858457Y-72970820D01*
X115838644Y-72945627D01*
X115838644Y-72913573D01*
X115858457Y-72888379D01*
X115869628Y-72881201D01*
X115956345Y-72781125D01*
X116011354Y-72660672D01*
X116030199Y-72529600D01*
X116011354Y-72398528D01*
X115956345Y-72278075D01*
X115944246Y-72264112D01*
X115871923Y-72180647D01*
X115871921Y-72180645D01*
X115869628Y-72177999D01*
X115813532Y-72141948D01*
X115761178Y-72108301D01*
X115761174Y-72108299D01*
X115758230Y-72106407D01*
X115754870Y-72105420D01*
X115754867Y-72105419D01*
X115681191Y-72083786D01*
X115656864Y-72067544D01*
X115646126Y-72040335D01*
X115652803Y-72011856D01*
X115674514Y-71992257D01*
X116095588Y-71798532D01*
X116098346Y-71797365D01*
X116691253Y-71567671D01*
X116694084Y-71566674D01*
X117299989Y-71373922D01*
X117302890Y-71373097D01*
X117418181Y-71344100D01*
X117919531Y-71218005D01*
X117922434Y-71217368D01*
X118270291Y-71152343D01*
X118299837Y-71156023D01*
X118321799Y-71176128D01*
X118328067Y-71205235D01*
X118316326Y-71232597D01*
X118298583Y-71253075D01*
X118297126Y-71256264D01*
X118297126Y-71256265D01*
X118264326Y-71328088D01*
X118243574Y-71373528D01*
X118243075Y-71376993D01*
X118243075Y-71376996D01*
X118232420Y-71451104D01*
X118224729Y-71504600D01*
X118225228Y-71508071D01*
X118231698Y-71553075D01*
X118243574Y-71635672D01*
X118298583Y-71756125D01*
X118300876Y-71758772D01*
X118300878Y-71758774D01*
X118383004Y-71853552D01*
X118383006Y-71853554D01*
X118385300Y-71856201D01*
X118496698Y-71927793D01*
X118623754Y-71965100D01*
X118752670Y-71965100D01*
X118756174Y-71965100D01*
X118883230Y-71927793D01*
X118994628Y-71856201D01*
X119081345Y-71756125D01*
X119136354Y-71635672D01*
X119155199Y-71504600D01*
X119136354Y-71373528D01*
X119081345Y-71253075D01*
X119014670Y-71176128D01*
X118996923Y-71155647D01*
X118996921Y-71155645D01*
X118994628Y-71152999D01*
X118967728Y-71135711D01*
X118948859Y-71113018D01*
X118946445Y-71083605D01*
X118961363Y-71058140D01*
X118988197Y-71045862D01*
X119181472Y-71021929D01*
X119184442Y-71021654D01*
X119765942Y-70985788D01*
X119819071Y-70982512D01*
X119822087Y-70982419D01*
X120457913Y-70982419D01*
X120460929Y-70982512D01*
G37*
G04 #@! TD.AperFunction*
M02*
