G04 #@! TF.GenerationSoftware,KiCad,Pcbnew,(7.0.0)*
G04 #@! TF.CreationDate,2023-09-09T16:46:03-08:00*
G04 #@! TF.ProjectId,THINGY_2.0,5448494e-4759-45f3-922e-302e6b696361,rev?*
G04 #@! TF.SameCoordinates,Original*
G04 #@! TF.FileFunction,Paste,Bot*
G04 #@! TF.FilePolarity,Positive*
%FSLAX46Y46*%
G04 Gerber Fmt 4.6, Leading zero omitted, Abs format (unit mm)*
G04 Created by KiCad (PCBNEW (7.0.0)) date 2023-09-09 16:46:03*
%MOMM*%
%LPD*%
G01*
G04 APERTURE LIST*
G04 Aperture macros list*
%AMRoundRect*
0 Rectangle with rounded corners*
0 $1 Rounding radius*
0 $2 $3 $4 $5 $6 $7 $8 $9 X,Y pos of 4 corners*
0 Add a 4 corners polygon primitive as box body*
4,1,4,$2,$3,$4,$5,$6,$7,$8,$9,$2,$3,0*
0 Add four circle primitives for the rounded corners*
1,1,$1+$1,$2,$3*
1,1,$1+$1,$4,$5*
1,1,$1+$1,$6,$7*
1,1,$1+$1,$8,$9*
0 Add four rect primitives between the rounded corners*
20,1,$1+$1,$2,$3,$4,$5,0*
20,1,$1+$1,$4,$5,$6,$7,0*
20,1,$1+$1,$6,$7,$8,$9,0*
20,1,$1+$1,$8,$9,$2,$3,0*%
G04 Aperture macros list end*
%ADD10C,0.010000*%
%ADD11RoundRect,0.008100X0.126900X-0.396900X0.126900X0.396900X-0.126900X0.396900X-0.126900X-0.396900X0*%
%ADD12RoundRect,0.027000X0.378000X-0.108000X0.378000X0.108000X-0.378000X0.108000X-0.378000X-0.108000X0*%
%ADD13RoundRect,0.079500X-0.079500X-0.100500X0.079500X-0.100500X0.079500X0.100500X-0.079500X0.100500X0*%
%ADD14RoundRect,0.140000X0.170000X-0.140000X0.170000X0.140000X-0.170000X0.140000X-0.170000X-0.140000X0*%
%ADD15RoundRect,0.079500X0.100500X-0.079500X0.100500X0.079500X-0.100500X0.079500X-0.100500X-0.079500X0*%
%ADD16RoundRect,0.140000X0.140000X0.170000X-0.140000X0.170000X-0.140000X-0.170000X0.140000X-0.170000X0*%
%ADD17RoundRect,0.218750X0.381250X-0.218750X0.381250X0.218750X-0.381250X0.218750X-0.381250X-0.218750X0*%
%ADD18RoundRect,0.079500X-0.100500X0.079500X-0.100500X-0.079500X0.100500X-0.079500X0.100500X0.079500X0*%
%ADD19R,0.400000X0.400000*%
%ADD20C,0.200000*%
%ADD21RoundRect,0.140000X-0.140000X-0.170000X0.140000X-0.170000X0.140000X0.170000X-0.140000X0.170000X0*%
%ADD22R,0.500000X0.350000*%
%ADD23RoundRect,0.079500X0.079500X0.100500X-0.079500X0.100500X-0.079500X-0.100500X0.079500X-0.100500X0*%
%ADD24RoundRect,0.225000X-0.225000X-0.250000X0.225000X-0.250000X0.225000X0.250000X-0.225000X0.250000X0*%
%ADD25RoundRect,0.140000X-0.170000X0.140000X-0.170000X-0.140000X0.170000X-0.140000X0.170000X0.140000X0*%
G04 APERTURE END LIST*
G36*
X113129200Y-82946400D02*
G01*
X112829200Y-82946400D01*
X112829200Y-82696400D01*
X113129200Y-82696400D01*
X113129200Y-82946400D01*
G37*
D10*
X113129200Y-82946400D02*
X112829200Y-82946400D01*
X112829200Y-82696400D01*
X113129200Y-82696400D01*
X113129200Y-82946400D01*
G36*
X113129200Y-82446400D02*
G01*
X112829200Y-82446400D01*
X112829200Y-82196400D01*
X113129200Y-82196400D01*
X113129200Y-82446400D01*
G37*
X113129200Y-82446400D02*
X112829200Y-82446400D01*
X112829200Y-82196400D01*
X113129200Y-82196400D01*
X113129200Y-82446400D01*
G36*
X113129200Y-81946400D02*
G01*
X112829200Y-81946400D01*
X112829200Y-81696400D01*
X113129200Y-81696400D01*
X113129200Y-81946400D01*
G37*
X113129200Y-81946400D02*
X112829200Y-81946400D01*
X112829200Y-81696400D01*
X113129200Y-81696400D01*
X113129200Y-81946400D01*
G36*
X113129200Y-81446400D02*
G01*
X112829200Y-81446400D01*
X112829200Y-81196400D01*
X113129200Y-81196400D01*
X113129200Y-81446400D01*
G37*
X113129200Y-81446400D02*
X112829200Y-81446400D01*
X112829200Y-81196400D01*
X113129200Y-81196400D01*
X113129200Y-81446400D01*
G36*
X112579200Y-82996400D02*
G01*
X112329200Y-82996400D01*
X112329200Y-82696400D01*
X112579200Y-82696400D01*
X112579200Y-82996400D01*
G37*
X112579200Y-82996400D02*
X112329200Y-82996400D01*
X112329200Y-82696400D01*
X112579200Y-82696400D01*
X112579200Y-82996400D01*
G36*
X112579200Y-81446400D02*
G01*
X112329200Y-81446400D01*
X112329200Y-81146400D01*
X112579200Y-81146400D01*
X112579200Y-81446400D01*
G37*
X112579200Y-81446400D02*
X112329200Y-81446400D01*
X112329200Y-81146400D01*
X112579200Y-81146400D01*
X112579200Y-81446400D01*
G36*
X112079200Y-82996400D02*
G01*
X111829200Y-82996400D01*
X111829200Y-82696400D01*
X112079200Y-82696400D01*
X112079200Y-82996400D01*
G37*
X112079200Y-82996400D02*
X111829200Y-82996400D01*
X111829200Y-82696400D01*
X112079200Y-82696400D01*
X112079200Y-82996400D01*
G36*
X112079200Y-81446400D02*
G01*
X111829200Y-81446400D01*
X111829200Y-81146400D01*
X112079200Y-81146400D01*
X112079200Y-81446400D01*
G37*
X112079200Y-81446400D02*
X111829200Y-81446400D01*
X111829200Y-81146400D01*
X112079200Y-81146400D01*
X112079200Y-81446400D01*
G36*
X111579200Y-82946400D02*
G01*
X111279200Y-82946400D01*
X111279200Y-82696400D01*
X111579200Y-82696400D01*
X111579200Y-82946400D01*
G37*
X111579200Y-82946400D02*
X111279200Y-82946400D01*
X111279200Y-82696400D01*
X111579200Y-82696400D01*
X111579200Y-82946400D01*
G36*
X111579200Y-82446400D02*
G01*
X111279200Y-82446400D01*
X111279200Y-82196400D01*
X111579200Y-82196400D01*
X111579200Y-82446400D01*
G37*
X111579200Y-82446400D02*
X111279200Y-82446400D01*
X111279200Y-82196400D01*
X111579200Y-82196400D01*
X111579200Y-82446400D01*
G36*
X111579200Y-81946400D02*
G01*
X111279200Y-81946400D01*
X111279200Y-81696400D01*
X111579200Y-81696400D01*
X111579200Y-81946400D01*
G37*
X111579200Y-81946400D02*
X111279200Y-81946400D01*
X111279200Y-81696400D01*
X111579200Y-81696400D01*
X111579200Y-81946400D01*
G36*
X111579200Y-81446400D02*
G01*
X111279200Y-81446400D01*
X111279200Y-81196400D01*
X111579200Y-81196400D01*
X111579200Y-81446400D01*
G37*
X111579200Y-81446400D02*
X111279200Y-81446400D01*
X111279200Y-81196400D01*
X111579200Y-81196400D01*
X111579200Y-81446400D01*
G36*
X125521200Y-82847000D02*
G01*
X123821200Y-82847000D01*
X123821200Y-81147000D01*
X125521200Y-81147000D01*
X125521200Y-82847000D01*
G37*
X125521200Y-82847000D02*
X123821200Y-82847000D01*
X123821200Y-81147000D01*
X125521200Y-81147000D01*
X125521200Y-82847000D01*
D11*
X125921200Y-83947000D03*
X125421200Y-83947000D03*
X124921200Y-83947000D03*
X124421200Y-83947000D03*
X123921200Y-83947000D03*
X123921200Y-83947000D03*
X123421200Y-83947000D03*
D12*
X122721200Y-83247000D03*
X122721200Y-82747000D03*
X122721200Y-82247000D03*
X122721200Y-81747000D03*
X122721200Y-81247000D03*
X122721200Y-80747000D03*
D11*
X123421200Y-80047000D03*
X123921200Y-80047000D03*
X124421200Y-80047000D03*
X124921200Y-80047000D03*
X125421200Y-80047000D03*
X125921200Y-80047000D03*
D12*
X126621200Y-80747000D03*
X126621200Y-81247000D03*
X126621200Y-81747000D03*
X126621200Y-82247000D03*
X126621200Y-82747000D03*
X126621200Y-83247000D03*
D13*
X115896000Y-78435200D03*
X116586000Y-78435200D03*
D14*
X121742200Y-73477000D03*
X121742200Y-72517000D03*
D15*
X122789964Y-78974600D03*
X122789964Y-78284600D03*
D16*
X124569964Y-78304600D03*
X123609964Y-78304600D03*
D17*
X128664964Y-82942100D03*
X128664964Y-80817100D03*
D18*
X121666000Y-83398800D03*
X121666000Y-84088800D03*
D19*
X116494963Y-76884599D03*
X117294963Y-76884599D03*
X117294963Y-76884599D03*
X118094963Y-76884599D03*
X118894963Y-76884599D03*
X118894963Y-74484599D03*
X118094963Y-74484599D03*
X117294963Y-74484599D03*
X116494963Y-74484599D03*
D14*
X110490000Y-82776000D03*
X110490000Y-81816000D03*
X116796400Y-73306400D03*
X116796400Y-72346400D03*
X121507364Y-80977000D03*
X121507364Y-80017000D03*
D20*
X119626800Y-72336600D03*
X119626800Y-72902600D03*
X119626800Y-73468600D03*
X119909800Y-72619600D03*
X119909800Y-73185600D03*
X120192800Y-72336600D03*
X120192800Y-73468600D03*
X120475800Y-72619600D03*
X120475800Y-73185600D03*
X120758800Y-72336600D03*
X120758800Y-72902600D03*
X120758800Y-73468600D03*
D14*
X117736200Y-73306400D03*
X117736200Y-72346400D03*
D21*
X128454964Y-84129600D03*
X129414964Y-84129600D03*
D16*
X121479364Y-77343000D03*
X120519364Y-77343000D03*
D18*
X114681000Y-83282000D03*
X114681000Y-83972000D03*
D22*
X120116599Y-74453199D03*
X120116599Y-75103199D03*
X120116599Y-75753199D03*
X120116599Y-76403199D03*
X122166599Y-76403199D03*
X122166599Y-75753199D03*
X122166599Y-75103199D03*
X122166599Y-74453199D03*
D23*
X112308200Y-78994000D03*
X111618200Y-78994000D03*
D24*
X126964964Y-78379600D03*
X128514964Y-78379600D03*
D25*
X118676000Y-72346400D03*
X118676000Y-73306400D03*
D14*
X122707400Y-73479600D03*
X122707400Y-72519600D03*
D25*
X112964964Y-83819600D03*
X112964964Y-84779600D03*
D23*
X118033800Y-78460600D03*
X117343800Y-78460600D03*
M02*
