G04 #@! TF.GenerationSoftware,KiCad,Pcbnew,(7.0.0)*
G04 #@! TF.CreationDate,2023-09-09T16:46:03-08:00*
G04 #@! TF.ProjectId,THINGY_2.0,5448494e-4759-45f3-922e-302e6b696361,rev?*
G04 #@! TF.SameCoordinates,Original*
G04 #@! TF.FileFunction,Copper,L5,Inr*
G04 #@! TF.FilePolarity,Positive*
%FSLAX46Y46*%
G04 Gerber Fmt 4.6, Leading zero omitted, Abs format (unit mm)*
G04 Created by KiCad (PCBNEW (7.0.0)) date 2023-09-09 16:46:03*
%MOMM*%
%LPD*%
G01*
G04 APERTURE LIST*
G04 #@! TA.AperFunction,ViaPad*
%ADD10C,0.250000*%
G04 #@! TD*
G04 #@! TA.AperFunction,ViaPad*
%ADD11C,0.520000*%
G04 #@! TD*
G04 #@! TA.AperFunction,ViaPad*
%ADD12C,0.600000*%
G04 #@! TD*
G04 #@! TA.AperFunction,ViaPad*
%ADD13C,0.800000*%
G04 #@! TD*
G04 #@! TA.AperFunction,Conductor*
%ADD14C,0.203200*%
G04 #@! TD*
G04 APERTURE END LIST*
D10*
X117934964Y-81574600D03*
X117934964Y-81574600D03*
D11*
X121104964Y-84204600D03*
X114414964Y-75054600D03*
X113424964Y-76134600D03*
X117564964Y-75154600D03*
X124860164Y-86999400D03*
X114639964Y-87904600D03*
X122167764Y-85018200D03*
X124936364Y-82122600D03*
D12*
X115044964Y-76774600D03*
D11*
X124885564Y-88167800D03*
D12*
X124389964Y-72629600D03*
X125989964Y-73554600D03*
D11*
X114496964Y-89006000D03*
X118564964Y-80179600D03*
X130014964Y-82304600D03*
X110139964Y-81204600D03*
D12*
X123014964Y-75604600D03*
D11*
X117239964Y-85754600D03*
X129664964Y-78354600D03*
X124250564Y-81106600D03*
X130014964Y-83154600D03*
X114814964Y-84579600D03*
X121044964Y-85004600D03*
X121177164Y-79176200D03*
D12*
X122789964Y-76879600D03*
D11*
X116539964Y-81129600D03*
X121789964Y-71654600D03*
X116839964Y-75154600D03*
X119839964Y-77429600D03*
X117214764Y-87913800D03*
X124910964Y-89488600D03*
X125489964Y-81129600D03*
D12*
X125164964Y-73079600D03*
D11*
X111164964Y-78129600D03*
X115106564Y-86897800D03*
X110764964Y-84779600D03*
X114852564Y-85907200D03*
X112814964Y-85804600D03*
X116164964Y-81929600D03*
X117240164Y-86770800D03*
X113214964Y-87304600D03*
X116376564Y-89996600D03*
X119983364Y-84992800D03*
X120614964Y-71529600D03*
X118889964Y-84979600D03*
X117764964Y-71729600D03*
X117265564Y-90860200D03*
X123386964Y-85043600D03*
X129789964Y-79204600D03*
D12*
X128639964Y-85879600D03*
D11*
X118689964Y-71504600D03*
D12*
X127489964Y-85904600D03*
D11*
X115564964Y-73329600D03*
X122789964Y-71804600D03*
X111164964Y-83404600D03*
D12*
X128439964Y-86729600D03*
D11*
X115564964Y-72529600D03*
D12*
X127489964Y-86804600D03*
D11*
X115921000Y-77490636D03*
X113604964Y-88164600D03*
X110514964Y-83904600D03*
X118454964Y-79324600D03*
X117589964Y-84854600D03*
X114489964Y-77429600D03*
X121479364Y-78439600D03*
D10*
X115138200Y-82600800D03*
X115138200Y-82600800D03*
X115468400Y-80518000D03*
X118019964Y-76559600D03*
X119761000Y-75768200D03*
X116452764Y-78922200D03*
X116833764Y-78007800D03*
X119913400Y-73177400D03*
X115824000Y-80518000D03*
X119634000Y-72898000D03*
X117621164Y-78084000D03*
X118883782Y-77153418D03*
X119761000Y-76428600D03*
X117316364Y-78922200D03*
D13*
X126841364Y-75163000D03*
X127314964Y-76944600D03*
X127834964Y-75854600D03*
D10*
X115468400Y-82956400D03*
D11*
X113944964Y-79394600D03*
X127473714Y-88270850D03*
D10*
X122548764Y-82732200D03*
D11*
X125952364Y-89514000D03*
D10*
X122472564Y-81767000D03*
D11*
X127489964Y-80779600D03*
X120989964Y-76279600D03*
D10*
X120465964Y-72623000D03*
X117595764Y-82275000D03*
X122116964Y-73486600D03*
X120465964Y-72623000D03*
X117595764Y-81919400D03*
X120465964Y-73181800D03*
X121558164Y-74147000D03*
X120465964Y-73181800D03*
X114782600Y-82270600D03*
X111963200Y-82677000D03*
X114782600Y-82626200D03*
X112445800Y-83159600D03*
X117240164Y-82960800D03*
X117240164Y-82960800D03*
X112953800Y-81076800D03*
X112953800Y-81076800D03*
X115468400Y-80873600D03*
X112471200Y-81076800D03*
X114782600Y-81915000D03*
X113385600Y-80264000D03*
X111328200Y-81102200D03*
X114782600Y-81203800D03*
X113207800Y-81813400D03*
X126764964Y-81754600D03*
X125439964Y-83954600D03*
D11*
X125304664Y-86199300D03*
D10*
X124939964Y-79929600D03*
X123914964Y-84479400D03*
X121278764Y-81462200D03*
X122040764Y-80497000D03*
X115131964Y-82254600D03*
X120885064Y-83608500D03*
D14*
X120878964Y-83614600D02*
X120885064Y-83608500D01*
X116954164Y-83614600D02*
X120878964Y-83614600D01*
X115131964Y-82270600D02*
X115610164Y-82270600D01*
X115610164Y-82270600D02*
X116954164Y-83614600D01*
X117646564Y-76933000D02*
X117646564Y-77195000D01*
X118019964Y-76559600D02*
X117646564Y-76933000D01*
X115468400Y-79906564D02*
X116452764Y-78922200D01*
X119481600Y-76047600D02*
X119761000Y-75768200D01*
X115468400Y-80518000D02*
X115468400Y-79906564D01*
X119761000Y-73329800D02*
X119761000Y-75768200D01*
X118531964Y-76047600D02*
X119481600Y-76047600D01*
X118019964Y-76559600D02*
X118531964Y-76047600D01*
X119913400Y-73177400D02*
X119761000Y-73329800D01*
X117646564Y-77195000D02*
X116833764Y-78007800D01*
X115824000Y-80518000D02*
X115824000Y-80363764D01*
X118883782Y-77153418D02*
X119608600Y-76428600D01*
X117953200Y-78084000D02*
X117621164Y-78084000D01*
X119608600Y-76428600D02*
X119761000Y-76428600D01*
X119634000Y-72898000D02*
X119634000Y-72438964D01*
X119888000Y-76428600D02*
X119761000Y-76428600D01*
X119932564Y-72140400D02*
X120694564Y-72140400D01*
X120694564Y-72140400D02*
X120973964Y-72419800D01*
X115824000Y-80363764D02*
X117265564Y-78922200D01*
X117265564Y-78922200D02*
X117316364Y-78922200D01*
X120973964Y-72419800D02*
X120973964Y-75342636D01*
X120973964Y-75342636D02*
X119888000Y-76428600D01*
X119634000Y-72438964D02*
X119932564Y-72140400D01*
X118883782Y-77153418D02*
X117953200Y-78084000D01*
X124936364Y-84027600D02*
X124936364Y-83301000D01*
X126764964Y-87562100D02*
X126764964Y-85856200D01*
X124936364Y-83301000D02*
X124367564Y-82732200D01*
X124367564Y-82732200D02*
X122548764Y-82732200D01*
X126764964Y-85856200D02*
X124936364Y-84027600D01*
X127473714Y-88270850D02*
X126764964Y-87562100D01*
X122289964Y-83279600D02*
X121939164Y-82928800D01*
X125952364Y-89514000D02*
X126289964Y-89176400D01*
X121939164Y-82300400D02*
X122472564Y-81767000D01*
X126289964Y-86129600D02*
X124316164Y-84155800D01*
X124316164Y-83530800D02*
X124064964Y-83279600D01*
X126289964Y-89176400D02*
X126289964Y-86129600D01*
X124316164Y-84155800D02*
X124316164Y-83530800D01*
X121939164Y-82928800D02*
X121939164Y-82300400D01*
X124064964Y-83279600D02*
X122289964Y-83279600D01*
X117595764Y-82275000D02*
X117621164Y-82300400D01*
X117621164Y-82300400D02*
X119119764Y-82300400D01*
X119119764Y-82300400D02*
X120516764Y-80903400D01*
X120516764Y-80903400D02*
X120516764Y-78515800D01*
X120516764Y-78515800D02*
X122116964Y-76915600D01*
X122116964Y-76915600D02*
X122116964Y-73486600D01*
X119754764Y-78414200D02*
X121558164Y-76610800D01*
X117595764Y-81919400D02*
X118332364Y-81919400D01*
X118332364Y-81919400D02*
X119754764Y-80497000D01*
X119754764Y-80497000D02*
X119754764Y-78414200D01*
X121558164Y-76610800D02*
X121558164Y-74147000D01*
X114123964Y-82270600D02*
X113714964Y-82679600D01*
X113712364Y-82677000D02*
X111963200Y-82677000D01*
X113714964Y-82679600D02*
X113712364Y-82677000D01*
X114782600Y-82270600D02*
X114123964Y-82270600D01*
X112471200Y-83185000D02*
X114198400Y-83185000D01*
X114198400Y-83185000D02*
X114757200Y-82626200D01*
X114757200Y-82626200D02*
X114782600Y-82626200D01*
X112445800Y-83159600D02*
X112471200Y-83185000D01*
X112471200Y-81076800D02*
X112471200Y-80822800D01*
X112649000Y-80645000D02*
X112471200Y-80822800D01*
X114960400Y-80645000D02*
X112649000Y-80645000D01*
X115468400Y-80873600D02*
X115189000Y-80873600D01*
X115189000Y-80873600D02*
X114960400Y-80645000D01*
X111328200Y-80594200D02*
X111328200Y-81102200D01*
X111658400Y-80264000D02*
X111328200Y-80594200D01*
X113385600Y-80264000D02*
X111658400Y-80264000D01*
X114579400Y-81203800D02*
X113969800Y-81813400D01*
X113969800Y-81813400D02*
X113207800Y-81813400D01*
X114782600Y-81203800D02*
X114579400Y-81203800D01*
X125689964Y-83704600D02*
X125689964Y-81979600D01*
X125439964Y-83954600D02*
X125689964Y-83704600D01*
X125914964Y-81754600D02*
X126764964Y-81754600D01*
X125689964Y-81979600D02*
X125914964Y-81754600D01*
X124939964Y-79929600D02*
X122608164Y-79929600D01*
X121278764Y-83138600D02*
X121278764Y-81462200D01*
X125304664Y-86199300D02*
X125304664Y-85869100D01*
X125304664Y-85869100D02*
X123914964Y-84479400D01*
X123914964Y-84479400D02*
X122619564Y-84479400D01*
X122608164Y-79929600D02*
X122040764Y-80497000D01*
X122619564Y-84479400D02*
X121278764Y-83138600D01*
G04 #@! TA.AperFunction,Conductor*
G36*
X120460929Y-70982512D02*
G01*
X120520050Y-70986158D01*
X121095554Y-71021654D01*
X121098527Y-71021929D01*
X121729578Y-71100071D01*
X121732521Y-71100528D01*
X122357558Y-71217367D01*
X122360475Y-71218006D01*
X122613039Y-71281529D01*
X122639433Y-71298544D01*
X122650078Y-71328088D01*
X122640600Y-71358027D01*
X122614894Y-71376064D01*
X122600057Y-71380420D01*
X122600052Y-71380421D01*
X122596698Y-71381407D01*
X122593755Y-71383297D01*
X122593749Y-71383301D01*
X122488248Y-71451104D01*
X122488246Y-71451105D01*
X122485300Y-71452999D01*
X122483009Y-71455641D01*
X122483004Y-71455647D01*
X122400878Y-71550425D01*
X122400874Y-71550430D01*
X122398583Y-71553075D01*
X122397126Y-71556264D01*
X122397126Y-71556265D01*
X122396137Y-71558432D01*
X122343574Y-71673528D01*
X122343075Y-71676993D01*
X122343075Y-71676996D01*
X122331318Y-71758774D01*
X122324729Y-71804600D01*
X122325228Y-71808071D01*
X122341585Y-71921843D01*
X122343574Y-71935672D01*
X122398583Y-72056125D01*
X122400876Y-72058772D01*
X122400878Y-72058774D01*
X122483004Y-72153552D01*
X122483006Y-72153554D01*
X122485300Y-72156201D01*
X122596698Y-72227793D01*
X122723754Y-72265100D01*
X122852670Y-72265100D01*
X122856174Y-72265100D01*
X122983230Y-72227793D01*
X123094628Y-72156201D01*
X123181345Y-72056125D01*
X123236354Y-71935672D01*
X123255199Y-71804600D01*
X123236354Y-71673528D01*
X123181345Y-71553075D01*
X123157640Y-71525718D01*
X123145778Y-71496852D01*
X123153750Y-71466679D01*
X123178322Y-71447438D01*
X123209524Y-71446936D01*
X123585915Y-71566674D01*
X123588754Y-71567675D01*
X124181642Y-71797361D01*
X124184421Y-71798537D01*
X124762043Y-72064285D01*
X124764745Y-72065630D01*
X125324924Y-72366439D01*
X125327537Y-72367948D01*
X125868120Y-72702663D01*
X125870636Y-72704330D01*
X126064305Y-72841425D01*
X126389609Y-73071703D01*
X126392001Y-73073510D01*
X126884104Y-73469505D01*
X126887364Y-73472128D01*
X126889652Y-73474089D01*
X127003565Y-73577934D01*
X127359522Y-73902432D01*
X127361689Y-73904532D01*
X127804325Y-74361015D01*
X127806358Y-74363246D01*
X128220029Y-74846085D01*
X128221921Y-74848436D01*
X128605096Y-75355842D01*
X128606839Y-75358305D01*
X128958041Y-75888321D01*
X128959630Y-75890887D01*
X129114997Y-76159990D01*
X129272301Y-76432449D01*
X129277543Y-76441527D01*
X129278967Y-76444178D01*
X129398427Y-76684087D01*
X129562386Y-77013361D01*
X129563647Y-77016103D01*
X129811474Y-77601618D01*
X129812565Y-77604432D01*
X130023892Y-78204134D01*
X130024806Y-78207009D01*
X130198802Y-78818540D01*
X130199539Y-78821467D01*
X130335567Y-79442592D01*
X130336121Y-79445559D01*
X130433650Y-80073847D01*
X130434021Y-80076842D01*
X130492687Y-80709953D01*
X130492873Y-80712965D01*
X130512453Y-81348490D01*
X130512453Y-81351508D01*
X130492873Y-81987034D01*
X130492687Y-81990046D01*
X130434021Y-82623157D01*
X130433650Y-82626152D01*
X130336121Y-83254440D01*
X130335567Y-83257407D01*
X130199539Y-83878532D01*
X130198802Y-83881459D01*
X130024806Y-84492990D01*
X130023892Y-84495865D01*
X129812565Y-85095567D01*
X129811474Y-85098381D01*
X129563647Y-85683896D01*
X129562386Y-85686638D01*
X129278971Y-86255813D01*
X129277543Y-86258472D01*
X129028346Y-86690092D01*
X129006266Y-86710164D01*
X128976637Y-86713706D01*
X128950448Y-86699406D01*
X128937410Y-86672567D01*
X128925129Y-86587143D01*
X128865341Y-86456227D01*
X128863048Y-86453581D01*
X128863047Y-86453579D01*
X128831085Y-86416694D01*
X128819339Y-86389264D01*
X128825682Y-86360106D01*
X128847467Y-86340301D01*
X128850017Y-86339553D01*
X128971092Y-86261743D01*
X129065341Y-86152973D01*
X129125129Y-86022057D01*
X129145611Y-85879600D01*
X129125129Y-85737143D01*
X129065341Y-85606227D01*
X128971092Y-85497457D01*
X128968143Y-85495562D01*
X128968140Y-85495559D01*
X128852966Y-85421542D01*
X128852964Y-85421541D01*
X128850017Y-85419647D01*
X128846657Y-85418660D01*
X128846654Y-85418659D01*
X128715287Y-85380087D01*
X128715285Y-85380086D01*
X128711925Y-85379100D01*
X128568003Y-85379100D01*
X128564643Y-85380086D01*
X128564640Y-85380087D01*
X128433273Y-85418659D01*
X128433267Y-85418661D01*
X128429911Y-85419647D01*
X128426965Y-85421539D01*
X128426961Y-85421542D01*
X128311787Y-85495559D01*
X128311780Y-85495564D01*
X128308836Y-85497457D01*
X128306542Y-85500104D01*
X128306539Y-85500107D01*
X128216880Y-85603579D01*
X128216875Y-85603585D01*
X128214587Y-85606227D01*
X128213133Y-85609409D01*
X128213132Y-85609412D01*
X128156255Y-85733953D01*
X128156253Y-85733958D01*
X128154799Y-85737143D01*
X128154300Y-85740609D01*
X128154299Y-85740615D01*
X128150705Y-85765615D01*
X128134317Y-85879600D01*
X128134816Y-85883071D01*
X128154299Y-86018584D01*
X128154300Y-86018588D01*
X128154799Y-86022057D01*
X128156254Y-86025243D01*
X128156255Y-86025246D01*
X128190329Y-86099856D01*
X128214587Y-86152973D01*
X128216878Y-86155617D01*
X128216880Y-86155620D01*
X128248842Y-86192505D01*
X128260588Y-86219933D01*
X128254248Y-86249089D01*
X128232462Y-86268897D01*
X128229911Y-86269647D01*
X128226965Y-86271539D01*
X128226961Y-86271542D01*
X128111787Y-86345559D01*
X128111780Y-86345564D01*
X128108836Y-86347457D01*
X128106542Y-86350104D01*
X128106539Y-86350107D01*
X128016880Y-86453579D01*
X128016875Y-86453585D01*
X128014587Y-86456227D01*
X128013135Y-86459404D01*
X128013131Y-86459412D01*
X127989576Y-86510991D01*
X127967457Y-86534188D01*
X127935730Y-86538749D01*
X127907972Y-86522723D01*
X127897806Y-86510991D01*
X127821092Y-86422457D01*
X127779643Y-86395819D01*
X127759831Y-86370626D01*
X127759831Y-86338574D01*
X127779643Y-86313380D01*
X127821092Y-86286743D01*
X127915341Y-86177973D01*
X127975129Y-86047057D01*
X127995611Y-85904600D01*
X127975129Y-85762143D01*
X127915341Y-85631227D01*
X127896438Y-85609412D01*
X127823388Y-85525107D01*
X127821092Y-85522457D01*
X127818143Y-85520562D01*
X127818140Y-85520559D01*
X127702966Y-85446542D01*
X127702964Y-85446541D01*
X127700017Y-85444647D01*
X127696657Y-85443660D01*
X127696654Y-85443659D01*
X127565287Y-85405087D01*
X127565285Y-85405086D01*
X127561925Y-85404100D01*
X127418003Y-85404100D01*
X127414643Y-85405086D01*
X127414640Y-85405087D01*
X127283273Y-85443659D01*
X127283267Y-85443661D01*
X127279911Y-85444647D01*
X127276965Y-85446539D01*
X127276961Y-85446542D01*
X127161787Y-85520559D01*
X127161780Y-85520564D01*
X127158836Y-85522457D01*
X127156542Y-85525104D01*
X127156539Y-85525107D01*
X127066881Y-85628578D01*
X127066877Y-85628584D01*
X127064587Y-85631227D01*
X127063133Y-85634409D01*
X127062112Y-85635999D01*
X127042238Y-85653609D01*
X127016097Y-85658268D01*
X126991364Y-85648606D01*
X126966464Y-85629802D01*
X126961345Y-85625347D01*
X125627601Y-84291603D01*
X125614570Y-84268255D01*
X125615736Y-84241542D01*
X125630753Y-84219419D01*
X125632950Y-84217576D01*
X125693158Y-84167055D01*
X125742411Y-84081743D01*
X125750190Y-84071606D01*
X125863839Y-83957957D01*
X125868955Y-83953506D01*
X125871104Y-83951882D01*
X125875174Y-83949857D01*
X125907768Y-83914101D01*
X125909289Y-83912507D01*
X125923375Y-83898423D01*
X125925421Y-83895434D01*
X125929629Y-83890120D01*
X125951264Y-83866390D01*
X125956951Y-83851708D01*
X125962216Y-83841721D01*
X125971109Y-83828739D01*
X125978457Y-83797492D01*
X125980466Y-83791008D01*
X125990422Y-83765309D01*
X125992064Y-83761072D01*
X125992064Y-83745331D01*
X125993366Y-83734112D01*
X125996969Y-83718794D01*
X125992534Y-83687000D01*
X125992064Y-83680230D01*
X125992064Y-82125030D01*
X126006416Y-82090382D01*
X126025746Y-82071052D01*
X126060394Y-82056700D01*
X126634638Y-82056700D01*
X126651396Y-82059654D01*
X126707570Y-82080100D01*
X126818069Y-82080100D01*
X126822358Y-82080100D01*
X126930225Y-82040840D01*
X127018158Y-81967055D01*
X127075552Y-81867645D01*
X127095485Y-81754600D01*
X127075552Y-81641555D01*
X127018158Y-81542145D01*
X127014874Y-81539389D01*
X127014873Y-81539388D01*
X126933507Y-81471114D01*
X126930225Y-81468360D01*
X126926199Y-81466894D01*
X126926198Y-81466894D01*
X126856427Y-81441500D01*
X126822358Y-81429100D01*
X126707570Y-81429100D01*
X126703539Y-81430566D01*
X126703539Y-81430567D01*
X126651398Y-81449545D01*
X126634639Y-81452500D01*
X125971176Y-81452500D01*
X125964406Y-81452030D01*
X125961726Y-81451656D01*
X125957424Y-81450214D01*
X125952893Y-81450423D01*
X125952890Y-81450423D01*
X125909102Y-81452448D01*
X125906839Y-81452500D01*
X125886971Y-81452500D01*
X125884756Y-81452913D01*
X125884734Y-81452916D01*
X125883400Y-81453166D01*
X125876676Y-81453946D01*
X125849136Y-81455220D01*
X125849134Y-81455220D01*
X125844600Y-81455430D01*
X125840450Y-81457262D01*
X125840442Y-81457264D01*
X125830191Y-81461790D01*
X125819413Y-81465128D01*
X125812510Y-81466419D01*
X125803943Y-81468021D01*
X125800086Y-81470408D01*
X125800078Y-81470412D01*
X125776644Y-81484920D01*
X125770647Y-81488082D01*
X125745431Y-81499217D01*
X125745428Y-81499218D01*
X125741279Y-81501051D01*
X125738071Y-81504258D01*
X125738066Y-81504262D01*
X125730147Y-81512181D01*
X125721301Y-81519188D01*
X125711775Y-81525087D01*
X125711772Y-81525089D01*
X125707915Y-81527478D01*
X125705183Y-81531094D01*
X125705179Y-81531099D01*
X125688567Y-81553097D01*
X125684113Y-81558215D01*
X125516094Y-81726234D01*
X125510977Y-81730687D01*
X125508812Y-81732321D01*
X125504754Y-81734343D01*
X125501701Y-81737691D01*
X125501698Y-81737694D01*
X125472159Y-81770096D01*
X125470599Y-81771730D01*
X125456553Y-81785777D01*
X125455283Y-81787630D01*
X125455271Y-81787645D01*
X125454495Y-81788779D01*
X125450292Y-81794083D01*
X125431724Y-81814452D01*
X125431721Y-81814455D01*
X125428664Y-81817810D01*
X125427024Y-81822042D01*
X125427024Y-81822043D01*
X125422977Y-81832490D01*
X125417712Y-81842478D01*
X125414145Y-81847686D01*
X125408818Y-81855462D01*
X125407778Y-81859882D01*
X125407778Y-81859883D01*
X125401468Y-81886707D01*
X125399462Y-81893185D01*
X125389503Y-81918893D01*
X125389501Y-81918900D01*
X125387864Y-81923128D01*
X125387864Y-81927668D01*
X125387864Y-81938869D01*
X125386562Y-81950088D01*
X125383999Y-81960982D01*
X125383998Y-81960984D01*
X125382959Y-81965406D01*
X125383586Y-81969901D01*
X125383586Y-81969905D01*
X125387394Y-81997200D01*
X125387864Y-82003970D01*
X125387864Y-83559170D01*
X125384134Y-83577922D01*
X125373514Y-83593815D01*
X125322110Y-83645218D01*
X125287464Y-83659569D01*
X125252816Y-83645217D01*
X125238464Y-83610569D01*
X125238464Y-83357210D01*
X125238934Y-83350440D01*
X125239306Y-83347765D01*
X125240750Y-83343460D01*
X125238515Y-83295137D01*
X125238464Y-83292875D01*
X125238464Y-83275274D01*
X125238464Y-83273007D01*
X125237799Y-83269453D01*
X125237016Y-83262712D01*
X125235534Y-83230636D01*
X125229172Y-83216229D01*
X125225834Y-83205445D01*
X125223777Y-83194441D01*
X125222943Y-83189979D01*
X125206041Y-83162682D01*
X125202880Y-83156683D01*
X125189913Y-83127315D01*
X125178785Y-83116187D01*
X125171772Y-83107333D01*
X125165876Y-83097810D01*
X125165873Y-83097807D01*
X125163486Y-83093951D01*
X125145993Y-83080741D01*
X125137864Y-83074602D01*
X125132745Y-83070147D01*
X124620929Y-82558331D01*
X124616475Y-82553213D01*
X124614844Y-82551053D01*
X124612821Y-82546990D01*
X124609466Y-82543931D01*
X124609465Y-82543930D01*
X124577078Y-82514406D01*
X124575441Y-82512843D01*
X124562988Y-82500390D01*
X124561387Y-82498789D01*
X124559526Y-82497514D01*
X124559515Y-82497505D01*
X124558397Y-82496740D01*
X124553078Y-82492528D01*
X124529354Y-82470900D01*
X124514671Y-82465212D01*
X124504684Y-82459947D01*
X124495448Y-82453620D01*
X124495447Y-82453619D01*
X124491702Y-82451054D01*
X124487283Y-82450014D01*
X124487282Y-82450014D01*
X124460449Y-82443702D01*
X124453971Y-82441696D01*
X124445214Y-82438304D01*
X124424036Y-82430100D01*
X124419492Y-82430100D01*
X124408295Y-82430100D01*
X124397076Y-82428798D01*
X124386181Y-82426235D01*
X124386179Y-82426234D01*
X124381758Y-82425195D01*
X124377261Y-82425822D01*
X124377258Y-82425822D01*
X124349964Y-82429630D01*
X124343194Y-82430100D01*
X122679090Y-82430100D01*
X122662331Y-82427145D01*
X122618472Y-82411182D01*
X122606158Y-82406700D01*
X122491370Y-82406700D01*
X122487339Y-82408166D01*
X122487339Y-82408167D01*
X122387534Y-82444493D01*
X122387533Y-82444493D01*
X122383504Y-82445960D01*
X122380221Y-82448714D01*
X122380217Y-82448717D01*
X122321760Y-82497769D01*
X122287415Y-82509150D01*
X122254623Y-82493859D01*
X122241264Y-82460233D01*
X122241264Y-82445830D01*
X122255616Y-82411182D01*
X122315298Y-82351500D01*
X122591991Y-82074805D01*
X122609874Y-82063412D01*
X122637825Y-82053240D01*
X122725758Y-81979455D01*
X122783152Y-81880045D01*
X122803085Y-81767000D01*
X122783152Y-81653955D01*
X122725758Y-81554545D01*
X122722474Y-81551789D01*
X122722473Y-81551788D01*
X122645601Y-81487285D01*
X122637825Y-81480760D01*
X122633799Y-81479294D01*
X122633798Y-81479294D01*
X122562010Y-81453166D01*
X122529958Y-81441500D01*
X122415170Y-81441500D01*
X122411139Y-81442966D01*
X122411139Y-81442967D01*
X122311334Y-81479293D01*
X122311333Y-81479293D01*
X122307304Y-81480760D01*
X122304021Y-81483514D01*
X122304017Y-81483517D01*
X122222653Y-81551790D01*
X122219370Y-81554545D01*
X122217228Y-81558254D01*
X122217227Y-81558256D01*
X122170119Y-81639848D01*
X122162332Y-81649996D01*
X121765294Y-82047034D01*
X121760177Y-82051487D01*
X121758012Y-82053121D01*
X121753954Y-82055143D01*
X121750901Y-82058491D01*
X121750898Y-82058494D01*
X121721359Y-82090896D01*
X121719799Y-82092530D01*
X121705753Y-82106577D01*
X121704483Y-82108430D01*
X121704471Y-82108445D01*
X121703695Y-82109579D01*
X121699492Y-82114883D01*
X121680924Y-82135252D01*
X121680921Y-82135255D01*
X121677864Y-82138610D01*
X121676223Y-82142843D01*
X121676223Y-82142845D01*
X121675555Y-82144570D01*
X121674169Y-82146162D01*
X121673834Y-82146704D01*
X121673745Y-82146649D01*
X121653707Y-82169677D01*
X121620860Y-82175035D01*
X121592167Y-82158172D01*
X121580864Y-82126869D01*
X121580864Y-81603076D01*
X121586202Y-81583151D01*
X121585743Y-81582984D01*
X121587207Y-81578959D01*
X121589352Y-81575245D01*
X121609285Y-81462200D01*
X121589352Y-81349155D01*
X121531958Y-81249745D01*
X121528674Y-81246989D01*
X121528673Y-81246988D01*
X121447307Y-81178714D01*
X121444025Y-81175960D01*
X121439999Y-81174494D01*
X121439998Y-81174494D01*
X121359781Y-81145298D01*
X121336158Y-81136700D01*
X121221370Y-81136700D01*
X121217339Y-81138166D01*
X121217339Y-81138167D01*
X121117534Y-81174493D01*
X121117533Y-81174493D01*
X121113504Y-81175960D01*
X121110221Y-81178714D01*
X121110217Y-81178717D01*
X121028853Y-81246990D01*
X121025570Y-81249745D01*
X121023430Y-81253451D01*
X121023427Y-81253455D01*
X120981738Y-81325664D01*
X120968176Y-81349155D01*
X120948243Y-81462200D01*
X120968176Y-81575245D01*
X120970319Y-81578957D01*
X120971785Y-81582984D01*
X120971325Y-81583151D01*
X120976664Y-81603076D01*
X120976664Y-83082388D01*
X120976194Y-83089158D01*
X120975819Y-83091838D01*
X120974378Y-83096140D01*
X120974587Y-83100669D01*
X120974587Y-83100673D01*
X120976612Y-83144462D01*
X120976664Y-83146725D01*
X120976664Y-83166593D01*
X120977077Y-83168807D01*
X120977079Y-83168819D01*
X120977329Y-83170153D01*
X120978111Y-83176892D01*
X120978922Y-83194441D01*
X120979594Y-83208964D01*
X120981910Y-83214210D01*
X120982037Y-83215709D01*
X120982467Y-83217535D01*
X120982197Y-83217598D01*
X120984605Y-83245951D01*
X120967213Y-83272643D01*
X120937085Y-83283000D01*
X120827670Y-83283000D01*
X120823639Y-83284466D01*
X120823639Y-83284467D01*
X120754738Y-83309545D01*
X120737979Y-83312500D01*
X117462039Y-83312500D01*
X117433934Y-83303638D01*
X117415994Y-83280259D01*
X117414709Y-83250818D01*
X117430542Y-83225964D01*
X117440587Y-83217535D01*
X117493358Y-83173255D01*
X117550752Y-83073845D01*
X117570685Y-82960800D01*
X117550752Y-82847755D01*
X117493358Y-82748345D01*
X117490074Y-82745589D01*
X117490073Y-82745588D01*
X117408707Y-82677314D01*
X117405425Y-82674560D01*
X117401399Y-82673094D01*
X117401398Y-82673094D01*
X117342673Y-82651720D01*
X117297558Y-82635300D01*
X117182770Y-82635300D01*
X117178739Y-82636766D01*
X117178739Y-82636767D01*
X117078934Y-82673093D01*
X117078933Y-82673093D01*
X117074904Y-82674560D01*
X117071621Y-82677314D01*
X117071617Y-82677317D01*
X116990253Y-82745590D01*
X116986970Y-82748345D01*
X116984830Y-82752051D01*
X116984827Y-82752055D01*
X116960752Y-82793756D01*
X116929576Y-82847755D01*
X116909643Y-82960800D01*
X116910387Y-82965019D01*
X116910387Y-82965021D01*
X116921627Y-83028769D01*
X116917318Y-83058949D01*
X116895996Y-83080741D01*
X116865917Y-83085707D01*
X116838723Y-83071925D01*
X115863529Y-82096731D01*
X115859075Y-82091613D01*
X115857444Y-82089453D01*
X115855421Y-82085390D01*
X115852066Y-82082331D01*
X115852065Y-82082330D01*
X115819678Y-82052806D01*
X115818041Y-82051243D01*
X115805588Y-82038790D01*
X115803987Y-82037189D01*
X115802126Y-82035914D01*
X115802115Y-82035905D01*
X115800997Y-82035140D01*
X115795678Y-82030928D01*
X115771954Y-82009300D01*
X115757271Y-82003612D01*
X115747284Y-81998347D01*
X115738048Y-81992020D01*
X115738047Y-81992019D01*
X115734302Y-81989454D01*
X115729883Y-81988414D01*
X115729882Y-81988414D01*
X115703049Y-81982102D01*
X115696571Y-81980096D01*
X115687814Y-81976704D01*
X115666636Y-81968500D01*
X115662092Y-81968500D01*
X115650895Y-81968500D01*
X115639676Y-81967198D01*
X115628781Y-81964635D01*
X115628779Y-81964634D01*
X115624358Y-81963595D01*
X115619861Y-81964222D01*
X115619858Y-81964222D01*
X115592564Y-81968030D01*
X115585794Y-81968500D01*
X115306250Y-81968500D01*
X115289491Y-81965545D01*
X115258177Y-81954148D01*
X115189358Y-81929100D01*
X115185069Y-81929100D01*
X115156724Y-81929100D01*
X115125228Y-81917636D01*
X115108468Y-81888609D01*
X115101962Y-81851714D01*
X115093188Y-81801955D01*
X115035794Y-81702545D01*
X115032510Y-81699789D01*
X115032509Y-81699788D01*
X114951143Y-81631514D01*
X114947861Y-81628760D01*
X114943835Y-81627294D01*
X114943834Y-81627294D01*
X114915626Y-81617027D01*
X114883801Y-81605444D01*
X114860423Y-81587505D01*
X114851561Y-81559400D01*
X114860423Y-81531295D01*
X114883801Y-81513355D01*
X114947861Y-81490040D01*
X115035794Y-81416255D01*
X115093188Y-81316845D01*
X115110501Y-81218656D01*
X115121822Y-81194966D01*
X115143749Y-81180521D01*
X115165837Y-81179636D01*
X115165851Y-81179355D01*
X115169102Y-81179505D01*
X115169981Y-81179470D01*
X115174806Y-81180605D01*
X115206599Y-81176170D01*
X115213370Y-81175700D01*
X115338074Y-81175700D01*
X115354832Y-81178654D01*
X115411006Y-81199100D01*
X115521505Y-81199100D01*
X115525794Y-81199100D01*
X115633661Y-81159840D01*
X115721594Y-81086055D01*
X115778988Y-80986645D01*
X115797088Y-80883991D01*
X115813848Y-80854964D01*
X115845345Y-80843500D01*
X115877105Y-80843500D01*
X115881394Y-80843500D01*
X115989261Y-80804240D01*
X116077194Y-80730455D01*
X116134588Y-80631045D01*
X116154521Y-80518000D01*
X116153777Y-80513781D01*
X116153777Y-80513776D01*
X116150328Y-80494219D01*
X116151851Y-80470975D01*
X116163933Y-80451063D01*
X117290397Y-79324600D01*
X117989729Y-79324600D01*
X118008574Y-79455672D01*
X118063583Y-79576125D01*
X118065876Y-79578772D01*
X118065878Y-79578774D01*
X118148004Y-79673552D01*
X118148006Y-79673554D01*
X118150300Y-79676201D01*
X118261698Y-79747793D01*
X118388754Y-79785100D01*
X118517670Y-79785100D01*
X118521174Y-79785100D01*
X118648230Y-79747793D01*
X118759628Y-79676201D01*
X118846345Y-79576125D01*
X118901354Y-79455672D01*
X118920199Y-79324600D01*
X118901354Y-79193528D01*
X118846345Y-79073075D01*
X118844049Y-79070425D01*
X118761923Y-78975647D01*
X118761921Y-78975645D01*
X118759628Y-78972999D01*
X118727002Y-78952031D01*
X118651178Y-78903301D01*
X118651174Y-78903299D01*
X118648230Y-78901407D01*
X118644870Y-78900420D01*
X118644867Y-78900419D01*
X118524536Y-78865087D01*
X118524534Y-78865086D01*
X118521174Y-78864100D01*
X118388754Y-78864100D01*
X118385394Y-78865086D01*
X118385391Y-78865087D01*
X118265060Y-78900419D01*
X118265054Y-78900421D01*
X118261698Y-78901407D01*
X118258755Y-78903297D01*
X118258749Y-78903301D01*
X118153248Y-78971104D01*
X118153246Y-78971105D01*
X118150300Y-78972999D01*
X118148009Y-78975641D01*
X118148004Y-78975647D01*
X118065878Y-79070425D01*
X118065874Y-79070430D01*
X118063583Y-79073075D01*
X118062126Y-79076264D01*
X118062126Y-79076265D01*
X118034202Y-79137411D01*
X118008574Y-79193528D01*
X118008075Y-79196993D01*
X118008075Y-79196996D01*
X117998011Y-79266996D01*
X117989729Y-79324600D01*
X117290397Y-79324600D01*
X117355921Y-79259076D01*
X117373805Y-79247682D01*
X117481625Y-79208440D01*
X117569558Y-79134655D01*
X117626952Y-79035245D01*
X117646885Y-78922200D01*
X117626952Y-78809155D01*
X117569558Y-78709745D01*
X117566274Y-78706989D01*
X117566273Y-78706988D01*
X117484907Y-78638714D01*
X117481625Y-78635960D01*
X117477599Y-78634494D01*
X117477598Y-78634494D01*
X117418873Y-78613120D01*
X117373758Y-78596700D01*
X117258970Y-78596700D01*
X117254939Y-78598166D01*
X117254939Y-78598167D01*
X117155130Y-78634494D01*
X117155126Y-78634495D01*
X117151104Y-78635960D01*
X117147825Y-78638710D01*
X117147818Y-78638715D01*
X117145659Y-78640527D01*
X117139962Y-78644647D01*
X117127241Y-78652523D01*
X117121241Y-78655686D01*
X117096031Y-78666818D01*
X117096028Y-78666819D01*
X117091879Y-78668652D01*
X117088669Y-78671861D01*
X117088667Y-78671863D01*
X117080749Y-78679780D01*
X117071902Y-78686788D01*
X117062373Y-78692688D01*
X117062369Y-78692691D01*
X117058515Y-78695078D01*
X117055783Y-78698694D01*
X117055779Y-78698699D01*
X117039164Y-78720701D01*
X117034710Y-78725819D01*
X116858094Y-78902435D01*
X116826295Y-78916704D01*
X116793054Y-78906223D01*
X116775190Y-78876296D01*
X116763352Y-78809155D01*
X116705958Y-78709745D01*
X116702674Y-78706989D01*
X116702673Y-78706988D01*
X116621307Y-78638714D01*
X116618025Y-78635960D01*
X116613999Y-78634494D01*
X116613998Y-78634494D01*
X116555273Y-78613120D01*
X116510158Y-78596700D01*
X116395370Y-78596700D01*
X116391339Y-78598166D01*
X116391339Y-78598167D01*
X116291534Y-78634493D01*
X116291533Y-78634493D01*
X116287504Y-78635960D01*
X116284221Y-78638714D01*
X116284217Y-78638717D01*
X116202853Y-78706990D01*
X116199570Y-78709745D01*
X116197428Y-78713454D01*
X116197427Y-78713456D01*
X116150319Y-78795048D01*
X116142532Y-78805196D01*
X115294530Y-79653198D01*
X115289413Y-79657651D01*
X115287248Y-79659285D01*
X115283190Y-79661307D01*
X115280137Y-79664655D01*
X115280134Y-79664658D01*
X115250595Y-79697060D01*
X115249035Y-79698694D01*
X115234989Y-79712741D01*
X115233719Y-79714594D01*
X115233707Y-79714609D01*
X115232931Y-79715743D01*
X115228728Y-79721047D01*
X115210160Y-79741416D01*
X115210157Y-79741419D01*
X115207100Y-79744774D01*
X115205460Y-79749006D01*
X115205460Y-79749007D01*
X115201413Y-79759454D01*
X115196147Y-79769442D01*
X115187254Y-79782426D01*
X115186214Y-79786846D01*
X115186214Y-79786847D01*
X115179904Y-79813671D01*
X115177898Y-79820149D01*
X115167939Y-79845857D01*
X115167937Y-79845864D01*
X115166300Y-79850092D01*
X115166300Y-79854632D01*
X115166300Y-79865833D01*
X115164998Y-79877052D01*
X115162435Y-79887946D01*
X115162434Y-79887948D01*
X115161395Y-79892370D01*
X115162022Y-79896865D01*
X115162022Y-79896869D01*
X115165830Y-79924164D01*
X115166300Y-79930934D01*
X115166300Y-80326903D01*
X115154016Y-80359352D01*
X115123322Y-80375532D01*
X115092530Y-80368039D01*
X115092436Y-80368254D01*
X115091236Y-80367724D01*
X115089609Y-80367328D01*
X115084538Y-80363854D01*
X115080119Y-80362814D01*
X115080118Y-80362814D01*
X115053285Y-80356502D01*
X115046807Y-80354496D01*
X115038050Y-80351104D01*
X115016872Y-80342900D01*
X115012328Y-80342900D01*
X115001131Y-80342900D01*
X114989912Y-80341598D01*
X114979017Y-80339035D01*
X114979015Y-80339034D01*
X114974594Y-80337995D01*
X114970097Y-80338622D01*
X114970094Y-80338622D01*
X114942800Y-80342430D01*
X114936030Y-80342900D01*
X113760605Y-80342900D01*
X113733679Y-80334839D01*
X113715612Y-80313308D01*
X113712349Y-80285391D01*
X113715377Y-80268219D01*
X113716121Y-80264000D01*
X113696188Y-80150955D01*
X113638794Y-80051545D01*
X113635510Y-80048789D01*
X113635509Y-80048788D01*
X113554143Y-79980514D01*
X113550861Y-79977760D01*
X113546835Y-79976294D01*
X113546834Y-79976294D01*
X113488109Y-79954920D01*
X113442994Y-79938500D01*
X113328206Y-79938500D01*
X113324175Y-79939966D01*
X113324175Y-79939967D01*
X113272034Y-79958945D01*
X113255275Y-79961900D01*
X111714611Y-79961900D01*
X111707841Y-79961430D01*
X111705161Y-79961056D01*
X111700859Y-79959614D01*
X111696328Y-79959823D01*
X111696325Y-79959823D01*
X111652537Y-79961848D01*
X111650274Y-79961900D01*
X111630407Y-79961900D01*
X111628192Y-79962313D01*
X111628170Y-79962316D01*
X111626836Y-79962566D01*
X111620112Y-79963346D01*
X111592570Y-79964620D01*
X111592568Y-79964620D01*
X111588036Y-79964830D01*
X111583883Y-79966663D01*
X111583881Y-79966664D01*
X111573632Y-79971189D01*
X111562850Y-79974528D01*
X111551843Y-79976586D01*
X111551841Y-79976586D01*
X111547379Y-79977421D01*
X111543517Y-79979811D01*
X111543517Y-79979812D01*
X111520080Y-79994322D01*
X111514082Y-79997484D01*
X111488865Y-80008619D01*
X111488863Y-80008620D01*
X111484715Y-80010452D01*
X111481505Y-80013661D01*
X111481503Y-80013663D01*
X111473585Y-80021580D01*
X111464738Y-80028588D01*
X111455209Y-80034488D01*
X111455205Y-80034491D01*
X111451351Y-80036878D01*
X111448619Y-80040494D01*
X111448615Y-80040499D01*
X111432000Y-80062501D01*
X111427546Y-80067619D01*
X111154330Y-80340834D01*
X111149213Y-80345287D01*
X111147048Y-80346921D01*
X111142990Y-80348943D01*
X111139935Y-80352293D01*
X111139931Y-80352297D01*
X111110393Y-80384697D01*
X111108834Y-80386331D01*
X111094789Y-80400377D01*
X111093519Y-80402230D01*
X111093507Y-80402245D01*
X111092731Y-80403379D01*
X111088528Y-80408683D01*
X111069960Y-80429052D01*
X111069957Y-80429055D01*
X111066900Y-80432410D01*
X111065260Y-80436642D01*
X111065260Y-80436643D01*
X111061213Y-80447090D01*
X111055947Y-80457078D01*
X111047054Y-80470062D01*
X111046014Y-80474482D01*
X111046014Y-80474483D01*
X111039704Y-80501307D01*
X111037698Y-80507785D01*
X111027739Y-80533493D01*
X111027737Y-80533500D01*
X111026100Y-80537728D01*
X111026100Y-80542268D01*
X111026100Y-80553469D01*
X111024798Y-80564688D01*
X111022235Y-80575582D01*
X111022234Y-80575584D01*
X111021195Y-80580006D01*
X111021822Y-80584501D01*
X111021822Y-80584505D01*
X111025630Y-80611800D01*
X111026100Y-80618570D01*
X111026100Y-80961324D01*
X111020761Y-80981248D01*
X111021221Y-80981416D01*
X111019755Y-80985442D01*
X111017612Y-80989155D01*
X111016868Y-80993373D01*
X111016868Y-80993374D01*
X111010184Y-81031281D01*
X110997679Y-81102200D01*
X111017612Y-81215245D01*
X111075006Y-81314655D01*
X111162939Y-81388440D01*
X111270806Y-81427700D01*
X111381305Y-81427700D01*
X111385594Y-81427700D01*
X111493461Y-81388440D01*
X111581394Y-81314655D01*
X111638788Y-81215245D01*
X111658721Y-81102200D01*
X111638788Y-80989155D01*
X111636644Y-80985441D01*
X111635179Y-80981416D01*
X111635638Y-80981248D01*
X111630300Y-80961324D01*
X111630300Y-80739630D01*
X111644652Y-80704982D01*
X111769182Y-80580452D01*
X111803830Y-80566100D01*
X112185447Y-80566100D01*
X112219557Y-80579922D01*
X112234424Y-80613590D01*
X112221660Y-80648108D01*
X112209900Y-80661010D01*
X112208260Y-80665242D01*
X112208260Y-80665243D01*
X112204213Y-80675690D01*
X112198948Y-80685678D01*
X112195424Y-80690823D01*
X112190054Y-80698662D01*
X112189014Y-80703082D01*
X112189014Y-80703083D01*
X112182704Y-80729907D01*
X112180698Y-80736385D01*
X112170739Y-80762093D01*
X112170737Y-80762100D01*
X112169100Y-80766328D01*
X112169100Y-80770868D01*
X112169100Y-80782069D01*
X112167798Y-80793288D01*
X112165235Y-80804182D01*
X112165234Y-80804184D01*
X112164195Y-80808606D01*
X112164822Y-80813101D01*
X112164822Y-80813105D01*
X112168630Y-80840400D01*
X112169100Y-80847170D01*
X112169100Y-80935924D01*
X112163761Y-80955848D01*
X112164221Y-80956016D01*
X112162755Y-80960042D01*
X112160612Y-80963755D01*
X112140679Y-81076800D01*
X112160612Y-81189845D01*
X112218006Y-81289255D01*
X112221288Y-81292009D01*
X112221290Y-81292011D01*
X112243849Y-81310940D01*
X112305939Y-81363040D01*
X112413806Y-81402300D01*
X112524305Y-81402300D01*
X112528594Y-81402300D01*
X112636461Y-81363040D01*
X112681003Y-81325663D01*
X112712500Y-81314200D01*
X112743996Y-81325663D01*
X112788539Y-81363040D01*
X112896406Y-81402300D01*
X113006905Y-81402300D01*
X113011194Y-81402300D01*
X113119061Y-81363040D01*
X113206994Y-81289255D01*
X113264388Y-81189845D01*
X113284321Y-81076800D01*
X113279686Y-81050511D01*
X113271592Y-81004609D01*
X113274855Y-80976692D01*
X113292922Y-80955161D01*
X113319848Y-80947100D01*
X114290569Y-80947100D01*
X114325217Y-80961452D01*
X114339569Y-80996100D01*
X114325217Y-81030748D01*
X113859018Y-81496948D01*
X113843122Y-81507570D01*
X113824370Y-81511300D01*
X113338126Y-81511300D01*
X113321367Y-81508345D01*
X113310149Y-81504262D01*
X113265194Y-81487900D01*
X113150406Y-81487900D01*
X113146375Y-81489366D01*
X113146375Y-81489367D01*
X113046570Y-81525693D01*
X113046569Y-81525693D01*
X113042540Y-81527160D01*
X113039257Y-81529914D01*
X113039253Y-81529917D01*
X112957889Y-81598190D01*
X112954606Y-81600945D01*
X112952466Y-81604651D01*
X112952463Y-81604655D01*
X112921565Y-81658174D01*
X112897212Y-81700355D01*
X112877279Y-81813400D01*
X112897212Y-81926445D01*
X112954606Y-82025855D01*
X112957888Y-82028609D01*
X112957890Y-82028611D01*
X112963383Y-82033220D01*
X113042539Y-82099640D01*
X113150406Y-82138900D01*
X113260905Y-82138900D01*
X113265194Y-82138900D01*
X113321367Y-82118454D01*
X113338126Y-82115500D01*
X113733535Y-82115500D01*
X113760758Y-82123758D01*
X113778805Y-82145749D01*
X113781593Y-82174060D01*
X113768183Y-82199147D01*
X113681124Y-82286206D01*
X113606782Y-82360548D01*
X113572134Y-82374900D01*
X112093526Y-82374900D01*
X112076767Y-82371945D01*
X112020594Y-82351500D01*
X111905806Y-82351500D01*
X111901775Y-82352966D01*
X111901775Y-82352967D01*
X111801970Y-82389293D01*
X111801969Y-82389293D01*
X111797940Y-82390760D01*
X111794657Y-82393514D01*
X111794653Y-82393517D01*
X111715145Y-82460233D01*
X111710006Y-82464545D01*
X111707866Y-82468251D01*
X111707863Y-82468255D01*
X111660243Y-82550737D01*
X111652612Y-82563955D01*
X111651868Y-82568173D01*
X111651868Y-82568174D01*
X111645889Y-82602084D01*
X111632679Y-82677000D01*
X111652612Y-82790045D01*
X111710006Y-82889455D01*
X111713288Y-82892209D01*
X111713290Y-82892211D01*
X111730374Y-82906546D01*
X111797939Y-82963240D01*
X111905806Y-83002500D01*
X112016305Y-83002500D01*
X112020594Y-83002500D01*
X112073368Y-82983292D01*
X112109534Y-82984344D01*
X112135119Y-83009930D01*
X112136137Y-83044951D01*
X112135212Y-83046555D01*
X112134468Y-83050772D01*
X112134467Y-83050776D01*
X112126174Y-83097810D01*
X112115279Y-83159600D01*
X112135212Y-83272645D01*
X112192606Y-83372055D01*
X112280539Y-83445840D01*
X112388406Y-83485100D01*
X112404027Y-83485100D01*
X112411305Y-83485774D01*
X112414728Y-83487100D01*
X112430469Y-83487100D01*
X112441687Y-83488401D01*
X112457006Y-83492005D01*
X112488799Y-83487570D01*
X112495570Y-83487100D01*
X114142188Y-83487100D01*
X114148958Y-83487570D01*
X114151636Y-83487943D01*
X114155940Y-83489386D01*
X114204262Y-83487151D01*
X114206525Y-83487100D01*
X114224129Y-83487100D01*
X114226393Y-83487100D01*
X114229951Y-83486434D01*
X114236687Y-83485652D01*
X114268764Y-83484170D01*
X114275022Y-83481407D01*
X114283163Y-83477812D01*
X114293955Y-83474470D01*
X114309421Y-83471579D01*
X114336718Y-83454677D01*
X114342698Y-83451524D01*
X114372085Y-83438549D01*
X114383213Y-83427420D01*
X114392067Y-83420407D01*
X114405449Y-83412122D01*
X114424796Y-83386500D01*
X114429245Y-83381387D01*
X114862092Y-82948540D01*
X114879977Y-82937146D01*
X114947861Y-82912440D01*
X114954887Y-82906543D01*
X114977873Y-82895823D01*
X115003141Y-82898032D01*
X115080806Y-82926300D01*
X115091455Y-82926300D01*
X115122952Y-82937764D01*
X115139711Y-82966791D01*
X115142114Y-82980419D01*
X115157812Y-83069445D01*
X115182477Y-83112166D01*
X115212593Y-83164330D01*
X115215206Y-83168855D01*
X115218488Y-83171609D01*
X115218490Y-83171611D01*
X115223734Y-83176011D01*
X115303139Y-83242640D01*
X115411006Y-83281900D01*
X115521505Y-83281900D01*
X115525794Y-83281900D01*
X115633661Y-83242640D01*
X115721594Y-83168855D01*
X115778988Y-83069445D01*
X115793040Y-82989750D01*
X115810903Y-82959825D01*
X115844144Y-82949344D01*
X115875943Y-82963613D01*
X116700797Y-83788467D01*
X116705252Y-83793586D01*
X116706883Y-83795746D01*
X116708907Y-83799810D01*
X116712259Y-83802866D01*
X116712261Y-83802868D01*
X116744660Y-83832403D01*
X116746297Y-83833967D01*
X116760341Y-83848011D01*
X116763328Y-83850057D01*
X116768638Y-83854261D01*
X116792374Y-83875900D01*
X116796608Y-83877540D01*
X116807050Y-83881585D01*
X116817043Y-83886852D01*
X116830026Y-83895746D01*
X116861286Y-83903098D01*
X116867740Y-83905096D01*
X116897692Y-83916700D01*
X116913433Y-83916700D01*
X116924651Y-83918001D01*
X116939970Y-83921605D01*
X116971763Y-83917170D01*
X116978534Y-83916700D01*
X120653950Y-83916700D01*
X120684240Y-83927183D01*
X120701569Y-83954148D01*
X120698522Y-83986053D01*
X120658574Y-84073528D01*
X120658075Y-84076993D01*
X120658075Y-84076996D01*
X120644079Y-84174345D01*
X120639729Y-84204600D01*
X120640228Y-84208071D01*
X120654957Y-84310519D01*
X120658574Y-84335672D01*
X120713583Y-84456125D01*
X120715876Y-84458772D01*
X120715878Y-84458774D01*
X120798004Y-84553552D01*
X120798006Y-84553554D01*
X120800300Y-84556201D01*
X120911698Y-84627793D01*
X121038754Y-84665100D01*
X121167670Y-84665100D01*
X121171174Y-84665100D01*
X121298230Y-84627793D01*
X121409628Y-84556201D01*
X121496345Y-84456125D01*
X121551354Y-84335672D01*
X121570199Y-84204600D01*
X121551354Y-84073528D01*
X121496345Y-83953075D01*
X121490646Y-83946498D01*
X121411923Y-83855647D01*
X121411921Y-83855645D01*
X121409628Y-83852999D01*
X121331624Y-83802868D01*
X121301178Y-83783301D01*
X121301174Y-83783299D01*
X121298230Y-83781407D01*
X121294870Y-83780420D01*
X121294867Y-83780419D01*
X121232729Y-83762174D01*
X121204897Y-83740993D01*
X121198278Y-83706650D01*
X121202337Y-83683631D01*
X121215106Y-83611216D01*
X121232969Y-83581291D01*
X121266210Y-83570810D01*
X121298009Y-83585079D01*
X122366197Y-84653267D01*
X122370652Y-84658386D01*
X122372283Y-84660546D01*
X122374307Y-84664610D01*
X122377659Y-84667666D01*
X122377661Y-84667668D01*
X122410060Y-84697203D01*
X122411697Y-84698767D01*
X122425741Y-84712811D01*
X122428728Y-84714857D01*
X122434038Y-84719061D01*
X122457774Y-84740700D01*
X122462008Y-84742340D01*
X122472450Y-84746385D01*
X122482443Y-84751652D01*
X122495426Y-84760546D01*
X122526679Y-84767896D01*
X122533155Y-84769901D01*
X122563092Y-84781500D01*
X122578829Y-84781500D01*
X122590048Y-84782802D01*
X122605371Y-84786406D01*
X122637169Y-84781970D01*
X122643940Y-84781500D01*
X123769534Y-84781500D01*
X123804182Y-84795852D01*
X124296482Y-85288152D01*
X124310834Y-85322800D01*
X124296482Y-85357448D01*
X124261834Y-85371800D01*
X117801432Y-85371800D01*
X117786096Y-85366389D01*
X117783760Y-85371800D01*
X117779800Y-85371800D01*
X117779608Y-85381414D01*
X117779608Y-85381416D01*
X117660612Y-91355001D01*
X117651530Y-91382456D01*
X117628548Y-91400009D01*
X117599670Y-91401545D01*
X117302890Y-91326902D01*
X117299988Y-91326076D01*
X116694092Y-91133327D01*
X116691245Y-91132324D01*
X116098357Y-90902638D01*
X116095578Y-90901462D01*
X115517956Y-90635714D01*
X115515254Y-90634369D01*
X114955075Y-90333560D01*
X114952462Y-90332051D01*
X114411879Y-89997336D01*
X114409363Y-89995669D01*
X113890398Y-89628302D01*
X113887990Y-89626483D01*
X113783573Y-89542459D01*
X113392633Y-89227869D01*
X113390343Y-89225907D01*
X112920477Y-88797567D01*
X112918310Y-88795467D01*
X112475674Y-88338984D01*
X112473641Y-88336753D01*
X112326149Y-88164600D01*
X113139729Y-88164600D01*
X113140228Y-88168071D01*
X113153718Y-88261901D01*
X113158574Y-88295672D01*
X113213583Y-88416125D01*
X113215876Y-88418772D01*
X113215878Y-88418774D01*
X113298004Y-88513552D01*
X113298006Y-88513554D01*
X113300300Y-88516201D01*
X113411698Y-88587793D01*
X113538754Y-88625100D01*
X113667670Y-88625100D01*
X113671174Y-88625100D01*
X113798230Y-88587793D01*
X113909628Y-88516201D01*
X113996345Y-88416125D01*
X114051354Y-88295672D01*
X114070199Y-88164600D01*
X114051354Y-88033528D01*
X113996345Y-87913075D01*
X113994049Y-87910425D01*
X113911923Y-87815647D01*
X113911921Y-87815645D01*
X113909628Y-87812999D01*
X113877002Y-87792031D01*
X113801178Y-87743301D01*
X113801174Y-87743299D01*
X113798230Y-87741407D01*
X113794870Y-87740420D01*
X113794867Y-87740419D01*
X113674536Y-87705087D01*
X113674534Y-87705086D01*
X113671174Y-87704100D01*
X113538754Y-87704100D01*
X113535394Y-87705086D01*
X113535391Y-87705087D01*
X113415060Y-87740419D01*
X113415054Y-87740421D01*
X113411698Y-87741407D01*
X113408755Y-87743297D01*
X113408749Y-87743301D01*
X113303248Y-87811104D01*
X113303246Y-87811105D01*
X113300300Y-87812999D01*
X113298009Y-87815641D01*
X113298004Y-87815647D01*
X113215878Y-87910425D01*
X113215874Y-87910430D01*
X113213583Y-87913075D01*
X113212126Y-87916264D01*
X113212126Y-87916265D01*
X113163604Y-88022514D01*
X113158574Y-88033528D01*
X113139729Y-88164600D01*
X112326149Y-88164600D01*
X112059970Y-87853914D01*
X112058078Y-87851563D01*
X111674903Y-87344157D01*
X111673160Y-87341694D01*
X111321958Y-86811678D01*
X111320369Y-86809112D01*
X111251653Y-86690092D01*
X111002445Y-86258453D01*
X111001038Y-86255832D01*
X110717610Y-85686631D01*
X110716352Y-85683896D01*
X110468520Y-85098369D01*
X110467434Y-85095567D01*
X110429831Y-84988858D01*
X110382520Y-84854600D01*
X117124729Y-84854600D01*
X117143574Y-84985672D01*
X117198583Y-85106125D01*
X117200876Y-85108772D01*
X117200878Y-85108774D01*
X117283004Y-85203552D01*
X117283006Y-85203554D01*
X117285300Y-85206201D01*
X117396698Y-85277793D01*
X117523754Y-85315100D01*
X117652670Y-85315100D01*
X117656174Y-85315100D01*
X117730145Y-85293380D01*
X117762308Y-85296338D01*
X117780781Y-85278511D01*
X117783230Y-85277793D01*
X117894628Y-85206201D01*
X117981345Y-85106125D01*
X118036354Y-84985672D01*
X118055199Y-84854600D01*
X118036354Y-84723528D01*
X117981345Y-84603075D01*
X117955531Y-84573284D01*
X117896923Y-84505647D01*
X117896921Y-84505645D01*
X117894628Y-84502999D01*
X117862002Y-84482031D01*
X117786178Y-84433301D01*
X117786174Y-84433299D01*
X117783230Y-84431407D01*
X117779870Y-84430420D01*
X117779867Y-84430419D01*
X117659536Y-84395087D01*
X117659534Y-84395086D01*
X117656174Y-84394100D01*
X117523754Y-84394100D01*
X117520394Y-84395086D01*
X117520391Y-84395087D01*
X117400060Y-84430419D01*
X117400054Y-84430421D01*
X117396698Y-84431407D01*
X117393755Y-84433297D01*
X117393749Y-84433301D01*
X117288248Y-84501104D01*
X117288246Y-84501105D01*
X117285300Y-84502999D01*
X117283009Y-84505641D01*
X117283004Y-84505647D01*
X117200878Y-84600425D01*
X117200874Y-84600430D01*
X117198583Y-84603075D01*
X117197126Y-84606264D01*
X117197126Y-84606265D01*
X117147536Y-84714853D01*
X117143574Y-84723528D01*
X117143075Y-84726993D01*
X117143075Y-84726996D01*
X117125228Y-84851129D01*
X117124729Y-84854600D01*
X110382520Y-84854600D01*
X110256104Y-84495857D01*
X110255193Y-84492989D01*
X110218287Y-84363278D01*
X110219022Y-84334102D01*
X110236216Y-84310519D01*
X110263770Y-84300897D01*
X110291908Y-84308648D01*
X110321698Y-84327793D01*
X110448754Y-84365100D01*
X110577670Y-84365100D01*
X110581174Y-84365100D01*
X110708230Y-84327793D01*
X110819628Y-84256201D01*
X110906345Y-84156125D01*
X110961354Y-84035672D01*
X110978951Y-83913277D01*
X110979700Y-83908071D01*
X110980199Y-83904600D01*
X110979700Y-83901129D01*
X110979700Y-83897627D01*
X110980832Y-83897627D01*
X110985956Y-83871015D01*
X111010180Y-83850020D01*
X111042199Y-83848494D01*
X111098754Y-83865100D01*
X111227670Y-83865100D01*
X111231174Y-83865100D01*
X111358230Y-83827793D01*
X111469628Y-83756201D01*
X111556345Y-83656125D01*
X111611354Y-83535672D01*
X111630199Y-83404600D01*
X111611354Y-83273528D01*
X111556345Y-83153075D01*
X111548882Y-83144462D01*
X111471923Y-83055647D01*
X111471921Y-83055645D01*
X111469628Y-83052999D01*
X111431926Y-83028769D01*
X111361178Y-82983301D01*
X111361174Y-82983299D01*
X111358230Y-82981407D01*
X111354870Y-82980420D01*
X111354867Y-82980419D01*
X111234536Y-82945087D01*
X111234534Y-82945086D01*
X111231174Y-82944100D01*
X111098754Y-82944100D01*
X111095394Y-82945086D01*
X111095391Y-82945087D01*
X110975060Y-82980419D01*
X110975054Y-82980421D01*
X110971698Y-82981407D01*
X110968755Y-82983297D01*
X110968749Y-82983301D01*
X110863248Y-83051104D01*
X110863246Y-83051105D01*
X110860300Y-83052999D01*
X110858009Y-83055641D01*
X110858004Y-83055647D01*
X110775878Y-83150425D01*
X110775874Y-83150430D01*
X110773583Y-83153075D01*
X110772126Y-83156264D01*
X110772126Y-83156265D01*
X110730671Y-83247040D01*
X110718574Y-83273528D01*
X110718075Y-83276993D01*
X110718075Y-83276996D01*
X110705406Y-83365114D01*
X110699729Y-83404600D01*
X110700228Y-83408071D01*
X110700228Y-83411573D01*
X110699099Y-83411573D01*
X110693964Y-83438195D01*
X110669741Y-83459181D01*
X110637727Y-83460705D01*
X110584536Y-83445087D01*
X110584534Y-83445086D01*
X110581174Y-83444100D01*
X110448754Y-83444100D01*
X110445394Y-83445086D01*
X110445391Y-83445087D01*
X110325060Y-83480419D01*
X110325054Y-83480421D01*
X110321698Y-83481407D01*
X110318755Y-83483297D01*
X110318749Y-83483301D01*
X110213248Y-83551104D01*
X110213246Y-83551105D01*
X110210300Y-83552999D01*
X110208009Y-83555641D01*
X110208004Y-83555647D01*
X110125878Y-83650425D01*
X110125874Y-83650430D01*
X110123583Y-83653075D01*
X110122129Y-83656258D01*
X110122125Y-83656265D01*
X110122079Y-83656368D01*
X110122015Y-83656437D01*
X110120233Y-83659211D01*
X110119758Y-83658906D01*
X110101768Y-83678582D01*
X110072303Y-83684731D01*
X110044802Y-83672495D01*
X110029643Y-83646491D01*
X110016390Y-83585977D01*
X109944427Y-83257381D01*
X109943883Y-83254466D01*
X109846346Y-82626127D01*
X109845981Y-82623183D01*
X109787310Y-81990028D01*
X109787127Y-81987053D01*
X109767546Y-81351493D01*
X109767546Y-81348507D01*
X109787127Y-80712944D01*
X109787310Y-80709973D01*
X109845981Y-80076812D01*
X109846345Y-80073876D01*
X109943883Y-79445527D01*
X109944425Y-79442624D01*
X109954942Y-79394600D01*
X113479729Y-79394600D01*
X113498574Y-79525672D01*
X113553583Y-79646125D01*
X113555876Y-79648772D01*
X113555878Y-79648774D01*
X113638004Y-79743552D01*
X113638006Y-79743554D01*
X113640300Y-79746201D01*
X113703546Y-79786847D01*
X113743995Y-79812843D01*
X113751698Y-79817793D01*
X113878754Y-79855100D01*
X114007670Y-79855100D01*
X114011174Y-79855100D01*
X114138230Y-79817793D01*
X114249628Y-79746201D01*
X114336345Y-79646125D01*
X114391354Y-79525672D01*
X114410199Y-79394600D01*
X114391354Y-79263528D01*
X114336345Y-79143075D01*
X114325830Y-79130940D01*
X114251923Y-79045647D01*
X114251921Y-79045645D01*
X114249628Y-79042999D01*
X114217002Y-79022031D01*
X114141178Y-78973301D01*
X114141174Y-78973299D01*
X114138230Y-78971407D01*
X114134870Y-78970420D01*
X114134867Y-78970419D01*
X114014536Y-78935087D01*
X114014534Y-78935086D01*
X114011174Y-78934100D01*
X113878754Y-78934100D01*
X113875394Y-78935086D01*
X113875391Y-78935087D01*
X113755060Y-78970419D01*
X113755054Y-78970421D01*
X113751698Y-78971407D01*
X113748755Y-78973297D01*
X113748749Y-78973301D01*
X113643248Y-79041104D01*
X113643246Y-79041105D01*
X113640300Y-79042999D01*
X113638009Y-79045641D01*
X113638004Y-79045647D01*
X113555878Y-79140425D01*
X113555874Y-79140430D01*
X113553583Y-79143075D01*
X113552126Y-79146264D01*
X113552126Y-79146265D01*
X113523063Y-79209905D01*
X113498574Y-79263528D01*
X113479729Y-79394600D01*
X109954942Y-79394600D01*
X110080466Y-78821442D01*
X110081190Y-78818565D01*
X110255198Y-78206991D01*
X110256101Y-78204152D01*
X110325293Y-78007800D01*
X116503243Y-78007800D01*
X116523176Y-78120845D01*
X116549094Y-78165736D01*
X116572079Y-78205549D01*
X116580570Y-78220255D01*
X116583852Y-78223009D01*
X116583854Y-78223011D01*
X116623935Y-78256643D01*
X116668503Y-78294040D01*
X116776370Y-78333300D01*
X116886869Y-78333300D01*
X116891158Y-78333300D01*
X116999025Y-78294040D01*
X117086958Y-78220255D01*
X117136211Y-78134943D01*
X117143990Y-78124806D01*
X117208219Y-78060577D01*
X117240017Y-78046309D01*
X117273257Y-78056790D01*
X117291122Y-78086717D01*
X117310576Y-78197045D01*
X117367970Y-78296455D01*
X117371252Y-78299209D01*
X117371254Y-78299211D01*
X117405307Y-78327785D01*
X117455903Y-78370240D01*
X117563770Y-78409500D01*
X117674269Y-78409500D01*
X117678558Y-78409500D01*
X117734731Y-78389054D01*
X117751490Y-78386100D01*
X117896988Y-78386100D01*
X117903758Y-78386570D01*
X117906436Y-78386943D01*
X117910740Y-78388386D01*
X117959062Y-78386151D01*
X117961325Y-78386100D01*
X117978929Y-78386100D01*
X117981193Y-78386100D01*
X117984751Y-78385434D01*
X117991487Y-78384652D01*
X118023564Y-78383170D01*
X118037962Y-78376812D01*
X118048755Y-78373470D01*
X118064221Y-78370579D01*
X118091518Y-78353677D01*
X118097498Y-78350524D01*
X118126885Y-78337549D01*
X118138013Y-78326420D01*
X118146867Y-78319407D01*
X118160249Y-78311122D01*
X118179596Y-78285500D01*
X118184045Y-78280387D01*
X119003209Y-77461223D01*
X119021092Y-77449830D01*
X119049043Y-77439658D01*
X119136976Y-77365873D01*
X119186229Y-77280561D01*
X119194008Y-77270424D01*
X119695981Y-76768452D01*
X119730630Y-76754100D01*
X119814105Y-76754100D01*
X119818394Y-76754100D01*
X119873874Y-76733906D01*
X119888369Y-76731005D01*
X119891706Y-76730851D01*
X119893869Y-76730752D01*
X119896122Y-76730700D01*
X119913729Y-76730700D01*
X119915993Y-76730700D01*
X119919551Y-76730034D01*
X119926287Y-76729252D01*
X119958364Y-76727770D01*
X119966171Y-76724323D01*
X119972763Y-76721412D01*
X119983555Y-76718070D01*
X119999021Y-76715179D01*
X120026318Y-76698277D01*
X120032298Y-76695124D01*
X120061685Y-76682149D01*
X120072813Y-76671020D01*
X120081667Y-76664007D01*
X120095049Y-76655722D01*
X120114396Y-76630100D01*
X120118845Y-76624987D01*
X120447907Y-76295925D01*
X120480222Y-76281630D01*
X120513752Y-76292789D01*
X120531055Y-76323601D01*
X120543075Y-76407203D01*
X120543574Y-76410672D01*
X120598583Y-76531125D01*
X120600876Y-76533772D01*
X120600878Y-76533774D01*
X120683004Y-76628552D01*
X120683006Y-76628554D01*
X120685300Y-76631201D01*
X120796698Y-76702793D01*
X120904714Y-76734509D01*
X120931488Y-76754059D01*
X120939687Y-76786182D01*
X120925557Y-76816172D01*
X119580894Y-78160834D01*
X119575777Y-78165287D01*
X119573612Y-78166921D01*
X119569554Y-78168943D01*
X119566501Y-78172291D01*
X119566498Y-78172294D01*
X119536959Y-78204696D01*
X119535399Y-78206330D01*
X119521353Y-78220377D01*
X119520083Y-78222230D01*
X119520071Y-78222245D01*
X119519295Y-78223379D01*
X119515092Y-78228683D01*
X119496524Y-78249052D01*
X119496521Y-78249055D01*
X119493464Y-78252410D01*
X119491824Y-78256642D01*
X119491824Y-78256643D01*
X119487777Y-78267090D01*
X119482511Y-78277078D01*
X119473618Y-78290062D01*
X119472578Y-78294482D01*
X119472578Y-78294483D01*
X119466268Y-78321307D01*
X119464262Y-78327785D01*
X119454303Y-78353493D01*
X119454301Y-78353500D01*
X119452664Y-78357728D01*
X119452664Y-78362268D01*
X119452664Y-78373469D01*
X119451362Y-78384687D01*
X119451186Y-78385436D01*
X119448799Y-78395582D01*
X119448798Y-78395584D01*
X119447759Y-78400006D01*
X119448386Y-78404501D01*
X119448386Y-78404505D01*
X119452194Y-78431800D01*
X119452664Y-78438570D01*
X119452664Y-80351571D01*
X119448934Y-80370323D01*
X119438312Y-80386219D01*
X118329711Y-81494817D01*
X118297910Y-81509086D01*
X118264668Y-81498603D01*
X118246807Y-81468672D01*
X118245552Y-81461555D01*
X118188158Y-81362145D01*
X118184874Y-81359389D01*
X118184873Y-81359388D01*
X118103507Y-81291114D01*
X118100225Y-81288360D01*
X118096199Y-81286894D01*
X118096198Y-81286894D01*
X118004323Y-81253455D01*
X117992358Y-81249100D01*
X117877570Y-81249100D01*
X117873539Y-81250566D01*
X117873539Y-81250567D01*
X117773734Y-81286893D01*
X117773733Y-81286893D01*
X117769704Y-81288360D01*
X117766421Y-81291114D01*
X117766417Y-81291117D01*
X117685053Y-81359390D01*
X117681770Y-81362145D01*
X117679630Y-81365851D01*
X117679627Y-81365855D01*
X117630803Y-81450423D01*
X117624376Y-81461555D01*
X117623632Y-81465771D01*
X117623632Y-81465773D01*
X117619472Y-81489367D01*
X117608466Y-81551788D01*
X117608180Y-81553409D01*
X117591421Y-81582436D01*
X117559924Y-81593900D01*
X117538370Y-81593900D01*
X117534339Y-81595366D01*
X117534339Y-81595367D01*
X117434534Y-81631693D01*
X117434533Y-81631693D01*
X117430504Y-81633160D01*
X117427221Y-81635914D01*
X117427217Y-81635917D01*
X117345853Y-81704190D01*
X117342570Y-81706945D01*
X117340430Y-81710651D01*
X117340427Y-81710655D01*
X117295978Y-81787645D01*
X117285176Y-81806355D01*
X117284432Y-81810573D01*
X117284432Y-81810574D01*
X117277888Y-81847686D01*
X117265243Y-81919400D01*
X117285176Y-82032445D01*
X117297182Y-82053240D01*
X117308417Y-82072700D01*
X117314982Y-82097200D01*
X117308416Y-82121700D01*
X117285176Y-82161955D01*
X117284432Y-82166173D01*
X117284432Y-82166174D01*
X117282870Y-82175035D01*
X117265243Y-82275000D01*
X117285176Y-82388045D01*
X117342570Y-82487455D01*
X117345852Y-82490209D01*
X117345854Y-82490211D01*
X117356077Y-82498789D01*
X117430503Y-82561240D01*
X117538370Y-82600500D01*
X117553991Y-82600500D01*
X117561269Y-82601174D01*
X117564692Y-82602500D01*
X117580433Y-82602500D01*
X117591651Y-82603801D01*
X117606970Y-82607405D01*
X117638763Y-82602970D01*
X117645534Y-82602500D01*
X119063552Y-82602500D01*
X119070322Y-82602970D01*
X119073000Y-82603343D01*
X119077304Y-82604786D01*
X119125626Y-82602551D01*
X119127889Y-82602500D01*
X119145493Y-82602500D01*
X119147757Y-82602500D01*
X119151315Y-82601834D01*
X119158051Y-82601052D01*
X119190128Y-82599570D01*
X119204526Y-82593212D01*
X119215319Y-82589870D01*
X119230785Y-82586979D01*
X119258082Y-82570077D01*
X119264062Y-82566924D01*
X119293449Y-82553949D01*
X119304577Y-82542820D01*
X119313431Y-82535807D01*
X119326813Y-82527522D01*
X119346160Y-82501900D01*
X119350609Y-82496787D01*
X120690639Y-81156757D01*
X120695755Y-81152306D01*
X120697904Y-81150682D01*
X120701974Y-81148657D01*
X120734568Y-81112901D01*
X120736089Y-81111307D01*
X120750175Y-81097223D01*
X120752221Y-81094234D01*
X120756429Y-81088920D01*
X120778064Y-81065190D01*
X120783749Y-81050511D01*
X120789014Y-81040521D01*
X120797909Y-81027538D01*
X120805261Y-80996277D01*
X120807260Y-80989823D01*
X120818864Y-80959872D01*
X120818864Y-80944131D01*
X120820166Y-80932912D01*
X120823769Y-80917594D01*
X120819334Y-80885800D01*
X120818864Y-80879030D01*
X120818864Y-80497000D01*
X121710243Y-80497000D01*
X121730176Y-80610045D01*
X121760257Y-80662147D01*
X121784987Y-80704982D01*
X121787570Y-80709455D01*
X121790852Y-80712209D01*
X121790854Y-80712211D01*
X121823531Y-80739630D01*
X121875503Y-80783240D01*
X121983370Y-80822500D01*
X122093869Y-80822500D01*
X122098158Y-80822500D01*
X122206025Y-80783240D01*
X122210363Y-80779600D01*
X127024729Y-80779600D01*
X127025228Y-80783071D01*
X127039513Y-80882431D01*
X127043574Y-80910672D01*
X127098583Y-81031125D01*
X127100876Y-81033772D01*
X127100878Y-81033774D01*
X127183004Y-81128552D01*
X127183006Y-81128554D01*
X127185300Y-81131201D01*
X127260228Y-81179355D01*
X127290951Y-81199100D01*
X127296698Y-81202793D01*
X127423754Y-81240100D01*
X127552670Y-81240100D01*
X127556174Y-81240100D01*
X127683230Y-81202793D01*
X127794628Y-81131201D01*
X127881345Y-81031125D01*
X127936354Y-80910672D01*
X127955199Y-80779600D01*
X127936354Y-80648528D01*
X127881345Y-80528075D01*
X127868955Y-80513776D01*
X127796923Y-80430647D01*
X127796921Y-80430645D01*
X127794628Y-80427999D01*
X127756319Y-80403379D01*
X127686178Y-80358301D01*
X127686174Y-80358299D01*
X127683230Y-80356407D01*
X127679870Y-80355420D01*
X127679867Y-80355419D01*
X127559536Y-80320087D01*
X127559534Y-80320086D01*
X127556174Y-80319100D01*
X127423754Y-80319100D01*
X127420394Y-80320086D01*
X127420391Y-80320087D01*
X127300060Y-80355419D01*
X127300054Y-80355421D01*
X127296698Y-80356407D01*
X127293755Y-80358297D01*
X127293749Y-80358301D01*
X127188248Y-80426104D01*
X127188246Y-80426105D01*
X127185300Y-80427999D01*
X127183009Y-80430641D01*
X127183004Y-80430647D01*
X127100878Y-80525425D01*
X127100874Y-80525430D01*
X127098583Y-80528075D01*
X127097126Y-80531264D01*
X127097126Y-80531265D01*
X127052503Y-80628977D01*
X127043574Y-80648528D01*
X127043075Y-80651993D01*
X127043075Y-80651996D01*
X127031397Y-80733220D01*
X127024729Y-80779600D01*
X122210363Y-80779600D01*
X122293958Y-80709455D01*
X122343211Y-80624143D01*
X122350990Y-80614006D01*
X122718945Y-80246052D01*
X122753594Y-80231700D01*
X124809638Y-80231700D01*
X124826396Y-80234654D01*
X124882570Y-80255100D01*
X124993069Y-80255100D01*
X124997358Y-80255100D01*
X125105225Y-80215840D01*
X125193158Y-80142055D01*
X125250552Y-80042645D01*
X125270485Y-79929600D01*
X125250552Y-79816555D01*
X125193158Y-79717145D01*
X125189874Y-79714389D01*
X125189873Y-79714388D01*
X125108507Y-79646114D01*
X125105225Y-79643360D01*
X125101199Y-79641894D01*
X125101198Y-79641894D01*
X125042473Y-79620520D01*
X124997358Y-79604100D01*
X124882570Y-79604100D01*
X124878539Y-79605566D01*
X124878539Y-79605567D01*
X124826398Y-79624545D01*
X124809639Y-79627500D01*
X122664374Y-79627500D01*
X122657604Y-79627030D01*
X122654928Y-79626656D01*
X122650624Y-79625214D01*
X122646092Y-79625423D01*
X122646089Y-79625423D01*
X122602302Y-79627448D01*
X122600039Y-79627500D01*
X122580171Y-79627500D01*
X122577956Y-79627913D01*
X122577934Y-79627916D01*
X122576600Y-79628166D01*
X122569876Y-79628946D01*
X122542336Y-79630220D01*
X122542334Y-79630220D01*
X122537800Y-79630430D01*
X122533650Y-79632262D01*
X122533642Y-79632264D01*
X122523391Y-79636790D01*
X122512613Y-79640128D01*
X122505067Y-79641539D01*
X122497143Y-79643021D01*
X122493286Y-79645408D01*
X122493278Y-79645412D01*
X122469844Y-79659920D01*
X122463847Y-79663082D01*
X122438631Y-79674217D01*
X122438628Y-79674218D01*
X122434479Y-79676051D01*
X122431271Y-79679258D01*
X122431266Y-79679262D01*
X122423347Y-79687181D01*
X122414501Y-79694188D01*
X122404975Y-79700087D01*
X122404972Y-79700089D01*
X122401115Y-79702478D01*
X122398383Y-79706094D01*
X122398379Y-79706099D01*
X122381767Y-79728097D01*
X122377313Y-79733215D01*
X121921338Y-80189190D01*
X121903451Y-80200586D01*
X121879537Y-80209291D01*
X121879532Y-80209293D01*
X121875504Y-80210760D01*
X121872221Y-80213514D01*
X121872217Y-80213517D01*
X121790853Y-80281790D01*
X121787570Y-80284545D01*
X121785430Y-80288251D01*
X121785427Y-80288255D01*
X121739547Y-80367724D01*
X121730176Y-80383955D01*
X121710243Y-80497000D01*
X120818864Y-80497000D01*
X120818864Y-78661230D01*
X120833214Y-78626583D01*
X120945676Y-78514121D01*
X120977989Y-78499827D01*
X121011518Y-78510986D01*
X121028822Y-78541797D01*
X121032974Y-78570672D01*
X121034428Y-78573856D01*
X121034429Y-78573859D01*
X121062790Y-78635960D01*
X121087983Y-78691125D01*
X121090276Y-78693772D01*
X121090278Y-78693774D01*
X121172404Y-78788552D01*
X121172406Y-78788554D01*
X121174700Y-78791201D01*
X121286098Y-78862793D01*
X121413154Y-78900100D01*
X121542070Y-78900100D01*
X121545574Y-78900100D01*
X121672630Y-78862793D01*
X121784028Y-78791201D01*
X121870745Y-78691125D01*
X121925754Y-78570672D01*
X121944599Y-78439600D01*
X121925754Y-78308528D01*
X121870745Y-78188075D01*
X121850999Y-78165287D01*
X121786323Y-78090647D01*
X121786321Y-78090645D01*
X121784028Y-78087999D01*
X121741361Y-78060578D01*
X121675578Y-78018301D01*
X121675574Y-78018299D01*
X121672630Y-78016407D01*
X121669270Y-78015420D01*
X121669267Y-78015419D01*
X121574662Y-77987641D01*
X121547888Y-77968091D01*
X121539689Y-77935968D01*
X121553818Y-77905979D01*
X122290839Y-77168957D01*
X122295955Y-77164506D01*
X122298104Y-77162882D01*
X122302174Y-77160857D01*
X122334768Y-77125101D01*
X122336289Y-77123507D01*
X122350375Y-77109423D01*
X122352421Y-77106434D01*
X122356629Y-77101120D01*
X122378264Y-77077390D01*
X122383951Y-77062706D01*
X122389212Y-77052724D01*
X122398110Y-77039738D01*
X122405459Y-77008487D01*
X122407468Y-77002003D01*
X122417422Y-76976309D01*
X122419064Y-76972072D01*
X122419064Y-76956335D01*
X122420366Y-76945116D01*
X122421343Y-76940963D01*
X122423970Y-76929793D01*
X122419534Y-76897994D01*
X122419064Y-76891224D01*
X122419064Y-75163000D01*
X126235682Y-75163000D01*
X126236101Y-75166183D01*
X126254104Y-75302934D01*
X126256320Y-75319762D01*
X126316828Y-75465841D01*
X126318784Y-75468390D01*
X126410481Y-75587893D01*
X126413082Y-75591282D01*
X126538523Y-75687536D01*
X126684602Y-75748044D01*
X126829561Y-75767128D01*
X126837702Y-75768200D01*
X126841364Y-75768682D01*
X126845026Y-75768200D01*
X126851989Y-75767283D01*
X126998126Y-75748044D01*
X127144205Y-75687536D01*
X127169459Y-75668157D01*
X127196081Y-75658138D01*
X127223786Y-75664598D01*
X127243233Y-75685361D01*
X127247867Y-75713429D01*
X127230643Y-75844262D01*
X127229282Y-75854600D01*
X127249920Y-76011362D01*
X127310428Y-76157441D01*
X127392804Y-76264796D01*
X127402511Y-76301019D01*
X127383760Y-76333498D01*
X127347536Y-76343205D01*
X127318149Y-76339337D01*
X127318147Y-76339337D01*
X127314964Y-76338918D01*
X127311781Y-76339337D01*
X127161383Y-76359137D01*
X127161381Y-76359137D01*
X127158202Y-76359556D01*
X127155239Y-76360782D01*
X127155236Y-76360784D01*
X127015089Y-76418835D01*
X127015086Y-76418836D01*
X127012123Y-76420064D01*
X127009576Y-76422017D01*
X127009573Y-76422020D01*
X126889230Y-76514362D01*
X126889226Y-76514365D01*
X126886682Y-76516318D01*
X126884729Y-76518862D01*
X126884726Y-76518866D01*
X126792384Y-76639209D01*
X126792381Y-76639212D01*
X126790428Y-76641759D01*
X126789200Y-76644722D01*
X126789199Y-76644725D01*
X126731148Y-76784872D01*
X126731146Y-76784875D01*
X126729920Y-76787838D01*
X126729501Y-76791017D01*
X126729501Y-76791019D01*
X126709761Y-76940963D01*
X126709282Y-76944600D01*
X126709701Y-76947783D01*
X126725454Y-77067443D01*
X126729920Y-77101362D01*
X126731147Y-77104326D01*
X126731148Y-77104327D01*
X126776418Y-77213617D01*
X126790428Y-77247441D01*
X126808060Y-77270420D01*
X126883418Y-77368629D01*
X126886682Y-77372882D01*
X127012123Y-77469136D01*
X127158202Y-77529644D01*
X127314964Y-77550282D01*
X127471726Y-77529644D01*
X127617805Y-77469136D01*
X127743246Y-77372882D01*
X127839500Y-77247441D01*
X127900008Y-77101362D01*
X127920646Y-76944600D01*
X127919804Y-76938208D01*
X127915567Y-76906019D01*
X127900008Y-76787838D01*
X127839500Y-76641759D01*
X127837546Y-76639212D01*
X127837544Y-76639209D01*
X127775828Y-76558780D01*
X127757122Y-76534401D01*
X127747102Y-76507780D01*
X127753562Y-76480075D01*
X127774325Y-76460628D01*
X127802393Y-76455994D01*
X127834964Y-76460282D01*
X127991726Y-76439644D01*
X128137805Y-76379136D01*
X128263246Y-76282882D01*
X128359500Y-76157441D01*
X128420008Y-76011362D01*
X128440646Y-75854600D01*
X128420008Y-75697838D01*
X128359500Y-75551759D01*
X128263246Y-75426318D01*
X128137805Y-75330064D01*
X128105252Y-75316580D01*
X127994691Y-75270784D01*
X127994690Y-75270783D01*
X127991726Y-75269556D01*
X127988544Y-75269137D01*
X127838147Y-75249337D01*
X127834964Y-75248918D01*
X127831781Y-75249337D01*
X127681383Y-75269137D01*
X127681381Y-75269137D01*
X127678202Y-75269556D01*
X127675239Y-75270782D01*
X127675236Y-75270784D01*
X127535089Y-75328835D01*
X127535086Y-75328836D01*
X127532123Y-75330064D01*
X127529578Y-75332016D01*
X127529574Y-75332019D01*
X127506869Y-75349441D01*
X127470644Y-75359147D01*
X127438166Y-75340395D01*
X127428460Y-75304171D01*
X127447046Y-75163000D01*
X127426408Y-75006238D01*
X127365900Y-74860159D01*
X127269646Y-74734718D01*
X127144205Y-74638464D01*
X127141238Y-74637235D01*
X127001091Y-74579184D01*
X127001090Y-74579183D01*
X126998126Y-74577956D01*
X126994944Y-74577537D01*
X126844547Y-74557737D01*
X126841364Y-74557318D01*
X126838181Y-74557737D01*
X126687783Y-74577537D01*
X126687781Y-74577537D01*
X126684602Y-74577956D01*
X126681639Y-74579182D01*
X126681636Y-74579184D01*
X126541489Y-74637235D01*
X126541486Y-74637236D01*
X126538523Y-74638464D01*
X126535976Y-74640417D01*
X126535973Y-74640420D01*
X126415630Y-74732762D01*
X126415626Y-74732765D01*
X126413082Y-74734718D01*
X126411129Y-74737262D01*
X126411126Y-74737266D01*
X126318784Y-74857609D01*
X126318781Y-74857612D01*
X126316828Y-74860159D01*
X126315600Y-74863122D01*
X126315599Y-74863125D01*
X126257548Y-75003272D01*
X126257546Y-75003275D01*
X126256320Y-75006238D01*
X126235682Y-75163000D01*
X122419064Y-75163000D01*
X122419064Y-73627476D01*
X122424402Y-73607551D01*
X122423943Y-73607384D01*
X122425407Y-73603359D01*
X122427552Y-73599645D01*
X122447485Y-73486600D01*
X122427552Y-73373555D01*
X122370158Y-73274145D01*
X122366874Y-73271389D01*
X122366873Y-73271388D01*
X122285507Y-73203114D01*
X122282225Y-73200360D01*
X122278199Y-73198894D01*
X122278198Y-73198894D01*
X122215760Y-73176169D01*
X122174358Y-73161100D01*
X122059570Y-73161100D01*
X122055539Y-73162566D01*
X122055539Y-73162567D01*
X121955734Y-73198893D01*
X121955733Y-73198893D01*
X121951704Y-73200360D01*
X121948421Y-73203114D01*
X121948417Y-73203117D01*
X121867053Y-73271390D01*
X121863770Y-73274145D01*
X121861630Y-73277851D01*
X121861627Y-73277855D01*
X121837235Y-73320105D01*
X121806376Y-73373555D01*
X121786443Y-73486600D01*
X121806376Y-73599645D01*
X121808519Y-73603357D01*
X121809985Y-73607384D01*
X121809525Y-73607551D01*
X121814864Y-73627476D01*
X121814864Y-73832405D01*
X121801506Y-73866031D01*
X121768714Y-73881322D01*
X121734368Y-73869942D01*
X121726707Y-73863514D01*
X121723425Y-73860760D01*
X121719399Y-73859294D01*
X121719398Y-73859294D01*
X121660673Y-73837920D01*
X121615558Y-73821500D01*
X121500770Y-73821500D01*
X121496739Y-73822966D01*
X121496739Y-73822967D01*
X121396934Y-73859293D01*
X121396933Y-73859293D01*
X121392904Y-73860760D01*
X121389621Y-73863514D01*
X121389617Y-73863517D01*
X121356560Y-73891256D01*
X121322215Y-73902637D01*
X121289423Y-73887346D01*
X121276064Y-73853720D01*
X121276064Y-72476011D01*
X121276534Y-72469241D01*
X121276907Y-72466562D01*
X121278350Y-72462259D01*
X121276115Y-72413936D01*
X121276064Y-72411674D01*
X121276064Y-72394074D01*
X121276064Y-72391807D01*
X121275399Y-72388253D01*
X121274616Y-72381512D01*
X121273134Y-72349436D01*
X121266772Y-72335029D01*
X121263434Y-72324245D01*
X121261377Y-72313241D01*
X121260543Y-72308779D01*
X121243641Y-72281482D01*
X121240480Y-72275483D01*
X121227513Y-72246115D01*
X121216385Y-72234987D01*
X121209372Y-72226133D01*
X121203476Y-72216610D01*
X121203473Y-72216607D01*
X121201086Y-72212751D01*
X121175464Y-72193402D01*
X121170345Y-72188947D01*
X120947929Y-71966531D01*
X120943475Y-71961413D01*
X120941844Y-71959253D01*
X120939821Y-71955190D01*
X120936466Y-71952131D01*
X120936465Y-71952130D01*
X120904078Y-71922606D01*
X120902441Y-71921043D01*
X120889988Y-71908590D01*
X120888387Y-71906989D01*
X120886526Y-71905714D01*
X120886515Y-71905705D01*
X120885397Y-71904940D01*
X120880078Y-71900728D01*
X120856354Y-71879100D01*
X120841671Y-71873412D01*
X120831684Y-71868147D01*
X120822448Y-71861820D01*
X120822447Y-71861819D01*
X120818702Y-71859254D01*
X120814283Y-71858214D01*
X120814282Y-71858214D01*
X120787449Y-71851902D01*
X120780971Y-71849896D01*
X120772214Y-71846504D01*
X120751036Y-71838300D01*
X120746492Y-71838300D01*
X120735295Y-71838300D01*
X120724076Y-71836998D01*
X120713181Y-71834435D01*
X120713179Y-71834434D01*
X120708758Y-71833395D01*
X120704261Y-71834022D01*
X120704258Y-71834022D01*
X120676964Y-71837830D01*
X120670194Y-71838300D01*
X119988775Y-71838300D01*
X119982005Y-71837830D01*
X119979325Y-71837456D01*
X119975023Y-71836014D01*
X119970492Y-71836223D01*
X119970489Y-71836223D01*
X119926701Y-71838248D01*
X119924438Y-71838300D01*
X119904571Y-71838300D01*
X119902356Y-71838713D01*
X119902334Y-71838716D01*
X119901000Y-71838966D01*
X119894276Y-71839746D01*
X119866736Y-71841020D01*
X119866734Y-71841020D01*
X119862200Y-71841230D01*
X119858050Y-71843062D01*
X119858042Y-71843064D01*
X119847791Y-71847590D01*
X119837013Y-71850928D01*
X119829467Y-71852339D01*
X119821543Y-71853821D01*
X119817686Y-71856208D01*
X119817678Y-71856212D01*
X119794244Y-71870720D01*
X119788247Y-71873882D01*
X119763031Y-71885017D01*
X119763028Y-71885018D01*
X119758879Y-71886851D01*
X119755671Y-71890058D01*
X119755666Y-71890062D01*
X119747747Y-71897981D01*
X119738901Y-71904988D01*
X119729375Y-71910887D01*
X119729372Y-71910889D01*
X119725515Y-71913278D01*
X119722783Y-71916894D01*
X119722779Y-71916899D01*
X119706167Y-71938897D01*
X119701713Y-71944015D01*
X119460130Y-72185598D01*
X119455013Y-72190051D01*
X119452848Y-72191685D01*
X119448790Y-72193707D01*
X119445737Y-72197055D01*
X119445734Y-72197058D01*
X119416195Y-72229460D01*
X119414635Y-72231094D01*
X119400589Y-72245141D01*
X119399319Y-72246994D01*
X119399307Y-72247009D01*
X119398531Y-72248143D01*
X119394328Y-72253447D01*
X119375760Y-72273816D01*
X119375757Y-72273819D01*
X119372700Y-72277174D01*
X119371060Y-72281406D01*
X119371060Y-72281407D01*
X119367013Y-72291854D01*
X119361748Y-72301842D01*
X119359640Y-72304920D01*
X119352854Y-72314826D01*
X119351814Y-72319246D01*
X119351814Y-72319247D01*
X119345504Y-72346071D01*
X119343498Y-72352549D01*
X119333539Y-72378257D01*
X119333537Y-72378264D01*
X119331900Y-72382492D01*
X119331900Y-72387032D01*
X119331900Y-72398233D01*
X119330598Y-72409452D01*
X119328035Y-72420346D01*
X119328034Y-72420348D01*
X119326995Y-72424770D01*
X119327622Y-72429265D01*
X119327622Y-72429269D01*
X119331430Y-72456564D01*
X119331900Y-72463334D01*
X119331900Y-72757124D01*
X119326561Y-72777048D01*
X119327021Y-72777216D01*
X119325555Y-72781242D01*
X119323412Y-72784955D01*
X119303479Y-72898000D01*
X119323412Y-73011045D01*
X119380806Y-73110455D01*
X119459121Y-73176170D01*
X119474124Y-73198253D01*
X119475322Y-73224924D01*
X119472504Y-73236905D01*
X119470498Y-73243385D01*
X119460539Y-73269093D01*
X119460537Y-73269100D01*
X119458900Y-73273328D01*
X119458900Y-73277868D01*
X119458900Y-73289069D01*
X119457598Y-73300288D01*
X119455035Y-73311182D01*
X119455034Y-73311184D01*
X119453995Y-73315606D01*
X119454622Y-73320101D01*
X119454622Y-73320105D01*
X119458430Y-73347400D01*
X119458900Y-73354170D01*
X119458900Y-75622769D01*
X119444547Y-75657417D01*
X119407094Y-75694872D01*
X119370818Y-75731148D01*
X119354922Y-75741770D01*
X119336170Y-75745500D01*
X118588175Y-75745500D01*
X118581405Y-75745030D01*
X118578725Y-75744656D01*
X118574423Y-75743214D01*
X118569892Y-75743423D01*
X118569889Y-75743423D01*
X118526101Y-75745448D01*
X118523838Y-75745500D01*
X118503971Y-75745500D01*
X118501756Y-75745913D01*
X118501734Y-75745916D01*
X118500400Y-75746166D01*
X118493676Y-75746946D01*
X118466134Y-75748220D01*
X118466132Y-75748220D01*
X118461600Y-75748430D01*
X118457447Y-75750263D01*
X118457445Y-75750264D01*
X118447196Y-75754789D01*
X118436414Y-75758128D01*
X118425407Y-75760186D01*
X118425405Y-75760186D01*
X118420943Y-75761021D01*
X118417081Y-75763411D01*
X118417081Y-75763412D01*
X118393644Y-75777922D01*
X118387646Y-75781084D01*
X118362429Y-75792219D01*
X118362427Y-75792220D01*
X118358279Y-75794052D01*
X118355069Y-75797261D01*
X118355067Y-75797263D01*
X118347149Y-75805180D01*
X118338302Y-75812188D01*
X118328773Y-75818088D01*
X118328769Y-75818091D01*
X118324915Y-75820478D01*
X118322183Y-75824094D01*
X118322179Y-75824099D01*
X118305564Y-75846101D01*
X118301110Y-75851219D01*
X117900538Y-76251790D01*
X117882651Y-76263186D01*
X117858737Y-76271891D01*
X117858732Y-76271893D01*
X117854704Y-76273360D01*
X117851421Y-76276114D01*
X117851417Y-76276117D01*
X117770053Y-76344390D01*
X117766770Y-76347145D01*
X117764630Y-76350851D01*
X117764627Y-76350855D01*
X117717519Y-76432449D01*
X117709732Y-76442597D01*
X117472694Y-76679634D01*
X117467577Y-76684087D01*
X117465412Y-76685721D01*
X117461354Y-76687743D01*
X117458299Y-76691093D01*
X117458295Y-76691097D01*
X117428757Y-76723497D01*
X117427198Y-76725131D01*
X117413153Y-76739177D01*
X117411883Y-76741030D01*
X117411871Y-76741045D01*
X117411095Y-76742179D01*
X117406892Y-76747483D01*
X117388324Y-76767852D01*
X117388321Y-76767855D01*
X117385264Y-76771210D01*
X117383624Y-76775442D01*
X117383624Y-76775443D01*
X117379577Y-76785890D01*
X117374312Y-76795878D01*
X117368322Y-76804623D01*
X117365418Y-76808862D01*
X117364378Y-76813282D01*
X117364378Y-76813283D01*
X117358068Y-76840107D01*
X117356062Y-76846585D01*
X117346103Y-76872293D01*
X117346101Y-76872300D01*
X117344464Y-76876528D01*
X117344464Y-76881068D01*
X117344464Y-76892269D01*
X117343162Y-76903488D01*
X117340599Y-76914382D01*
X117340598Y-76914384D01*
X117339559Y-76918806D01*
X117340186Y-76923301D01*
X117340186Y-76923305D01*
X117343994Y-76950600D01*
X117344464Y-76957370D01*
X117344464Y-77049570D01*
X117340734Y-77068322D01*
X117330112Y-77084218D01*
X116714338Y-77699990D01*
X116696451Y-77711386D01*
X116672537Y-77720091D01*
X116672532Y-77720093D01*
X116668504Y-77721560D01*
X116665221Y-77724314D01*
X116665217Y-77724317D01*
X116583853Y-77792590D01*
X116580570Y-77795345D01*
X116578430Y-77799051D01*
X116578427Y-77799055D01*
X116525319Y-77891043D01*
X116523176Y-77894755D01*
X116503243Y-78007800D01*
X110325293Y-78007800D01*
X110467442Y-77604409D01*
X110468515Y-77601641D01*
X110541334Y-77429600D01*
X114024729Y-77429600D01*
X114025228Y-77433071D01*
X114036156Y-77509082D01*
X114043574Y-77560672D01*
X114098583Y-77681125D01*
X114100876Y-77683772D01*
X114100878Y-77683774D01*
X114183004Y-77778552D01*
X114183006Y-77778554D01*
X114185300Y-77781201D01*
X114296698Y-77852793D01*
X114423754Y-77890100D01*
X114552670Y-77890100D01*
X114556174Y-77890100D01*
X114683230Y-77852793D01*
X114794628Y-77781201D01*
X114881345Y-77681125D01*
X114936354Y-77560672D01*
X114946423Y-77490636D01*
X115455765Y-77490636D01*
X115456264Y-77494107D01*
X115471721Y-77601618D01*
X115474610Y-77621708D01*
X115529619Y-77742161D01*
X115531912Y-77744808D01*
X115531914Y-77744810D01*
X115614040Y-77839588D01*
X115614042Y-77839590D01*
X115616336Y-77842237D01*
X115727734Y-77913829D01*
X115854790Y-77951136D01*
X115983706Y-77951136D01*
X115987210Y-77951136D01*
X116114266Y-77913829D01*
X116225664Y-77842237D01*
X116312381Y-77742161D01*
X116367390Y-77621708D01*
X116386235Y-77490636D01*
X116367390Y-77359564D01*
X116312381Y-77239111D01*
X116286458Y-77209194D01*
X116227959Y-77141683D01*
X116227957Y-77141681D01*
X116225664Y-77139035D01*
X116193038Y-77118067D01*
X116117214Y-77069337D01*
X116117210Y-77069335D01*
X116114266Y-77067443D01*
X116110906Y-77066456D01*
X116110903Y-77066455D01*
X115990572Y-77031123D01*
X115990570Y-77031122D01*
X115987210Y-77030136D01*
X115854790Y-77030136D01*
X115851430Y-77031122D01*
X115851427Y-77031123D01*
X115731096Y-77066455D01*
X115731090Y-77066457D01*
X115727734Y-77067443D01*
X115724791Y-77069333D01*
X115724785Y-77069337D01*
X115619284Y-77137140D01*
X115619282Y-77137141D01*
X115616336Y-77139035D01*
X115614045Y-77141677D01*
X115614040Y-77141683D01*
X115531914Y-77236461D01*
X115531910Y-77236466D01*
X115529619Y-77239111D01*
X115528162Y-77242300D01*
X115528162Y-77242301D01*
X115482579Y-77342115D01*
X115474610Y-77359564D01*
X115474111Y-77363029D01*
X115474111Y-77363032D01*
X115458856Y-77469136D01*
X115455765Y-77490636D01*
X114946423Y-77490636D01*
X114955199Y-77429600D01*
X114936354Y-77298528D01*
X114881345Y-77178075D01*
X114873450Y-77168964D01*
X114796923Y-77080647D01*
X114796921Y-77080645D01*
X114794628Y-77077999D01*
X114740921Y-77043483D01*
X114686178Y-77008301D01*
X114686174Y-77008299D01*
X114683230Y-77006407D01*
X114679870Y-77005420D01*
X114679867Y-77005419D01*
X114559536Y-76970087D01*
X114559534Y-76970086D01*
X114556174Y-76969100D01*
X114423754Y-76969100D01*
X114420394Y-76970086D01*
X114420391Y-76970087D01*
X114300060Y-77005419D01*
X114300054Y-77005421D01*
X114296698Y-77006407D01*
X114293755Y-77008297D01*
X114293749Y-77008301D01*
X114188248Y-77076104D01*
X114188246Y-77076105D01*
X114185300Y-77077999D01*
X114183009Y-77080641D01*
X114183004Y-77080647D01*
X114100878Y-77175425D01*
X114100874Y-77175430D01*
X114098583Y-77178075D01*
X114097126Y-77181264D01*
X114097126Y-77181265D01*
X114051776Y-77280569D01*
X114043574Y-77298528D01*
X114043075Y-77301993D01*
X114043075Y-77301996D01*
X114031786Y-77380514D01*
X114024729Y-77429600D01*
X110541334Y-77429600D01*
X110716360Y-77016083D01*
X110717604Y-77013380D01*
X111001045Y-76444153D01*
X111002438Y-76441559D01*
X111179661Y-76134600D01*
X112959729Y-76134600D01*
X112960228Y-76138071D01*
X112977682Y-76259473D01*
X112978574Y-76265672D01*
X113033583Y-76386125D01*
X113035876Y-76388772D01*
X113035878Y-76388774D01*
X113118004Y-76483552D01*
X113118006Y-76483554D01*
X113120300Y-76486201D01*
X113231698Y-76557793D01*
X113358754Y-76595100D01*
X113487670Y-76595100D01*
X113491174Y-76595100D01*
X113618230Y-76557793D01*
X113729628Y-76486201D01*
X113816345Y-76386125D01*
X113871354Y-76265672D01*
X113890199Y-76134600D01*
X113871354Y-76003528D01*
X113816345Y-75883075D01*
X113795089Y-75858544D01*
X113731923Y-75785647D01*
X113731921Y-75785645D01*
X113729628Y-75782999D01*
X113694131Y-75760186D01*
X113621178Y-75713301D01*
X113621174Y-75713299D01*
X113618230Y-75711407D01*
X113614870Y-75710420D01*
X113614867Y-75710419D01*
X113494536Y-75675087D01*
X113494534Y-75675086D01*
X113491174Y-75674100D01*
X113358754Y-75674100D01*
X113355394Y-75675086D01*
X113355391Y-75675087D01*
X113235060Y-75710419D01*
X113235054Y-75710421D01*
X113231698Y-75711407D01*
X113228755Y-75713297D01*
X113228749Y-75713301D01*
X113123248Y-75781104D01*
X113123246Y-75781105D01*
X113120300Y-75782999D01*
X113118009Y-75785641D01*
X113118004Y-75785647D01*
X113035878Y-75880425D01*
X113035874Y-75880430D01*
X113033583Y-75883075D01*
X112978574Y-76003528D01*
X112978075Y-76006993D01*
X112978075Y-76006996D01*
X112977021Y-76014327D01*
X112959729Y-76134600D01*
X111179661Y-76134600D01*
X111320377Y-75890873D01*
X111321949Y-75888334D01*
X111673166Y-75358295D01*
X111674903Y-75355842D01*
X111692893Y-75332020D01*
X111902390Y-75054600D01*
X113949729Y-75054600D01*
X113950228Y-75058071D01*
X113964856Y-75159817D01*
X113968574Y-75185672D01*
X114023583Y-75306125D01*
X114025876Y-75308772D01*
X114025878Y-75308774D01*
X114108004Y-75403552D01*
X114108006Y-75403554D01*
X114110300Y-75406201D01*
X114189072Y-75456825D01*
X114203100Y-75465841D01*
X114221698Y-75477793D01*
X114348754Y-75515100D01*
X114477670Y-75515100D01*
X114481174Y-75515100D01*
X114608230Y-75477793D01*
X114719628Y-75406201D01*
X114806345Y-75306125D01*
X114861354Y-75185672D01*
X114880199Y-75054600D01*
X114861354Y-74923528D01*
X114806345Y-74803075D01*
X114719628Y-74702999D01*
X114687002Y-74682031D01*
X114611178Y-74633301D01*
X114611174Y-74633299D01*
X114608230Y-74631407D01*
X114604870Y-74630420D01*
X114604867Y-74630419D01*
X114484536Y-74595087D01*
X114484534Y-74595086D01*
X114481174Y-74594100D01*
X114348754Y-74594100D01*
X114345394Y-74595086D01*
X114345391Y-74595087D01*
X114225060Y-74630419D01*
X114225054Y-74630421D01*
X114221698Y-74631407D01*
X114218755Y-74633297D01*
X114218749Y-74633301D01*
X114113248Y-74701104D01*
X114113246Y-74701105D01*
X114110300Y-74702999D01*
X114108009Y-74705641D01*
X114108004Y-74705647D01*
X114025878Y-74800425D01*
X114025874Y-74800430D01*
X114023583Y-74803075D01*
X114022126Y-74806264D01*
X114022126Y-74806265D01*
X113997514Y-74860159D01*
X113968574Y-74923528D01*
X113949729Y-75054600D01*
X111902390Y-75054600D01*
X112058086Y-74848425D01*
X112059961Y-74846095D01*
X112473646Y-74363240D01*
X112475674Y-74361015D01*
X112918319Y-73904523D01*
X112920468Y-73902440D01*
X113390363Y-73474074D01*
X113392614Y-73472145D01*
X113888013Y-73073498D01*
X113890374Y-73071715D01*
X114409371Y-72704324D01*
X114411870Y-72702668D01*
X114952473Y-72367941D01*
X114955062Y-72366445D01*
X115062908Y-72308533D01*
X115092450Y-72303119D01*
X115119603Y-72315958D01*
X115134164Y-72342228D01*
X115130662Y-72372058D01*
X115125897Y-72382492D01*
X115118574Y-72398528D01*
X115118075Y-72401993D01*
X115118075Y-72401996D01*
X115110230Y-72456564D01*
X115099729Y-72529600D01*
X115100228Y-72533071D01*
X115113157Y-72623000D01*
X115118574Y-72660672D01*
X115173583Y-72781125D01*
X115175876Y-72783772D01*
X115175878Y-72783774D01*
X115258004Y-72878552D01*
X115258006Y-72878554D01*
X115260300Y-72881201D01*
X115263249Y-72883096D01*
X115263250Y-72883097D01*
X115271469Y-72888380D01*
X115291281Y-72913574D01*
X115291281Y-72945626D01*
X115271469Y-72970820D01*
X115263250Y-72976102D01*
X115263245Y-72976106D01*
X115260300Y-72977999D01*
X115258009Y-72980641D01*
X115258004Y-72980647D01*
X115175878Y-73075425D01*
X115175874Y-73075430D01*
X115173583Y-73078075D01*
X115172126Y-73081264D01*
X115172126Y-73081265D01*
X115134997Y-73162567D01*
X115118574Y-73198528D01*
X115118075Y-73201993D01*
X115118075Y-73201996D01*
X115107169Y-73277855D01*
X115099729Y-73329600D01*
X115100228Y-73333071D01*
X115114730Y-73433940D01*
X115118574Y-73460672D01*
X115173583Y-73581125D01*
X115175876Y-73583772D01*
X115175878Y-73583774D01*
X115258004Y-73678552D01*
X115258006Y-73678554D01*
X115260300Y-73681201D01*
X115371698Y-73752793D01*
X115498754Y-73790100D01*
X115627670Y-73790100D01*
X115631174Y-73790100D01*
X115758230Y-73752793D01*
X115869628Y-73681201D01*
X115956345Y-73581125D01*
X116011354Y-73460672D01*
X116030199Y-73329600D01*
X116011354Y-73198528D01*
X115956345Y-73078075D01*
X115951571Y-73072566D01*
X115871924Y-72980649D01*
X115871925Y-72980649D01*
X115869628Y-72977999D01*
X115858457Y-72970820D01*
X115838644Y-72945627D01*
X115838644Y-72913573D01*
X115858457Y-72888379D01*
X115869628Y-72881201D01*
X115956345Y-72781125D01*
X116011354Y-72660672D01*
X116030199Y-72529600D01*
X116011354Y-72398528D01*
X115956345Y-72278075D01*
X115929426Y-72247009D01*
X115871923Y-72180647D01*
X115871921Y-72180645D01*
X115869628Y-72177999D01*
X115813532Y-72141948D01*
X115761178Y-72108301D01*
X115761174Y-72108299D01*
X115758230Y-72106407D01*
X115754870Y-72105420D01*
X115754867Y-72105419D01*
X115681191Y-72083786D01*
X115656864Y-72067544D01*
X115646126Y-72040335D01*
X115652803Y-72011856D01*
X115674514Y-71992257D01*
X116095588Y-71798532D01*
X116098346Y-71797365D01*
X116691253Y-71567671D01*
X116694084Y-71566674D01*
X117299989Y-71373922D01*
X117302890Y-71373097D01*
X117418181Y-71344100D01*
X117919531Y-71218005D01*
X117922434Y-71217368D01*
X118270291Y-71152343D01*
X118299837Y-71156023D01*
X118321799Y-71176128D01*
X118328067Y-71205235D01*
X118316326Y-71232597D01*
X118298583Y-71253075D01*
X118297126Y-71256264D01*
X118297126Y-71256265D01*
X118264326Y-71328088D01*
X118243574Y-71373528D01*
X118243075Y-71376993D01*
X118243075Y-71376996D01*
X118232420Y-71451104D01*
X118224729Y-71504600D01*
X118225228Y-71508071D01*
X118231698Y-71553075D01*
X118243574Y-71635672D01*
X118298583Y-71756125D01*
X118300876Y-71758772D01*
X118300878Y-71758774D01*
X118383004Y-71853552D01*
X118383006Y-71853554D01*
X118385300Y-71856201D01*
X118430138Y-71885017D01*
X118487439Y-71921843D01*
X118496698Y-71927793D01*
X118623754Y-71965100D01*
X118752670Y-71965100D01*
X118756174Y-71965100D01*
X118883230Y-71927793D01*
X118994628Y-71856201D01*
X119081345Y-71756125D01*
X119136354Y-71635672D01*
X119155199Y-71504600D01*
X119136354Y-71373528D01*
X119081345Y-71253075D01*
X119014670Y-71176128D01*
X118996923Y-71155647D01*
X118996921Y-71155645D01*
X118994628Y-71152999D01*
X118967728Y-71135711D01*
X118948859Y-71113018D01*
X118946445Y-71083605D01*
X118961363Y-71058140D01*
X118988197Y-71045862D01*
X119181472Y-71021929D01*
X119184442Y-71021654D01*
X119765942Y-70985788D01*
X119819071Y-70982512D01*
X119822087Y-70982419D01*
X120457913Y-70982419D01*
X120460929Y-70982512D01*
G37*
G04 #@! TD.AperFunction*
G04 #@! TA.AperFunction,Conductor*
G36*
X124688815Y-85680485D02*
G01*
X124902651Y-85894321D01*
X124916224Y-85920269D01*
X124912575Y-85949324D01*
X124867942Y-86047057D01*
X124858274Y-86068228D01*
X124857775Y-86071693D01*
X124857775Y-86071696D01*
X124853072Y-86104408D01*
X124839429Y-86199300D01*
X124839928Y-86202771D01*
X124855830Y-86313378D01*
X124858274Y-86330372D01*
X124913283Y-86450825D01*
X124915576Y-86453472D01*
X124915578Y-86453474D01*
X124997704Y-86548252D01*
X124997706Y-86548254D01*
X125000000Y-86550901D01*
X125078772Y-86601525D01*
X125092467Y-86610327D01*
X125111398Y-86622493D01*
X125238454Y-86659800D01*
X125367370Y-86659800D01*
X125370874Y-86659800D01*
X125497930Y-86622493D01*
X125609328Y-86550901D01*
X125696045Y-86450825D01*
X125751054Y-86330372D01*
X125769899Y-86199300D01*
X125763558Y-86155197D01*
X125768640Y-86125513D01*
X125790126Y-86104408D01*
X125819897Y-86099856D01*
X125846707Y-86113577D01*
X125973512Y-86240382D01*
X125987864Y-86275030D01*
X125987864Y-89004500D01*
X125973512Y-89039148D01*
X125938864Y-89053500D01*
X125886154Y-89053500D01*
X125882794Y-89054486D01*
X125882791Y-89054487D01*
X125762460Y-89089819D01*
X125762454Y-89089821D01*
X125759098Y-89090807D01*
X125756155Y-89092697D01*
X125756149Y-89092701D01*
X125650648Y-89160504D01*
X125650646Y-89160505D01*
X125647700Y-89162399D01*
X125645409Y-89165041D01*
X125645404Y-89165047D01*
X125563278Y-89259825D01*
X125563274Y-89259830D01*
X125560983Y-89262475D01*
X125559526Y-89265664D01*
X125559526Y-89265665D01*
X125513135Y-89367248D01*
X125505974Y-89382928D01*
X125505475Y-89386393D01*
X125505475Y-89386396D01*
X125491906Y-89480775D01*
X125487129Y-89514000D01*
X125505974Y-89645072D01*
X125560983Y-89765525D01*
X125563276Y-89768172D01*
X125563278Y-89768174D01*
X125645404Y-89862952D01*
X125645406Y-89862954D01*
X125647700Y-89865601D01*
X125759098Y-89937193D01*
X125793659Y-89947341D01*
X125822426Y-89970094D01*
X125827340Y-90006441D01*
X125805649Y-90036017D01*
X125327537Y-90332051D01*
X125324924Y-90333560D01*
X124764745Y-90634369D01*
X124762043Y-90635714D01*
X124569911Y-90724108D01*
X124537633Y-90727151D01*
X124510520Y-90709374D01*
X124500442Y-90678559D01*
X124501346Y-90635714D01*
X124605178Y-85714097D01*
X124620009Y-85680001D01*
X124654512Y-85666134D01*
X124688815Y-85680485D01*
G37*
G04 #@! TD.AperFunction*
M02*
