G04 #@! TF.GenerationSoftware,KiCad,Pcbnew,(7.0.0)*
G04 #@! TF.CreationDate,2023-09-09T16:46:03-08:00*
G04 #@! TF.ProjectId,THINGY_2.0,5448494e-4759-45f3-922e-302e6b696361,rev?*
G04 #@! TF.SameCoordinates,Original*
G04 #@! TF.FileFunction,Legend,Bot*
G04 #@! TF.FilePolarity,Positive*
%FSLAX46Y46*%
G04 Gerber Fmt 4.6, Leading zero omitted, Abs format (unit mm)*
G04 Created by KiCad (PCBNEW (7.0.0)) date 2023-09-09 16:46:03*
%MOMM*%
%LPD*%
G01*
G04 APERTURE LIST*
G04 Aperture macros list*
%AMRoundRect*
0 Rectangle with rounded corners*
0 $1 Rounding radius*
0 $2 $3 $4 $5 $6 $7 $8 $9 X,Y pos of 4 corners*
0 Add a 4 corners polygon primitive as box body*
4,1,4,$2,$3,$4,$5,$6,$7,$8,$9,$2,$3,0*
0 Add four circle primitives for the rounded corners*
1,1,$1+$1,$2,$3*
1,1,$1+$1,$4,$5*
1,1,$1+$1,$6,$7*
1,1,$1+$1,$8,$9*
0 Add four rect primitives between the rounded corners*
20,1,$1+$1,$2,$3,$4,$5,0*
20,1,$1+$1,$4,$5,$6,$7,0*
20,1,$1+$1,$6,$7,$8,$9,0*
20,1,$1+$1,$8,$9,$2,$3,0*%
G04 Aperture macros list end*
%ADD10C,0.150000*%
%ADD11C,0.200000*%
%ADD12C,0.100000*%
%ADD13C,0.127000*%
%ADD14C,0.120000*%
%ADD15C,0.010000*%
%ADD16C,1.000000*%
%ADD17C,1.100000*%
%ADD18RoundRect,0.008100X0.126900X-0.396900X0.126900X0.396900X-0.126900X0.396900X-0.126900X-0.396900X0*%
%ADD19RoundRect,0.027000X0.378000X-0.108000X0.378000X0.108000X-0.378000X0.108000X-0.378000X-0.108000X0*%
%ADD20R,2.700000X2.700000*%
%ADD21RoundRect,0.100000X-0.130000X-0.100000X0.130000X-0.100000X0.130000X0.100000X-0.130000X0.100000X0*%
%ADD22RoundRect,0.140000X0.170000X-0.140000X0.170000X0.140000X-0.170000X0.140000X-0.170000X-0.140000X0*%
%ADD23RoundRect,0.100000X0.100000X-0.130000X0.100000X0.130000X-0.100000X0.130000X-0.100000X-0.130000X0*%
%ADD24RoundRect,0.140000X0.140000X0.170000X-0.140000X0.170000X-0.140000X-0.170000X0.140000X-0.170000X0*%
%ADD25RoundRect,0.218750X0.381250X-0.218750X0.381250X0.218750X-0.381250X0.218750X-0.381250X-0.218750X0*%
%ADD26RoundRect,0.100000X-0.100000X0.130000X-0.100000X-0.130000X0.100000X-0.130000X0.100000X0.130000X0*%
%ADD27R,0.400000X0.400000*%
%ADD28C,0.200000*%
%ADD29RoundRect,0.140000X-0.140000X-0.170000X0.140000X-0.170000X0.140000X0.170000X-0.140000X0.170000X0*%
%ADD30R,0.500000X0.350000*%
%ADD31RoundRect,0.100000X0.130000X0.100000X-0.130000X0.100000X-0.130000X-0.100000X0.130000X-0.100000X0*%
%ADD32RoundRect,0.225000X-0.225000X-0.250000X0.225000X-0.250000X0.225000X0.250000X-0.225000X0.250000X0*%
%ADD33RoundRect,0.140000X-0.170000X0.140000X-0.170000X-0.140000X0.170000X-0.140000X0.170000X0.140000X0*%
%ADD34R,2.184400X1.473200*%
%ADD35R,2.133600X1.651000*%
G04 APERTURE END LIST*
D10*
X115123059Y-75376980D02*
X115123059Y-74376980D01*
X115123059Y-74376980D02*
X115361154Y-74376980D01*
X115361154Y-74376980D02*
X115504011Y-74424600D01*
X115504011Y-74424600D02*
X115599249Y-74519838D01*
X115599249Y-74519838D02*
X115646868Y-74615076D01*
X115646868Y-74615076D02*
X115694487Y-74805552D01*
X115694487Y-74805552D02*
X115694487Y-74948409D01*
X115694487Y-74948409D02*
X115646868Y-75138885D01*
X115646868Y-75138885D02*
X115599249Y-75234123D01*
X115599249Y-75234123D02*
X115504011Y-75329361D01*
X115504011Y-75329361D02*
X115361154Y-75376980D01*
X115361154Y-75376980D02*
X115123059Y-75376980D01*
X114013535Y-76026980D02*
X114204011Y-76026980D01*
X114204011Y-76026980D02*
X114299249Y-76074600D01*
X114299249Y-76074600D02*
X114394487Y-76169838D01*
X114394487Y-76169838D02*
X114442106Y-76360314D01*
X114442106Y-76360314D02*
X114442106Y-76693647D01*
X114442106Y-76693647D02*
X114394487Y-76884123D01*
X114394487Y-76884123D02*
X114299249Y-76979361D01*
X114299249Y-76979361D02*
X114204011Y-77026980D01*
X114204011Y-77026980D02*
X114013535Y-77026980D01*
X114013535Y-77026980D02*
X113918297Y-76979361D01*
X113918297Y-76979361D02*
X113823059Y-76884123D01*
X113823059Y-76884123D02*
X113775440Y-76693647D01*
X113775440Y-76693647D02*
X113775440Y-76360314D01*
X113775440Y-76360314D02*
X113823059Y-76169838D01*
X113823059Y-76169838D02*
X113918297Y-76074600D01*
X113918297Y-76074600D02*
X114013535Y-76026980D01*
X112634487Y-78311742D02*
X112586868Y-78359361D01*
X112586868Y-78359361D02*
X112444011Y-78406980D01*
X112444011Y-78406980D02*
X112348773Y-78406980D01*
X112348773Y-78406980D02*
X112205916Y-78359361D01*
X112205916Y-78359361D02*
X112110678Y-78264123D01*
X112110678Y-78264123D02*
X112063059Y-78168885D01*
X112063059Y-78168885D02*
X112015440Y-77978409D01*
X112015440Y-77978409D02*
X112015440Y-77835552D01*
X112015440Y-77835552D02*
X112063059Y-77645076D01*
X112063059Y-77645076D02*
X112110678Y-77549838D01*
X112110678Y-77549838D02*
X112205916Y-77454600D01*
X112205916Y-77454600D02*
X112348773Y-77406980D01*
X112348773Y-77406980D02*
X112444011Y-77406980D01*
X112444011Y-77406980D02*
X112586868Y-77454600D01*
X112586868Y-77454600D02*
X112634487Y-77502219D01*
D11*
X118836392Y-90123171D02*
X118788773Y-89980314D01*
X118788773Y-89980314D02*
X118741154Y-89932695D01*
X118741154Y-89932695D02*
X118645916Y-89885076D01*
X118645916Y-89885076D02*
X118503059Y-89885076D01*
X118503059Y-89885076D02*
X118407821Y-89932695D01*
X118407821Y-89932695D02*
X118360202Y-89980314D01*
X118360202Y-89980314D02*
X118312583Y-90075552D01*
X118312583Y-90075552D02*
X118312583Y-90456504D01*
X118312583Y-90456504D02*
X119312583Y-90456504D01*
X119312583Y-90456504D02*
X119312583Y-90123171D01*
X119312583Y-90123171D02*
X119264964Y-90027933D01*
X119264964Y-90027933D02*
X119217344Y-89980314D01*
X119217344Y-89980314D02*
X119122106Y-89932695D01*
X119122106Y-89932695D02*
X119026868Y-89932695D01*
X119026868Y-89932695D02*
X118931630Y-89980314D01*
X118931630Y-89980314D02*
X118884011Y-90027933D01*
X118884011Y-90027933D02*
X118836392Y-90123171D01*
X118836392Y-90123171D02*
X118836392Y-90456504D01*
X118312583Y-89456504D02*
X118979249Y-89456504D01*
X118788773Y-89456504D02*
X118884011Y-89408885D01*
X118884011Y-89408885D02*
X118931630Y-89361266D01*
X118931630Y-89361266D02*
X118979249Y-89266028D01*
X118979249Y-89266028D02*
X118979249Y-89170790D01*
X118360202Y-88456504D02*
X118312583Y-88551742D01*
X118312583Y-88551742D02*
X118312583Y-88742218D01*
X118312583Y-88742218D02*
X118360202Y-88837456D01*
X118360202Y-88837456D02*
X118455440Y-88885075D01*
X118455440Y-88885075D02*
X118836392Y-88885075D01*
X118836392Y-88885075D02*
X118931630Y-88837456D01*
X118931630Y-88837456D02*
X118979249Y-88742218D01*
X118979249Y-88742218D02*
X118979249Y-88551742D01*
X118979249Y-88551742D02*
X118931630Y-88456504D01*
X118931630Y-88456504D02*
X118836392Y-88408885D01*
X118836392Y-88408885D02*
X118741154Y-88408885D01*
X118741154Y-88408885D02*
X118645916Y-88885075D01*
X118312583Y-87551742D02*
X118836392Y-87551742D01*
X118836392Y-87551742D02*
X118931630Y-87599361D01*
X118931630Y-87599361D02*
X118979249Y-87694599D01*
X118979249Y-87694599D02*
X118979249Y-87885075D01*
X118979249Y-87885075D02*
X118931630Y-87980313D01*
X118360202Y-87551742D02*
X118312583Y-87646980D01*
X118312583Y-87646980D02*
X118312583Y-87885075D01*
X118312583Y-87885075D02*
X118360202Y-87980313D01*
X118360202Y-87980313D02*
X118455440Y-88027932D01*
X118455440Y-88027932D02*
X118550678Y-88027932D01*
X118550678Y-88027932D02*
X118645916Y-87980313D01*
X118645916Y-87980313D02*
X118693535Y-87885075D01*
X118693535Y-87885075D02*
X118693535Y-87646980D01*
X118693535Y-87646980D02*
X118741154Y-87551742D01*
X118979249Y-87218408D02*
X118979249Y-86837456D01*
X119312583Y-87075551D02*
X118455440Y-87075551D01*
X118455440Y-87075551D02*
X118360202Y-87027932D01*
X118360202Y-87027932D02*
X118312583Y-86932694D01*
X118312583Y-86932694D02*
X118312583Y-86837456D01*
X118312583Y-86504122D02*
X119312583Y-86504122D01*
X118312583Y-86075551D02*
X118836392Y-86075551D01*
X118836392Y-86075551D02*
X118931630Y-86123170D01*
X118931630Y-86123170D02*
X118979249Y-86218408D01*
X118979249Y-86218408D02*
X118979249Y-86361265D01*
X118979249Y-86361265D02*
X118931630Y-86456503D01*
X118931630Y-86456503D02*
X118884011Y-86504122D01*
X118360202Y-85218408D02*
X118312583Y-85313646D01*
X118312583Y-85313646D02*
X118312583Y-85504122D01*
X118312583Y-85504122D02*
X118360202Y-85599360D01*
X118360202Y-85599360D02*
X118455440Y-85646979D01*
X118455440Y-85646979D02*
X118836392Y-85646979D01*
X118836392Y-85646979D02*
X118931630Y-85599360D01*
X118931630Y-85599360D02*
X118979249Y-85504122D01*
X118979249Y-85504122D02*
X118979249Y-85313646D01*
X118979249Y-85313646D02*
X118931630Y-85218408D01*
X118931630Y-85218408D02*
X118836392Y-85170789D01*
X118836392Y-85170789D02*
X118741154Y-85170789D01*
X118741154Y-85170789D02*
X118645916Y-85646979D01*
X118312583Y-84313646D02*
X118836392Y-84313646D01*
X118836392Y-84313646D02*
X118931630Y-84361265D01*
X118931630Y-84361265D02*
X118979249Y-84456503D01*
X118979249Y-84456503D02*
X118979249Y-84646979D01*
X118979249Y-84646979D02*
X118931630Y-84742217D01*
X118360202Y-84313646D02*
X118312583Y-84408884D01*
X118312583Y-84408884D02*
X118312583Y-84646979D01*
X118312583Y-84646979D02*
X118360202Y-84742217D01*
X118360202Y-84742217D02*
X118455440Y-84789836D01*
X118455440Y-84789836D02*
X118550678Y-84789836D01*
X118550678Y-84789836D02*
X118645916Y-84742217D01*
X118645916Y-84742217D02*
X118693535Y-84646979D01*
X118693535Y-84646979D02*
X118693535Y-84408884D01*
X118693535Y-84408884D02*
X118741154Y-84313646D01*
X118360202Y-83885074D02*
X118312583Y-83789836D01*
X118312583Y-83789836D02*
X118312583Y-83599360D01*
X118312583Y-83599360D02*
X118360202Y-83504122D01*
X118360202Y-83504122D02*
X118455440Y-83456503D01*
X118455440Y-83456503D02*
X118503059Y-83456503D01*
X118503059Y-83456503D02*
X118598297Y-83504122D01*
X118598297Y-83504122D02*
X118645916Y-83599360D01*
X118645916Y-83599360D02*
X118645916Y-83742217D01*
X118645916Y-83742217D02*
X118693535Y-83837455D01*
X118693535Y-83837455D02*
X118788773Y-83885074D01*
X118788773Y-83885074D02*
X118836392Y-83885074D01*
X118836392Y-83885074D02*
X118931630Y-83837455D01*
X118931630Y-83837455D02*
X118979249Y-83742217D01*
X118979249Y-83742217D02*
X118979249Y-83599360D01*
X118979249Y-83599360D02*
X118931630Y-83504122D01*
X118979249Y-83123169D02*
X118312583Y-82885074D01*
X118979249Y-82646979D02*
X118312583Y-82885074D01*
X118312583Y-82885074D02*
X118074487Y-82980312D01*
X118074487Y-82980312D02*
X118026868Y-83027931D01*
X118026868Y-83027931D02*
X117979249Y-83123169D01*
X118407821Y-82266026D02*
X118360202Y-82218407D01*
X118360202Y-82218407D02*
X118312583Y-82266026D01*
X118312583Y-82266026D02*
X118360202Y-82313645D01*
X118360202Y-82313645D02*
X118407821Y-82266026D01*
X118407821Y-82266026D02*
X118312583Y-82266026D01*
X118312583Y-81789836D02*
X118979249Y-81789836D01*
X119312583Y-81789836D02*
X119264964Y-81837455D01*
X119264964Y-81837455D02*
X119217344Y-81789836D01*
X119217344Y-81789836D02*
X119264964Y-81742217D01*
X119264964Y-81742217D02*
X119312583Y-81789836D01*
X119312583Y-81789836D02*
X119217344Y-81789836D01*
X118312583Y-81170789D02*
X118360202Y-81266027D01*
X118360202Y-81266027D02*
X118407821Y-81313646D01*
X118407821Y-81313646D02*
X118503059Y-81361265D01*
X118503059Y-81361265D02*
X118788773Y-81361265D01*
X118788773Y-81361265D02*
X118884011Y-81313646D01*
X118884011Y-81313646D02*
X118931630Y-81266027D01*
X118931630Y-81266027D02*
X118979249Y-81170789D01*
X118979249Y-81170789D02*
X118979249Y-81027932D01*
X118979249Y-81027932D02*
X118931630Y-80932694D01*
X118931630Y-80932694D02*
X118884011Y-80885075D01*
X118884011Y-80885075D02*
X118788773Y-80837456D01*
X118788773Y-80837456D02*
X118503059Y-80837456D01*
X118503059Y-80837456D02*
X118407821Y-80885075D01*
X118407821Y-80885075D02*
X118360202Y-80932694D01*
X118360202Y-80932694D02*
X118312583Y-81027932D01*
X118312583Y-81027932D02*
X118312583Y-81170789D01*
D10*
X113146868Y-86656028D02*
X112384964Y-86656028D01*
X112765916Y-87036980D02*
X112765916Y-86275076D01*
X114826868Y-88526028D02*
X114064964Y-88526028D01*
X126266392Y-77063171D02*
X126218773Y-76920314D01*
X126218773Y-76920314D02*
X126171154Y-76872695D01*
X126171154Y-76872695D02*
X126075916Y-76825076D01*
X126075916Y-76825076D02*
X125933059Y-76825076D01*
X125933059Y-76825076D02*
X125837821Y-76872695D01*
X125837821Y-76872695D02*
X125790202Y-76920314D01*
X125790202Y-76920314D02*
X125742583Y-77015552D01*
X125742583Y-77015552D02*
X125742583Y-77396504D01*
X125742583Y-77396504D02*
X126742583Y-77396504D01*
X126742583Y-77396504D02*
X126742583Y-77063171D01*
X126742583Y-77063171D02*
X126694964Y-76967933D01*
X126694964Y-76967933D02*
X126647344Y-76920314D01*
X126647344Y-76920314D02*
X126552106Y-76872695D01*
X126552106Y-76872695D02*
X126456868Y-76872695D01*
X126456868Y-76872695D02*
X126361630Y-76920314D01*
X126361630Y-76920314D02*
X126314011Y-76967933D01*
X126314011Y-76967933D02*
X126266392Y-77063171D01*
X126266392Y-77063171D02*
X126266392Y-77396504D01*
X126123535Y-76396504D02*
X126123535Y-75634600D01*
X125742583Y-76015552D02*
X126504487Y-76015552D01*
D12*
X120524964Y-81184600D02*
G75*
G03*
X120524964Y-81184600I-650000J0D01*
G01*
X112514964Y-76714600D02*
G75*
G03*
X112514964Y-76714600I-650000J0D01*
G01*
X113734964Y-75234600D02*
G75*
G03*
X113734964Y-75234600I-650000J0D01*
G01*
X115044964Y-73894600D02*
G75*
G03*
X115044964Y-73894600I-650000J0D01*
G01*
D13*
X113474200Y-83341400D02*
X113474200Y-82871400D01*
X113474200Y-83341400D02*
X113004200Y-83341400D01*
X113474200Y-80801400D02*
X113474200Y-81271400D01*
X113474200Y-80801400D02*
X113004200Y-80801400D01*
X110934200Y-83341400D02*
X111404200Y-83341400D01*
X110934200Y-83341400D02*
X110934200Y-82871400D01*
X110934200Y-80801400D02*
X111404200Y-80801400D01*
X110934200Y-80801400D02*
X110934200Y-81271400D01*
D10*
X113779200Y-81171400D02*
G75*
G03*
X113779200Y-81171400I-75000J0D01*
G01*
D13*
X122671200Y-83997000D02*
X122966200Y-83997000D01*
X122671200Y-83997000D02*
X122671200Y-83702000D01*
X126671200Y-83997000D02*
X126376200Y-83997000D01*
X126671200Y-83997000D02*
X126671200Y-83702000D01*
X122671200Y-79997000D02*
X122671200Y-80292000D01*
X122671200Y-79997000D02*
X122966200Y-79997000D01*
X126671200Y-79997000D02*
X126671200Y-80292000D01*
X126671200Y-79997000D02*
X126376200Y-79997000D01*
D11*
X126021200Y-84957000D02*
G75*
G03*
X126021200Y-84957000I-100000J0D01*
G01*
D14*
X121382200Y-73104836D02*
X121382200Y-72889164D01*
X122102200Y-73104836D02*
X122102200Y-72889164D01*
X124197800Y-78664600D02*
X123982128Y-78664600D01*
X124197800Y-77944600D02*
X123982128Y-77944600D01*
X128104964Y-82279222D02*
X128104964Y-81479978D01*
X129224964Y-82279222D02*
X129224964Y-81479978D01*
D13*
X119414964Y-74184600D02*
X119414964Y-77184600D01*
X115974964Y-77184600D02*
X115974964Y-74184600D01*
D11*
X116594964Y-77729600D02*
G75*
G03*
X116594964Y-77729600I-100000J0D01*
G01*
D14*
X110130000Y-82403836D02*
X110130000Y-82188164D01*
X110850000Y-82403836D02*
X110850000Y-82188164D01*
X116436400Y-72934236D02*
X116436400Y-72718564D01*
X117156400Y-72934236D02*
X117156400Y-72718564D01*
D12*
X116364964Y-89124600D02*
G75*
G03*
X116364964Y-89124600I-650000J0D01*
G01*
D14*
X121147364Y-80604836D02*
X121147364Y-80389164D01*
X121867364Y-80604836D02*
X121867364Y-80389164D01*
D12*
X121072800Y-72022600D02*
X120912800Y-72022600D01*
X121072800Y-72022600D02*
X121072800Y-72182600D01*
X121072800Y-73782600D02*
X121072800Y-73622600D01*
X121072800Y-73782600D02*
X120912800Y-73782600D01*
X119312800Y-73782600D02*
X119312800Y-73622600D01*
X119312800Y-73782600D02*
X119472800Y-73782600D01*
X119362800Y-72022600D02*
G75*
G03*
X119362800Y-72022600I-50000J0D01*
G01*
X114824964Y-86994600D02*
G75*
G03*
X114824964Y-86994600I-650000J0D01*
G01*
D14*
X117376200Y-72934236D02*
X117376200Y-72718564D01*
X118096200Y-72934236D02*
X118096200Y-72718564D01*
X128827128Y-83769600D02*
X129042800Y-83769600D01*
X128827128Y-84489600D02*
X129042800Y-84489600D01*
X121107200Y-77703000D02*
X120891528Y-77703000D01*
X121107200Y-76983000D02*
X120891528Y-76983000D01*
D12*
X122501600Y-74078200D02*
X122501600Y-74228200D01*
X122491600Y-74078200D02*
X122341600Y-74078200D01*
X120181600Y-74078200D02*
X119931600Y-74078200D01*
X119791600Y-76628200D02*
X119791600Y-76778200D01*
X122491600Y-76778200D02*
X122491600Y-76628200D01*
X122491600Y-76778200D02*
X122341600Y-76778200D01*
X119791600Y-76778200D02*
X119941600Y-76778200D01*
X119732428Y-74238200D02*
G75*
G03*
X119732428Y-74238200I-60828J0D01*
G01*
D14*
X127599384Y-77869600D02*
X127880544Y-77869600D01*
X127599384Y-78889600D02*
X127880544Y-78889600D01*
X119036000Y-72718564D02*
X119036000Y-72934236D01*
X118316000Y-72718564D02*
X118316000Y-72934236D01*
X122347400Y-73107436D02*
X122347400Y-72891764D01*
X123067400Y-73107436D02*
X123067400Y-72891764D01*
X113324964Y-84191764D02*
X113324964Y-84407436D01*
X112604964Y-84191764D02*
X112604964Y-84407436D01*
%LPC*%
G36*
X113204200Y-83021400D02*
G01*
X112754200Y-83021400D01*
X112754200Y-82621400D01*
X113204200Y-82621400D01*
X113204200Y-83021400D01*
G37*
D15*
X113204200Y-83021400D02*
X112754200Y-83021400D01*
X112754200Y-82621400D01*
X113204200Y-82621400D01*
X113204200Y-83021400D01*
G36*
X113204200Y-82521400D02*
G01*
X112754200Y-82521400D01*
X112754200Y-82121400D01*
X113204200Y-82121400D01*
X113204200Y-82521400D01*
G37*
X113204200Y-82521400D02*
X112754200Y-82521400D01*
X112754200Y-82121400D01*
X113204200Y-82121400D01*
X113204200Y-82521400D01*
G36*
X113204200Y-82021400D02*
G01*
X112754200Y-82021400D01*
X112754200Y-81621400D01*
X113204200Y-81621400D01*
X113204200Y-82021400D01*
G37*
X113204200Y-82021400D02*
X112754200Y-82021400D01*
X112754200Y-81621400D01*
X113204200Y-81621400D01*
X113204200Y-82021400D01*
G36*
X113204200Y-81521400D02*
G01*
X112754200Y-81521400D01*
X112754200Y-81121400D01*
X113204200Y-81121400D01*
X113204200Y-81521400D01*
G37*
X113204200Y-81521400D02*
X112754200Y-81521400D01*
X112754200Y-81121400D01*
X113204200Y-81121400D01*
X113204200Y-81521400D01*
G36*
X112654200Y-83071400D02*
G01*
X112254200Y-83071400D01*
X112254200Y-82621400D01*
X112654200Y-82621400D01*
X112654200Y-83071400D01*
G37*
X112654200Y-83071400D02*
X112254200Y-83071400D01*
X112254200Y-82621400D01*
X112654200Y-82621400D01*
X112654200Y-83071400D01*
G36*
X112654200Y-81521400D02*
G01*
X112254200Y-81521400D01*
X112254200Y-81071400D01*
X112654200Y-81071400D01*
X112654200Y-81521400D01*
G37*
X112654200Y-81521400D02*
X112254200Y-81521400D01*
X112254200Y-81071400D01*
X112654200Y-81071400D01*
X112654200Y-81521400D01*
G36*
X112154200Y-83071400D02*
G01*
X111754200Y-83071400D01*
X111754200Y-82621400D01*
X112154200Y-82621400D01*
X112154200Y-83071400D01*
G37*
X112154200Y-83071400D02*
X111754200Y-83071400D01*
X111754200Y-82621400D01*
X112154200Y-82621400D01*
X112154200Y-83071400D01*
G36*
X112154200Y-81521400D02*
G01*
X111754200Y-81521400D01*
X111754200Y-81071400D01*
X112154200Y-81071400D01*
X112154200Y-81521400D01*
G37*
X112154200Y-81521400D02*
X111754200Y-81521400D01*
X111754200Y-81071400D01*
X112154200Y-81071400D01*
X112154200Y-81521400D01*
G36*
X111654200Y-83021400D02*
G01*
X111204200Y-83021400D01*
X111204200Y-82621400D01*
X111654200Y-82621400D01*
X111654200Y-83021400D01*
G37*
X111654200Y-83021400D02*
X111204200Y-83021400D01*
X111204200Y-82621400D01*
X111654200Y-82621400D01*
X111654200Y-83021400D01*
G36*
X111654200Y-82521400D02*
G01*
X111204200Y-82521400D01*
X111204200Y-82121400D01*
X111654200Y-82121400D01*
X111654200Y-82521400D01*
G37*
X111654200Y-82521400D02*
X111204200Y-82521400D01*
X111204200Y-82121400D01*
X111654200Y-82121400D01*
X111654200Y-82521400D01*
G36*
X111654200Y-82021400D02*
G01*
X111204200Y-82021400D01*
X111204200Y-81621400D01*
X111654200Y-81621400D01*
X111654200Y-82021400D01*
G37*
X111654200Y-82021400D02*
X111204200Y-82021400D01*
X111204200Y-81621400D01*
X111654200Y-81621400D01*
X111654200Y-82021400D01*
G36*
X111654200Y-81521400D02*
G01*
X111204200Y-81521400D01*
X111204200Y-81121400D01*
X111654200Y-81121400D01*
X111654200Y-81521400D01*
G37*
X111654200Y-81521400D02*
X111204200Y-81521400D01*
X111204200Y-81121400D01*
X111654200Y-81121400D01*
X111654200Y-81521400D01*
D16*
X119874964Y-81184600D03*
D17*
X111864964Y-76714600D03*
X113084964Y-75234600D03*
X114394964Y-73894600D03*
D18*
X125921200Y-83947000D03*
X125421200Y-83947000D03*
X124921200Y-83947000D03*
X124421200Y-83947000D03*
X123921200Y-83947000D03*
X123921200Y-83947000D03*
X123421200Y-83947000D03*
D19*
X122721200Y-83247000D03*
X122721200Y-82747000D03*
X122721200Y-82247000D03*
X122721200Y-81747000D03*
X122721200Y-81247000D03*
X122721200Y-80747000D03*
D18*
X123421200Y-80047000D03*
X123921200Y-80047000D03*
X124421200Y-80047000D03*
X124921200Y-80047000D03*
X125421200Y-80047000D03*
X125921200Y-80047000D03*
D19*
X126621200Y-80747000D03*
X126621200Y-81247000D03*
X126621200Y-81747000D03*
X126621200Y-82247000D03*
X126621200Y-82747000D03*
X126621200Y-83247000D03*
D20*
X124671199Y-81996999D03*
D21*
X115921000Y-78435200D03*
X116561000Y-78435200D03*
D22*
X121742200Y-73477000D03*
X121742200Y-72517000D03*
D23*
X122789964Y-78949600D03*
X122789964Y-78309600D03*
D24*
X124569964Y-78304600D03*
X123609964Y-78304600D03*
D25*
X128664964Y-82942100D03*
X128664964Y-80817100D03*
D26*
X121666000Y-83423800D03*
X121666000Y-84063800D03*
D27*
X116494963Y-76884599D03*
X117294963Y-76884599D03*
X117294963Y-76884599D03*
X118094963Y-76884599D03*
X118894963Y-76884599D03*
X118894963Y-74484599D03*
X118094963Y-74484599D03*
X117294963Y-74484599D03*
X116494963Y-74484599D03*
D22*
X110490000Y-82776000D03*
X110490000Y-81816000D03*
X116796400Y-73306400D03*
X116796400Y-72346400D03*
D16*
X115714964Y-89124600D03*
D22*
X121507364Y-80977000D03*
X121507364Y-80017000D03*
D28*
X119626800Y-72336600D03*
X119626800Y-72902600D03*
X119626800Y-73468600D03*
X119909800Y-72619600D03*
X119909800Y-73185600D03*
X120192800Y-72336600D03*
X120192800Y-73468600D03*
X120475800Y-72619600D03*
X120475800Y-73185600D03*
X120758800Y-72336600D03*
X120758800Y-72902600D03*
X120758800Y-73468600D03*
D16*
X114174964Y-86994600D03*
D22*
X117736200Y-73306400D03*
X117736200Y-72346400D03*
D29*
X128454964Y-84129600D03*
X129414964Y-84129600D03*
D24*
X121479364Y-77343000D03*
X120519364Y-77343000D03*
D26*
X114681000Y-83307000D03*
X114681000Y-83947000D03*
D30*
X120116599Y-74453199D03*
X120116599Y-75103199D03*
X120116599Y-75753199D03*
X120116599Y-76403199D03*
X122166599Y-76403199D03*
X122166599Y-75753199D03*
X122166599Y-75103199D03*
X122166599Y-74453199D03*
D31*
X112283200Y-78994000D03*
X111643200Y-78994000D03*
D32*
X126964964Y-78379600D03*
X128514964Y-78379600D03*
D33*
X118676000Y-72346400D03*
X118676000Y-73306400D03*
D34*
X124562163Y-77028199D03*
D35*
X124587563Y-74208799D03*
D22*
X122707400Y-73479600D03*
X122707400Y-72519600D03*
D33*
X112964964Y-83819600D03*
X112964964Y-84779600D03*
D31*
X118008800Y-78460600D03*
X117368800Y-78460600D03*
M02*
