%TF.GenerationSoftware,KiCad,Pcbnew,(7.0.0)*%
%TF.CreationDate,2023-09-09T16:46:16-08:00*%
%TF.ProjectId,THINGY_2.0,5448494e-4759-45f3-922e-302e6b696361,rev?*%
%TF.SameCoordinates,Original*%
%TF.FileFunction,Plated,1,6,PTH,Drill*%
%TF.FilePolarity,Positive*%
%FSLAX46Y46*%
G04 Gerber Fmt 4.6, Leading zero omitted, Abs format (unit mm)*
G04 Created by KiCad (PCBNEW (7.0.0)) date 2023-09-09 16:46:16*
%MOMM*%
%LPD*%
G01*
G04 APERTURE LIST*
%TA.AperFunction,ViaDrill*%
%ADD10C,0.200000*%
%TD*%
%TA.AperFunction,ViaDrill*%
%ADD11C,0.300000*%
%TD*%
%TA.AperFunction,ViaDrill*%
%ADD12C,0.400000*%
%TD*%
G04 APERTURE END LIST*
D10*
X110139964Y-81204600D03*
X110514964Y-83904600D03*
X110764964Y-84779600D03*
X111164964Y-78129600D03*
X111164964Y-83404600D03*
X112814964Y-85804600D03*
X113214964Y-87304600D03*
X113424964Y-76134600D03*
X113604964Y-88164600D03*
X113944964Y-79394600D03*
X114414964Y-75054600D03*
X114489964Y-77429600D03*
X114496964Y-89006000D03*
X114639964Y-87904600D03*
X114814964Y-84579600D03*
X114852564Y-85907200D03*
X115106564Y-86897800D03*
X115564964Y-72529600D03*
X115564964Y-73329600D03*
X115921000Y-77490636D03*
X116164964Y-81929600D03*
X116376564Y-89996600D03*
X116539964Y-81129600D03*
X116839964Y-75154600D03*
X117214764Y-87913800D03*
X117239964Y-85754600D03*
X117240164Y-86770800D03*
X117265564Y-90860200D03*
X117564964Y-75154600D03*
X117589964Y-84854600D03*
X117764964Y-71729600D03*
X118454964Y-79324600D03*
X118564964Y-80179600D03*
X118689964Y-71504600D03*
X118889964Y-84979600D03*
X119839964Y-77429600D03*
X119983364Y-84992800D03*
X120614964Y-71529600D03*
X120989964Y-76279600D03*
X121044964Y-85004600D03*
X121104964Y-84204600D03*
X121177164Y-79176200D03*
X121479364Y-78439600D03*
X121789964Y-71654600D03*
X122167764Y-85018200D03*
X122789964Y-71804600D03*
X123386964Y-85043600D03*
X124250564Y-81106600D03*
X124860164Y-86999400D03*
X124885564Y-88167800D03*
X124910964Y-89488600D03*
X124936364Y-82122600D03*
X125304664Y-86199300D03*
X125489964Y-81129600D03*
X125952364Y-89514000D03*
X127473714Y-88270850D03*
X127489964Y-80779600D03*
X129664964Y-78354600D03*
X129789964Y-79204600D03*
X130014964Y-82304600D03*
X130014964Y-83154600D03*
D11*
X115044964Y-76774600D03*
X122789964Y-76879600D03*
X123014964Y-75604600D03*
X124389964Y-72629600D03*
X125164964Y-73079600D03*
X125989964Y-73554600D03*
X127489964Y-85904600D03*
X127489964Y-86804600D03*
X128439964Y-86729600D03*
X128639964Y-85879600D03*
D12*
X126841364Y-75163000D03*
X127314964Y-76944600D03*
X127834964Y-75854600D03*
M02*
