G04 #@! TF.GenerationSoftware,KiCad,Pcbnew,(7.0.0)*
G04 #@! TF.CreationDate,2023-09-09T16:46:03-08:00*
G04 #@! TF.ProjectId,THINGY_2.0,5448494e-4759-45f3-922e-302e6b696361,rev?*
G04 #@! TF.SameCoordinates,Original*
G04 #@! TF.FileFunction,Copper,L6,Bot*
G04 #@! TF.FilePolarity,Positive*
%FSLAX46Y46*%
G04 Gerber Fmt 4.6, Leading zero omitted, Abs format (unit mm)*
G04 Created by KiCad (PCBNEW (7.0.0)) date 2023-09-09 16:46:03*
%MOMM*%
%LPD*%
G01*
G04 APERTURE LIST*
G04 Aperture macros list*
%AMRoundRect*
0 Rectangle with rounded corners*
0 $1 Rounding radius*
0 $2 $3 $4 $5 $6 $7 $8 $9 X,Y pos of 4 corners*
0 Add a 4 corners polygon primitive as box body*
4,1,4,$2,$3,$4,$5,$6,$7,$8,$9,$2,$3,0*
0 Add four circle primitives for the rounded corners*
1,1,$1+$1,$2,$3*
1,1,$1+$1,$4,$5*
1,1,$1+$1,$6,$7*
1,1,$1+$1,$8,$9*
0 Add four rect primitives between the rounded corners*
20,1,$1+$1,$2,$3,$4,$5,0*
20,1,$1+$1,$4,$5,$6,$7,0*
20,1,$1+$1,$6,$7,$8,$9,0*
20,1,$1+$1,$8,$9,$2,$3,0*%
G04 Aperture macros list end*
G04 #@! TA.AperFunction,SMDPad,CuDef*
%ADD10C,1.000000*%
G04 #@! TD*
G04 #@! TA.AperFunction,SMDPad,CuDef*
%ADD11C,1.100000*%
G04 #@! TD*
G04 #@! TA.AperFunction,SMDPad,CuDef*
%ADD12R,0.350000X0.300000*%
G04 #@! TD*
G04 #@! TA.AperFunction,SMDPad,CuDef*
%ADD13R,0.300000X0.350000*%
G04 #@! TD*
G04 #@! TA.AperFunction,SMDPad,CuDef*
%ADD14RoundRect,0.008100X0.126900X-0.396900X0.126900X0.396900X-0.126900X0.396900X-0.126900X-0.396900X0*%
G04 #@! TD*
G04 #@! TA.AperFunction,SMDPad,CuDef*
%ADD15RoundRect,0.027000X0.378000X-0.108000X0.378000X0.108000X-0.378000X0.108000X-0.378000X-0.108000X0*%
G04 #@! TD*
G04 #@! TA.AperFunction,SMDPad,CuDef*
%ADD16R,2.700000X2.700000*%
G04 #@! TD*
G04 #@! TA.AperFunction,SMDPad,CuDef*
%ADD17RoundRect,0.100000X-0.130000X-0.100000X0.130000X-0.100000X0.130000X0.100000X-0.130000X0.100000X0*%
G04 #@! TD*
G04 #@! TA.AperFunction,SMDPad,CuDef*
%ADD18RoundRect,0.140000X0.170000X-0.140000X0.170000X0.140000X-0.170000X0.140000X-0.170000X-0.140000X0*%
G04 #@! TD*
G04 #@! TA.AperFunction,SMDPad,CuDef*
%ADD19RoundRect,0.100000X0.100000X-0.130000X0.100000X0.130000X-0.100000X0.130000X-0.100000X-0.130000X0*%
G04 #@! TD*
G04 #@! TA.AperFunction,SMDPad,CuDef*
%ADD20RoundRect,0.140000X0.140000X0.170000X-0.140000X0.170000X-0.140000X-0.170000X0.140000X-0.170000X0*%
G04 #@! TD*
G04 #@! TA.AperFunction,SMDPad,CuDef*
%ADD21RoundRect,0.218750X0.381250X-0.218750X0.381250X0.218750X-0.381250X0.218750X-0.381250X-0.218750X0*%
G04 #@! TD*
G04 #@! TA.AperFunction,SMDPad,CuDef*
%ADD22RoundRect,0.100000X-0.100000X0.130000X-0.100000X-0.130000X0.100000X-0.130000X0.100000X0.130000X0*%
G04 #@! TD*
G04 #@! TA.AperFunction,SMDPad,CuDef*
%ADD23R,0.400000X0.400000*%
G04 #@! TD*
G04 #@! TA.AperFunction,SMDPad,CuDef*
%ADD24C,0.200000*%
G04 #@! TD*
G04 #@! TA.AperFunction,SMDPad,CuDef*
%ADD25RoundRect,0.140000X-0.140000X-0.170000X0.140000X-0.170000X0.140000X0.170000X-0.140000X0.170000X0*%
G04 #@! TD*
G04 #@! TA.AperFunction,SMDPad,CuDef*
%ADD26R,0.500000X0.350000*%
G04 #@! TD*
G04 #@! TA.AperFunction,SMDPad,CuDef*
%ADD27RoundRect,0.100000X0.130000X0.100000X-0.130000X0.100000X-0.130000X-0.100000X0.130000X-0.100000X0*%
G04 #@! TD*
G04 #@! TA.AperFunction,SMDPad,CuDef*
%ADD28RoundRect,0.225000X-0.225000X-0.250000X0.225000X-0.250000X0.225000X0.250000X-0.225000X0.250000X0*%
G04 #@! TD*
G04 #@! TA.AperFunction,SMDPad,CuDef*
%ADD29RoundRect,0.140000X-0.170000X0.140000X-0.170000X-0.140000X0.170000X-0.140000X0.170000X0.140000X0*%
G04 #@! TD*
G04 #@! TA.AperFunction,SMDPad,CuDef*
%ADD30R,2.184400X1.473200*%
G04 #@! TD*
G04 #@! TA.AperFunction,SMDPad,CuDef*
%ADD31R,2.133600X1.651000*%
G04 #@! TD*
G04 #@! TA.AperFunction,ViaPad*
%ADD32C,0.250000*%
G04 #@! TD*
G04 #@! TA.AperFunction,ViaPad*
%ADD33C,0.520000*%
G04 #@! TD*
G04 #@! TA.AperFunction,ViaPad*
%ADD34C,0.600000*%
G04 #@! TD*
G04 #@! TA.AperFunction,ViaPad*
%ADD35C,0.800000*%
G04 #@! TD*
G04 #@! TA.AperFunction,Conductor*
%ADD36C,0.203200*%
G04 #@! TD*
G04 #@! TA.AperFunction,Conductor*
%ADD37C,0.200000*%
G04 #@! TD*
G04 #@! TA.AperFunction,Conductor*
%ADD38C,0.320000*%
G04 #@! TD*
G04 #@! TA.AperFunction,Conductor*
%ADD39C,0.400000*%
G04 #@! TD*
G04 #@! TA.AperFunction,Conductor*
%ADD40C,0.254000*%
G04 #@! TD*
G04 APERTURE END LIST*
D10*
X119874964Y-81184600D03*
D11*
X111864964Y-76714600D03*
X113084964Y-75234600D03*
X114394964Y-73894600D03*
D12*
X112979199Y-81321399D03*
X112979199Y-81821399D03*
X112979199Y-82321399D03*
X112979199Y-82821399D03*
D13*
X112454199Y-82846399D03*
X111954199Y-82846399D03*
D12*
X111429199Y-82821399D03*
X111429199Y-82321399D03*
X111429199Y-81821399D03*
X111429199Y-81321399D03*
D13*
X111954199Y-81296399D03*
X112454199Y-81296399D03*
D14*
X125921200Y-83947000D03*
X125421200Y-83947000D03*
X124921200Y-83947000D03*
X124421200Y-83947000D03*
X123921200Y-83947000D03*
X123921200Y-83947000D03*
X123421200Y-83947000D03*
D15*
X122721200Y-83247000D03*
X122721200Y-82747000D03*
X122721200Y-82247000D03*
X122721200Y-81747000D03*
X122721200Y-81247000D03*
X122721200Y-80747000D03*
D14*
X123421200Y-80047000D03*
X123921200Y-80047000D03*
X124421200Y-80047000D03*
X124921200Y-80047000D03*
X125421200Y-80047000D03*
X125921200Y-80047000D03*
D15*
X126621200Y-80747000D03*
X126621200Y-81247000D03*
X126621200Y-81747000D03*
X126621200Y-82247000D03*
X126621200Y-82747000D03*
X126621200Y-83247000D03*
D16*
X124671199Y-81996999D03*
D17*
X115921000Y-78435200D03*
X116561000Y-78435200D03*
D18*
X121742200Y-73477000D03*
X121742200Y-72517000D03*
D19*
X122789964Y-78949600D03*
X122789964Y-78309600D03*
D20*
X124569964Y-78304600D03*
X123609964Y-78304600D03*
D21*
X128664964Y-82942100D03*
X128664964Y-80817100D03*
D22*
X121666000Y-83423800D03*
X121666000Y-84063800D03*
D23*
X116494963Y-76884599D03*
X117294963Y-76884599D03*
X117294963Y-76884599D03*
X118094963Y-76884599D03*
X118894963Y-76884599D03*
X118894963Y-74484599D03*
X118094963Y-74484599D03*
X117294963Y-74484599D03*
X116494963Y-74484599D03*
D18*
X110490000Y-82776000D03*
X110490000Y-81816000D03*
X116796400Y-73306400D03*
X116796400Y-72346400D03*
D10*
X115714964Y-89124600D03*
D18*
X121507364Y-80977000D03*
X121507364Y-80017000D03*
D24*
X119626800Y-72336600D03*
X119626800Y-72902600D03*
X119626800Y-73468600D03*
X119909800Y-72619600D03*
X119909800Y-73185600D03*
X120192800Y-72336600D03*
X120192800Y-73468600D03*
X120475800Y-72619600D03*
X120475800Y-73185600D03*
X120758800Y-72336600D03*
X120758800Y-72902600D03*
X120758800Y-73468600D03*
D10*
X114174964Y-86994600D03*
D18*
X117736200Y-73306400D03*
X117736200Y-72346400D03*
D25*
X128454964Y-84129600D03*
X129414964Y-84129600D03*
D20*
X121479364Y-77343000D03*
X120519364Y-77343000D03*
D22*
X114681000Y-83307000D03*
X114681000Y-83947000D03*
D26*
X120116599Y-74453199D03*
X120116599Y-75103199D03*
X120116599Y-75753199D03*
X120116599Y-76403199D03*
X122166599Y-76403199D03*
X122166599Y-75753199D03*
X122166599Y-75103199D03*
X122166599Y-74453199D03*
D27*
X112283200Y-78994000D03*
X111643200Y-78994000D03*
D28*
X126964964Y-78379600D03*
X128514964Y-78379600D03*
D29*
X118676000Y-72346400D03*
X118676000Y-73306400D03*
D30*
X124562163Y-77028199D03*
D31*
X124587563Y-74208799D03*
D18*
X122707400Y-73479600D03*
X122707400Y-72519600D03*
D29*
X112964964Y-83819600D03*
X112964964Y-84779600D03*
D27*
X118008800Y-78460600D03*
X117368800Y-78460600D03*
D32*
X117934964Y-81574600D03*
D33*
X121104964Y-84204600D03*
X114414964Y-75054600D03*
X113424964Y-76134600D03*
X117564964Y-75154600D03*
X124860164Y-86999400D03*
X114639964Y-87904600D03*
X122167764Y-85018200D03*
X124936364Y-82122600D03*
D34*
X115044964Y-76774600D03*
D33*
X124885564Y-88167800D03*
D34*
X124389964Y-72629600D03*
X125989964Y-73554600D03*
D33*
X114496964Y-89006000D03*
X118564964Y-80179600D03*
X130014964Y-82304600D03*
X110139964Y-81204600D03*
D34*
X123014964Y-75604600D03*
D33*
X117239964Y-85754600D03*
X129664964Y-78354600D03*
X124250564Y-81106600D03*
X130014964Y-83154600D03*
X114814964Y-84579600D03*
X121044964Y-85004600D03*
X121177164Y-79176200D03*
D34*
X122789964Y-76879600D03*
D33*
X116539964Y-81129600D03*
X121789964Y-71654600D03*
X116839964Y-75154600D03*
X119839964Y-77429600D03*
X117214764Y-87913800D03*
X124910964Y-89488600D03*
X125489964Y-81129600D03*
D34*
X125164964Y-73079600D03*
D33*
X111164964Y-78129600D03*
X115106564Y-86897800D03*
X110764964Y-84779600D03*
X114852564Y-85907200D03*
X112814964Y-85804600D03*
X116164964Y-81929600D03*
X117240164Y-86770800D03*
X113214964Y-87304600D03*
X116376564Y-89996600D03*
X119983364Y-84992800D03*
X120614964Y-71529600D03*
X118889964Y-84979600D03*
X117764964Y-71729600D03*
X117265564Y-90860200D03*
X123386964Y-85043600D03*
X129789964Y-79204600D03*
D34*
X128639964Y-85879600D03*
D33*
X118689964Y-71504600D03*
D34*
X127489964Y-85904600D03*
D33*
X115564964Y-73329600D03*
X122789964Y-71804600D03*
X111164964Y-83404600D03*
D34*
X128439964Y-86729600D03*
D33*
X115564964Y-72529600D03*
D34*
X127489964Y-86804600D03*
D33*
X115921000Y-77490636D03*
X113604964Y-88164600D03*
X110514964Y-83904600D03*
X118454964Y-79324600D03*
X117589964Y-84854600D03*
X114489964Y-77429600D03*
X121479364Y-78439600D03*
D32*
X115138200Y-82600800D03*
X118019964Y-76559600D03*
X119761000Y-75768200D03*
X116452764Y-78922200D03*
X116833764Y-78007800D03*
X119913400Y-73177400D03*
X119634000Y-72898000D03*
X117621164Y-78084000D03*
X118883782Y-77153418D03*
X119761000Y-76428600D03*
X117316364Y-78922200D03*
D35*
X126841364Y-75163000D03*
X127314964Y-76944600D03*
X127834964Y-75854600D03*
D33*
X113944964Y-79394600D03*
X127473714Y-88270850D03*
D32*
X122548764Y-82732200D03*
D33*
X125952364Y-89514000D03*
D32*
X122472564Y-81767000D03*
D33*
X127489964Y-80779600D03*
X120989964Y-76279600D03*
D32*
X120465964Y-72623000D03*
X120465964Y-73181800D03*
X111963200Y-82677000D03*
X112445800Y-83159600D03*
X117240164Y-82960800D03*
X112953800Y-81076800D03*
X112471200Y-81076800D03*
X111328200Y-81102200D03*
X113207800Y-81813400D03*
X126764964Y-81754600D03*
X125439964Y-83954600D03*
D33*
X125304664Y-86199300D03*
D32*
X124939964Y-79929600D03*
X123914964Y-84479400D03*
X121278764Y-81462200D03*
X122040764Y-80497000D03*
X120885064Y-83608500D03*
D36*
X119484964Y-81574600D02*
X119874964Y-81184600D01*
X117934964Y-81574600D02*
X119484964Y-81574600D01*
X121245764Y-84063800D02*
X121666000Y-84063800D01*
X121104964Y-84204600D02*
X121245764Y-84063800D01*
D37*
X114394964Y-74104600D02*
X114364964Y-74074600D01*
X114394964Y-75034600D02*
X114394964Y-74104600D01*
X114414964Y-75054600D02*
X114394964Y-75034600D01*
D36*
X114174964Y-87594600D02*
X114174964Y-86994600D01*
X113604964Y-88164600D02*
X114174964Y-87594600D01*
D37*
X113054964Y-75764600D02*
X113424964Y-76134600D01*
X113054964Y-75254600D02*
X113054964Y-75764600D01*
D36*
X112164964Y-76604600D02*
X111774964Y-76604600D01*
X115320764Y-79760400D02*
X112164964Y-76604600D01*
X116452764Y-79760400D02*
X115320764Y-79760400D01*
X117240164Y-80547800D02*
X116452764Y-79760400D01*
X117240164Y-82960800D02*
X117240164Y-80547800D01*
X113544364Y-78994000D02*
X112283200Y-78994000D01*
X113944964Y-79394600D02*
X113544364Y-78994000D01*
D38*
X118454964Y-78906764D02*
X118008800Y-78460600D01*
X118454964Y-79324600D02*
X118454964Y-78906764D01*
D39*
X129664964Y-78354600D02*
X128539964Y-78354600D01*
D40*
X123609964Y-78304600D02*
X122794964Y-78304600D01*
D36*
X112964964Y-85654600D02*
X112814964Y-85804600D01*
X123437764Y-83963564D02*
X123421200Y-83947000D01*
X123421200Y-83947000D02*
X123421200Y-83247000D01*
X123386964Y-83981236D02*
X123386964Y-85043600D01*
X123421200Y-80747000D02*
X124671200Y-81997000D01*
X122166600Y-75103200D02*
X122869964Y-75103200D01*
X124421200Y-82247000D02*
X124671200Y-81997000D01*
X118676000Y-73286200D02*
X117736200Y-72346400D01*
X123921200Y-81247000D02*
X124671200Y-81997000D01*
X110495400Y-81821400D02*
X110490000Y-81816000D01*
X114681000Y-84445636D02*
X114814964Y-84579600D01*
D39*
X128539964Y-78354600D02*
X128514964Y-78379600D01*
D36*
X122869964Y-75103200D02*
X123014964Y-75248200D01*
X118838200Y-73468600D02*
X118676000Y-73306400D01*
X111429200Y-81821400D02*
X110495400Y-81821400D01*
X122721200Y-81247000D02*
X123921200Y-81247000D01*
X115596364Y-89006000D02*
X115714964Y-89124600D01*
D39*
X130014964Y-83529600D02*
X130014964Y-83154600D01*
D40*
X122794964Y-78304600D02*
X122789964Y-78309600D01*
D36*
X121507364Y-79506400D02*
X121177164Y-79176200D01*
X114496964Y-89006000D02*
X115596364Y-89006000D01*
X121507364Y-80017000D02*
X121507364Y-79506400D01*
X110251364Y-81816000D02*
X110139964Y-81704600D01*
X120519364Y-77343000D02*
X119926564Y-77343000D01*
X116384964Y-76774600D02*
X116494964Y-76884600D01*
X123421200Y-83247000D02*
X124671200Y-81997000D01*
D40*
X122313564Y-76403200D02*
X122166600Y-76403200D01*
D36*
X119857164Y-74484600D02*
X118894964Y-74484600D01*
X126621200Y-82747000D02*
X125421200Y-82747000D01*
X117294964Y-74884600D02*
X117564964Y-75154600D01*
X119926564Y-77343000D02*
X119839964Y-77429600D01*
X122721200Y-80747000D02*
X123421200Y-80747000D01*
X111379364Y-78994000D02*
X111164964Y-78779600D01*
X111429200Y-82321400D02*
X111429200Y-81821400D01*
X111164964Y-78779600D02*
X111164964Y-78129600D01*
X122721200Y-82247000D02*
X124421200Y-82247000D01*
X118894964Y-73525364D02*
X118676000Y-73306400D01*
D39*
X129789964Y-78479600D02*
X129664964Y-78354600D01*
D36*
X117294964Y-74484600D02*
X117294964Y-74884600D01*
X120192800Y-74377000D02*
X120116600Y-74453200D01*
X119888564Y-74453200D02*
X119857164Y-74484600D01*
D39*
X130014964Y-82304600D02*
X130014964Y-83154600D01*
D36*
X119626800Y-73468600D02*
X118838200Y-73468600D01*
X117736200Y-72346400D02*
X117736200Y-71758364D01*
D39*
X129414964Y-84129600D02*
X130014964Y-83529600D01*
D36*
X115044964Y-76774600D02*
X116384964Y-76774600D01*
X118676000Y-73306400D02*
X118676000Y-73286200D01*
X110139964Y-81704600D02*
X110139964Y-81204600D01*
D40*
X122789964Y-76879600D02*
X122789964Y-78309600D01*
X122789964Y-76879600D02*
X122313564Y-76403200D01*
D39*
X129789964Y-79204600D02*
X129789964Y-78479600D01*
D36*
X125421200Y-82747000D02*
X124671200Y-81997000D01*
X117736200Y-71758364D02*
X117764964Y-71729600D01*
X123421200Y-83947000D02*
X123386964Y-83981236D01*
X123014964Y-75248200D02*
X123014964Y-75604600D01*
X118894964Y-74484600D02*
X118894964Y-73525364D01*
X116796400Y-72346400D02*
X117736200Y-72346400D01*
X110490000Y-81816000D02*
X110251364Y-81816000D01*
X114681000Y-83947000D02*
X114681000Y-84445636D01*
X120192800Y-73468600D02*
X120192800Y-74377000D01*
X120116600Y-74453200D02*
X119888564Y-74453200D01*
X116839964Y-75154600D02*
X117564964Y-75154600D01*
X112964964Y-84779600D02*
X112964964Y-85654600D01*
X111643200Y-78994000D02*
X111379364Y-78994000D01*
D40*
X121479364Y-77343000D02*
X121479364Y-76864836D01*
D36*
X119626800Y-72336600D02*
X119617000Y-72346400D01*
X119089964Y-72346400D02*
X118676000Y-72346400D01*
X113709564Y-83316400D02*
X113709564Y-82605200D01*
D40*
X122707400Y-73479600D02*
X122707400Y-73912400D01*
D38*
X115921000Y-77490636D02*
X115921000Y-78435200D01*
D36*
X119617000Y-72346400D02*
X118676000Y-72346400D01*
D40*
X122707400Y-73912400D02*
X122166600Y-74453200D01*
X122707400Y-73479600D02*
X122764964Y-73479600D01*
X121589600Y-76026564D02*
X121589600Y-76754600D01*
X122166600Y-75753200D02*
X121862964Y-75753200D01*
D36*
X113052800Y-83794600D02*
X113231364Y-83794600D01*
D38*
X116796400Y-73306400D02*
X116796400Y-74183164D01*
D36*
X111429200Y-82821400D02*
X110535400Y-82821400D01*
X128454964Y-83414600D02*
X128454964Y-84129600D01*
X115138200Y-82600800D02*
X114681000Y-83058000D01*
D38*
X117736200Y-73845836D02*
X117736200Y-73306400D01*
D36*
X121742200Y-73477000D02*
X120767200Y-73477000D01*
X113709564Y-82605200D02*
X113480964Y-82376600D01*
D40*
X123314964Y-71804600D02*
X122789964Y-71804600D01*
X123589964Y-72654600D02*
X123589964Y-72079600D01*
D36*
X114681000Y-83058000D02*
X114681000Y-83307000D01*
D38*
X118104964Y-74214600D02*
X117736200Y-73845836D01*
D36*
X128952464Y-82917100D02*
X128454964Y-83414600D01*
D40*
X121862964Y-75753200D02*
X121589600Y-76026564D01*
D36*
X113231364Y-83794600D02*
X113709564Y-83316400D01*
D38*
X118438564Y-75103200D02*
X118064964Y-74729600D01*
D36*
X129114964Y-82917100D02*
X128952464Y-82917100D01*
D40*
X122707400Y-73479600D02*
X121744800Y-73479600D01*
D36*
X120767200Y-73477000D02*
X120758800Y-73468600D01*
D38*
X118064964Y-74454600D02*
X118104964Y-74414600D01*
X115921000Y-77490636D02*
X117028928Y-77490636D01*
D36*
X119363164Y-72619600D02*
X119089964Y-72346400D01*
D40*
X121479364Y-76864836D02*
X121589600Y-76754600D01*
D36*
X110535400Y-82821400D02*
X110490000Y-82776000D01*
D40*
X121479364Y-78439600D02*
X121479364Y-77343000D01*
D38*
X117028928Y-77490636D02*
X117294964Y-77224600D01*
D36*
X119909800Y-72619600D02*
X119363164Y-72619600D01*
X113034400Y-82376600D02*
X112979200Y-82321400D01*
D38*
X118064964Y-74729600D02*
X118064964Y-74454600D01*
D40*
X123589964Y-72079600D02*
X123314964Y-71804600D01*
D36*
X128272364Y-83947000D02*
X125921200Y-83947000D01*
X128454964Y-84129600D02*
X128272364Y-83947000D01*
X113480964Y-82376600D02*
X113034400Y-82376600D01*
D38*
X120116600Y-75103200D02*
X118438564Y-75103200D01*
X116796400Y-74183164D02*
X116494964Y-74484600D01*
D40*
X122764964Y-73479600D02*
X123589964Y-72654600D01*
D38*
X118104964Y-74414600D02*
X118104964Y-74214600D01*
X117294964Y-77224600D02*
X117294964Y-76884600D01*
D40*
X121744800Y-73479600D02*
X121742200Y-73477000D01*
D36*
X116452764Y-78543436D02*
X116561000Y-78435200D01*
X116561000Y-78280564D02*
X116833764Y-78007800D01*
X116452764Y-78922200D02*
X116452764Y-78543436D01*
X118019964Y-76559600D02*
X118094964Y-76634600D01*
X118094964Y-76634600D02*
X118094964Y-76884600D01*
X119776000Y-75753200D02*
X119761000Y-75768200D01*
X120116600Y-75753200D02*
X119776000Y-75753200D01*
X116561000Y-78435200D02*
X116561000Y-78280564D01*
X118894964Y-76884600D02*
X118883782Y-76895782D01*
X117368800Y-78460600D02*
X117368800Y-78302652D01*
X117316364Y-78513036D02*
X117368800Y-78460600D01*
X120116600Y-76403200D02*
X119786400Y-76403200D01*
X119786400Y-76403200D02*
X119761000Y-76428600D01*
X118883782Y-76895782D02*
X118883782Y-77153418D01*
X117316364Y-78922200D02*
X117316364Y-78513036D01*
X117368800Y-78302652D02*
X117612452Y-78059000D01*
D40*
X124569964Y-78806000D02*
X124569964Y-78304600D01*
X124421200Y-80047000D02*
X124421200Y-78954764D01*
X124421200Y-78954764D02*
X124569964Y-78806000D01*
X124562164Y-77028200D02*
X124562164Y-78296800D01*
X124562164Y-78296800D02*
X124569964Y-78304600D01*
D36*
X124594964Y-78279600D02*
X124421200Y-78453364D01*
X124594964Y-78279600D02*
X124412164Y-78096800D01*
X127457364Y-80747000D02*
X127489964Y-80779600D01*
X126621200Y-80747000D02*
X127457364Y-80747000D01*
X111954200Y-82686000D02*
X111963200Y-82677000D01*
X111954200Y-82846400D02*
X111954200Y-82686000D01*
X112445800Y-83159600D02*
X112454200Y-83151200D01*
X112454200Y-83151200D02*
X112454200Y-82846400D01*
X112979200Y-81321400D02*
X112979200Y-81102200D01*
X112979200Y-81102200D02*
X112953800Y-81076800D01*
X112454200Y-81296400D02*
X112454200Y-81093800D01*
X112454200Y-81093800D02*
X112471200Y-81076800D01*
X111429200Y-81203200D02*
X111328200Y-81102200D01*
X111429200Y-81321400D02*
X111429200Y-81203200D01*
X112979200Y-81821400D02*
X113199800Y-81821400D01*
X113199800Y-81821400D02*
X113207800Y-81813400D01*
D38*
X126621200Y-82247000D02*
X127460064Y-82247000D01*
X127460064Y-82247000D02*
X128889964Y-80817100D01*
D36*
X124921200Y-83947000D02*
X125421200Y-83947000D01*
X123921200Y-80047000D02*
X123921200Y-79510836D01*
X123921200Y-79510836D02*
X123359964Y-78949600D01*
X123359964Y-78949600D02*
X122789964Y-78949600D01*
X121507364Y-80977000D02*
X121507364Y-81233600D01*
X121507364Y-80977000D02*
X121560764Y-80977000D01*
X121507364Y-81233600D02*
X121278764Y-81462200D01*
X123921200Y-84473164D02*
X123914964Y-84479400D01*
X123921200Y-83947000D02*
X123921200Y-84473164D01*
X125304664Y-86199300D02*
X125219364Y-86284600D01*
X121560764Y-80977000D02*
X122040764Y-80497000D01*
X122721200Y-83247000D02*
X121842800Y-83247000D01*
X121842800Y-83247000D02*
X121666000Y-83423800D01*
X120885064Y-83608500D02*
X121069764Y-83423800D01*
X121069764Y-83423800D02*
X121666000Y-83423800D01*
G04 #@! TA.AperFunction,Conductor*
G36*
X117927695Y-71224942D02*
G01*
X117950746Y-71242913D01*
X117959464Y-71270812D01*
X117959464Y-71491727D01*
X117959604Y-71493035D01*
X117959605Y-71493041D01*
X117964020Y-71534107D01*
X117964022Y-71534119D01*
X117964161Y-71535412D01*
X117966330Y-71545382D01*
X117980203Y-71587064D01*
X117980747Y-71588256D01*
X117980749Y-71588260D01*
X118009224Y-71650613D01*
X118013153Y-71663994D01*
X118021583Y-71722625D01*
X118021583Y-71736573D01*
X118013153Y-71795204D01*
X118009224Y-71808585D01*
X117980751Y-71870933D01*
X117980747Y-71870941D01*
X117980204Y-71872132D01*
X117979792Y-71873369D01*
X117979786Y-71873385D01*
X117966746Y-71912565D01*
X117966330Y-71913816D01*
X117966053Y-71915088D01*
X117966050Y-71915100D01*
X117964439Y-71922505D01*
X117964436Y-71922517D01*
X117964161Y-71923786D01*
X117964022Y-71925075D01*
X117964020Y-71925090D01*
X117960036Y-71962147D01*
X117959464Y-71967471D01*
X117959464Y-71973682D01*
X117959931Y-71976032D01*
X117959932Y-71976038D01*
X117974634Y-72049956D01*
X117975104Y-72052318D01*
X117976024Y-72054540D01*
X117976025Y-72054542D01*
X117981211Y-72067065D01*
X117981214Y-72067072D01*
X117982133Y-72069289D01*
X117983468Y-72071288D01*
X117983473Y-72071296D01*
X118010129Y-72111190D01*
X118013796Y-72117703D01*
X118036608Y-72166624D01*
X118041199Y-72187331D01*
X118041199Y-72419723D01*
X118041666Y-72422073D01*
X118041667Y-72422079D01*
X118056369Y-72495997D01*
X118056839Y-72498359D01*
X118057759Y-72500581D01*
X118057760Y-72500583D01*
X118062946Y-72513106D01*
X118062949Y-72513113D01*
X118063868Y-72515330D01*
X118065202Y-72517326D01*
X118065205Y-72517332D01*
X118066283Y-72518945D01*
X118108418Y-72582004D01*
X118369295Y-72842881D01*
X118371296Y-72844218D01*
X118433966Y-72886093D01*
X118433968Y-72886094D01*
X118435969Y-72887431D01*
X118438189Y-72888350D01*
X118438192Y-72888352D01*
X118443001Y-72890343D01*
X118452940Y-72894460D01*
X118531576Y-72910100D01*
X119264496Y-72910100D01*
X119295992Y-72921564D01*
X119312752Y-72950591D01*
X119316059Y-72969345D01*
X119323412Y-73011045D01*
X119380806Y-73110455D01*
X119384088Y-73113209D01*
X119384090Y-73113211D01*
X119414448Y-73138684D01*
X119468739Y-73184240D01*
X119565412Y-73219425D01*
X119586188Y-73233973D01*
X119596907Y-73256960D01*
X119602812Y-73290445D01*
X119660206Y-73389855D01*
X119663488Y-73392609D01*
X119663490Y-73392611D01*
X119715101Y-73435918D01*
X119748139Y-73463640D01*
X119856006Y-73502900D01*
X119966505Y-73502900D01*
X119970794Y-73502900D01*
X120078661Y-73463640D01*
X120155563Y-73399110D01*
X120187060Y-73387647D01*
X120218557Y-73399111D01*
X120300703Y-73468040D01*
X120408570Y-73507300D01*
X120414227Y-73507300D01*
X120415631Y-73507788D01*
X120417079Y-73508044D01*
X120417037Y-73508278D01*
X120444649Y-73517888D01*
X120458389Y-73539512D01*
X120459630Y-73538965D01*
X120467954Y-73557818D01*
X120471044Y-73567980D01*
X120471321Y-73568743D01*
X120472066Y-73572963D01*
X120481701Y-73589651D01*
X120484083Y-73594344D01*
X120505251Y-73642285D01*
X120508460Y-73645494D01*
X120513833Y-73650867D01*
X120518288Y-73655986D01*
X120519919Y-73658146D01*
X120521943Y-73662210D01*
X120525295Y-73665266D01*
X120525297Y-73665268D01*
X120557696Y-73694803D01*
X120559333Y-73696367D01*
X120573377Y-73710411D01*
X120576364Y-73712457D01*
X120581674Y-73716661D01*
X120605410Y-73738300D01*
X120620089Y-73743987D01*
X120630075Y-73749250D01*
X120643061Y-73758145D01*
X120674305Y-73765493D01*
X120680786Y-73767499D01*
X120710728Y-73779100D01*
X120726469Y-73779100D01*
X120737687Y-73780401D01*
X120753006Y-73784005D01*
X120784799Y-73779570D01*
X120791570Y-73779100D01*
X121240872Y-73779100D01*
X121267200Y-73786774D01*
X121285281Y-73807392D01*
X121287164Y-73811432D01*
X121287166Y-73811435D01*
X121288976Y-73815316D01*
X121373884Y-73900224D01*
X121482713Y-73950972D01*
X121532299Y-73957500D01*
X121952100Y-73957499D01*
X122001687Y-73950972D01*
X122110516Y-73900224D01*
X122188852Y-73821887D01*
X122223500Y-73807536D01*
X122258148Y-73821888D01*
X122261804Y-73825544D01*
X122276156Y-73860192D01*
X122261804Y-73894840D01*
X122215261Y-73941384D01*
X122134731Y-74021915D01*
X122093298Y-74063348D01*
X122077402Y-74073970D01*
X122058650Y-74077700D01*
X121896852Y-74077700D01*
X121894493Y-74078169D01*
X121894485Y-74078170D01*
X121843105Y-74088390D01*
X121843100Y-74088391D01*
X121838369Y-74089333D01*
X121834357Y-74092013D01*
X121834354Y-74092015D01*
X121776059Y-74130967D01*
X121776056Y-74130969D01*
X121772048Y-74133648D01*
X121769369Y-74137656D01*
X121769367Y-74137659D01*
X121730415Y-74195954D01*
X121730413Y-74195957D01*
X121727733Y-74199969D01*
X121726791Y-74204700D01*
X121726790Y-74204705D01*
X121716570Y-74256085D01*
X121716569Y-74256093D01*
X121716100Y-74258452D01*
X121716100Y-74647948D01*
X121716569Y-74650307D01*
X121716570Y-74650314D01*
X121726790Y-74701694D01*
X121726791Y-74701697D01*
X121727733Y-74706431D01*
X121730414Y-74710444D01*
X121730415Y-74710445D01*
X121762253Y-74758094D01*
X121772048Y-74772752D01*
X121838369Y-74817067D01*
X121896852Y-74828700D01*
X122433938Y-74828700D01*
X122436348Y-74828700D01*
X122494831Y-74817067D01*
X122561152Y-74772752D01*
X122605467Y-74706431D01*
X122617100Y-74647948D01*
X122617100Y-74486150D01*
X122631452Y-74451502D01*
X122771174Y-74311780D01*
X122927362Y-74155591D01*
X122930504Y-74152713D01*
X122948445Y-74137659D01*
X122962150Y-74126160D01*
X122982803Y-74090385D01*
X122985089Y-74086795D01*
X123008795Y-74052943D01*
X123010912Y-74045038D01*
X123015808Y-74033220D01*
X123019897Y-74026139D01*
X123027069Y-73985457D01*
X123027995Y-73981283D01*
X123033786Y-73959675D01*
X123038687Y-73941384D01*
X123039606Y-73941630D01*
X123046055Y-73923901D01*
X123065490Y-73907591D01*
X123075716Y-73902824D01*
X123160624Y-73817916D01*
X123211372Y-73709087D01*
X123217900Y-73659501D01*
X123217899Y-73510112D01*
X123221629Y-73491362D01*
X123232248Y-73475468D01*
X123809926Y-72897791D01*
X123813068Y-72894913D01*
X123817541Y-72891160D01*
X123844714Y-72868360D01*
X123865370Y-72832580D01*
X123867660Y-72828984D01*
X123891358Y-72795143D01*
X123893473Y-72787245D01*
X123898369Y-72775425D01*
X123902461Y-72768339D01*
X123909635Y-72727646D01*
X123910561Y-72723472D01*
X123921250Y-72683584D01*
X123917649Y-72642435D01*
X123917464Y-72638165D01*
X123917464Y-72096042D01*
X123917651Y-72091771D01*
X123918569Y-72081272D01*
X123939964Y-73129600D01*
X123939964Y-73279600D01*
X123489964Y-73304600D01*
X123539964Y-75029600D01*
X125664964Y-75054600D01*
X125664964Y-73879600D01*
X126414964Y-73879600D01*
X126414964Y-73204600D01*
X125039964Y-72304600D01*
X124264964Y-71929600D01*
X123914964Y-71904600D01*
X123917671Y-72037258D01*
X123910557Y-72010711D01*
X123909633Y-72006541D01*
X123904255Y-71976038D01*
X123902461Y-71965861D01*
X123898371Y-71958777D01*
X123893477Y-71946961D01*
X123892468Y-71943195D01*
X123892467Y-71943193D01*
X123891359Y-71939057D01*
X123888900Y-71935545D01*
X123888899Y-71935543D01*
X123867663Y-71905215D01*
X123865366Y-71901610D01*
X123846859Y-71869555D01*
X123846858Y-71869554D01*
X123844714Y-71865840D01*
X123841430Y-71863084D01*
X123841429Y-71863083D01*
X123813067Y-71839285D01*
X123809916Y-71836397D01*
X123675367Y-71701848D01*
X123661279Y-71672284D01*
X123668961Y-71640449D01*
X123694981Y-71620563D01*
X123727716Y-71621509D01*
X124181642Y-71797361D01*
X124184421Y-71798537D01*
X124762043Y-72064285D01*
X124764745Y-72065630D01*
X125324924Y-72366439D01*
X125327537Y-72367948D01*
X125868120Y-72702663D01*
X125870636Y-72704330D01*
X125978960Y-72781011D01*
X126389609Y-73071703D01*
X126392001Y-73073510D01*
X126884104Y-73469505D01*
X126887364Y-73472128D01*
X126889652Y-73474089D01*
X126927156Y-73508278D01*
X127359522Y-73902432D01*
X127361689Y-73904532D01*
X127756584Y-74311780D01*
X127770162Y-74341004D01*
X127762654Y-74372342D01*
X127737307Y-74392239D01*
X127705083Y-74392092D01*
X127674998Y-74381462D01*
X127674980Y-74381456D01*
X127673693Y-74381002D01*
X127672365Y-74380696D01*
X127672351Y-74380692D01*
X127665354Y-74379081D01*
X127663017Y-74378543D01*
X127661654Y-74378388D01*
X127661642Y-74378386D01*
X127618271Y-74373456D01*
X127618257Y-74373455D01*
X127616892Y-74373300D01*
X126230764Y-74373300D01*
X126228404Y-74373769D01*
X126228398Y-74373770D01*
X126154479Y-74388474D01*
X126154468Y-74388477D01*
X126152117Y-74388945D01*
X126149899Y-74389863D01*
X126149895Y-74389865D01*
X126137087Y-74395170D01*
X126137077Y-74395175D01*
X126134864Y-74396092D01*
X126132864Y-74397427D01*
X126132859Y-74397431D01*
X126072212Y-74437956D01*
X126072209Y-74437958D01*
X126068201Y-74440637D01*
X126065522Y-74444645D01*
X126065520Y-74444648D01*
X126024995Y-74505295D01*
X126024991Y-74505300D01*
X126023656Y-74507300D01*
X126022739Y-74509513D01*
X126022734Y-74509523D01*
X126017429Y-74522331D01*
X126016509Y-74524553D01*
X126016041Y-74526904D01*
X126016038Y-74526915D01*
X126001334Y-74600834D01*
X126001333Y-74600840D01*
X126000864Y-74603200D01*
X126000864Y-74605610D01*
X126000864Y-78591500D01*
X125986512Y-78626148D01*
X125951864Y-78640500D01*
X125290964Y-78640500D01*
X125288604Y-78640969D01*
X125288598Y-78640970D01*
X125214679Y-78655674D01*
X125214668Y-78655677D01*
X125212317Y-78656145D01*
X125210099Y-78657063D01*
X125210095Y-78657065D01*
X125197287Y-78662370D01*
X125197277Y-78662375D01*
X125195064Y-78663292D01*
X125193064Y-78664627D01*
X125193059Y-78664631D01*
X125132412Y-78705156D01*
X125132409Y-78705158D01*
X125128401Y-78707837D01*
X125125722Y-78711845D01*
X125125720Y-78711848D01*
X125085195Y-78772495D01*
X125085191Y-78772500D01*
X125083856Y-78774500D01*
X125082939Y-78776713D01*
X125082934Y-78776723D01*
X125077750Y-78789239D01*
X125076709Y-78791753D01*
X125076241Y-78794104D01*
X125076238Y-78794115D01*
X125061534Y-78868034D01*
X125061533Y-78868040D01*
X125061064Y-78870400D01*
X125061064Y-78872810D01*
X125061064Y-79392500D01*
X125046712Y-79427148D01*
X125012064Y-79441500D01*
X124868069Y-79441500D01*
X124797699Y-79441500D01*
X124773200Y-79434936D01*
X124755265Y-79417001D01*
X124748700Y-79392501D01*
X124748700Y-79110715D01*
X124763050Y-79076068D01*
X124769629Y-79069488D01*
X124789925Y-79049191D01*
X124793068Y-79046313D01*
X124801836Y-79038956D01*
X124824714Y-79019760D01*
X124845372Y-78983977D01*
X124847668Y-78980374D01*
X124854088Y-78971206D01*
X124871358Y-78946543D01*
X124873473Y-78938645D01*
X124878369Y-78926825D01*
X124882461Y-78919739D01*
X124889635Y-78879049D01*
X124890560Y-78874879D01*
X124901251Y-78834984D01*
X124900877Y-78830716D01*
X124900878Y-78830711D01*
X124897651Y-78793829D01*
X124897464Y-78789558D01*
X124897464Y-78788936D01*
X124911816Y-78754288D01*
X124950684Y-78715420D01*
X124993188Y-78672916D01*
X125043936Y-78564087D01*
X125050464Y-78514501D01*
X125050463Y-78094700D01*
X125043936Y-78045113D01*
X125039363Y-78035307D01*
X125039225Y-78035010D01*
X125035954Y-78003001D01*
X125053241Y-77975864D01*
X125083633Y-77965300D01*
X125671702Y-77965300D01*
X125674112Y-77965300D01*
X125732595Y-77953667D01*
X125798916Y-77909352D01*
X125843231Y-77843031D01*
X125854864Y-77784548D01*
X125854864Y-76271852D01*
X125843231Y-76213369D01*
X125798916Y-76147048D01*
X125789616Y-76140834D01*
X125736609Y-76105415D01*
X125736608Y-76105414D01*
X125732595Y-76102733D01*
X125727861Y-76101791D01*
X125727858Y-76101790D01*
X125676478Y-76091570D01*
X125676471Y-76091569D01*
X125674112Y-76091100D01*
X123450216Y-76091100D01*
X123447857Y-76091569D01*
X123447849Y-76091570D01*
X123396469Y-76101790D01*
X123396464Y-76101791D01*
X123391733Y-76102733D01*
X123387721Y-76105413D01*
X123387718Y-76105415D01*
X123329423Y-76144367D01*
X123329420Y-76144369D01*
X123325412Y-76147048D01*
X123322733Y-76151056D01*
X123322731Y-76151059D01*
X123283779Y-76209354D01*
X123283777Y-76209357D01*
X123281097Y-76213369D01*
X123280155Y-76218100D01*
X123280154Y-76218105D01*
X123269934Y-76269485D01*
X123269933Y-76269493D01*
X123269464Y-76271852D01*
X123269464Y-77784548D01*
X123269933Y-77786907D01*
X123269934Y-77786914D01*
X123280154Y-77838294D01*
X123280155Y-77838297D01*
X123281097Y-77843031D01*
X123325412Y-77909352D01*
X123391733Y-77953667D01*
X123450216Y-77965300D01*
X124056295Y-77965300D01*
X124086687Y-77975864D01*
X124103974Y-78003001D01*
X124100703Y-78035010D01*
X124097575Y-78041715D01*
X124097572Y-78041723D01*
X124095992Y-78045113D01*
X124095503Y-78048824D01*
X124095503Y-78048826D01*
X124089672Y-78093114D01*
X124089671Y-78093124D01*
X124089464Y-78094699D01*
X124089464Y-78096298D01*
X124089464Y-78096299D01*
X124089464Y-78512898D01*
X124089464Y-78512913D01*
X124089465Y-78514500D01*
X124089672Y-78516073D01*
X124089673Y-78516087D01*
X124095503Y-78560371D01*
X124095992Y-78564087D01*
X124097574Y-78567479D01*
X124097575Y-78567483D01*
X124144174Y-78667414D01*
X124146740Y-78672916D01*
X124149770Y-78675946D01*
X124157570Y-78683746D01*
X124171503Y-78711998D01*
X124165357Y-78742894D01*
X124145792Y-78776781D01*
X124143496Y-78780385D01*
X124122264Y-78810708D01*
X124122260Y-78810715D01*
X124119806Y-78814221D01*
X124118698Y-78818353D01*
X124118694Y-78818363D01*
X124117685Y-78822130D01*
X124112797Y-78833932D01*
X124110846Y-78837311D01*
X124110844Y-78837315D01*
X124108703Y-78841025D01*
X124107959Y-78845242D01*
X124107958Y-78845246D01*
X124101529Y-78881704D01*
X124100605Y-78885875D01*
X124089913Y-78925780D01*
X124090286Y-78930046D01*
X124090286Y-78930051D01*
X124093513Y-78966935D01*
X124093700Y-78971206D01*
X124093700Y-79137806D01*
X124079348Y-79172454D01*
X124044700Y-79186806D01*
X124010052Y-79172454D01*
X123613329Y-78775731D01*
X123608875Y-78770613D01*
X123607244Y-78768453D01*
X123605221Y-78764390D01*
X123601866Y-78761331D01*
X123601865Y-78761330D01*
X123569478Y-78731806D01*
X123567841Y-78730243D01*
X123555388Y-78717790D01*
X123555387Y-78717789D01*
X123553787Y-78716189D01*
X123551926Y-78714914D01*
X123551915Y-78714905D01*
X123550797Y-78714140D01*
X123545478Y-78709928D01*
X123521754Y-78688300D01*
X123507071Y-78682612D01*
X123497084Y-78677347D01*
X123487848Y-78671020D01*
X123487847Y-78671019D01*
X123484102Y-78668454D01*
X123479683Y-78667414D01*
X123479682Y-78667414D01*
X123452849Y-78661102D01*
X123446371Y-78659096D01*
X123437537Y-78655674D01*
X123416436Y-78647500D01*
X123411892Y-78647500D01*
X123400695Y-78647500D01*
X123389476Y-78646198D01*
X123378581Y-78643635D01*
X123378579Y-78643634D01*
X123374158Y-78642595D01*
X123369661Y-78643222D01*
X123369658Y-78643222D01*
X123342364Y-78647030D01*
X123335594Y-78647500D01*
X123163131Y-78647500D01*
X123128483Y-78633148D01*
X123065938Y-78570603D01*
X123062729Y-78567394D01*
X123035499Y-78555371D01*
X122963327Y-78523503D01*
X122963321Y-78523501D01*
X122959955Y-78522015D01*
X122956295Y-78521590D01*
X122956294Y-78521590D01*
X122936236Y-78519263D01*
X122936232Y-78519262D01*
X122934829Y-78519100D01*
X122933408Y-78519100D01*
X122646505Y-78519100D01*
X122646487Y-78519100D01*
X122645100Y-78519101D01*
X122643717Y-78519261D01*
X122643706Y-78519262D01*
X122623631Y-78521590D01*
X122623626Y-78521591D01*
X122619973Y-78522015D01*
X122616608Y-78523500D01*
X122616603Y-78523502D01*
X122521350Y-78565561D01*
X122517199Y-78567394D01*
X122513992Y-78570600D01*
X122513989Y-78570603D01*
X122440967Y-78643625D01*
X122440964Y-78643628D01*
X122437758Y-78646835D01*
X122435925Y-78650985D01*
X122435925Y-78650986D01*
X122393867Y-78746236D01*
X122393864Y-78746243D01*
X122392379Y-78749609D01*
X122391954Y-78753266D01*
X122391954Y-78753269D01*
X122390664Y-78764390D01*
X122389464Y-78774735D01*
X122389464Y-78776154D01*
X122389464Y-78776155D01*
X122389464Y-79123058D01*
X122389464Y-79123075D01*
X122389465Y-79124464D01*
X122389625Y-79125847D01*
X122389626Y-79125857D01*
X122391954Y-79145932D01*
X122391955Y-79145936D01*
X122392379Y-79149591D01*
X122393865Y-79152956D01*
X122393866Y-79152960D01*
X122402474Y-79172454D01*
X122437758Y-79252365D01*
X122517199Y-79331806D01*
X122584167Y-79361375D01*
X122616600Y-79375696D01*
X122616601Y-79375696D01*
X122619973Y-79377185D01*
X122645099Y-79380100D01*
X122934828Y-79380099D01*
X122959955Y-79377185D01*
X123062729Y-79331806D01*
X123128482Y-79266052D01*
X123163131Y-79251700D01*
X123214534Y-79251700D01*
X123249182Y-79266052D01*
X123340982Y-79357852D01*
X123355334Y-79392499D01*
X123340983Y-79427148D01*
X123306336Y-79441500D01*
X123276157Y-79441500D01*
X123276147Y-79441500D01*
X123273754Y-79441501D01*
X123271402Y-79441968D01*
X123271399Y-79441969D01*
X123217640Y-79452661D01*
X123217636Y-79452662D01*
X123212908Y-79453603D01*
X123208896Y-79456283D01*
X123208895Y-79456284D01*
X123147919Y-79497027D01*
X123147916Y-79497029D01*
X123143908Y-79499708D01*
X123141229Y-79503716D01*
X123141227Y-79503719D01*
X123100483Y-79564696D01*
X123100481Y-79564699D01*
X123097803Y-79568708D01*
X123096862Y-79573436D01*
X123096861Y-79573440D01*
X123086170Y-79627187D01*
X123086169Y-79627193D01*
X123085700Y-79629553D01*
X123085700Y-79631961D01*
X123085700Y-79631962D01*
X123085700Y-80462043D01*
X123085700Y-80462053D01*
X123085701Y-80464446D01*
X123086168Y-80466798D01*
X123086169Y-80466800D01*
X123096861Y-80520559D01*
X123096862Y-80520561D01*
X123097803Y-80525292D01*
X123100484Y-80529304D01*
X123138183Y-80585725D01*
X123143908Y-80594292D01*
X123212908Y-80640397D01*
X123273753Y-80652500D01*
X123568646Y-80652499D01*
X123629492Y-80640397D01*
X123643977Y-80630717D01*
X123671197Y-80622460D01*
X123698421Y-80630718D01*
X123708893Y-80637715D01*
X123708896Y-80637716D01*
X123712908Y-80640397D01*
X123773753Y-80652500D01*
X124068646Y-80652499D01*
X124129492Y-80640397D01*
X124143977Y-80630717D01*
X124171197Y-80622460D01*
X124198421Y-80630718D01*
X124208893Y-80637715D01*
X124208896Y-80637716D01*
X124212908Y-80640397D01*
X124273753Y-80652500D01*
X124568646Y-80652499D01*
X124629492Y-80640397D01*
X124643977Y-80630717D01*
X124671197Y-80622460D01*
X124698421Y-80630718D01*
X124708893Y-80637715D01*
X124708896Y-80637716D01*
X124712908Y-80640397D01*
X124773753Y-80652500D01*
X125068646Y-80652499D01*
X125129492Y-80640397D01*
X125143977Y-80630717D01*
X125171198Y-80622459D01*
X125198421Y-80630717D01*
X125198424Y-80630719D01*
X125208895Y-80637716D01*
X125208896Y-80637716D01*
X125212908Y-80640397D01*
X125273753Y-80652500D01*
X125568646Y-80652499D01*
X125629492Y-80640397D01*
X125643977Y-80630717D01*
X125671197Y-80622460D01*
X125698421Y-80630718D01*
X125708893Y-80637715D01*
X125708896Y-80637716D01*
X125712908Y-80640397D01*
X125773753Y-80652500D01*
X125966700Y-80652499D01*
X125991200Y-80659064D01*
X126009135Y-80676999D01*
X126015700Y-80701499D01*
X126015700Y-80877406D01*
X126016169Y-80879766D01*
X126016170Y-80879771D01*
X126027958Y-80939033D01*
X126027959Y-80939035D01*
X126028900Y-80943766D01*
X126031579Y-80947776D01*
X126031580Y-80947777D01*
X126046280Y-80969778D01*
X126054537Y-80997000D01*
X126046280Y-81024222D01*
X126031580Y-81046222D01*
X126031578Y-81046224D01*
X126028900Y-81050234D01*
X126027959Y-81054962D01*
X126027958Y-81054966D01*
X126016170Y-81114228D01*
X126016169Y-81114234D01*
X126015700Y-81116594D01*
X126015700Y-81377406D01*
X126016169Y-81379766D01*
X126016170Y-81379771D01*
X126027958Y-81439033D01*
X126027959Y-81439035D01*
X126028900Y-81443766D01*
X126031579Y-81447776D01*
X126031580Y-81447777D01*
X126046280Y-81469778D01*
X126054537Y-81497000D01*
X126046280Y-81524222D01*
X126031580Y-81546222D01*
X126031578Y-81546224D01*
X126028900Y-81550234D01*
X126027959Y-81554962D01*
X126027958Y-81554966D01*
X126016170Y-81614228D01*
X126016169Y-81614234D01*
X126015700Y-81616594D01*
X126015700Y-81877406D01*
X126016169Y-81879766D01*
X126016170Y-81879771D01*
X126027958Y-81939033D01*
X126027959Y-81939035D01*
X126028900Y-81943766D01*
X126031579Y-81947776D01*
X126031580Y-81947777D01*
X126046280Y-81969778D01*
X126054537Y-81997000D01*
X126046280Y-82024222D01*
X126031580Y-82046222D01*
X126031578Y-82046224D01*
X126028900Y-82050234D01*
X126027959Y-82054962D01*
X126027958Y-82054966D01*
X126016170Y-82114228D01*
X126016169Y-82114234D01*
X126015700Y-82116594D01*
X126015700Y-82377406D01*
X126016169Y-82379766D01*
X126016170Y-82379771D01*
X126027958Y-82439033D01*
X126027959Y-82439035D01*
X126028900Y-82443766D01*
X126031579Y-82447776D01*
X126031580Y-82447777D01*
X126061031Y-82491854D01*
X126079182Y-82519018D01*
X126154434Y-82569300D01*
X126220794Y-82582500D01*
X126480045Y-82582500D01*
X126495954Y-82585154D01*
X126561043Y-82607500D01*
X127417592Y-82607500D01*
X127427647Y-82608543D01*
X127444960Y-82612173D01*
X127479432Y-82607876D01*
X127485494Y-82607500D01*
X127487913Y-82607500D01*
X127489937Y-82607500D01*
X127511042Y-82603977D01*
X127513026Y-82603687D01*
X127564350Y-82597291D01*
X127567999Y-82595506D01*
X127571379Y-82594500D01*
X127574726Y-82593351D01*
X127578737Y-82592682D01*
X127624264Y-82568043D01*
X127625948Y-82567176D01*
X127672439Y-82544449D01*
X127675314Y-82541572D01*
X127678216Y-82539501D01*
X127680977Y-82537351D01*
X127684550Y-82535419D01*
X127719591Y-82497351D01*
X127720927Y-82495959D01*
X127725820Y-82491066D01*
X127760467Y-82476719D01*
X127795113Y-82491072D01*
X127809464Y-82525719D01*
X127809464Y-83275100D01*
X127795112Y-83309748D01*
X127760464Y-83324100D01*
X127275700Y-83324100D01*
X127241052Y-83309748D01*
X127226700Y-83275100D01*
X127226700Y-83119004D01*
X127226700Y-83116594D01*
X127213500Y-83050234D01*
X127163218Y-82974982D01*
X127151785Y-82967343D01*
X127091977Y-82927380D01*
X127091976Y-82927379D01*
X127087966Y-82924700D01*
X127083235Y-82923759D01*
X127083233Y-82923758D01*
X127023971Y-82911970D01*
X127023966Y-82911969D01*
X127021606Y-82911500D01*
X126220794Y-82911500D01*
X126218434Y-82911969D01*
X126218428Y-82911970D01*
X126159166Y-82923758D01*
X126159162Y-82923759D01*
X126154434Y-82924700D01*
X126150424Y-82927378D01*
X126150422Y-82927380D01*
X126083193Y-82972301D01*
X126083190Y-82972303D01*
X126079182Y-82974982D01*
X126076503Y-82978990D01*
X126076501Y-82978993D01*
X126031580Y-83046222D01*
X126031578Y-83046224D01*
X126028900Y-83050234D01*
X126027959Y-83054962D01*
X126027958Y-83054966D01*
X126016170Y-83114228D01*
X126016169Y-83114234D01*
X126015700Y-83116594D01*
X126015700Y-83119004D01*
X126015700Y-83292500D01*
X126001348Y-83327148D01*
X125966700Y-83341500D01*
X125776156Y-83341500D01*
X125776145Y-83341500D01*
X125773754Y-83341501D01*
X125771402Y-83341968D01*
X125771399Y-83341969D01*
X125717640Y-83352661D01*
X125717636Y-83352662D01*
X125712908Y-83353603D01*
X125708900Y-83356280D01*
X125708895Y-83356283D01*
X125698422Y-83363282D01*
X125671200Y-83371539D01*
X125643978Y-83363282D01*
X125633503Y-83356283D01*
X125633502Y-83356282D01*
X125629492Y-83353603D01*
X125624761Y-83352662D01*
X125624759Y-83352661D01*
X125571012Y-83341970D01*
X125571007Y-83341969D01*
X125568647Y-83341500D01*
X125566237Y-83341500D01*
X125276156Y-83341500D01*
X125276145Y-83341500D01*
X125273754Y-83341501D01*
X125271402Y-83341968D01*
X125271399Y-83341969D01*
X125217640Y-83352661D01*
X125217636Y-83352662D01*
X125212908Y-83353603D01*
X125208900Y-83356280D01*
X125208895Y-83356283D01*
X125198422Y-83363282D01*
X125171200Y-83371539D01*
X125143978Y-83363282D01*
X125133503Y-83356283D01*
X125133502Y-83356282D01*
X125129492Y-83353603D01*
X125124761Y-83352662D01*
X125124759Y-83352661D01*
X125071012Y-83341970D01*
X125071007Y-83341969D01*
X125068647Y-83341500D01*
X125066237Y-83341500D01*
X124776156Y-83341500D01*
X124776145Y-83341500D01*
X124773754Y-83341501D01*
X124771402Y-83341968D01*
X124771399Y-83341969D01*
X124717640Y-83352661D01*
X124717636Y-83352662D01*
X124712908Y-83353603D01*
X124708900Y-83356280D01*
X124708895Y-83356283D01*
X124698422Y-83363282D01*
X124671200Y-83371539D01*
X124643978Y-83363282D01*
X124633503Y-83356283D01*
X124633502Y-83356282D01*
X124629492Y-83353603D01*
X124624761Y-83352662D01*
X124624759Y-83352661D01*
X124571012Y-83341970D01*
X124571007Y-83341969D01*
X124568647Y-83341500D01*
X124566237Y-83341500D01*
X124276156Y-83341500D01*
X124276145Y-83341500D01*
X124273754Y-83341501D01*
X124271402Y-83341968D01*
X124271399Y-83341969D01*
X124217640Y-83352661D01*
X124217636Y-83352662D01*
X124212908Y-83353603D01*
X124208900Y-83356280D01*
X124208895Y-83356283D01*
X124198422Y-83363282D01*
X124171200Y-83371539D01*
X124143978Y-83363282D01*
X124133503Y-83356283D01*
X124133502Y-83356282D01*
X124129492Y-83353603D01*
X124124761Y-83352662D01*
X124124759Y-83352661D01*
X124071012Y-83341970D01*
X124071007Y-83341969D01*
X124068647Y-83341500D01*
X124066237Y-83341500D01*
X123776156Y-83341500D01*
X123776145Y-83341500D01*
X123773754Y-83341501D01*
X123771402Y-83341968D01*
X123771399Y-83341969D01*
X123717640Y-83352661D01*
X123717636Y-83352662D01*
X123712908Y-83353603D01*
X123708896Y-83356283D01*
X123708895Y-83356284D01*
X123647919Y-83397027D01*
X123647916Y-83397029D01*
X123643908Y-83399708D01*
X123641229Y-83403716D01*
X123641227Y-83403719D01*
X123600483Y-83464696D01*
X123600481Y-83464699D01*
X123597803Y-83468708D01*
X123596862Y-83473436D01*
X123596861Y-83473440D01*
X123586170Y-83527187D01*
X123586169Y-83527193D01*
X123585700Y-83529553D01*
X123585700Y-83531961D01*
X123585700Y-83531962D01*
X123585700Y-84362042D01*
X123585700Y-84362052D01*
X123585701Y-84364446D01*
X123586168Y-84366796D01*
X123586169Y-84366802D01*
X123593985Y-84406098D01*
X123594182Y-84424164D01*
X123584443Y-84479400D01*
X123604376Y-84592445D01*
X123661770Y-84691855D01*
X123749703Y-84765640D01*
X123857570Y-84804900D01*
X123968069Y-84804900D01*
X123972358Y-84804900D01*
X124080225Y-84765640D01*
X124168158Y-84691855D01*
X124225552Y-84592445D01*
X124226297Y-84588219D01*
X124227569Y-84584726D01*
X124247558Y-84559988D01*
X124273753Y-84553851D01*
X124273753Y-84552500D01*
X124568646Y-84552499D01*
X124629492Y-84540397D01*
X124643975Y-84530719D01*
X124671200Y-84522460D01*
X124698424Y-84530719D01*
X124708895Y-84537716D01*
X124708896Y-84537716D01*
X124712908Y-84540397D01*
X124773753Y-84552500D01*
X125068646Y-84552499D01*
X125129492Y-84540397D01*
X125143975Y-84530719D01*
X125171200Y-84522460D01*
X125198424Y-84530719D01*
X125208895Y-84537716D01*
X125208896Y-84537716D01*
X125212908Y-84540397D01*
X125273753Y-84552500D01*
X125462598Y-84552499D01*
X125487398Y-84559238D01*
X125505376Y-84577603D01*
X125511587Y-84602540D01*
X125510602Y-84648884D01*
X125510551Y-84651286D01*
X125510967Y-84653640D01*
X125510968Y-84653650D01*
X125522758Y-84720341D01*
X125524501Y-84730199D01*
X125538097Y-84765128D01*
X125581166Y-84832703D01*
X125646805Y-84878669D01*
X125681109Y-84893770D01*
X125759339Y-84911136D01*
X126582603Y-84929430D01*
X126616813Y-84944434D01*
X126630507Y-84979190D01*
X126585298Y-87849970D01*
X126585298Y-87849978D01*
X126585273Y-87851592D01*
X126585460Y-87853196D01*
X126585461Y-87853202D01*
X126591381Y-87903798D01*
X126591382Y-87903808D01*
X126591570Y-87905407D01*
X126597874Y-87930232D01*
X126618015Y-87980530D01*
X126650603Y-88023816D01*
X126668571Y-88042069D01*
X126711337Y-88075332D01*
X126761311Y-88096263D01*
X126786033Y-88102957D01*
X126839742Y-88110100D01*
X126975042Y-88110100D01*
X127001533Y-88117879D01*
X127019614Y-88138744D01*
X127023543Y-88166073D01*
X127008978Y-88267379D01*
X127008479Y-88270850D01*
X127027324Y-88401922D01*
X127082333Y-88522375D01*
X127084626Y-88525022D01*
X127084628Y-88525024D01*
X127166754Y-88619802D01*
X127166756Y-88619804D01*
X127169050Y-88622451D01*
X127280448Y-88694043D01*
X127283810Y-88695030D01*
X127283812Y-88695031D01*
X127307724Y-88702052D01*
X127342368Y-88712224D01*
X127369002Y-88731567D01*
X127377387Y-88763397D01*
X127363740Y-88793351D01*
X127361687Y-88795468D01*
X127359522Y-88797567D01*
X126889656Y-89225907D01*
X126887364Y-89227871D01*
X126496424Y-89542459D01*
X126464516Y-89553270D01*
X126433170Y-89540924D01*
X126417204Y-89511258D01*
X126398754Y-89382928D01*
X126343745Y-89262475D01*
X126341449Y-89259825D01*
X126259323Y-89165047D01*
X126259321Y-89165045D01*
X126257028Y-89162399D01*
X126224402Y-89141431D01*
X126148578Y-89092701D01*
X126148574Y-89092699D01*
X126145630Y-89090807D01*
X126142270Y-89089820D01*
X126142267Y-89089819D01*
X126021936Y-89054487D01*
X126021934Y-89054486D01*
X126018574Y-89053500D01*
X125886154Y-89053500D01*
X125882794Y-89054486D01*
X125882791Y-89054487D01*
X125762460Y-89089819D01*
X125762454Y-89089821D01*
X125759098Y-89090807D01*
X125756155Y-89092697D01*
X125756149Y-89092701D01*
X125650648Y-89160504D01*
X125650646Y-89160505D01*
X125647700Y-89162399D01*
X125645409Y-89165041D01*
X125645404Y-89165047D01*
X125563278Y-89259825D01*
X125563274Y-89259830D01*
X125560983Y-89262475D01*
X125505974Y-89382928D01*
X125505475Y-89386393D01*
X125505475Y-89386396D01*
X125487628Y-89510529D01*
X125487129Y-89514000D01*
X125505974Y-89645072D01*
X125560983Y-89765525D01*
X125563276Y-89768172D01*
X125563278Y-89768174D01*
X125645404Y-89862952D01*
X125645406Y-89862954D01*
X125647700Y-89865601D01*
X125759098Y-89937193D01*
X125793659Y-89947341D01*
X125822426Y-89970094D01*
X125827340Y-90006441D01*
X125805649Y-90036017D01*
X125327537Y-90332051D01*
X125324924Y-90333560D01*
X124764745Y-90634369D01*
X124762043Y-90635714D01*
X124569911Y-90724108D01*
X124537633Y-90727151D01*
X124510520Y-90709374D01*
X124500442Y-90678559D01*
X124501360Y-90635081D01*
X124594942Y-86199300D01*
X124839429Y-86199300D01*
X124839928Y-86202771D01*
X124847936Y-86258472D01*
X124858274Y-86330372D01*
X124913283Y-86450825D01*
X124915576Y-86453472D01*
X124915578Y-86453474D01*
X124997704Y-86548252D01*
X124997706Y-86548254D01*
X125000000Y-86550901D01*
X125111398Y-86622493D01*
X125238454Y-86659800D01*
X125367370Y-86659800D01*
X125370874Y-86659800D01*
X125497930Y-86622493D01*
X125609328Y-86550901D01*
X125696045Y-86450825D01*
X125751054Y-86330372D01*
X125769899Y-86199300D01*
X125751054Y-86068228D01*
X125696045Y-85947775D01*
X125609328Y-85847699D01*
X125576702Y-85826731D01*
X125500878Y-85778001D01*
X125500874Y-85777999D01*
X125497930Y-85776107D01*
X125494570Y-85775120D01*
X125494567Y-85775119D01*
X125374236Y-85739787D01*
X125374234Y-85739786D01*
X125370874Y-85738800D01*
X125238454Y-85738800D01*
X125235094Y-85739786D01*
X125235091Y-85739787D01*
X125114760Y-85775119D01*
X125114754Y-85775121D01*
X125111398Y-85776107D01*
X125108455Y-85777997D01*
X125108449Y-85778001D01*
X125002948Y-85845804D01*
X125002946Y-85845805D01*
X125000000Y-85847699D01*
X124997709Y-85850341D01*
X124997704Y-85850347D01*
X124915578Y-85945125D01*
X124915574Y-85945130D01*
X124913283Y-85947775D01*
X124858274Y-86068228D01*
X124839429Y-86199300D01*
X124594942Y-86199300D01*
X124612400Y-85371800D01*
X117801432Y-85371800D01*
X117786096Y-85366389D01*
X117783760Y-85371800D01*
X117779800Y-85371800D01*
X117779608Y-85381414D01*
X117779608Y-85381416D01*
X117660612Y-91355001D01*
X117651530Y-91382456D01*
X117628548Y-91400009D01*
X117599670Y-91401545D01*
X117302890Y-91326902D01*
X117299988Y-91326076D01*
X116694092Y-91133327D01*
X116691245Y-91132324D01*
X116098357Y-90902638D01*
X116095578Y-90901462D01*
X115517956Y-90635714D01*
X115515254Y-90634369D01*
X114955075Y-90333560D01*
X114952462Y-90332051D01*
X114411879Y-89997336D01*
X114409363Y-89995669D01*
X113890398Y-89628302D01*
X113887990Y-89626483D01*
X113783573Y-89542459D01*
X113392633Y-89227869D01*
X113390343Y-89225907D01*
X112920477Y-88797567D01*
X112918310Y-88795467D01*
X112475674Y-88338984D01*
X112473641Y-88336753D01*
X112326149Y-88164600D01*
X113139729Y-88164600D01*
X113140228Y-88168071D01*
X113144065Y-88194762D01*
X113158574Y-88295672D01*
X113213583Y-88416125D01*
X113215876Y-88418772D01*
X113215878Y-88418774D01*
X113298004Y-88513552D01*
X113298006Y-88513554D01*
X113300300Y-88516201D01*
X113411698Y-88587793D01*
X113538754Y-88625100D01*
X113667670Y-88625100D01*
X113671174Y-88625100D01*
X113798230Y-88587793D01*
X113909628Y-88516201D01*
X113996345Y-88416125D01*
X114051354Y-88295672D01*
X114070199Y-88164600D01*
X114068912Y-88155651D01*
X114070920Y-88133206D01*
X114082763Y-88114033D01*
X114348839Y-87847957D01*
X114353955Y-87843506D01*
X114356104Y-87841882D01*
X114360174Y-87839857D01*
X114392768Y-87804101D01*
X114394289Y-87802507D01*
X114408375Y-87788423D01*
X114410421Y-87785434D01*
X114414629Y-87780120D01*
X114436264Y-87756390D01*
X114441951Y-87741706D01*
X114447212Y-87731724D01*
X114456110Y-87718738D01*
X114457150Y-87714315D01*
X114458985Y-87710161D01*
X114459430Y-87710357D01*
X114468245Y-87693494D01*
X114488496Y-87680010D01*
X114491757Y-87678868D01*
X114502654Y-87675056D01*
X114645854Y-87585077D01*
X114765441Y-87465490D01*
X114855420Y-87322290D01*
X114911277Y-87162659D01*
X114930213Y-86994600D01*
X114911277Y-86826541D01*
X114855420Y-86666910D01*
X114810430Y-86595310D01*
X114766906Y-86526041D01*
X114766904Y-86526039D01*
X114765441Y-86523710D01*
X114645854Y-86404123D01*
X114643526Y-86402660D01*
X114643522Y-86402657D01*
X114504984Y-86315608D01*
X114504983Y-86315607D01*
X114502654Y-86314144D01*
X114485643Y-86308191D01*
X114345620Y-86259195D01*
X114345614Y-86259193D01*
X114343023Y-86258287D01*
X114340297Y-86257979D01*
X114340289Y-86257978D01*
X114177698Y-86239659D01*
X114174964Y-86239351D01*
X114172230Y-86239659D01*
X114009638Y-86257978D01*
X114009628Y-86257980D01*
X114006905Y-86258287D01*
X114004315Y-86259192D01*
X114004307Y-86259195D01*
X113849871Y-86313235D01*
X113849868Y-86313236D01*
X113847274Y-86314144D01*
X113844947Y-86315605D01*
X113844943Y-86315608D01*
X113706405Y-86402657D01*
X113706397Y-86402663D01*
X113704074Y-86404123D01*
X113702130Y-86406066D01*
X113702126Y-86406070D01*
X113586434Y-86521762D01*
X113586430Y-86521766D01*
X113584487Y-86523710D01*
X113583027Y-86526033D01*
X113583021Y-86526041D01*
X113495972Y-86664579D01*
X113495969Y-86664583D01*
X113494508Y-86666910D01*
X113493600Y-86669504D01*
X113493599Y-86669507D01*
X113439559Y-86823943D01*
X113439556Y-86823951D01*
X113438651Y-86826541D01*
X113438344Y-86829264D01*
X113438342Y-86829274D01*
X113425043Y-86947313D01*
X113419715Y-86994600D01*
X113420023Y-86997334D01*
X113438342Y-87159925D01*
X113438343Y-87159933D01*
X113438651Y-87162659D01*
X113439557Y-87165250D01*
X113439559Y-87165256D01*
X113488555Y-87305279D01*
X113494508Y-87322290D01*
X113495971Y-87324619D01*
X113495972Y-87324620D01*
X113583021Y-87463158D01*
X113583024Y-87463162D01*
X113584487Y-87465490D01*
X113586433Y-87467436D01*
X113586434Y-87467437D01*
X113696015Y-87577018D01*
X113710367Y-87611666D01*
X113696016Y-87646312D01*
X113652579Y-87689750D01*
X113636686Y-87700370D01*
X113617934Y-87704100D01*
X113538754Y-87704100D01*
X113535394Y-87705086D01*
X113535391Y-87705087D01*
X113415060Y-87740419D01*
X113415054Y-87740421D01*
X113411698Y-87741407D01*
X113408755Y-87743297D01*
X113408749Y-87743301D01*
X113303248Y-87811104D01*
X113303246Y-87811105D01*
X113300300Y-87812999D01*
X113298009Y-87815641D01*
X113298004Y-87815647D01*
X113215878Y-87910425D01*
X113215874Y-87910430D01*
X113213583Y-87913075D01*
X113212126Y-87916264D01*
X113212126Y-87916265D01*
X113163602Y-88022519D01*
X113158574Y-88033528D01*
X113158075Y-88036993D01*
X113158075Y-88036996D01*
X113146446Y-88117879D01*
X113139729Y-88164600D01*
X112326149Y-88164600D01*
X112059970Y-87853914D01*
X112058078Y-87851563D01*
X111674903Y-87344157D01*
X111673160Y-87341694D01*
X111321958Y-86811678D01*
X111320369Y-86809112D01*
X111239768Y-86669507D01*
X111002445Y-86258453D01*
X111001038Y-86255832D01*
X110717610Y-85686631D01*
X110716352Y-85683896D01*
X110468520Y-85098369D01*
X110467434Y-85095567D01*
X110429831Y-84988858D01*
X110382521Y-84854600D01*
X117124729Y-84854600D01*
X117125228Y-84858071D01*
X117132857Y-84911136D01*
X117143574Y-84985672D01*
X117198583Y-85106125D01*
X117200876Y-85108772D01*
X117200878Y-85108774D01*
X117283004Y-85203552D01*
X117283006Y-85203554D01*
X117285300Y-85206201D01*
X117313363Y-85224236D01*
X117386143Y-85271010D01*
X117396698Y-85277793D01*
X117523754Y-85315100D01*
X117652670Y-85315100D01*
X117656174Y-85315100D01*
X117730145Y-85293380D01*
X117762308Y-85296338D01*
X117780781Y-85278511D01*
X117783230Y-85277793D01*
X117894628Y-85206201D01*
X117981345Y-85106125D01*
X118036354Y-84985672D01*
X118055199Y-84854600D01*
X118036354Y-84723528D01*
X117981345Y-84603075D01*
X117975350Y-84596156D01*
X117896923Y-84505647D01*
X117896921Y-84505645D01*
X117894628Y-84502999D01*
X117851341Y-84475180D01*
X117786178Y-84433301D01*
X117786174Y-84433299D01*
X117783230Y-84431407D01*
X117779870Y-84430420D01*
X117779867Y-84430419D01*
X117659536Y-84395087D01*
X117659534Y-84395086D01*
X117656174Y-84394100D01*
X117523754Y-84394100D01*
X117520394Y-84395086D01*
X117520391Y-84395087D01*
X117400060Y-84430419D01*
X117400054Y-84430421D01*
X117396698Y-84431407D01*
X117393755Y-84433297D01*
X117393749Y-84433301D01*
X117288248Y-84501104D01*
X117288246Y-84501105D01*
X117285300Y-84502999D01*
X117283009Y-84505641D01*
X117283004Y-84505647D01*
X117200878Y-84600425D01*
X117200874Y-84600430D01*
X117198583Y-84603075D01*
X117197126Y-84606264D01*
X117197126Y-84606265D01*
X117158039Y-84691855D01*
X117143574Y-84723528D01*
X117143075Y-84726993D01*
X117143075Y-84726996D01*
X117125228Y-84851129D01*
X117124729Y-84854600D01*
X110382521Y-84854600D01*
X110315744Y-84665100D01*
X110301749Y-84625385D01*
X110301120Y-84594726D01*
X110318838Y-84569696D01*
X110347964Y-84560100D01*
X110573516Y-84560100D01*
X110574400Y-84560100D01*
X110603639Y-84558009D01*
X110610401Y-84557037D01*
X110639058Y-84550804D01*
X110721540Y-84526585D01*
X110735346Y-84524600D01*
X110794582Y-84524600D01*
X110808387Y-84526585D01*
X110890870Y-84550804D01*
X110919527Y-84557037D01*
X110926289Y-84558009D01*
X110955528Y-84560100D01*
X112593808Y-84560100D01*
X112595137Y-84560100D01*
X112639622Y-84555227D01*
X112649765Y-84552978D01*
X112692129Y-84538597D01*
X112755187Y-84509191D01*
X112775897Y-84504600D01*
X113154030Y-84504600D01*
X113174738Y-84509190D01*
X113237799Y-84538597D01*
X113280163Y-84552978D01*
X113290306Y-84555227D01*
X113334791Y-84560100D01*
X113612745Y-84560100D01*
X113614417Y-84560100D01*
X113669672Y-84552532D01*
X113682102Y-84549062D01*
X113733278Y-84526922D01*
X113776617Y-84491839D01*
X113785453Y-84482434D01*
X113817772Y-84436982D01*
X113836679Y-84384513D01*
X113839366Y-84371891D01*
X113843470Y-84316284D01*
X113811962Y-83812155D01*
X113817449Y-83786387D01*
X113835489Y-83767184D01*
X113860867Y-83760100D01*
X114424990Y-83760100D01*
X114426260Y-83760100D01*
X114468678Y-83755675D01*
X114478372Y-83753630D01*
X114518960Y-83740545D01*
X114518978Y-83740601D01*
X114536135Y-83737964D01*
X114536135Y-83737500D01*
X114825864Y-83737499D01*
X114825864Y-83737967D01*
X114843022Y-83740600D01*
X114843040Y-83740545D01*
X114883628Y-83753630D01*
X114893322Y-83755675D01*
X114935740Y-83760100D01*
X114963560Y-83760100D01*
X114965964Y-83760100D01*
X115044600Y-83744460D01*
X115061571Y-83737431D01*
X115128245Y-83692881D01*
X115172795Y-83626207D01*
X115179824Y-83609236D01*
X115179970Y-83608500D01*
X120554543Y-83608500D01*
X120574476Y-83721545D01*
X120598751Y-83763591D01*
X120626790Y-83812157D01*
X120631870Y-83820955D01*
X120703975Y-83881459D01*
X120707452Y-83884376D01*
X120724399Y-83914551D01*
X120717180Y-83948398D01*
X120715872Y-83950433D01*
X120713583Y-83953075D01*
X120712130Y-83956255D01*
X120712127Y-83956261D01*
X120660029Y-84070341D01*
X120658574Y-84073528D01*
X120639729Y-84204600D01*
X120658574Y-84335672D01*
X120713583Y-84456125D01*
X120715876Y-84458772D01*
X120715878Y-84458774D01*
X120798004Y-84553552D01*
X120798006Y-84553554D01*
X120800300Y-84556201D01*
X120911698Y-84627793D01*
X121038754Y-84665100D01*
X121167670Y-84665100D01*
X121171174Y-84665100D01*
X121298230Y-84627793D01*
X121409628Y-84556201D01*
X121451784Y-84507549D01*
X121474543Y-84492763D01*
X121495886Y-84492444D01*
X121496009Y-84491385D01*
X121521135Y-84494300D01*
X121810864Y-84494299D01*
X121835991Y-84491385D01*
X121938765Y-84446006D01*
X122018206Y-84366565D01*
X122063585Y-84263791D01*
X122066500Y-84238665D01*
X122066499Y-83888936D01*
X122063585Y-83863809D01*
X122043023Y-83817240D01*
X122019335Y-83763591D01*
X122015160Y-83743799D01*
X122019335Y-83724007D01*
X122020423Y-83721545D01*
X122063585Y-83623791D01*
X122066500Y-83598665D01*
X122066500Y-83597240D01*
X122066581Y-83595841D01*
X122067415Y-83595889D01*
X122080852Y-83563452D01*
X122115500Y-83549100D01*
X122209339Y-83549100D01*
X122236561Y-83557357D01*
X122254434Y-83569300D01*
X122320794Y-83582500D01*
X123119196Y-83582500D01*
X123121606Y-83582500D01*
X123187966Y-83569300D01*
X123263218Y-83519018D01*
X123313500Y-83443766D01*
X123326700Y-83377406D01*
X123326700Y-83116594D01*
X123313500Y-83050234D01*
X123296119Y-83024222D01*
X123287861Y-82997000D01*
X123296119Y-82969777D01*
X123313500Y-82943766D01*
X123326700Y-82877406D01*
X123326700Y-82616594D01*
X123313500Y-82550234D01*
X123263218Y-82474982D01*
X123257812Y-82471370D01*
X123191977Y-82427380D01*
X123191976Y-82427379D01*
X123187966Y-82424700D01*
X123183235Y-82423759D01*
X123183233Y-82423758D01*
X123123971Y-82411970D01*
X123123966Y-82411969D01*
X123121606Y-82411500D01*
X123119196Y-82411500D01*
X122627986Y-82411500D01*
X122611227Y-82408545D01*
X122610188Y-82408166D01*
X122610183Y-82408165D01*
X122606158Y-82406700D01*
X122491370Y-82406700D01*
X122487345Y-82408164D01*
X122487339Y-82408166D01*
X122486301Y-82408545D01*
X122469542Y-82411500D01*
X122320794Y-82411500D01*
X122318434Y-82411969D01*
X122318428Y-82411970D01*
X122259166Y-82423758D01*
X122259162Y-82423759D01*
X122254434Y-82424700D01*
X122250424Y-82427378D01*
X122250422Y-82427380D01*
X122183193Y-82472301D01*
X122183190Y-82472303D01*
X122179182Y-82474982D01*
X122176503Y-82478990D01*
X122176501Y-82478993D01*
X122131580Y-82546222D01*
X122131578Y-82546224D01*
X122128900Y-82550234D01*
X122127959Y-82554962D01*
X122127958Y-82554966D01*
X122116170Y-82614228D01*
X122116169Y-82614234D01*
X122115700Y-82616594D01*
X122115700Y-82877406D01*
X122117477Y-82886343D01*
X122114689Y-82914652D01*
X122096642Y-82936642D01*
X122069419Y-82944900D01*
X121899012Y-82944900D01*
X121892242Y-82944430D01*
X121889562Y-82944056D01*
X121885260Y-82942614D01*
X121880729Y-82942823D01*
X121880726Y-82942823D01*
X121836938Y-82944848D01*
X121834675Y-82944900D01*
X121814807Y-82944900D01*
X121812592Y-82945313D01*
X121812570Y-82945316D01*
X121811236Y-82945566D01*
X121804512Y-82946346D01*
X121776972Y-82947620D01*
X121776970Y-82947620D01*
X121772436Y-82947830D01*
X121768286Y-82949662D01*
X121768278Y-82949664D01*
X121758027Y-82954190D01*
X121747249Y-82957528D01*
X121739703Y-82958939D01*
X121731779Y-82960421D01*
X121727921Y-82962809D01*
X121727917Y-82962811D01*
X121704485Y-82977318D01*
X121698486Y-82980480D01*
X121678911Y-82989124D01*
X121659117Y-82993300D01*
X121522541Y-82993300D01*
X121522523Y-82993300D01*
X121521136Y-82993301D01*
X121519753Y-82993461D01*
X121519742Y-82993462D01*
X121499667Y-82995790D01*
X121499662Y-82995791D01*
X121496009Y-82996215D01*
X121492644Y-82997700D01*
X121492639Y-82997702D01*
X121397386Y-83039761D01*
X121393235Y-83041594D01*
X121390028Y-83044800D01*
X121390025Y-83044803D01*
X121327481Y-83107348D01*
X121292833Y-83121700D01*
X121125975Y-83121700D01*
X121119205Y-83121230D01*
X121116525Y-83120856D01*
X121112223Y-83119414D01*
X121107692Y-83119623D01*
X121107689Y-83119623D01*
X121063901Y-83121648D01*
X121061638Y-83121700D01*
X121041771Y-83121700D01*
X121039556Y-83122113D01*
X121039534Y-83122116D01*
X121038200Y-83122366D01*
X121031476Y-83123146D01*
X121003936Y-83124420D01*
X121003934Y-83124420D01*
X120999400Y-83124630D01*
X120995250Y-83126462D01*
X120995242Y-83126464D01*
X120984991Y-83130990D01*
X120974213Y-83134328D01*
X120966667Y-83135739D01*
X120958743Y-83137221D01*
X120954886Y-83139608D01*
X120954878Y-83139612D01*
X120931444Y-83154120D01*
X120925447Y-83157282D01*
X120900231Y-83168417D01*
X120900228Y-83168418D01*
X120896079Y-83170251D01*
X120892871Y-83173458D01*
X120892866Y-83173462D01*
X120884947Y-83181381D01*
X120876101Y-83188388D01*
X120866575Y-83194287D01*
X120866572Y-83194289D01*
X120862715Y-83196678D01*
X120859983Y-83200294D01*
X120859979Y-83200299D01*
X120843367Y-83222297D01*
X120838913Y-83227415D01*
X120765638Y-83300690D01*
X120747751Y-83312086D01*
X120723837Y-83320791D01*
X120723832Y-83320793D01*
X120719804Y-83322260D01*
X120716521Y-83325014D01*
X120716517Y-83325017D01*
X120635153Y-83393290D01*
X120631870Y-83396045D01*
X120629730Y-83399751D01*
X120629727Y-83399755D01*
X120589918Y-83468708D01*
X120574476Y-83495455D01*
X120573732Y-83499673D01*
X120573732Y-83499674D01*
X120565399Y-83546933D01*
X120554543Y-83608500D01*
X115179970Y-83608500D01*
X115195464Y-83530600D01*
X115195464Y-83053600D01*
X115186831Y-83010196D01*
X115188000Y-82986414D01*
X115200240Y-82965992D01*
X115257627Y-82908605D01*
X115275510Y-82897212D01*
X115303461Y-82887040D01*
X115391394Y-82813255D01*
X115448788Y-82713845D01*
X115468721Y-82600800D01*
X115448788Y-82487755D01*
X115391394Y-82388345D01*
X115388110Y-82385589D01*
X115388109Y-82385588D01*
X115306743Y-82317314D01*
X115303461Y-82314560D01*
X115299435Y-82313094D01*
X115299434Y-82313094D01*
X115240709Y-82291720D01*
X115195594Y-82275300D01*
X115080806Y-82275300D01*
X115076775Y-82276766D01*
X115076775Y-82276767D01*
X114976970Y-82313093D01*
X114976969Y-82313093D01*
X114972940Y-82314560D01*
X114969657Y-82317314D01*
X114969653Y-82317317D01*
X114888289Y-82385590D01*
X114885006Y-82388345D01*
X114882864Y-82392054D01*
X114882863Y-82392056D01*
X114835755Y-82473648D01*
X114827968Y-82483796D01*
X114507130Y-82804634D01*
X114502014Y-82809087D01*
X114499852Y-82810719D01*
X114495790Y-82812743D01*
X114494116Y-82814578D01*
X114465711Y-82824100D01*
X114269464Y-82824100D01*
X114234816Y-82809748D01*
X114220464Y-82775100D01*
X114220464Y-82614434D01*
X114220464Y-82612487D01*
X114210191Y-82548326D01*
X114205512Y-82534089D01*
X114183317Y-82491067D01*
X114176614Y-82478073D01*
X114176613Y-82478072D01*
X114175724Y-82476348D01*
X113837596Y-82017460D01*
X113804834Y-81982432D01*
X113796338Y-81975249D01*
X113795151Y-81974463D01*
X113795143Y-81974457D01*
X113758733Y-81950349D01*
X113758729Y-81950347D01*
X113756340Y-81948765D01*
X113753644Y-81947778D01*
X113753642Y-81947777D01*
X113712642Y-81932769D01*
X113712633Y-81932766D01*
X113711291Y-81932275D01*
X113709901Y-81931943D01*
X113709895Y-81931942D01*
X113701863Y-81930028D01*
X113701852Y-81930026D01*
X113700467Y-81929696D01*
X113699050Y-81929529D01*
X113699036Y-81929527D01*
X113654261Y-81924267D01*
X113654255Y-81924266D01*
X113652837Y-81924100D01*
X113651405Y-81924100D01*
X113577198Y-81924100D01*
X113550272Y-81916039D01*
X113532205Y-81894508D01*
X113528942Y-81866591D01*
X113537577Y-81817619D01*
X113538321Y-81813400D01*
X113518388Y-81700355D01*
X113460994Y-81600945D01*
X113457710Y-81598189D01*
X113457709Y-81598188D01*
X113373061Y-81527160D01*
X113373854Y-81526214D01*
X113361269Y-81513636D01*
X113354700Y-81489129D01*
X113354700Y-81154062D01*
X113354700Y-81151652D01*
X113343067Y-81093169D01*
X113298752Y-81026848D01*
X113294740Y-81024167D01*
X113294739Y-81024166D01*
X113289809Y-81020872D01*
X113275994Y-81006907D01*
X113268775Y-80988638D01*
X113268212Y-80985443D01*
X113264388Y-80963755D01*
X113206994Y-80864345D01*
X113203710Y-80861589D01*
X113203709Y-80861588D01*
X113122343Y-80793314D01*
X113119061Y-80790560D01*
X113115035Y-80789094D01*
X113115034Y-80789094D01*
X113056309Y-80767720D01*
X113011194Y-80751300D01*
X112896406Y-80751300D01*
X112892375Y-80752766D01*
X112892375Y-80752767D01*
X112792570Y-80789093D01*
X112792569Y-80789093D01*
X112788540Y-80790560D01*
X112785258Y-80793313D01*
X112785256Y-80793315D01*
X112743996Y-80827936D01*
X112712499Y-80839399D01*
X112681003Y-80827935D01*
X112639743Y-80793314D01*
X112636461Y-80790560D01*
X112632435Y-80789094D01*
X112632434Y-80789094D01*
X112573709Y-80767720D01*
X112528594Y-80751300D01*
X112413806Y-80751300D01*
X112409775Y-80752766D01*
X112409775Y-80752767D01*
X112309970Y-80789093D01*
X112309969Y-80789093D01*
X112305940Y-80790560D01*
X112302657Y-80793314D01*
X112302653Y-80793317D01*
X112221289Y-80861590D01*
X112218006Y-80864345D01*
X112215865Y-80868054D01*
X112196584Y-80901448D01*
X112174372Y-80921579D01*
X112144592Y-80925006D01*
X112136251Y-80923347D01*
X112123948Y-80920900D01*
X111784452Y-80920900D01*
X111782093Y-80921369D01*
X111782085Y-80921370D01*
X111730705Y-80931590D01*
X111730700Y-80931591D01*
X111725969Y-80932533D01*
X111721957Y-80935213D01*
X111721954Y-80935215D01*
X111682967Y-80961266D01*
X111657881Y-80969477D01*
X111632175Y-80963484D01*
X111613309Y-80945024D01*
X111599381Y-80920900D01*
X111581394Y-80889745D01*
X111578110Y-80886989D01*
X111578109Y-80886988D01*
X111496743Y-80818714D01*
X111493461Y-80815960D01*
X111489435Y-80814494D01*
X111489434Y-80814494D01*
X111423674Y-80790560D01*
X111385594Y-80776700D01*
X111270806Y-80776700D01*
X111266775Y-80778166D01*
X111266775Y-80778167D01*
X111166970Y-80814493D01*
X111166969Y-80814493D01*
X111162940Y-80815960D01*
X111159657Y-80818714D01*
X111159653Y-80818717D01*
X111078289Y-80886990D01*
X111075006Y-80889745D01*
X111072866Y-80893451D01*
X111072863Y-80893455D01*
X111024717Y-80976848D01*
X111017612Y-80989155D01*
X110997679Y-81102200D01*
X111017612Y-81215245D01*
X111019754Y-81218956D01*
X111019755Y-81218957D01*
X111047135Y-81266381D01*
X111053700Y-81290881D01*
X111053700Y-81491148D01*
X111054169Y-81493507D01*
X111054170Y-81493514D01*
X111064390Y-81544894D01*
X111064391Y-81544897D01*
X111065333Y-81549631D01*
X111068014Y-81553644D01*
X111068015Y-81553645D01*
X111084927Y-81578956D01*
X111109648Y-81615952D01*
X111175969Y-81660267D01*
X111234452Y-81671900D01*
X111621538Y-81671900D01*
X111623948Y-81671900D01*
X111670641Y-81662612D01*
X111698951Y-81665400D01*
X111720942Y-81683447D01*
X111729200Y-81710670D01*
X111729200Y-82425590D01*
X111724609Y-82446298D01*
X111715554Y-82458099D01*
X111716042Y-82458509D01*
X111713286Y-82461792D01*
X111710970Y-82463735D01*
X111710957Y-82463745D01*
X111710007Y-82464544D01*
X111709932Y-82464455D01*
X111691321Y-82477335D01*
X111665509Y-82479167D01*
X111626314Y-82471370D01*
X111626307Y-82471369D01*
X111623948Y-82470900D01*
X111621538Y-82470900D01*
X111607153Y-82470900D01*
X111597594Y-82469959D01*
X111582054Y-82466868D01*
X111582052Y-82466867D01*
X111579700Y-82466400D01*
X111577297Y-82466400D01*
X111270583Y-82466400D01*
X111243362Y-82458143D01*
X111232584Y-82450942D01*
X111231597Y-82450265D01*
X111229003Y-82448439D01*
X111203405Y-82430417D01*
X111199853Y-82427916D01*
X111199849Y-82427913D01*
X111197389Y-82426182D01*
X111150461Y-82408086D01*
X111149024Y-82407726D01*
X111149014Y-82407723D01*
X111140601Y-82405617D01*
X111140599Y-82405616D01*
X111139151Y-82405254D01*
X111134950Y-82404736D01*
X111113452Y-82402085D01*
X111084377Y-82387672D01*
X111070684Y-82358251D01*
X111070464Y-82356017D01*
X111070464Y-82353600D01*
X111054824Y-82274964D01*
X111047795Y-82257993D01*
X111025148Y-82224100D01*
X111005925Y-82195330D01*
X111003245Y-82191319D01*
X110999233Y-82188638D01*
X110938573Y-82148106D01*
X110938567Y-82148103D01*
X110936571Y-82146769D01*
X110934354Y-82145850D01*
X110934347Y-82145847D01*
X110921824Y-82140661D01*
X110921822Y-82140660D01*
X110919600Y-82139740D01*
X110917240Y-82139270D01*
X110917238Y-82139270D01*
X110843320Y-82124568D01*
X110843314Y-82124567D01*
X110840964Y-82124100D01*
X109845104Y-82124100D01*
X109845104Y-82123152D01*
X109812663Y-82112474D01*
X109795617Y-82079669D01*
X109793328Y-82054966D01*
X109787310Y-81990028D01*
X109787127Y-81987053D01*
X109767546Y-81351493D01*
X109767546Y-81348507D01*
X109787127Y-80712944D01*
X109787310Y-80709973D01*
X109845981Y-80076812D01*
X109846345Y-80073876D01*
X109943883Y-79445527D01*
X109944425Y-79442624D01*
X110080466Y-78821442D01*
X110081190Y-78818565D01*
X110255198Y-78206991D01*
X110256101Y-78204152D01*
X110467442Y-77604409D01*
X110468515Y-77601641D01*
X110716360Y-77016083D01*
X110717604Y-77013380D01*
X111001045Y-76444153D01*
X111002438Y-76441559D01*
X111020345Y-76410544D01*
X111047898Y-76388360D01*
X111083209Y-76390509D01*
X111107871Y-76415872D01*
X111109028Y-76451229D01*
X111080505Y-76532744D01*
X111080502Y-76532753D01*
X111079596Y-76535345D01*
X111079288Y-76538077D01*
X111079288Y-76538078D01*
X111076863Y-76559600D01*
X111059399Y-76714600D01*
X111059707Y-76717334D01*
X111060491Y-76724293D01*
X111079596Y-76893855D01*
X111080502Y-76896446D01*
X111080504Y-76896452D01*
X111122372Y-77016103D01*
X111139175Y-77064122D01*
X111140638Y-77066451D01*
X111140639Y-77066452D01*
X111233682Y-77214530D01*
X111233685Y-77214534D01*
X111235148Y-77216862D01*
X111362702Y-77344416D01*
X111365031Y-77345879D01*
X111365033Y-77345881D01*
X111421288Y-77381228D01*
X111515442Y-77440389D01*
X111685709Y-77499968D01*
X111864964Y-77520165D01*
X112044219Y-77499968D01*
X112214486Y-77440389D01*
X112367226Y-77344416D01*
X112387738Y-77323904D01*
X112422386Y-77309552D01*
X112457034Y-77323904D01*
X113983582Y-78850452D01*
X113997934Y-78885100D01*
X113983582Y-78919748D01*
X113948934Y-78934100D01*
X113931994Y-78934100D01*
X113897346Y-78919748D01*
X113797729Y-78820131D01*
X113793275Y-78815013D01*
X113791644Y-78812853D01*
X113789621Y-78808790D01*
X113786266Y-78805731D01*
X113786265Y-78805730D01*
X113753878Y-78776206D01*
X113752241Y-78774643D01*
X113739788Y-78762190D01*
X113738187Y-78760589D01*
X113736326Y-78759314D01*
X113736315Y-78759305D01*
X113735197Y-78758540D01*
X113729878Y-78754328D01*
X113706154Y-78732700D01*
X113691471Y-78727012D01*
X113681484Y-78721747D01*
X113672248Y-78715420D01*
X113672247Y-78715419D01*
X113668502Y-78712854D01*
X113664083Y-78711814D01*
X113664082Y-78711814D01*
X113637249Y-78705502D01*
X113630771Y-78703496D01*
X113616686Y-78698040D01*
X113600836Y-78691900D01*
X113596292Y-78691900D01*
X113585095Y-78691900D01*
X113573876Y-78690598D01*
X113562981Y-78688035D01*
X113562979Y-78688034D01*
X113558558Y-78686995D01*
X113554061Y-78687622D01*
X113554058Y-78687622D01*
X113526764Y-78691430D01*
X113519994Y-78691900D01*
X112656367Y-78691900D01*
X112621719Y-78677548D01*
X112589174Y-78645003D01*
X112585965Y-78641794D01*
X112550530Y-78626148D01*
X112486563Y-78597903D01*
X112486557Y-78597901D01*
X112483191Y-78596415D01*
X112479531Y-78595990D01*
X112479530Y-78595990D01*
X112459472Y-78593663D01*
X112459468Y-78593662D01*
X112458065Y-78593500D01*
X112456644Y-78593500D01*
X112109741Y-78593500D01*
X112109723Y-78593500D01*
X112108336Y-78593501D01*
X112106953Y-78593661D01*
X112106942Y-78593662D01*
X112086867Y-78595990D01*
X112086862Y-78595991D01*
X112083209Y-78596415D01*
X112079844Y-78597900D01*
X112079839Y-78597902D01*
X112000016Y-78633148D01*
X111980435Y-78641794D01*
X111977228Y-78645000D01*
X111977225Y-78645003D01*
X111904203Y-78718025D01*
X111904200Y-78718028D01*
X111900994Y-78721235D01*
X111899161Y-78725385D01*
X111899161Y-78725386D01*
X111857103Y-78820636D01*
X111857100Y-78820643D01*
X111855615Y-78824009D01*
X111855190Y-78827666D01*
X111855190Y-78827669D01*
X111853151Y-78845246D01*
X111852700Y-78849135D01*
X111852700Y-78850554D01*
X111852700Y-78850555D01*
X111852700Y-79137458D01*
X111852700Y-79137475D01*
X111852701Y-79138864D01*
X111852861Y-79140247D01*
X111852862Y-79140257D01*
X111855190Y-79160332D01*
X111855191Y-79160336D01*
X111855615Y-79163991D01*
X111857101Y-79167356D01*
X111857102Y-79167360D01*
X111875241Y-79208440D01*
X111900994Y-79266765D01*
X111980435Y-79346206D01*
X112047224Y-79375696D01*
X112079836Y-79390096D01*
X112079837Y-79390096D01*
X112083209Y-79391585D01*
X112108335Y-79394500D01*
X112458064Y-79394499D01*
X112483191Y-79391585D01*
X112585965Y-79346206D01*
X112621718Y-79310452D01*
X112656367Y-79296100D01*
X113398934Y-79296100D01*
X113433582Y-79310452D01*
X113467162Y-79344032D01*
X113479006Y-79363204D01*
X113481015Y-79385648D01*
X113479729Y-79394600D01*
X113480228Y-79398071D01*
X113495417Y-79503719D01*
X113498574Y-79525672D01*
X113553583Y-79646125D01*
X113555876Y-79648772D01*
X113555878Y-79648774D01*
X113638004Y-79743552D01*
X113638006Y-79743554D01*
X113640300Y-79746201D01*
X113751698Y-79817793D01*
X113878754Y-79855100D01*
X114007670Y-79855100D01*
X114011174Y-79855100D01*
X114138230Y-79817793D01*
X114249628Y-79746201D01*
X114336345Y-79646125D01*
X114391354Y-79525672D01*
X114410199Y-79394600D01*
X114410098Y-79393903D01*
X114424052Y-79360218D01*
X114458700Y-79345866D01*
X114493348Y-79360218D01*
X115067397Y-79934267D01*
X115071852Y-79939386D01*
X115073483Y-79941546D01*
X115075507Y-79945610D01*
X115078859Y-79948666D01*
X115078861Y-79948668D01*
X115111260Y-79978203D01*
X115112897Y-79979767D01*
X115126941Y-79993811D01*
X115129928Y-79995857D01*
X115135238Y-80000061D01*
X115158974Y-80021700D01*
X115163208Y-80023340D01*
X115173650Y-80027385D01*
X115183643Y-80032652D01*
X115196626Y-80041546D01*
X115227886Y-80048898D01*
X115234340Y-80050896D01*
X115264292Y-80062500D01*
X115280033Y-80062500D01*
X115291251Y-80063801D01*
X115306570Y-80067405D01*
X115338363Y-80062970D01*
X115345134Y-80062500D01*
X116307334Y-80062500D01*
X116341982Y-80076852D01*
X116923712Y-80658582D01*
X116938064Y-80693230D01*
X116938064Y-82819924D01*
X116932725Y-82839848D01*
X116933185Y-82840016D01*
X116931719Y-82844042D01*
X116929576Y-82847755D01*
X116909643Y-82960800D01*
X116929576Y-83073845D01*
X116986970Y-83173255D01*
X116990252Y-83176009D01*
X116990254Y-83176011D01*
X117033611Y-83212392D01*
X117074903Y-83247040D01*
X117182770Y-83286300D01*
X117293269Y-83286300D01*
X117297558Y-83286300D01*
X117405425Y-83247040D01*
X117493358Y-83173255D01*
X117550752Y-83073845D01*
X117570685Y-82960800D01*
X117550752Y-82847755D01*
X117548608Y-82844041D01*
X117547143Y-82840016D01*
X117547602Y-82839848D01*
X117542264Y-82819924D01*
X117542264Y-81728293D01*
X117552390Y-81698464D01*
X117578582Y-81680963D01*
X117610016Y-81683023D01*
X117633699Y-81703793D01*
X117674854Y-81775077D01*
X117681770Y-81787055D01*
X117685052Y-81789809D01*
X117685054Y-81789811D01*
X117736665Y-81833118D01*
X117769703Y-81860840D01*
X117877570Y-81900100D01*
X117988069Y-81900100D01*
X117992358Y-81900100D01*
X118048531Y-81879654D01*
X118065290Y-81876700D01*
X119428752Y-81876700D01*
X119435522Y-81877170D01*
X119438200Y-81877543D01*
X119442504Y-81878986D01*
X119490826Y-81876751D01*
X119493089Y-81876700D01*
X119510693Y-81876700D01*
X119512957Y-81876700D01*
X119516515Y-81876034D01*
X119523251Y-81875252D01*
X119555328Y-81873770D01*
X119555359Y-81874442D01*
X119577428Y-81875606D01*
X119706905Y-81920913D01*
X119709637Y-81921220D01*
X119709638Y-81921221D01*
X119872230Y-81939541D01*
X119874964Y-81939849D01*
X119882207Y-81939033D01*
X120040289Y-81921221D01*
X120040288Y-81921221D01*
X120043023Y-81920913D01*
X120167360Y-81877406D01*
X122115700Y-81877406D01*
X122116169Y-81879766D01*
X122116170Y-81879771D01*
X122127958Y-81939033D01*
X122127959Y-81939035D01*
X122128900Y-81943766D01*
X122179182Y-82019018D01*
X122254434Y-82069300D01*
X122320794Y-82082500D01*
X122379055Y-82082500D01*
X122395813Y-82085454D01*
X122415170Y-82092500D01*
X122525669Y-82092500D01*
X122529958Y-82092500D01*
X122549314Y-82085454D01*
X122566073Y-82082500D01*
X123119196Y-82082500D01*
X123121606Y-82082500D01*
X123187966Y-82069300D01*
X123263218Y-82019018D01*
X123313500Y-81943766D01*
X123326700Y-81877406D01*
X123326700Y-81616594D01*
X123313500Y-81550234D01*
X123263218Y-81474982D01*
X123258032Y-81471517D01*
X123191977Y-81427380D01*
X123191976Y-81427379D01*
X123187966Y-81424700D01*
X123183235Y-81423759D01*
X123183233Y-81423758D01*
X123123971Y-81411970D01*
X123123966Y-81411969D01*
X123121606Y-81411500D01*
X122320794Y-81411500D01*
X122318434Y-81411969D01*
X122318428Y-81411970D01*
X122259166Y-81423758D01*
X122259162Y-81423759D01*
X122254434Y-81424700D01*
X122250424Y-81427378D01*
X122250422Y-81427380D01*
X122183193Y-81472301D01*
X122183190Y-81472303D01*
X122179182Y-81474982D01*
X122176503Y-81478990D01*
X122176501Y-81478993D01*
X122131580Y-81546222D01*
X122131578Y-81546224D01*
X122128900Y-81550234D01*
X122127959Y-81554962D01*
X122127958Y-81554966D01*
X122116170Y-81614228D01*
X122116169Y-81614234D01*
X122115700Y-81616594D01*
X122115700Y-81877406D01*
X120167360Y-81877406D01*
X120202654Y-81865056D01*
X120345854Y-81775077D01*
X120465441Y-81655490D01*
X120555420Y-81512290D01*
X120572947Y-81462200D01*
X120948243Y-81462200D01*
X120968176Y-81575245D01*
X121025570Y-81674655D01*
X121028852Y-81677409D01*
X121028854Y-81677411D01*
X121051774Y-81696643D01*
X121113503Y-81748440D01*
X121221370Y-81787700D01*
X121331869Y-81787700D01*
X121336158Y-81787700D01*
X121444025Y-81748440D01*
X121531958Y-81674655D01*
X121581211Y-81589343D01*
X121588990Y-81579206D01*
X121681239Y-81486957D01*
X121686355Y-81482506D01*
X121688504Y-81480882D01*
X121692574Y-81478857D01*
X121699266Y-81471515D01*
X121729085Y-81455943D01*
X121766851Y-81450972D01*
X121875680Y-81400224D01*
X121960588Y-81315316D01*
X122011336Y-81206487D01*
X122017864Y-81156901D01*
X122017863Y-80967428D01*
X122021593Y-80948678D01*
X122032212Y-80932784D01*
X122160191Y-80804805D01*
X122178074Y-80793412D01*
X122206025Y-80783240D01*
X122293958Y-80709455D01*
X122351352Y-80610045D01*
X122371285Y-80497000D01*
X122351352Y-80383955D01*
X122293958Y-80284545D01*
X122290674Y-80281789D01*
X122290673Y-80281788D01*
X122209307Y-80213514D01*
X122206025Y-80210760D01*
X122201999Y-80209294D01*
X122201998Y-80209294D01*
X122119039Y-80179100D01*
X122098158Y-80171500D01*
X121983370Y-80171500D01*
X121979339Y-80172966D01*
X121979339Y-80172967D01*
X121879534Y-80209293D01*
X121879533Y-80209293D01*
X121875504Y-80210760D01*
X121872221Y-80213514D01*
X121872217Y-80213517D01*
X121790853Y-80281790D01*
X121787570Y-80284545D01*
X121785428Y-80288254D01*
X121785427Y-80288256D01*
X121738319Y-80369848D01*
X121730532Y-80379996D01*
X121628380Y-80482148D01*
X121593732Y-80496500D01*
X121299065Y-80496500D01*
X121299049Y-80496500D01*
X121297464Y-80496501D01*
X121295891Y-80496707D01*
X121295876Y-80496709D01*
X121251591Y-80502539D01*
X121251590Y-80502539D01*
X121247877Y-80503028D01*
X121244486Y-80504609D01*
X121244480Y-80504611D01*
X121142932Y-80551964D01*
X121142928Y-80551966D01*
X121139048Y-80553776D01*
X121136020Y-80556803D01*
X121136017Y-80556806D01*
X121057170Y-80635653D01*
X121057167Y-80635656D01*
X121054140Y-80638684D01*
X121052330Y-80642564D01*
X121052328Y-80642568D01*
X121004976Y-80744115D01*
X121004975Y-80744117D01*
X121003392Y-80747513D01*
X121002903Y-80751222D01*
X121002902Y-80751228D01*
X120997072Y-80795514D01*
X120997071Y-80795524D01*
X120996864Y-80797099D01*
X120996864Y-80798698D01*
X120996864Y-80798699D01*
X120996864Y-81155298D01*
X120996864Y-81155313D01*
X120996865Y-81156900D01*
X120997072Y-81158473D01*
X120997073Y-81158487D01*
X121000871Y-81187334D01*
X121003392Y-81206487D01*
X121013680Y-81228550D01*
X121018224Y-81251394D01*
X121011707Y-81273755D01*
X120968176Y-81349155D01*
X120967432Y-81353373D01*
X120967432Y-81353374D01*
X120963349Y-81376531D01*
X120948243Y-81462200D01*
X120572947Y-81462200D01*
X120611277Y-81352659D01*
X120623236Y-81246523D01*
X120629905Y-81187334D01*
X120629905Y-81187333D01*
X120630213Y-81184600D01*
X120627271Y-81158487D01*
X120611585Y-81019274D01*
X120611584Y-81019273D01*
X120611277Y-81016541D01*
X120555420Y-80856910D01*
X120509130Y-80783240D01*
X120466906Y-80716041D01*
X120466904Y-80716039D01*
X120465441Y-80713710D01*
X120345854Y-80594123D01*
X120343526Y-80592660D01*
X120343522Y-80592657D01*
X120204984Y-80505608D01*
X120204983Y-80505607D01*
X120202654Y-80504144D01*
X120181406Y-80496709D01*
X120045620Y-80449195D01*
X120045614Y-80449193D01*
X120043023Y-80448287D01*
X120040297Y-80447979D01*
X120040289Y-80447978D01*
X119877698Y-80429659D01*
X119874964Y-80429351D01*
X119872230Y-80429659D01*
X119709638Y-80447978D01*
X119709628Y-80447980D01*
X119706905Y-80448287D01*
X119704315Y-80449192D01*
X119704307Y-80449195D01*
X119549871Y-80503235D01*
X119549868Y-80503236D01*
X119547274Y-80504144D01*
X119544947Y-80505605D01*
X119544943Y-80505608D01*
X119406405Y-80592657D01*
X119406397Y-80592663D01*
X119404074Y-80594123D01*
X119402130Y-80596066D01*
X119402126Y-80596070D01*
X119286434Y-80711762D01*
X119286430Y-80711766D01*
X119284487Y-80713710D01*
X119283027Y-80716033D01*
X119283021Y-80716041D01*
X119195972Y-80854579D01*
X119195969Y-80854583D01*
X119194508Y-80856910D01*
X119193600Y-80859504D01*
X119193599Y-80859507D01*
X119139559Y-81013943D01*
X119139556Y-81013951D01*
X119138651Y-81016541D01*
X119138344Y-81019264D01*
X119138342Y-81019274D01*
X119121696Y-81167020D01*
X119119715Y-81184600D01*
X119122692Y-81211025D01*
X119123480Y-81218014D01*
X119118936Y-81244760D01*
X119100858Y-81264989D01*
X119074788Y-81272500D01*
X118065290Y-81272500D01*
X118048531Y-81269545D01*
X117992358Y-81249100D01*
X117877570Y-81249100D01*
X117873539Y-81250566D01*
X117873539Y-81250567D01*
X117773734Y-81286893D01*
X117773733Y-81286893D01*
X117769704Y-81288360D01*
X117766421Y-81291114D01*
X117766417Y-81291117D01*
X117693075Y-81352659D01*
X117681770Y-81362145D01*
X117679630Y-81365851D01*
X117679627Y-81365855D01*
X117633699Y-81445407D01*
X117610016Y-81466177D01*
X117578582Y-81468237D01*
X117552390Y-81450736D01*
X117542264Y-81420907D01*
X117542264Y-80604010D01*
X117542734Y-80597240D01*
X117543106Y-80594565D01*
X117544550Y-80590260D01*
X117542315Y-80541937D01*
X117542264Y-80539675D01*
X117542264Y-80522074D01*
X117542264Y-80519807D01*
X117541599Y-80516253D01*
X117540816Y-80509512D01*
X117539334Y-80477436D01*
X117532972Y-80463029D01*
X117529634Y-80452245D01*
X117528836Y-80447978D01*
X117526743Y-80436779D01*
X117509841Y-80409482D01*
X117506680Y-80403483D01*
X117503883Y-80397148D01*
X117493713Y-80374115D01*
X117482585Y-80362987D01*
X117475572Y-80354133D01*
X117469676Y-80344610D01*
X117469673Y-80344607D01*
X117467286Y-80340751D01*
X117441664Y-80321402D01*
X117436545Y-80316947D01*
X116706129Y-79586531D01*
X116701675Y-79581413D01*
X116700044Y-79579253D01*
X116698021Y-79575190D01*
X116694666Y-79572131D01*
X116694665Y-79572130D01*
X116662278Y-79542606D01*
X116660641Y-79541043D01*
X116648188Y-79528590D01*
X116646587Y-79526989D01*
X116644726Y-79525714D01*
X116644715Y-79525705D01*
X116643597Y-79524940D01*
X116638278Y-79520728D01*
X116614554Y-79499100D01*
X116599871Y-79493412D01*
X116589884Y-79488147D01*
X116580648Y-79481820D01*
X116580647Y-79481819D01*
X116576902Y-79479254D01*
X116572483Y-79478214D01*
X116572482Y-79478214D01*
X116545649Y-79471902D01*
X116539171Y-79469896D01*
X116519342Y-79462215D01*
X116509236Y-79458300D01*
X116504692Y-79458300D01*
X116493495Y-79458300D01*
X116482276Y-79456998D01*
X116471381Y-79454435D01*
X116471379Y-79454434D01*
X116466958Y-79453395D01*
X116462461Y-79454022D01*
X116462458Y-79454022D01*
X116435164Y-79457830D01*
X116428394Y-79458300D01*
X115466194Y-79458300D01*
X115431546Y-79443948D01*
X113417198Y-77429600D01*
X114024729Y-77429600D01*
X114025228Y-77433071D01*
X114042456Y-77552901D01*
X114043574Y-77560672D01*
X114098583Y-77681125D01*
X114100876Y-77683772D01*
X114100878Y-77683774D01*
X114183004Y-77778552D01*
X114183006Y-77778554D01*
X114185300Y-77781201D01*
X114228030Y-77808662D01*
X114287713Y-77847019D01*
X114296698Y-77852793D01*
X114423754Y-77890100D01*
X114552670Y-77890100D01*
X114556174Y-77890100D01*
X114683230Y-77852793D01*
X114794628Y-77781201D01*
X114881345Y-77681125D01*
X114936354Y-77560672D01*
X114946423Y-77490636D01*
X115455765Y-77490636D01*
X115456264Y-77494107D01*
X115471721Y-77601618D01*
X115474610Y-77621708D01*
X115476065Y-77624894D01*
X115507082Y-77692813D01*
X115529619Y-77742161D01*
X115548531Y-77763987D01*
X115560500Y-77796074D01*
X115560500Y-78120433D01*
X115546148Y-78155081D01*
X115542003Y-78159225D01*
X115542000Y-78159228D01*
X115538794Y-78162435D01*
X115536961Y-78166585D01*
X115536961Y-78166586D01*
X115494903Y-78261836D01*
X115494900Y-78261843D01*
X115493415Y-78265209D01*
X115490500Y-78290335D01*
X115490500Y-78291754D01*
X115490500Y-78291755D01*
X115490500Y-78578658D01*
X115490500Y-78578675D01*
X115490501Y-78580064D01*
X115490661Y-78581447D01*
X115490662Y-78581457D01*
X115492990Y-78601532D01*
X115492991Y-78601536D01*
X115493415Y-78605191D01*
X115494901Y-78608556D01*
X115494902Y-78608560D01*
X115517216Y-78659096D01*
X115538794Y-78707965D01*
X115618235Y-78787406D01*
X115681418Y-78815304D01*
X115717636Y-78831296D01*
X115717637Y-78831296D01*
X115721009Y-78832785D01*
X115746135Y-78835700D01*
X116079099Y-78835699D01*
X116106025Y-78843760D01*
X116124092Y-78865291D01*
X116127355Y-78893208D01*
X116122243Y-78922200D01*
X116142176Y-79035245D01*
X116163729Y-79072576D01*
X116194490Y-79125857D01*
X116199570Y-79134655D01*
X116287503Y-79208440D01*
X116395370Y-79247700D01*
X116505869Y-79247700D01*
X116510158Y-79247700D01*
X116618025Y-79208440D01*
X116705958Y-79134655D01*
X116763352Y-79035245D01*
X116783285Y-78922200D01*
X116776516Y-78883812D01*
X116773716Y-78867931D01*
X116778743Y-78836351D01*
X116802180Y-78814597D01*
X116863765Y-78787406D01*
X116917552Y-78733619D01*
X116952200Y-78719267D01*
X116986848Y-78733619D01*
X116999909Y-78746680D01*
X117013841Y-78774928D01*
X117008630Y-78801141D01*
X117009385Y-78801416D01*
X117007919Y-78805442D01*
X117005776Y-78809155D01*
X116985843Y-78922200D01*
X117005776Y-79035245D01*
X117027329Y-79072576D01*
X117058090Y-79125857D01*
X117063170Y-79134655D01*
X117151103Y-79208440D01*
X117258970Y-79247700D01*
X117369469Y-79247700D01*
X117373758Y-79247700D01*
X117481625Y-79208440D01*
X117569558Y-79134655D01*
X117626952Y-79035245D01*
X117646885Y-78922200D01*
X117646141Y-78917981D01*
X117646141Y-78917975D01*
X117637441Y-78868638D01*
X117642467Y-78837058D01*
X117665903Y-78815305D01*
X117669012Y-78813933D01*
X117688800Y-78809759D01*
X117708588Y-78813933D01*
X117752244Y-78833209D01*
X117805436Y-78856696D01*
X117805437Y-78856696D01*
X117808809Y-78858185D01*
X117833935Y-78861100D01*
X117879179Y-78861099D01*
X117897930Y-78864829D01*
X117913827Y-78875451D01*
X118054750Y-79016374D01*
X118068821Y-79045782D01*
X118062491Y-79072576D01*
X118063583Y-79073075D01*
X118011644Y-79186806D01*
X118008574Y-79193528D01*
X118008075Y-79196993D01*
X118008075Y-79196996D01*
X117991763Y-79310452D01*
X117989729Y-79324600D01*
X117990228Y-79328071D01*
X118006536Y-79441501D01*
X118008574Y-79455672D01*
X118063583Y-79576125D01*
X118065876Y-79578772D01*
X118065878Y-79578774D01*
X118148004Y-79673552D01*
X118148006Y-79673554D01*
X118150300Y-79676201D01*
X118261698Y-79747793D01*
X118388754Y-79785100D01*
X118517670Y-79785100D01*
X118521174Y-79785100D01*
X118648230Y-79747793D01*
X118759628Y-79676201D01*
X118846345Y-79576125D01*
X118901354Y-79455672D01*
X118919163Y-79331806D01*
X118919700Y-79328071D01*
X118920199Y-79324600D01*
X118901354Y-79193528D01*
X118846345Y-79073075D01*
X118827432Y-79051248D01*
X118815464Y-79019162D01*
X118815464Y-78949231D01*
X118816507Y-78939176D01*
X118819097Y-78926821D01*
X118820136Y-78921868D01*
X118815839Y-78887401D01*
X118815464Y-78881341D01*
X118815464Y-78878920D01*
X118815464Y-78876891D01*
X118815129Y-78874887D01*
X118815129Y-78874879D01*
X118811940Y-78855773D01*
X118811651Y-78853794D01*
X118805255Y-78802478D01*
X118803470Y-78798828D01*
X118802458Y-78795428D01*
X118801314Y-78792095D01*
X118800646Y-78788091D01*
X118776035Y-78742615D01*
X118775111Y-78740818D01*
X118754198Y-78698040D01*
X118754197Y-78698039D01*
X118752413Y-78694389D01*
X118749540Y-78691516D01*
X118747476Y-78688625D01*
X118745314Y-78685847D01*
X118743383Y-78682278D01*
X118738026Y-78677347D01*
X118705329Y-78647247D01*
X118703868Y-78645844D01*
X118453651Y-78395627D01*
X118439299Y-78360979D01*
X118439299Y-78317141D01*
X118439299Y-78315736D01*
X118436385Y-78290609D01*
X118391006Y-78187835D01*
X118311565Y-78108394D01*
X118276959Y-78093114D01*
X118212163Y-78064503D01*
X118212157Y-78064501D01*
X118208791Y-78063015D01*
X118205131Y-78062590D01*
X118205130Y-78062590D01*
X118185072Y-78060263D01*
X118185068Y-78060262D01*
X118183665Y-78060100D01*
X118182244Y-78060100D01*
X117988586Y-78060100D01*
X117957089Y-78048636D01*
X117940330Y-78019608D01*
X117937402Y-78003001D01*
X117931752Y-77970955D01*
X117874358Y-77871545D01*
X117871074Y-77868789D01*
X117871073Y-77868788D01*
X117789707Y-77800514D01*
X117786425Y-77797760D01*
X117782399Y-77796294D01*
X117782398Y-77796294D01*
X117687248Y-77761663D01*
X117678558Y-77758500D01*
X117674270Y-77758500D01*
X117671407Y-77757995D01*
X117661320Y-77756350D01*
X117659215Y-77756056D01*
X117654912Y-77754614D01*
X117650380Y-77754823D01*
X117650377Y-77754823D01*
X117571981Y-77758448D01*
X117569718Y-77758500D01*
X117563770Y-77758500D01*
X117563770Y-77757769D01*
X117562681Y-77757650D01*
X117562738Y-77758875D01*
X117546621Y-77759620D01*
X117546619Y-77759620D01*
X117542088Y-77759830D01*
X117537938Y-77761662D01*
X117537935Y-77761663D01*
X117461297Y-77795501D01*
X117461284Y-77795508D01*
X117459822Y-77796153D01*
X117459817Y-77796155D01*
X117458992Y-77796520D01*
X117458944Y-77796539D01*
X117458913Y-77796555D01*
X117458299Y-77796826D01*
X117457523Y-77797168D01*
X117457504Y-77797124D01*
X117456243Y-77797636D01*
X117456181Y-77797659D01*
X117455976Y-77797107D01*
X117455265Y-77797284D01*
X117455591Y-77798022D01*
X117442921Y-77803616D01*
X117442918Y-77803618D01*
X117438767Y-77805451D01*
X117435562Y-77808655D01*
X117435553Y-77808662D01*
X117398707Y-77845508D01*
X117395558Y-77848394D01*
X117371254Y-77868788D01*
X117371250Y-77868792D01*
X117367970Y-77871545D01*
X117365828Y-77875254D01*
X117365825Y-77875258D01*
X117364766Y-77877093D01*
X117356983Y-77887233D01*
X117241656Y-78002560D01*
X117209857Y-78016829D01*
X117176616Y-78006348D01*
X117158752Y-77976421D01*
X117147398Y-77912032D01*
X117144352Y-77894755D01*
X117142205Y-77891036D01*
X117140916Y-77887495D01*
X117141150Y-77853342D01*
X117163636Y-77827639D01*
X117193109Y-77811689D01*
X117194813Y-77810811D01*
X117241303Y-77788085D01*
X117244178Y-77785208D01*
X117247080Y-77783137D01*
X117249841Y-77780987D01*
X117253414Y-77779055D01*
X117288455Y-77740988D01*
X117289811Y-77739575D01*
X117519848Y-77509538D01*
X117527690Y-77503171D01*
X117542500Y-77493496D01*
X117563833Y-77466086D01*
X117567854Y-77461533D01*
X117571000Y-77458388D01*
X117583446Y-77440955D01*
X117584659Y-77439328D01*
X117616398Y-77398552D01*
X117617717Y-77394709D01*
X117619403Y-77391594D01*
X117620952Y-77388425D01*
X117623313Y-77385119D01*
X117638075Y-77335531D01*
X117638674Y-77333659D01*
X117655464Y-77284757D01*
X117655464Y-77280689D01*
X117656049Y-77277183D01*
X117656482Y-77273705D01*
X117657643Y-77269807D01*
X117656937Y-77252751D01*
X117665651Y-77222772D01*
X117690703Y-77204141D01*
X117721923Y-77204421D01*
X117746635Y-77223501D01*
X117747728Y-77225137D01*
X117747731Y-77225140D01*
X117750412Y-77229152D01*
X117816733Y-77273467D01*
X117875216Y-77285100D01*
X118312302Y-77285100D01*
X118314712Y-77285100D01*
X118373195Y-77273467D01*
X118439516Y-77229152D01*
X118454222Y-77207142D01*
X118479213Y-77187966D01*
X118510715Y-77187966D01*
X118535705Y-77207142D01*
X118550412Y-77229152D01*
X118554427Y-77231835D01*
X118557837Y-77235244D01*
X118557298Y-77235782D01*
X118565187Y-77243754D01*
X118570912Y-77258236D01*
X118570982Y-77258211D01*
X118571907Y-77260752D01*
X118572411Y-77262027D01*
X118572448Y-77262239D01*
X118572450Y-77262245D01*
X118573194Y-77266463D01*
X118589867Y-77295341D01*
X118626945Y-77359564D01*
X118630588Y-77365873D01*
X118718521Y-77439658D01*
X118826388Y-77478918D01*
X118936887Y-77478918D01*
X118941176Y-77478918D01*
X119049043Y-77439658D01*
X119136976Y-77365873D01*
X119194370Y-77266463D01*
X119195662Y-77267209D01*
X119210093Y-77248811D01*
X119239516Y-77229152D01*
X119283831Y-77162831D01*
X119295464Y-77104348D01*
X119295464Y-76664852D01*
X119283831Y-76606369D01*
X119239516Y-76540048D01*
X119228589Y-76532747D01*
X119177209Y-76498415D01*
X119177208Y-76498414D01*
X119173195Y-76495733D01*
X119168461Y-76494791D01*
X119168458Y-76494790D01*
X119117078Y-76484570D01*
X119117071Y-76484569D01*
X119114712Y-76484100D01*
X118675216Y-76484100D01*
X118672857Y-76484569D01*
X118672849Y-76484570D01*
X118621469Y-76494790D01*
X118621464Y-76494791D01*
X118616733Y-76495733D01*
X118612721Y-76498413D01*
X118612718Y-76498415D01*
X118554423Y-76537367D01*
X118554420Y-76537369D01*
X118550412Y-76540048D01*
X118547733Y-76544056D01*
X118547730Y-76544060D01*
X118535705Y-76562057D01*
X118510714Y-76581233D01*
X118479214Y-76581233D01*
X118454223Y-76562057D01*
X118442197Y-76544060D01*
X118442196Y-76544059D01*
X118439516Y-76540048D01*
X118428589Y-76532747D01*
X118373195Y-76495733D01*
X118374444Y-76493862D01*
X118354422Y-76474298D01*
X118348513Y-76460915D01*
X118337385Y-76449787D01*
X118330372Y-76440933D01*
X118324476Y-76431410D01*
X118324473Y-76431407D01*
X118322086Y-76427551D01*
X118319483Y-76425585D01*
X118314551Y-76418840D01*
X118273158Y-76347145D01*
X118269874Y-76344389D01*
X118269873Y-76344388D01*
X118188507Y-76276114D01*
X118185225Y-76273360D01*
X118181199Y-76271894D01*
X118181198Y-76271894D01*
X118122473Y-76250520D01*
X118077358Y-76234100D01*
X117962570Y-76234100D01*
X117958539Y-76235566D01*
X117958539Y-76235567D01*
X117858734Y-76271893D01*
X117858733Y-76271893D01*
X117854704Y-76273360D01*
X117851421Y-76276114D01*
X117851417Y-76276117D01*
X117770053Y-76344390D01*
X117766770Y-76347145D01*
X117764630Y-76350851D01*
X117764627Y-76350855D01*
X117711519Y-76442843D01*
X117709376Y-76446555D01*
X117708632Y-76450770D01*
X117708630Y-76450778D01*
X117700303Y-76498000D01*
X117684888Y-76525857D01*
X117655608Y-76538361D01*
X117624825Y-76530232D01*
X117573195Y-76495733D01*
X117568461Y-76494791D01*
X117568458Y-76494790D01*
X117517078Y-76484570D01*
X117517071Y-76484569D01*
X117514712Y-76484100D01*
X117075216Y-76484100D01*
X117072857Y-76484569D01*
X117072849Y-76484570D01*
X117021469Y-76494790D01*
X117021464Y-76494791D01*
X117016733Y-76495733D01*
X117012721Y-76498413D01*
X117012718Y-76498415D01*
X116954423Y-76537367D01*
X116954420Y-76537369D01*
X116950412Y-76540048D01*
X116947733Y-76544056D01*
X116947731Y-76544059D01*
X116908779Y-76602354D01*
X116908777Y-76602357D01*
X116906097Y-76606369D01*
X116905155Y-76611100D01*
X116905154Y-76611105D01*
X116894934Y-76662485D01*
X116894933Y-76662493D01*
X116894464Y-76664852D01*
X116894464Y-76667262D01*
X116894464Y-77081136D01*
X116880112Y-77115784D01*
X116845464Y-77130136D01*
X116226205Y-77130136D01*
X116199713Y-77122357D01*
X116117214Y-77069337D01*
X116117210Y-77069335D01*
X116114266Y-77067443D01*
X116110906Y-77066456D01*
X116110903Y-77066455D01*
X115990572Y-77031123D01*
X115990570Y-77031122D01*
X115987210Y-77030136D01*
X115854790Y-77030136D01*
X115851430Y-77031122D01*
X115851427Y-77031123D01*
X115731096Y-77066455D01*
X115731090Y-77066457D01*
X115727734Y-77067443D01*
X115724791Y-77069333D01*
X115724785Y-77069337D01*
X115619284Y-77137140D01*
X115619282Y-77137141D01*
X115616336Y-77139035D01*
X115614045Y-77141677D01*
X115614040Y-77141683D01*
X115531914Y-77236461D01*
X115531910Y-77236466D01*
X115529619Y-77239111D01*
X115528162Y-77242300D01*
X115528162Y-77242301D01*
X115480859Y-77345881D01*
X115474610Y-77359564D01*
X115474111Y-77363029D01*
X115474111Y-77363032D01*
X115460401Y-77458388D01*
X115455765Y-77490636D01*
X114946423Y-77490636D01*
X114955199Y-77429600D01*
X114936354Y-77298528D01*
X114881345Y-77178075D01*
X114868136Y-77162831D01*
X114796923Y-77080647D01*
X114796921Y-77080645D01*
X114794628Y-77077999D01*
X114762002Y-77057031D01*
X114686178Y-77008301D01*
X114686174Y-77008299D01*
X114683230Y-77006407D01*
X114679870Y-77005420D01*
X114679867Y-77005419D01*
X114559536Y-76970087D01*
X114559534Y-76970086D01*
X114556174Y-76969100D01*
X114423754Y-76969100D01*
X114420394Y-76970086D01*
X114420391Y-76970087D01*
X114300060Y-77005419D01*
X114300054Y-77005421D01*
X114296698Y-77006407D01*
X114293755Y-77008297D01*
X114293749Y-77008301D01*
X114188248Y-77076104D01*
X114188246Y-77076105D01*
X114185300Y-77077999D01*
X114183009Y-77080641D01*
X114183004Y-77080647D01*
X114100878Y-77175425D01*
X114100874Y-77175430D01*
X114098583Y-77178075D01*
X114097126Y-77181264D01*
X114097126Y-77181265D01*
X114048108Y-77288601D01*
X114043574Y-77298528D01*
X114043075Y-77301993D01*
X114043075Y-77301996D01*
X114034300Y-77363032D01*
X114024729Y-77429600D01*
X113417198Y-77429600D01*
X112678631Y-76691033D01*
X112664587Y-76661871D01*
X112650332Y-76535345D01*
X112590753Y-76365078D01*
X112534853Y-76276114D01*
X112496245Y-76214669D01*
X112496243Y-76214667D01*
X112494780Y-76212338D01*
X112367226Y-76084784D01*
X112364898Y-76083321D01*
X112364894Y-76083318D01*
X112216816Y-75990275D01*
X112216815Y-75990274D01*
X112214486Y-75988811D01*
X112195665Y-75982225D01*
X112046816Y-75930140D01*
X112046810Y-75930138D01*
X112044219Y-75929232D01*
X111929781Y-75916338D01*
X111867698Y-75909343D01*
X111864964Y-75909035D01*
X111862230Y-75909343D01*
X111688442Y-75928924D01*
X111688441Y-75928924D01*
X111685709Y-75929232D01*
X111683119Y-75930137D01*
X111683111Y-75930140D01*
X111518039Y-75987902D01*
X111518036Y-75987902D01*
X111515442Y-75988811D01*
X111513115Y-75990272D01*
X111513111Y-75990275D01*
X111365033Y-76083318D01*
X111365025Y-76083324D01*
X111362702Y-76084784D01*
X111360758Y-76086727D01*
X111360754Y-76086731D01*
X111260852Y-76186633D01*
X111229409Y-76200880D01*
X111196375Y-76190859D01*
X111178146Y-76161544D01*
X111183768Y-76127486D01*
X111320377Y-75890873D01*
X111321949Y-75888334D01*
X111673166Y-75358295D01*
X111674903Y-75355842D01*
X112058086Y-74848425D01*
X112059961Y-74846095D01*
X112473646Y-74363240D01*
X112475674Y-74361015D01*
X112479455Y-74357116D01*
X112918319Y-73904523D01*
X112920468Y-73902440D01*
X113390363Y-73474074D01*
X113392614Y-73472145D01*
X113888013Y-73073498D01*
X113890374Y-73071715D01*
X114409371Y-72704324D01*
X114411870Y-72702668D01*
X114916996Y-72389907D01*
X114949572Y-72383041D01*
X114979018Y-72398576D01*
X114991739Y-72429344D01*
X114999413Y-72598146D01*
X114999464Y-72600371D01*
X114999464Y-73248726D01*
X114985112Y-73283374D01*
X114950464Y-73297726D01*
X114915816Y-73283374D01*
X114899173Y-73266731D01*
X114897226Y-73264784D01*
X114894898Y-73263321D01*
X114894894Y-73263318D01*
X114746816Y-73170275D01*
X114746815Y-73170274D01*
X114744486Y-73168811D01*
X114725665Y-73162225D01*
X114576816Y-73110140D01*
X114576810Y-73110138D01*
X114574219Y-73109232D01*
X114484591Y-73099133D01*
X114397698Y-73089343D01*
X114394964Y-73089035D01*
X114392230Y-73089343D01*
X114218442Y-73108924D01*
X114218441Y-73108924D01*
X114215709Y-73109232D01*
X114213119Y-73110137D01*
X114213111Y-73110140D01*
X114048039Y-73167902D01*
X114048036Y-73167902D01*
X114045442Y-73168811D01*
X114043115Y-73170272D01*
X114043111Y-73170275D01*
X113895033Y-73263318D01*
X113895025Y-73263324D01*
X113892702Y-73264784D01*
X113890758Y-73266727D01*
X113890754Y-73266731D01*
X113767095Y-73390390D01*
X113767091Y-73390394D01*
X113765148Y-73392338D01*
X113763688Y-73394661D01*
X113763682Y-73394669D01*
X113670639Y-73542747D01*
X113670636Y-73542751D01*
X113669175Y-73545078D01*
X113668266Y-73547672D01*
X113668266Y-73547675D01*
X113610504Y-73712747D01*
X113610501Y-73712755D01*
X113609596Y-73715345D01*
X113609288Y-73718077D01*
X113609288Y-73718078D01*
X113597180Y-73825544D01*
X113589399Y-73894600D01*
X113589707Y-73897334D01*
X113596486Y-73957499D01*
X113609596Y-74073855D01*
X113610502Y-74076446D01*
X113610504Y-74076452D01*
X113644879Y-74174689D01*
X113669175Y-74244122D01*
X113670638Y-74246451D01*
X113670639Y-74246452D01*
X113763682Y-74394530D01*
X113763685Y-74394534D01*
X113765148Y-74396862D01*
X113892702Y-74524416D01*
X113895031Y-74525879D01*
X113895033Y-74525881D01*
X113896679Y-74526915D01*
X114045442Y-74620389D01*
X114048037Y-74621297D01*
X114048039Y-74621298D01*
X114061648Y-74626060D01*
X114085427Y-74643955D01*
X114094464Y-74672310D01*
X114094464Y-74702999D01*
X114082495Y-74735087D01*
X114075899Y-74742700D01*
X114025879Y-74800424D01*
X114025875Y-74800429D01*
X114023583Y-74803075D01*
X114022126Y-74806264D01*
X114022126Y-74806265D01*
X113984948Y-74887675D01*
X113968574Y-74923528D01*
X113968075Y-74926993D01*
X113968075Y-74926996D01*
X113955063Y-75017499D01*
X113940406Y-75045960D01*
X113911303Y-75059296D01*
X113880176Y-75051815D01*
X113860312Y-75026710D01*
X113847648Y-74990518D01*
X113810753Y-74885078D01*
X113746352Y-74782585D01*
X113716245Y-74734669D01*
X113716243Y-74734667D01*
X113714780Y-74732338D01*
X113587226Y-74604784D01*
X113584898Y-74603321D01*
X113584894Y-74603318D01*
X113436816Y-74510275D01*
X113436815Y-74510274D01*
X113434486Y-74508811D01*
X113369725Y-74486150D01*
X113266816Y-74450140D01*
X113266810Y-74450138D01*
X113264219Y-74449232D01*
X113084964Y-74429035D01*
X113082230Y-74429343D01*
X112908442Y-74448924D01*
X112908441Y-74448924D01*
X112905709Y-74449232D01*
X112903119Y-74450137D01*
X112903111Y-74450140D01*
X112738039Y-74507902D01*
X112738036Y-74507902D01*
X112735442Y-74508811D01*
X112733115Y-74510272D01*
X112733111Y-74510275D01*
X112585033Y-74603318D01*
X112585025Y-74603324D01*
X112582702Y-74604784D01*
X112580758Y-74606727D01*
X112580754Y-74606731D01*
X112457095Y-74730390D01*
X112457091Y-74730394D01*
X112455148Y-74732338D01*
X112453688Y-74734661D01*
X112453682Y-74734669D01*
X112360639Y-74882747D01*
X112360636Y-74882751D01*
X112359175Y-74885078D01*
X112358266Y-74887672D01*
X112358266Y-74887675D01*
X112300504Y-75052747D01*
X112300501Y-75052755D01*
X112299596Y-75055345D01*
X112299288Y-75058077D01*
X112299288Y-75058078D01*
X112282532Y-75206795D01*
X112279399Y-75234600D01*
X112299596Y-75413855D01*
X112300502Y-75416446D01*
X112300504Y-75416452D01*
X112340270Y-75530096D01*
X112359175Y-75584122D01*
X112360638Y-75586451D01*
X112360639Y-75586452D01*
X112453682Y-75734530D01*
X112453685Y-75734534D01*
X112455148Y-75736862D01*
X112582702Y-75864416D01*
X112585031Y-75865879D01*
X112585033Y-75865881D01*
X112622653Y-75889519D01*
X112735442Y-75960389D01*
X112738040Y-75961298D01*
X112738042Y-75961299D01*
X112863851Y-76005321D01*
X112882316Y-76016923D01*
X112947446Y-76082053D01*
X112959290Y-76101225D01*
X112961300Y-76123670D01*
X112959729Y-76134600D01*
X112960228Y-76138071D01*
X112974245Y-76235567D01*
X112978574Y-76265672D01*
X113033583Y-76386125D01*
X113035876Y-76388772D01*
X113035878Y-76388774D01*
X113118004Y-76483552D01*
X113118006Y-76483554D01*
X113120300Y-76486201D01*
X113192726Y-76532747D01*
X113206571Y-76541645D01*
X113231698Y-76557793D01*
X113358754Y-76595100D01*
X113487670Y-76595100D01*
X113491174Y-76595100D01*
X113618230Y-76557793D01*
X113729628Y-76486201D01*
X113816345Y-76386125D01*
X113871354Y-76265672D01*
X113890199Y-76134600D01*
X113871354Y-76003528D01*
X113816345Y-75883075D01*
X113789579Y-75852186D01*
X113729628Y-75782999D01*
X113730484Y-75782257D01*
X113716357Y-75756536D01*
X113723332Y-75723250D01*
X113810753Y-75584122D01*
X113870332Y-75413855D01*
X113890529Y-75234600D01*
X113891845Y-75234748D01*
X113901068Y-75208606D01*
X113928805Y-75191472D01*
X113961154Y-75195535D01*
X113983793Y-75218997D01*
X114023583Y-75306125D01*
X114025876Y-75308772D01*
X114025878Y-75308774D01*
X114108004Y-75403552D01*
X114108006Y-75403554D01*
X114110300Y-75406201D01*
X114163986Y-75440703D01*
X114218131Y-75475501D01*
X114221698Y-75477793D01*
X114348754Y-75515100D01*
X114477670Y-75515100D01*
X114481174Y-75515100D01*
X114608230Y-75477793D01*
X114719628Y-75406201D01*
X114806345Y-75306125D01*
X114861354Y-75185672D01*
X114880199Y-75054600D01*
X114861354Y-74923528D01*
X114806345Y-74803075D01*
X114776593Y-74768740D01*
X114719628Y-74702999D01*
X114720282Y-74702432D01*
X114705925Y-74676663D01*
X114712204Y-74643790D01*
X114738118Y-74622617D01*
X114744486Y-74620389D01*
X114897226Y-74524416D01*
X115024780Y-74396862D01*
X115120753Y-74244122D01*
X115180332Y-74073855D01*
X115188676Y-73999795D01*
X115198677Y-73975215D01*
X115220027Y-73959453D01*
X115246461Y-73957133D01*
X115262170Y-73960100D01*
X116386900Y-73960100D01*
X116421548Y-73974452D01*
X116435900Y-74009100D01*
X116435900Y-74013544D01*
X116421548Y-74048192D01*
X116399992Y-74069748D01*
X116365344Y-74084100D01*
X116275216Y-74084100D01*
X116272857Y-74084569D01*
X116272849Y-74084570D01*
X116221469Y-74094790D01*
X116221464Y-74094791D01*
X116216733Y-74095733D01*
X116212721Y-74098413D01*
X116212718Y-74098415D01*
X116154423Y-74137367D01*
X116154420Y-74137369D01*
X116150412Y-74140048D01*
X116147733Y-74144056D01*
X116147731Y-74144059D01*
X116108779Y-74202354D01*
X116108779Y-74202355D01*
X116106097Y-74206369D01*
X116105155Y-74211100D01*
X116105154Y-74211105D01*
X116094934Y-74262485D01*
X116094933Y-74262493D01*
X116094464Y-74264852D01*
X116094464Y-74704348D01*
X116094933Y-74706707D01*
X116094934Y-74706714D01*
X116105154Y-74758094D01*
X116105155Y-74758097D01*
X116106097Y-74762831D01*
X116108778Y-74766844D01*
X116108779Y-74766845D01*
X116132987Y-74803075D01*
X116150412Y-74829152D01*
X116216733Y-74873467D01*
X116275216Y-74885100D01*
X116712302Y-74885100D01*
X116714712Y-74885100D01*
X116773195Y-74873467D01*
X116839516Y-74829152D01*
X116883831Y-74762831D01*
X116895464Y-74704348D01*
X116895464Y-74614220D01*
X116909814Y-74579573D01*
X117021288Y-74468098D01*
X117029126Y-74461735D01*
X117043936Y-74452060D01*
X117065269Y-74424650D01*
X117069290Y-74420097D01*
X117072435Y-74416953D01*
X117084893Y-74399504D01*
X117086080Y-74397913D01*
X117115338Y-74360323D01*
X117115338Y-74360322D01*
X117117834Y-74357116D01*
X117119153Y-74353270D01*
X117120842Y-74350150D01*
X117122385Y-74346993D01*
X117124749Y-74343684D01*
X117139513Y-74294090D01*
X117140098Y-74292261D01*
X117156900Y-74243321D01*
X117156900Y-74239253D01*
X117157485Y-74235747D01*
X117157918Y-74232267D01*
X117159079Y-74228371D01*
X117156942Y-74176714D01*
X117156900Y-74174689D01*
X117156900Y-74009100D01*
X117171252Y-73974452D01*
X117205900Y-73960100D01*
X117358935Y-73960100D01*
X117384018Y-73967007D01*
X117402026Y-73985775D01*
X117415140Y-74010007D01*
X117416046Y-74011768D01*
X117436966Y-74054561D01*
X117436967Y-74054563D01*
X117438751Y-74058211D01*
X117441622Y-74061082D01*
X117443698Y-74063989D01*
X117445850Y-74066754D01*
X117447781Y-74070322D01*
X117450764Y-74073068D01*
X117450765Y-74073069D01*
X117485833Y-74105351D01*
X117487294Y-74106754D01*
X117680112Y-74299572D01*
X117694464Y-74334220D01*
X117694464Y-74704348D01*
X117694933Y-74706709D01*
X117694934Y-74706712D01*
X117695677Y-74710445D01*
X117701956Y-74742015D01*
X117703522Y-74749884D01*
X117704070Y-74755446D01*
X117704297Y-74755428D01*
X117704464Y-74757447D01*
X117704464Y-74759473D01*
X117704796Y-74761463D01*
X117704797Y-74761474D01*
X117707986Y-74780582D01*
X117708278Y-74782585D01*
X117714673Y-74833886D01*
X117716454Y-74837531D01*
X117717464Y-74840921D01*
X117718613Y-74844270D01*
X117719282Y-74848273D01*
X117721212Y-74851839D01*
X117721213Y-74851842D01*
X117743883Y-74893732D01*
X117744810Y-74895532D01*
X117765730Y-74938325D01*
X117765731Y-74938327D01*
X117767515Y-74941975D01*
X117770386Y-74944846D01*
X117772462Y-74947753D01*
X117774614Y-74950518D01*
X117776545Y-74954086D01*
X117779528Y-74956832D01*
X117779529Y-74956833D01*
X117814597Y-74989115D01*
X117816058Y-74990518D01*
X118153619Y-75328079D01*
X118159992Y-75335926D01*
X118169668Y-75350736D01*
X118172870Y-75353228D01*
X118172871Y-75353229D01*
X118197078Y-75372070D01*
X118201629Y-75376089D01*
X118204775Y-75379235D01*
X118217598Y-75388390D01*
X118222185Y-75391665D01*
X118223806Y-75392873D01*
X118264612Y-75424634D01*
X118268449Y-75425951D01*
X118271557Y-75427633D01*
X118274740Y-75429189D01*
X118278044Y-75431548D01*
X118281934Y-75432706D01*
X118281936Y-75432707D01*
X118296636Y-75437083D01*
X118327602Y-75446301D01*
X118329473Y-75446900D01*
X118378407Y-75463700D01*
X118382472Y-75463700D01*
X118385954Y-75464281D01*
X118389459Y-75464718D01*
X118393356Y-75465878D01*
X118444999Y-75463742D01*
X118447025Y-75463700D01*
X119482875Y-75463700D01*
X119510980Y-75472561D01*
X119528920Y-75495940D01*
X119530206Y-75525381D01*
X119514373Y-75550235D01*
X119511087Y-75552991D01*
X119511084Y-75552994D01*
X119507806Y-75555745D01*
X119505666Y-75559451D01*
X119505663Y-75559455D01*
X119490077Y-75586452D01*
X119450412Y-75655155D01*
X119430479Y-75768200D01*
X119450412Y-75881245D01*
X119507806Y-75980655D01*
X119511088Y-75983409D01*
X119511090Y-75983411D01*
X119531267Y-76000341D01*
X119595739Y-76054440D01*
X119599768Y-76055906D01*
X119599868Y-76055964D01*
X119621413Y-76081640D01*
X119621415Y-76115157D01*
X119599872Y-76140834D01*
X119599768Y-76140893D01*
X119595740Y-76142360D01*
X119592457Y-76145114D01*
X119592453Y-76145117D01*
X119512343Y-76212338D01*
X119507806Y-76216145D01*
X119505666Y-76219851D01*
X119505663Y-76219855D01*
X119474773Y-76273360D01*
X119450412Y-76315555D01*
X119430479Y-76428600D01*
X119450412Y-76541645D01*
X119507806Y-76641055D01*
X119511088Y-76643809D01*
X119511090Y-76643811D01*
X119526130Y-76656431D01*
X119595739Y-76714840D01*
X119703606Y-76754100D01*
X119754099Y-76754100D01*
X119781323Y-76762359D01*
X119784353Y-76764384D01*
X119784354Y-76764384D01*
X119788369Y-76767067D01*
X119846852Y-76778700D01*
X120383938Y-76778700D01*
X120386348Y-76778700D01*
X120444831Y-76767067D01*
X120511152Y-76722752D01*
X120555467Y-76656431D01*
X120564258Y-76612234D01*
X120583419Y-76582224D01*
X120617842Y-76573110D01*
X120649347Y-76589709D01*
X120683004Y-76628552D01*
X120683006Y-76628554D01*
X120685300Y-76631201D01*
X120796698Y-76702793D01*
X120923754Y-76740100D01*
X121052670Y-76740100D01*
X121056174Y-76740100D01*
X121099183Y-76727471D01*
X121131680Y-76729192D01*
X121155932Y-76750892D01*
X121161241Y-76782997D01*
X121160092Y-76789513D01*
X121159693Y-76791779D01*
X121158769Y-76795947D01*
X121148077Y-76835852D01*
X121148450Y-76840117D01*
X121148450Y-76840120D01*
X121149858Y-76856213D01*
X121147089Y-76877242D01*
X121135692Y-76895131D01*
X121059170Y-76971653D01*
X121059167Y-76971656D01*
X121056140Y-76974684D01*
X121054330Y-76978564D01*
X121054328Y-76978568D01*
X121006976Y-77080115D01*
X121006976Y-77080116D01*
X121005392Y-77083513D01*
X121004903Y-77087222D01*
X121004902Y-77087228D01*
X120999072Y-77131514D01*
X120999071Y-77131524D01*
X120998864Y-77133099D01*
X120998864Y-77134698D01*
X120998864Y-77134699D01*
X120998864Y-77551298D01*
X120998864Y-77551313D01*
X120998865Y-77552900D01*
X120999072Y-77554473D01*
X120999073Y-77554487D01*
X121002677Y-77581862D01*
X121005392Y-77602487D01*
X121006974Y-77605879D01*
X121006975Y-77605883D01*
X121052817Y-77704190D01*
X121056140Y-77711316D01*
X121059170Y-77714346D01*
X121137512Y-77792688D01*
X121151864Y-77827336D01*
X121151864Y-78096077D01*
X121139896Y-78128165D01*
X121090278Y-78185425D01*
X121090274Y-78185430D01*
X121087983Y-78188075D01*
X121086526Y-78191264D01*
X121086526Y-78191265D01*
X121039487Y-78294267D01*
X121032974Y-78308528D01*
X121032475Y-78311993D01*
X121032475Y-78311996D01*
X121025433Y-78360979D01*
X121014129Y-78439600D01*
X121014628Y-78443071D01*
X121025582Y-78519263D01*
X121032974Y-78570672D01*
X121087983Y-78691125D01*
X121090276Y-78693772D01*
X121090278Y-78693774D01*
X121172404Y-78788552D01*
X121172406Y-78788554D01*
X121174700Y-78791201D01*
X121243941Y-78835700D01*
X121279587Y-78858609D01*
X121286098Y-78862793D01*
X121413154Y-78900100D01*
X121542070Y-78900100D01*
X121545574Y-78900100D01*
X121672630Y-78862793D01*
X121784028Y-78791201D01*
X121870745Y-78691125D01*
X121925754Y-78570672D01*
X121944599Y-78439600D01*
X121925754Y-78308528D01*
X121870745Y-78188075D01*
X121818831Y-78128164D01*
X121806864Y-78096077D01*
X121806864Y-77827336D01*
X121821216Y-77792688D01*
X121859290Y-77754614D01*
X121902588Y-77711316D01*
X121953336Y-77602487D01*
X121959864Y-77552901D01*
X121959863Y-77133100D01*
X121953336Y-77083513D01*
X121951751Y-77080115D01*
X121904399Y-76978568D01*
X121902588Y-76974684D01*
X121892084Y-76964180D01*
X121877918Y-76933801D01*
X121886594Y-76901425D01*
X121890994Y-76895143D01*
X121893109Y-76887245D01*
X121898005Y-76875425D01*
X121902097Y-76868339D01*
X121909271Y-76827646D01*
X121910197Y-76823472D01*
X121920886Y-76783584D01*
X121917285Y-76742435D01*
X121917100Y-76738165D01*
X121917100Y-76182514D01*
X121931452Y-76147866D01*
X121936266Y-76143052D01*
X121970914Y-76128700D01*
X122433938Y-76128700D01*
X122436348Y-76128700D01*
X122494831Y-76117067D01*
X122561152Y-76072752D01*
X122605467Y-76006431D01*
X122617100Y-75947948D01*
X122617100Y-75558452D01*
X122605467Y-75499969D01*
X122561152Y-75433648D01*
X122551370Y-75427112D01*
X122498845Y-75392015D01*
X122498844Y-75392014D01*
X122494831Y-75389333D01*
X122490097Y-75388391D01*
X122490094Y-75388390D01*
X122438714Y-75378170D01*
X122438707Y-75378169D01*
X122436348Y-75377700D01*
X121896852Y-75377700D01*
X121894493Y-75378169D01*
X121894485Y-75378170D01*
X121843105Y-75388390D01*
X121843100Y-75388391D01*
X121838369Y-75389333D01*
X121834357Y-75392013D01*
X121834354Y-75392015D01*
X121774452Y-75432041D01*
X121755741Y-75439553D01*
X121755257Y-75439639D01*
X121753447Y-75439958D01*
X121753444Y-75439958D01*
X121749225Y-75440703D01*
X121745512Y-75442845D01*
X121745510Y-75442847D01*
X121742132Y-75444797D01*
X121730330Y-75449685D01*
X121726563Y-75450694D01*
X121726553Y-75450698D01*
X121722421Y-75451806D01*
X121718915Y-75454260D01*
X121718908Y-75454264D01*
X121688578Y-75475501D01*
X121684975Y-75477797D01*
X121677765Y-75481960D01*
X121649204Y-75498450D01*
X121646451Y-75501730D01*
X121646446Y-75501735D01*
X121622648Y-75530096D01*
X121619761Y-75533246D01*
X121369649Y-75783358D01*
X121366499Y-75786245D01*
X121338133Y-75810048D01*
X121338129Y-75810051D01*
X121334850Y-75812804D01*
X121332709Y-75816511D01*
X121332703Y-75816519D01*
X121314191Y-75848582D01*
X121311896Y-75852186D01*
X121296939Y-75873547D01*
X121266264Y-75893519D01*
X121230308Y-75886663D01*
X121197972Y-75865881D01*
X121186178Y-75858301D01*
X121186174Y-75858299D01*
X121183230Y-75856407D01*
X121179870Y-75855420D01*
X121179867Y-75855419D01*
X121059536Y-75820087D01*
X121059534Y-75820086D01*
X121056174Y-75819100D01*
X120923754Y-75819100D01*
X120920394Y-75820086D01*
X120920391Y-75820087D01*
X120800060Y-75855419D01*
X120800054Y-75855421D01*
X120796698Y-75856407D01*
X120793755Y-75858297D01*
X120793749Y-75858301D01*
X120688248Y-75926104D01*
X120688246Y-75926105D01*
X120685300Y-75927999D01*
X120683009Y-75930641D01*
X120683004Y-75930647D01*
X120653132Y-75965123D01*
X120628218Y-75980513D01*
X120598976Y-75978946D01*
X120575850Y-75960981D01*
X120567100Y-75933035D01*
X120567100Y-75560862D01*
X120567100Y-75558452D01*
X120555467Y-75499969D01*
X120525701Y-75455422D01*
X120517443Y-75428200D01*
X120525702Y-75400976D01*
X120531115Y-75392876D01*
X120555467Y-75356431D01*
X120567100Y-75297948D01*
X120567100Y-74908452D01*
X120555467Y-74849969D01*
X120511152Y-74783648D01*
X120506563Y-74780582D01*
X120448845Y-74742015D01*
X120448844Y-74742014D01*
X120444831Y-74739333D01*
X120440097Y-74738391D01*
X120440094Y-74738390D01*
X120388714Y-74728170D01*
X120388707Y-74728169D01*
X120386348Y-74727700D01*
X119846852Y-74727700D01*
X119844493Y-74728169D01*
X119844485Y-74728170D01*
X119793105Y-74738390D01*
X119793100Y-74738391D01*
X119788369Y-74739333D01*
X119787726Y-74739762D01*
X119772955Y-74742700D01*
X118608184Y-74742700D01*
X118573536Y-74728348D01*
X118509816Y-74664628D01*
X118495464Y-74629980D01*
X118495464Y-74267262D01*
X118495464Y-74264852D01*
X118483831Y-74206369D01*
X118479554Y-74199969D01*
X118470019Y-74185699D01*
X118462428Y-74166539D01*
X118461940Y-74163614D01*
X118461648Y-74161610D01*
X118460899Y-74155602D01*
X118455255Y-74110314D01*
X118453470Y-74106664D01*
X118452458Y-74103264D01*
X118451314Y-74099931D01*
X118450646Y-74095927D01*
X118426035Y-74050451D01*
X118425111Y-74048654D01*
X118404198Y-74005876D01*
X118404197Y-74005875D01*
X118402413Y-74002225D01*
X118399540Y-73999352D01*
X118397476Y-73996461D01*
X118395314Y-73993683D01*
X118393383Y-73990114D01*
X118376369Y-73974452D01*
X118355329Y-73955083D01*
X118353868Y-73953680D01*
X118312617Y-73912429D01*
X118298501Y-73882583D01*
X118306524Y-73850557D01*
X118321456Y-73828211D01*
X118321456Y-73828210D01*
X118322795Y-73826207D01*
X118329824Y-73809236D01*
X118345464Y-73730600D01*
X118345464Y-73187340D01*
X118329824Y-73108704D01*
X118322795Y-73091733D01*
X118320992Y-73089035D01*
X118279582Y-73027060D01*
X118278245Y-73025059D01*
X117994505Y-72741319D01*
X117986612Y-72736045D01*
X117929833Y-72698106D01*
X117929827Y-72698103D01*
X117927831Y-72696769D01*
X117925614Y-72695850D01*
X117925607Y-72695847D01*
X117913084Y-72690661D01*
X117913082Y-72690660D01*
X117910860Y-72689740D01*
X117908500Y-72689270D01*
X117908498Y-72689270D01*
X117834580Y-72674568D01*
X117834574Y-72674567D01*
X117832224Y-72674100D01*
X117829820Y-72674100D01*
X116319464Y-72674100D01*
X116284816Y-72659748D01*
X116270464Y-72625100D01*
X116270464Y-71943757D01*
X116270464Y-71941718D01*
X116259225Y-71874689D01*
X116254118Y-71859888D01*
X116225543Y-71807383D01*
X116219697Y-71780628D01*
X116229125Y-71754911D01*
X116250881Y-71738272D01*
X116691253Y-71567672D01*
X116694084Y-71566674D01*
X117299989Y-71373922D01*
X117302890Y-71373097D01*
X117898512Y-71223292D01*
X117927695Y-71224942D01*
G37*
G04 #@! TD.AperFunction*
G04 #@! TA.AperFunction,Conductor*
G36*
X128915986Y-75842575D02*
G01*
X128940376Y-75861661D01*
X128958050Y-75888334D01*
X128959630Y-75890887D01*
X129132819Y-76190859D01*
X129270079Y-76428600D01*
X129277543Y-76441527D01*
X129278967Y-76444178D01*
X129384656Y-76656431D01*
X129562386Y-77013361D01*
X129563647Y-77016103D01*
X129811474Y-77601618D01*
X129812565Y-77604432D01*
X130023892Y-78204134D01*
X130024806Y-78207009D01*
X130198802Y-78818540D01*
X130199539Y-78821467D01*
X130293761Y-79251700D01*
X130329962Y-79417001D01*
X130335567Y-79442592D01*
X130336121Y-79445559D01*
X130433650Y-80073847D01*
X130434021Y-80076842D01*
X130492687Y-80709953D01*
X130492873Y-80712965D01*
X130512453Y-81348490D01*
X130512453Y-81351508D01*
X130492873Y-81987034D01*
X130492687Y-81990046D01*
X130434021Y-82623157D01*
X130433650Y-82626152D01*
X130336121Y-83254440D01*
X130335567Y-83257407D01*
X130199539Y-83878532D01*
X130198802Y-83881459D01*
X130024806Y-84492990D01*
X130023892Y-84495865D01*
X129812567Y-85095561D01*
X129811476Y-85098376D01*
X129745707Y-85253760D01*
X129724684Y-85277323D01*
X129693651Y-85283167D01*
X129665498Y-85268865D01*
X129621988Y-85224236D01*
X129582148Y-85203552D01*
X129565747Y-85195037D01*
X129565744Y-85195035D01*
X129564011Y-85194136D01*
X129562157Y-85193523D01*
X129562152Y-85193521D01*
X129543315Y-85187295D01*
X129534808Y-85184483D01*
X129532881Y-85184172D01*
X129532874Y-85184171D01*
X129472244Y-85174411D01*
X129472243Y-85174410D01*
X129470312Y-85174100D01*
X129468355Y-85174100D01*
X129069464Y-85174100D01*
X129034816Y-85159748D01*
X129020464Y-85125100D01*
X129020464Y-83702851D01*
X129034203Y-83668827D01*
X129067713Y-83653882D01*
X129535104Y-83637190D01*
X129609787Y-83620244D01*
X129642685Y-83605924D01*
X129705973Y-83562816D01*
X129720917Y-83547873D01*
X129746473Y-83516735D01*
X129757096Y-83500838D01*
X129787785Y-83426752D01*
X129791515Y-83408000D01*
X129795464Y-83367909D01*
X129795464Y-83343169D01*
X129790768Y-83299486D01*
X129786340Y-83279131D01*
X129772466Y-83237447D01*
X129770703Y-83233588D01*
X129766773Y-83220205D01*
X129758343Y-83161569D01*
X129758343Y-83147631D01*
X129766775Y-83088987D01*
X129770704Y-83075609D01*
X129772467Y-83071749D01*
X129786337Y-83030078D01*
X129790766Y-83009723D01*
X129795464Y-82966031D01*
X129795464Y-82493169D01*
X129790767Y-82449484D01*
X129786339Y-82429130D01*
X129772468Y-82387452D01*
X129765815Y-82372883D01*
X129734195Y-82323678D01*
X129716115Y-82302811D01*
X129671909Y-82264504D01*
X129668726Y-82263050D01*
X129668724Y-82263049D01*
X129620283Y-82240926D01*
X129620277Y-82240923D01*
X129618701Y-82240204D01*
X129617037Y-82239715D01*
X129617028Y-82239712D01*
X129593887Y-82232917D01*
X129593877Y-82232914D01*
X129592209Y-82232425D01*
X129590487Y-82232177D01*
X129590476Y-82232175D01*
X129536044Y-82224349D01*
X129536041Y-82224348D01*
X129534311Y-82224100D01*
X128111083Y-82224100D01*
X128083860Y-82215842D01*
X128065813Y-82193851D01*
X128063025Y-82165541D01*
X128076435Y-82140452D01*
X128379388Y-81837500D01*
X128747435Y-81469452D01*
X128782084Y-81455100D01*
X129077286Y-81455100D01*
X129079210Y-81455100D01*
X129177384Y-81439551D01*
X129295715Y-81379258D01*
X129389622Y-81285351D01*
X129449915Y-81167020D01*
X129465464Y-81068846D01*
X129465464Y-80565354D01*
X129449915Y-80467180D01*
X129447097Y-80461650D01*
X129420518Y-80409486D01*
X129389622Y-80348849D01*
X129295715Y-80254942D01*
X129265313Y-80239451D01*
X129180818Y-80196398D01*
X129180814Y-80196396D01*
X129177384Y-80194649D01*
X129173579Y-80194046D01*
X129173578Y-80194046D01*
X129081108Y-80179400D01*
X129081100Y-80179399D01*
X129079210Y-80179100D01*
X128250718Y-80179100D01*
X128248828Y-80179399D01*
X128248819Y-80179400D01*
X128156349Y-80194046D01*
X128156346Y-80194046D01*
X128152544Y-80194649D01*
X128149115Y-80196395D01*
X128149109Y-80196398D01*
X128037647Y-80253192D01*
X128037645Y-80253192D01*
X128034213Y-80254942D01*
X128031489Y-80257665D01*
X128031486Y-80257668D01*
X127943032Y-80346122D01*
X127943029Y-80346125D01*
X127940306Y-80348849D01*
X127938559Y-80352277D01*
X127938555Y-80352283D01*
X127894004Y-80439720D01*
X127871545Y-80461650D01*
X127840386Y-80465451D01*
X127813314Y-80449563D01*
X127802117Y-80436642D01*
X127794628Y-80427999D01*
X127756481Y-80403483D01*
X127686178Y-80358301D01*
X127686174Y-80358299D01*
X127683230Y-80356407D01*
X127679870Y-80355420D01*
X127679867Y-80355419D01*
X127559536Y-80320087D01*
X127559534Y-80320086D01*
X127556174Y-80319100D01*
X127423754Y-80319100D01*
X127420394Y-80320086D01*
X127420391Y-80320087D01*
X127300060Y-80355419D01*
X127300054Y-80355421D01*
X127296698Y-80356407D01*
X127293755Y-80358297D01*
X127293749Y-80358301D01*
X127188248Y-80426104D01*
X127188246Y-80426105D01*
X127185300Y-80427999D01*
X127183005Y-80430647D01*
X127180370Y-80432931D01*
X127148281Y-80444900D01*
X127133061Y-80444900D01*
X127105838Y-80436642D01*
X127091977Y-80427380D01*
X127091976Y-80427379D01*
X127087966Y-80424700D01*
X127083235Y-80423759D01*
X127083233Y-80423758D01*
X127023971Y-80411970D01*
X127023966Y-80411969D01*
X127021606Y-80411500D01*
X127019196Y-80411500D01*
X126305700Y-80411500D01*
X126271052Y-80397148D01*
X126256700Y-80362500D01*
X126256699Y-79735500D01*
X126263264Y-79711000D01*
X126281199Y-79693065D01*
X126305699Y-79686500D01*
X127424521Y-79686500D01*
X127426910Y-79686500D01*
X127504874Y-79671137D01*
X127522004Y-79664113D01*
X127588307Y-79620322D01*
X127633042Y-79554652D01*
X127640310Y-79537625D01*
X127656787Y-79459884D01*
X127681823Y-77707323D01*
X127681818Y-77706961D01*
X127681779Y-77704190D01*
X127688111Y-77679399D01*
X127706075Y-77661180D01*
X127730774Y-77654500D01*
X128643745Y-77654500D01*
X128645367Y-77654500D01*
X128699091Y-77647353D01*
X128711404Y-77644018D01*
X128761385Y-77623079D01*
X128804154Y-77589803D01*
X128813102Y-77580710D01*
X128845689Y-77537405D01*
X128865822Y-77487087D01*
X128868958Y-77474721D01*
X128875237Y-77420892D01*
X128850537Y-75889518D01*
X128859851Y-75859980D01*
X128885020Y-75841927D01*
X128915986Y-75842575D01*
G37*
G04 #@! TD.AperFunction*
G04 #@! TA.AperFunction,Conductor*
G36*
X122796660Y-72984748D02*
G01*
X122762012Y-72999100D01*
X122499101Y-72999100D01*
X122499085Y-72999100D01*
X122497500Y-72999101D01*
X122495927Y-72999307D01*
X122495912Y-72999309D01*
X122451627Y-73005139D01*
X122451626Y-73005139D01*
X122447913Y-73005628D01*
X122444522Y-73007209D01*
X122444516Y-73007211D01*
X122342968Y-73054564D01*
X122342964Y-73054566D01*
X122339084Y-73056376D01*
X122336056Y-73059403D01*
X122336053Y-73059406D01*
X122260748Y-73134712D01*
X122226100Y-73149064D01*
X122191452Y-73134712D01*
X122113546Y-73056806D01*
X122110516Y-73053776D01*
X122106632Y-73051965D01*
X122106631Y-73051964D01*
X122005084Y-73004612D01*
X122005083Y-73004611D01*
X122001687Y-73003028D01*
X121997975Y-73002539D01*
X121997971Y-73002538D01*
X121953685Y-72996708D01*
X121953676Y-72996707D01*
X121952101Y-72996500D01*
X121950500Y-72996500D01*
X121533901Y-72996500D01*
X121533885Y-72996500D01*
X121532300Y-72996501D01*
X121530727Y-72996707D01*
X121530712Y-72996709D01*
X121486427Y-73002539D01*
X121486426Y-73002539D01*
X121482713Y-73003028D01*
X121479322Y-73004609D01*
X121479316Y-73004611D01*
X121377768Y-73051964D01*
X121377764Y-73051966D01*
X121373884Y-73053776D01*
X121370856Y-73056803D01*
X121370853Y-73056806D01*
X121292006Y-73135653D01*
X121292003Y-73135656D01*
X121288976Y-73138684D01*
X121287167Y-73142561D01*
X121287164Y-73142567D01*
X121285281Y-73146608D01*
X121267200Y-73167226D01*
X121240872Y-73174900D01*
X120839109Y-73174900D01*
X120822348Y-73171944D01*
X120819436Y-73170884D01*
X120798660Y-73156336D01*
X120787941Y-73133348D01*
X120784390Y-73113211D01*
X120779601Y-73086048D01*
X120777296Y-73072974D01*
X120777295Y-73072973D01*
X120776552Y-73068755D01*
X120739512Y-73004600D01*
X121089964Y-73004600D01*
X121089964Y-72804600D01*
X122976808Y-72804600D01*
X122796660Y-72984748D01*
G37*
G04 #@! TD.AperFunction*
G04 #@! TA.AperFunction,Conductor*
G36*
X123177766Y-72135830D02*
G01*
X123193659Y-72146449D01*
X123248113Y-72200904D01*
X123262464Y-72235551D01*
X123262464Y-72498649D01*
X123258734Y-72517401D01*
X123248112Y-72533297D01*
X123014964Y-72766444D01*
X123014964Y-72254600D01*
X122923986Y-72245188D01*
X122983230Y-72227793D01*
X123094628Y-72156201D01*
X123100859Y-72149009D01*
X123117532Y-72136528D01*
X123137888Y-72132100D01*
X123159014Y-72132100D01*
X123177766Y-72135830D01*
G37*
G04 #@! TD.AperFunction*
G04 #@! TA.AperFunction,Conductor*
G36*
X120176608Y-72432469D02*
G01*
X120167509Y-72429600D01*
X120182120Y-72429600D01*
X120176608Y-72432469D01*
G37*
G04 #@! TD.AperFunction*
G04 #@! TA.AperFunction,Conductor*
G36*
X120460929Y-70982512D02*
G01*
X120520050Y-70986158D01*
X121095554Y-71021654D01*
X121098527Y-71021929D01*
X121729578Y-71100071D01*
X121732521Y-71100528D01*
X122357558Y-71217367D01*
X122360475Y-71218006D01*
X122613039Y-71281529D01*
X122639433Y-71298544D01*
X122650078Y-71328088D01*
X122640600Y-71358027D01*
X122614894Y-71376064D01*
X122600057Y-71380420D01*
X122600052Y-71380421D01*
X122596698Y-71381407D01*
X122593755Y-71383297D01*
X122593749Y-71383301D01*
X122488248Y-71451104D01*
X122488246Y-71451105D01*
X122485300Y-71452999D01*
X122483009Y-71455641D01*
X122483004Y-71455647D01*
X122400878Y-71550425D01*
X122400874Y-71550430D01*
X122398583Y-71553075D01*
X122397126Y-71556264D01*
X122397126Y-71556265D01*
X122358681Y-71640449D01*
X122343574Y-71673528D01*
X122343075Y-71676993D01*
X122343075Y-71676996D01*
X122326080Y-71795204D01*
X122324729Y-71804600D01*
X122325228Y-71808071D01*
X122342052Y-71925090D01*
X122343574Y-71935672D01*
X122398583Y-72056125D01*
X122400876Y-72058772D01*
X122400878Y-72058774D01*
X122483004Y-72153552D01*
X122483006Y-72153554D01*
X122485300Y-72156201D01*
X122566168Y-72208172D01*
X122289964Y-72179600D01*
X122289964Y-71329600D01*
X121964964Y-71204600D01*
X121214964Y-71079600D01*
X120064964Y-71079600D01*
X120064964Y-72335096D01*
X120064530Y-72332957D01*
X120039095Y-72267674D01*
X120030765Y-72253866D01*
X120007436Y-72226952D01*
X119995464Y-72194860D01*
X119995464Y-72130003D01*
X119995464Y-72127659D01*
X119980596Y-72050915D01*
X119973902Y-72034287D01*
X119931455Y-71968653D01*
X119867570Y-71923618D01*
X119851223Y-71916265D01*
X119848951Y-71915730D01*
X119848943Y-71915727D01*
X119777415Y-71898878D01*
X119777406Y-71898876D01*
X119775136Y-71898342D01*
X119772797Y-71898248D01*
X119772794Y-71898248D01*
X119404283Y-71883507D01*
X119371864Y-71869462D01*
X119357317Y-71837265D01*
X119321302Y-71188977D01*
X119304371Y-71117969D01*
X119297642Y-71102597D01*
X119288597Y-71089123D01*
X119280573Y-71056486D01*
X119295464Y-71026355D01*
X119326265Y-71012907D01*
X119819070Y-70982511D01*
X119822086Y-70982419D01*
X120457913Y-70982419D01*
X120460929Y-70982512D01*
G37*
G04 #@! TD.AperFunction*
G04 #@! TA.AperFunction,Conductor*
G36*
X119094235Y-71177797D02*
G01*
X119109389Y-71185004D01*
X119116118Y-71200376D01*
X119164715Y-72075128D01*
X119164715Y-72075129D01*
X119164964Y-72079600D01*
X119766923Y-72103678D01*
X119783270Y-72111031D01*
X119789964Y-72127659D01*
X119789964Y-72354600D01*
X119839615Y-72354600D01*
X119854805Y-72360018D01*
X119863135Y-72373826D01*
X119875718Y-72435833D01*
X119921908Y-72503263D01*
X119932534Y-72510071D01*
X119935740Y-72512530D01*
X119998728Y-72569951D01*
X120001893Y-72572777D01*
X120001966Y-72572841D01*
X120002634Y-72573425D01*
X120002721Y-72573501D01*
X120002994Y-72573735D01*
X120004094Y-72574740D01*
X120005623Y-72576226D01*
X120005653Y-72576255D01*
X120005805Y-72576402D01*
X120005948Y-72576532D01*
X120005972Y-72576555D01*
X120007136Y-72577616D01*
X120012920Y-72585657D01*
X120014964Y-72595349D01*
X120014964Y-72680600D01*
X120007935Y-72697571D01*
X119990964Y-72704600D01*
X119912052Y-72704600D01*
X119900052Y-72701384D01*
X119891267Y-72692600D01*
X119888243Y-72687362D01*
X119887194Y-72685545D01*
X119819982Y-72629147D01*
X119800867Y-72613107D01*
X119800864Y-72613105D01*
X119799261Y-72611760D01*
X119775229Y-72603013D01*
X119693368Y-72573218D01*
X119693365Y-72573217D01*
X119691394Y-72572500D01*
X119576606Y-72572500D01*
X119574635Y-72573217D01*
X119574631Y-72573218D01*
X119470709Y-72611043D01*
X119470707Y-72611043D01*
X119468740Y-72611760D01*
X119467138Y-72613103D01*
X119467133Y-72613107D01*
X119382414Y-72684195D01*
X119382411Y-72684197D01*
X119380806Y-72685545D01*
X119379759Y-72687358D01*
X119379756Y-72687362D01*
X119376733Y-72692600D01*
X119367948Y-72701384D01*
X119355948Y-72704600D01*
X118531576Y-72704600D01*
X118514605Y-72697571D01*
X118253728Y-72436694D01*
X118246699Y-72419723D01*
X118246699Y-72167289D01*
X118246699Y-72166500D01*
X118240172Y-72116913D01*
X118234000Y-72103678D01*
X118202113Y-72035296D01*
X118189424Y-72008084D01*
X118171993Y-71990653D01*
X118164964Y-71973682D01*
X118164964Y-71967471D01*
X118167133Y-71957501D01*
X118210642Y-71862230D01*
X118211354Y-71860672D01*
X118230199Y-71729600D01*
X118211354Y-71598528D01*
X118205170Y-71584987D01*
X118167133Y-71501697D01*
X118164964Y-71491727D01*
X118164964Y-71224275D01*
X118170404Y-71209059D01*
X118184256Y-71200741D01*
X118536599Y-71130272D01*
X118543380Y-71129897D01*
X119094235Y-71177797D01*
G37*
G04 #@! TD.AperFunction*
G04 #@! TA.AperFunction,Conductor*
G36*
X129560803Y-82437379D02*
G01*
X129578883Y-82458246D01*
X129585536Y-82472815D01*
X129589964Y-82493169D01*
X129589964Y-82966031D01*
X129585535Y-82986386D01*
X129568574Y-83023528D01*
X129549729Y-83154600D01*
X129550228Y-83158071D01*
X129564299Y-83255942D01*
X129568574Y-83285672D01*
X129570029Y-83288858D01*
X129585536Y-83322814D01*
X129589964Y-83343169D01*
X129589964Y-83367909D01*
X129586234Y-83386661D01*
X129575611Y-83402558D01*
X129560667Y-83417501D01*
X129527769Y-83431821D01*
X128890832Y-83454569D01*
X128889083Y-83454600D01*
X128814964Y-83454600D01*
X128814964Y-85379600D01*
X129470312Y-85379600D01*
X129499515Y-85389253D01*
X129517212Y-85414408D01*
X129516431Y-85445155D01*
X129191987Y-86348963D01*
X129186638Y-86359588D01*
X128394375Y-87547983D01*
X128383688Y-87559481D01*
X127953235Y-87894278D01*
X127923152Y-87904600D01*
X127769972Y-87904600D01*
X127743480Y-87896821D01*
X127669928Y-87849551D01*
X127669924Y-87849549D01*
X127666980Y-87847657D01*
X127663620Y-87846670D01*
X127663617Y-87846669D01*
X127543286Y-87811337D01*
X127543284Y-87811336D01*
X127539924Y-87810350D01*
X127407504Y-87810350D01*
X127404144Y-87811336D01*
X127404141Y-87811337D01*
X127283810Y-87846669D01*
X127283804Y-87846671D01*
X127280448Y-87847657D01*
X127277505Y-87849547D01*
X127277499Y-87849551D01*
X127203948Y-87896821D01*
X127177456Y-87904600D01*
X126839742Y-87904600D01*
X126815020Y-87897906D01*
X126797052Y-87879653D01*
X126790748Y-87854828D01*
X126839811Y-84739304D01*
X126839964Y-84729600D01*
X126830260Y-84729384D01*
X125763905Y-84705687D01*
X125729601Y-84690586D01*
X125716005Y-84655657D01*
X125719823Y-84476200D01*
X125728068Y-84450027D01*
X125744597Y-84425292D01*
X125756700Y-84364447D01*
X125756699Y-84037068D01*
X125757444Y-84028560D01*
X125769741Y-83958825D01*
X125769741Y-83958819D01*
X125770485Y-83954600D01*
X125757443Y-83880637D01*
X125756699Y-83872128D01*
X125756699Y-83596500D01*
X125771051Y-83561852D01*
X125805699Y-83547500D01*
X126038538Y-83547500D01*
X126040948Y-83547500D01*
X126083354Y-83539065D01*
X126102470Y-83539065D01*
X126120132Y-83546380D01*
X126154434Y-83569300D01*
X126220794Y-83582500D01*
X127019196Y-83582500D01*
X127021606Y-83582500D01*
X127087966Y-83569300D01*
X127135022Y-83537857D01*
X127162245Y-83529600D01*
X128005217Y-83529600D01*
X128014964Y-83529600D01*
X128014964Y-82478600D01*
X128029316Y-82443952D01*
X128063964Y-82429600D01*
X129534311Y-82429600D01*
X129560803Y-82437379D01*
G37*
G04 #@! TD.AperFunction*
G04 #@! TA.AperFunction,Conductor*
G36*
X124264964Y-71929600D02*
G01*
X125039964Y-72304600D01*
X126414964Y-73204600D01*
X126414964Y-73879600D01*
X125664964Y-73879600D01*
X125664964Y-75054600D01*
X123539964Y-75029600D01*
X123489964Y-73304600D01*
X123939964Y-73279600D01*
X123939964Y-73129600D01*
X123918569Y-72081263D01*
X123920000Y-72064919D01*
X123921251Y-72050616D01*
X123917670Y-72037255D01*
X123914964Y-71904600D01*
X124264964Y-71929600D01*
G37*
G04 #@! TD.AperFunction*
G04 #@! TA.AperFunction,Conductor*
G36*
X121964964Y-71204600D02*
G01*
X122289964Y-71329600D01*
X122289964Y-72179600D01*
X122566167Y-72208171D01*
X122596698Y-72227793D01*
X122723754Y-72265100D01*
X122854456Y-72265100D01*
X122856174Y-72265100D01*
X122923987Y-72245188D01*
X123014964Y-72254600D01*
X123014964Y-72766445D01*
X122976809Y-72804600D01*
X121089964Y-72804600D01*
X121089964Y-73004600D01*
X120739513Y-73004600D01*
X120720207Y-72971162D01*
X120719158Y-72969345D01*
X120661285Y-72920784D01*
X120653721Y-72909283D01*
X120653721Y-72895517D01*
X120661286Y-72884015D01*
X120719158Y-72835455D01*
X120776552Y-72736045D01*
X120796485Y-72623000D01*
X120776552Y-72509955D01*
X120719158Y-72410545D01*
X120685365Y-72382189D01*
X120632831Y-72338107D01*
X120632828Y-72338105D01*
X120631225Y-72336760D01*
X120616603Y-72331438D01*
X120525332Y-72298218D01*
X120525329Y-72298217D01*
X120523358Y-72297500D01*
X120408570Y-72297500D01*
X120406599Y-72298217D01*
X120406595Y-72298218D01*
X120302673Y-72336043D01*
X120302671Y-72336043D01*
X120300704Y-72336760D01*
X120299102Y-72338103D01*
X120299097Y-72338107D01*
X120214378Y-72409195D01*
X120214375Y-72409197D01*
X120212770Y-72410545D01*
X120211721Y-72412360D01*
X120211719Y-72412364D01*
X120201767Y-72429600D01*
X120149803Y-72429600D01*
X120144261Y-72424547D01*
X120144044Y-72424322D01*
X120143548Y-72423462D01*
X120137912Y-72418732D01*
X120137171Y-72418084D01*
X120073232Y-72359797D01*
X120071590Y-72358300D01*
X120064964Y-72355733D01*
X120064964Y-71079600D01*
X121214964Y-71079600D01*
X121964964Y-71204600D01*
G37*
G04 #@! TD.AperFunction*
G04 #@! TA.AperFunction,Conductor*
G36*
X113663661Y-82132179D02*
G01*
X113672157Y-82139362D01*
X113814981Y-82333195D01*
X114010285Y-82598250D01*
X114014964Y-82612487D01*
X114014964Y-83029600D01*
X114965964Y-83029600D01*
X114982935Y-83036629D01*
X114989964Y-83053600D01*
X114989964Y-83530600D01*
X114982935Y-83547571D01*
X114965964Y-83554600D01*
X114935740Y-83554600D01*
X114926046Y-83552555D01*
X114852642Y-83520144D01*
X114850991Y-83519415D01*
X114849204Y-83519207D01*
X114849198Y-83519206D01*
X114826555Y-83516580D01*
X114826554Y-83516579D01*
X114825865Y-83516500D01*
X114825170Y-83516500D01*
X114536830Y-83516500D01*
X114536812Y-83516500D01*
X114536136Y-83516501D01*
X114535448Y-83516580D01*
X114535444Y-83516581D01*
X114512800Y-83519207D01*
X114512798Y-83519207D01*
X114511009Y-83519415D01*
X114509363Y-83520141D01*
X114509358Y-83520143D01*
X114435954Y-83552555D01*
X114426260Y-83554600D01*
X113589964Y-83554600D01*
X113590169Y-83557879D01*
X113590169Y-83557880D01*
X113638370Y-84329103D01*
X113635683Y-84341725D01*
X113626847Y-84351130D01*
X113614417Y-84354600D01*
X113334791Y-84354600D01*
X113324648Y-84352351D01*
X113226118Y-84306405D01*
X113226116Y-84306404D01*
X113224451Y-84305628D01*
X113222629Y-84305388D01*
X113175643Y-84299202D01*
X113175636Y-84299201D01*
X113174865Y-84299100D01*
X113174077Y-84299100D01*
X112755852Y-84299100D01*
X112755836Y-84299100D01*
X112755064Y-84299101D01*
X112754295Y-84299202D01*
X112754283Y-84299203D01*
X112707297Y-84305388D01*
X112707294Y-84305388D01*
X112705477Y-84305628D01*
X112703817Y-84306401D01*
X112703810Y-84306404D01*
X112605280Y-84352351D01*
X112595137Y-84354600D01*
X110955528Y-84354600D01*
X110948766Y-84353628D01*
X110832821Y-84319583D01*
X110832816Y-84319582D01*
X110831174Y-84319100D01*
X110698754Y-84319100D01*
X110697111Y-84319582D01*
X110697106Y-84319583D01*
X110581162Y-84353628D01*
X110574400Y-84354600D01*
X110233942Y-84354600D01*
X110219479Y-84349753D01*
X110210858Y-84337168D01*
X110208271Y-84328075D01*
X110205135Y-84317055D01*
X110205012Y-84316603D01*
X110030447Y-83650083D01*
X110030240Y-83649220D01*
X109944268Y-83256656D01*
X109943999Y-83255217D01*
X109938827Y-83221900D01*
X109846231Y-82625387D01*
X109846050Y-82623928D01*
X109844521Y-82607432D01*
X109821205Y-82355814D01*
X109823620Y-82342902D01*
X109832470Y-82333195D01*
X109845104Y-82329600D01*
X110840964Y-82329600D01*
X110857935Y-82336629D01*
X110864964Y-82353600D01*
X110864964Y-82604600D01*
X111089235Y-82604600D01*
X111100545Y-82607432D01*
X111106318Y-82612662D01*
X111106665Y-82612316D01*
X111108333Y-82613985D01*
X111109648Y-82615952D01*
X111111612Y-82617264D01*
X111111613Y-82617265D01*
X111164847Y-82652836D01*
X111175969Y-82660267D01*
X111234452Y-82671900D01*
X111579700Y-82671900D01*
X111596671Y-82678929D01*
X111603700Y-82695900D01*
X111603700Y-83041148D01*
X111603929Y-83042300D01*
X111603930Y-83042308D01*
X111614503Y-83095458D01*
X111614964Y-83100140D01*
X111614964Y-83554600D01*
X111619737Y-83554600D01*
X113285191Y-83554600D01*
X113289964Y-83554600D01*
X113289964Y-83134029D01*
X113296953Y-83117153D01*
X113298752Y-83115952D01*
X113343067Y-83049631D01*
X113354700Y-82991148D01*
X113354700Y-82651652D01*
X113343067Y-82593169D01*
X113298752Y-82526848D01*
X113296953Y-82525646D01*
X113289964Y-82508771D01*
X113289964Y-82484373D01*
X113289964Y-82479600D01*
X113285191Y-82479600D01*
X113220050Y-82479600D01*
X113215368Y-82479139D01*
X113175108Y-82471130D01*
X113175100Y-82471129D01*
X113173948Y-82470900D01*
X112784452Y-82470900D01*
X112783300Y-82471129D01*
X112783291Y-82471130D01*
X112768646Y-82474044D01*
X112754780Y-82472678D01*
X112744009Y-82463839D01*
X112739964Y-82450505D01*
X112739964Y-82192295D01*
X112744009Y-82178961D01*
X112754780Y-82170122D01*
X112768646Y-82168756D01*
X112784452Y-82171900D01*
X113172764Y-82171900D01*
X113173948Y-82171900D01*
X113232431Y-82160267D01*
X113261070Y-82141130D01*
X113266179Y-82138541D01*
X113286770Y-82131046D01*
X113294978Y-82129600D01*
X113652837Y-82129600D01*
X113663661Y-82132179D01*
G37*
G04 #@! TD.AperFunction*
G04 #@! TA.AperFunction,Conductor*
G36*
X127627568Y-74581259D02*
G01*
X127636091Y-74588142D01*
X128639698Y-75867741D01*
X128644896Y-75882405D01*
X128669764Y-77424206D01*
X128666628Y-77436572D01*
X128657680Y-77445665D01*
X128645367Y-77449000D01*
X127450964Y-77449000D01*
X127451304Y-77452400D01*
X127451304Y-77452401D01*
X127476225Y-77701611D01*
X127476344Y-77704388D01*
X127451337Y-79454938D01*
X127451308Y-79456949D01*
X127444040Y-79473976D01*
X127426910Y-79481000D01*
X126177896Y-79481000D01*
X126164340Y-79476888D01*
X126131490Y-79454938D01*
X126131489Y-79454937D01*
X126129492Y-79453603D01*
X126127136Y-79453134D01*
X126127133Y-79453133D01*
X126069820Y-79441733D01*
X126069816Y-79441732D01*
X126068647Y-79441500D01*
X126067451Y-79441500D01*
X125774949Y-79441500D01*
X125774938Y-79441500D01*
X125773754Y-79441501D01*
X125772585Y-79441733D01*
X125772580Y-79441734D01*
X125715266Y-79453133D01*
X125715261Y-79453134D01*
X125712908Y-79453603D01*
X125710911Y-79454936D01*
X125710909Y-79454938D01*
X125678060Y-79476888D01*
X125664504Y-79481000D01*
X125571364Y-79481000D01*
X125571364Y-79485853D01*
X125571364Y-80421800D01*
X125564217Y-80439053D01*
X125546964Y-80446200D01*
X125290964Y-80446200D01*
X125273711Y-80439053D01*
X125266564Y-80421800D01*
X125266564Y-79953969D01*
X125266935Y-79949732D01*
X125270114Y-79931704D01*
X125270485Y-79929600D01*
X125266935Y-79909467D01*
X125266564Y-79905230D01*
X125266564Y-78870400D01*
X125273711Y-78853147D01*
X125290964Y-78846000D01*
X126201511Y-78846000D01*
X126206364Y-78846000D01*
X126206364Y-74603200D01*
X126213511Y-74585947D01*
X126230764Y-74578800D01*
X127616892Y-74578800D01*
X127627568Y-74581259D01*
G37*
G04 #@! TD.AperFunction*
G04 #@! TA.AperFunction,Conductor*
G36*
X116059857Y-71926917D02*
G01*
X116064964Y-71941718D01*
X116064964Y-72879600D01*
X117832224Y-72879600D01*
X117849195Y-72886629D01*
X118132935Y-73170369D01*
X118139964Y-73187340D01*
X118139964Y-73730600D01*
X118132935Y-73747571D01*
X118115964Y-73754600D01*
X115262170Y-73754600D01*
X115245871Y-73748216D01*
X115238242Y-73732461D01*
X115205036Y-73305526D01*
X115204964Y-73303665D01*
X115204964Y-72594888D01*
X115204964Y-72594600D01*
X115195581Y-72388187D01*
X115198161Y-72376225D01*
X115206304Y-72367090D01*
X115563343Y-72130673D01*
X115566737Y-72128801D01*
X116031115Y-71919831D01*
X116046708Y-71918416D01*
X116059857Y-71926917D01*
G37*
G04 #@! TD.AperFunction*
M02*
